<?xml version="1.0" encoding="utf-8"?>
<!-- Generator: Adobe Illustrator 18.1.1, SVG Export Plug-In . SVG Version: 6.00 Build 0)  -->
<svg version="1.1" id="layer" xmlns="http://www.w3.org/2000/svg" xmlns:xlink="http://www.w3.org/1999/xlink" x="0px" y="0px"
	 viewBox="0 0 604.5 514.9" enable-background="new 0 0 604.5 514.9" xml:space="preserve">
<g>
	<g>
		<path fill="#B6B0AD" d="M140.7,466.9c0-11.5,1.6-19.7,4.9-24.5c2.9-4.3,7.5-6.5,13.6-6.5c6.1,0,10.6,2.2,13.6,6.5
			c3.3,4.7,4.9,12.9,4.9,24.5c0,11.6-1.6,19.8-4.9,24.6c-2.9,4.3-7.4,6.4-13.6,6.4c-6.2,0-10.7-2.1-13.6-6.4
			C142.4,486.7,140.7,478.5,140.7,466.9z M148.5,466.9c0,9.4,1.1,16.3,3.2,20.7c1.7,3.5,4.2,5.2,7.5,5.2c3.3,0,5.7-1.7,7.5-5.2
			c2.2-4.3,3.3-11.2,3.3-20.7c0-17.2-3.6-25.8-10.8-25.8c-3.3,0-5.8,1.7-7.5,5.2C149.6,450.6,148.5,457.5,148.5,466.9z"/>
		<path fill="#B6B0AD" d="M182.9,459.6V454H213v5.6h-11.2v37.5h-7.7v-37.5H182.9z"/>
		<path fill="#B6B0AD" d="M236.2,497.1v-6.9c4.3-5.4,7.9-9.9,10.8-13.4c2.9-3.5,5.2-6.6,6.9-9.2c1.7-2.6,2.9-4.9,3.7-7
			s1.1-4.3,1.1-6.6c0-4.5-0.8-7.8-2.5-9.6c-1.6-1.9-4-2.8-7-2.8h-12.1v-3.9c3.4-1.1,7.8-1.7,13.2-1.7c5.4,0,9.5,1.4,12.1,4.2
			c2.6,2.8,4,7.4,4,13.9c0,2.8-0.4,5.4-1.3,7.8c-0.9,2.4-2.2,5-4,7.8s-4.1,5.9-6.9,9.3c-2.8,3.4-6,7.5-9.8,12.2h21.9v6H236.2z"/>
		<path fill="#B6B0AD" d="M269.8,442.8v-4.3c3.4-1.1,7.7-1.7,13-1.7h4.3v60.3h-7.7v-54.3H269.8z"/>
		<path fill="#B6B0AD" d="M320.2,497.1V454h25v5.6h-17.2v37.5H320.2z"/>
		<path fill="#B6B0AD" d="M349.8,475.6c0-11.9,3-19,9.1-21.3c2-0.7,4.3-1.1,6.9-1.1c5.4,0,9.4,1.6,11.9,4.9
			c2.7,3.5,4.1,9.4,4.1,17.5c0,11.9-3,19-9.1,21.3c-2,0.7-4.3,1.1-6.9,1.1c-5.4,0-9.3-1.6-11.8-4.9
			C351.2,489.5,349.8,483.7,349.8,475.6z M357.6,475.6c0,11.8,2.7,17.7,8.2,17.7s8.2-5.9,8.2-17.7s-2.7-17.7-8.2-17.7
			S357.6,463.8,357.6,475.6z"/>
		<path fill="#B6B0AD" d="M386.4,491.5h3.9c0.6-1,1.4-2.4,2.3-4.4c0.9-1.9,1.4-4.6,1.6-8.1l1.3-25h25.4v37.5h5.2v18.1h-4.8
			c-1.1-3-2-7.1-2.6-12.5h-24.9c-0.5,5.1-1.4,9.3-2.6,12.5h-4.8V491.5z M398.1,491.5h15.1v-31.9H403l-1.1,19.4
			c-0.2,3.4-0.7,6.1-1.6,8.1S398.7,490.5,398.1,491.5z"/>
		<path fill="#B6B0AD" d="M432,484.2c0-7.3,2.6-11.6,7.7-12.8c1.6-0.4,3.4-0.5,5.5-0.5c2.1,0,4.9,0.3,8.3,0.8v-4
			c0-5.4-1.8-8.5-5.5-9.4c-1.2-0.3-2.5-0.4-4-0.4h-8.6v-3.1c3.3-1.1,6.5-1.7,9.6-1.7c3.1,0,5.6,0.2,7.5,0.6s3.5,1.1,4.8,2.2
			c2.6,2.2,3.9,6.1,3.9,11.9v29.3h-6.4l-0.4-2.6H454c-2.3,2.3-5.3,3.4-9,3.4c-4.3,0-7.4-0.9-9.3-2.6
			C433.2,493.1,432,489.4,432,484.2z M439.8,484.2c0,4.6,1.6,7.3,4.7,8.2c1,0.3,2,0.4,3.1,0.4c2.4,0,4.4-0.6,6-1.7V476h-6
			c-2.2,0-4,0.6-5.5,1.7C440.5,478.8,439.8,481,439.8,484.2z"/>
	</g>
</g>
<circle fill="#8A0A00" cx="302.2" cy="193" r="192.5"/>
<circle fill="#FFFFFF" cx="302.2" cy="193" r="182.9"/>
<circle fill="#8A0A00" cx="302.2" cy="193" r="167.4"/>
<g>
	<g>
		<path fill="#FFFFFF" d="M263.3,159.1c0,2.7-0.3,5.3-0.9,7.9c-0.6,2.5-1.6,5.2-3,7.9c-1.4,2.7-3.2,5.6-5.4,8.6c-2.3,3-5,6.3-8.4,10
			c-3.3,3.6-7.2,7.6-11.6,12c-4.4,4.4-9.5,9.3-15.3,14.8l-17.3,16.5h40.3c3.5,0,6.6-1,9.1-3.1c2.5-2.1,4.3-5,5.3-8.9l1.4-5.3h10.2
			l-0.9,36.3H185v-17.8l25.6-26.1c5.3-5.5,9.7-10.4,13.2-14.8c3.4-4.4,6.1-8.6,8.1-12.6c2-4,3.3-8,4.1-11.9
			c0.8-3.9,1.2-8.1,1.2-12.5c0-6.6-1.2-11.4-3.6-14.4c-2.4-3-5.7-4.6-9.9-4.6c-5.9,0-10,2.5-12.3,7.6c-2.4,5-3.5,12.5-3.5,22.3
			c-3.3,0-6.3-0.3-9-0.9c-2.7-0.6-5.1-1.6-7-3c-1.9-1.4-3.5-3.1-4.5-5.3c-1.1-2.2-1.6-4.8-1.6-7.9c0-3.2,0.8-6.1,2.4-9
			c1.6-2.8,4-5.3,7.1-7.4c3.2-2.1,7.1-3.8,11.9-5.1c4.8-1.3,10.3-1.9,16.6-1.9c6.5,0,12.2,0.7,17.1,2c4.9,1.3,9.1,3.2,12.4,5.7
			c3.3,2.5,5.9,5.5,7.6,9C262.5,150.6,263.3,154.6,263.3,159.1z"/>
		<path fill="#FFFFFF" d="M281.3,255.6v-9.2h14.2c1.5,0,2.7-0.2,3.8-0.5c1.1-0.4,2-1,2.7-1.8c0.7-0.8,1.3-2,1.6-3.4
			c0.3-1.4,0.5-3.3,0.5-5.4v-86.7c-2.2,2.7-4.3,5.2-6.2,7.3c-1.9,2.2-3.8,4.1-5.6,5.7c-1.8,1.6-3.6,2.8-5.3,3.7
			c-1.7,0.9-3.5,1.3-5.2,1.3c-1.4,0-2.7-0.3-3.9-0.9c-1.2-0.6-2.3-1.4-3.2-2.6c-0.9-1.1-1.6-2.5-2.2-4.1c-0.5-1.6-0.8-3.3-0.8-5.2
			c1.7-0.4,3.6-1,5.5-1.6c1.9-0.6,4-1.5,6.1-2.5c2.2-1,4.5-2.3,7-3.8c2.5-1.5,5.2-3.3,8-5.4l12.2-9h19.3v103.7
			c0,1.8,0.1,3.4,0.4,4.8c0.3,1.4,0.7,2.6,1.4,3.5c0.6,1,1.5,1.7,2.7,2.2c1.2,0.5,2.6,0.7,4.4,0.7h13.9v9.2H281.3z"/>
		<path fill="#FFFFFF" d="M389.4,200v30.9h-12.4V200h-30.8v-12.3h30.8v-30.9h12.4v30.9h31V200H389.4z"/>
	</g>
</g>
</svg>
