<?xml version="1.0" encoding="utf-8"?>
<!-- Generator: Adobe Illustrator 18.1.1, SVG Export Plug-In . SVG Version: 6.00 Build 0)  -->
<svg version="1.1" id="layer" xmlns="http://www.w3.org/2000/svg" xmlns:xlink="http://www.w3.org/1999/xlink" x="0px" y="0px"
	 viewBox="0 0 515 514.9" enable-background="new 0 0 515 514.9" xml:space="preserve">
<circle fill="#E95210" cx="257.5" cy="257.5" r="257.5"/>
<circle fill="#881719" cx="257.5" cy="257.5" r="205"/>
<g>
	<path fill="#E95210" d="M173.7,270.5l18,18c7.1,7.1,18.8,7.1,25.9,0l105.9-105.9c7.1-7.1,7.1-18.8,0-25.9l-18-18
		c-7.1-7.1-18.8-7.1-25.9,0L173.7,244.6C166.6,251.7,166.6,263.4,173.7,270.5z"/>
	<path fill="#E95210" d="M191.7,226.5l-18,18c-7.1,7.1-7.1,18.8,0,25.9l105.9,105.9c7.1,7.1,18.8,7.1,25.9,0l18-18
		c7.1-7.1,7.1-18.8,0-25.9L217.7,226.5C210.5,219.4,198.9,219.4,191.7,226.5z"/>
</g>
</svg>
