<?xml version="1.0" encoding="utf-8"?>
<!-- Generator: Adobe Illustrator 18.1.1, SVG Export Plug-In . SVG Version: 6.00 Build 0)  -->
<svg version="1.1" baseProfile="basic" id="Слой_1"
	 xmlns="http://www.w3.org/2000/svg" xmlns:xlink="http://www.w3.org/1999/xlink" x="0px" y="0px" viewBox="0 0 32.4 9.2"
	 xml:space="preserve">
<g id="узор">
	<g>
		<g>
			<path fill="#FFFFFF" d="M9.2,7.4c-0.7,0-1.1-0.7-0.5-1.2c0.6-0.5,1.4,0,1.5,0.7c0.2,1-0.9,1.8-1.8,1.9C7.2,9,6.1,8.3,5.6,7.2
				C4.3,4.3,7.3,2,9.9,1.8c3.8-0.3,7.3,2,10.5,3.8c2.1,1.2,4.2,2.3,6.6,2.8c1.3,0.2,2.9,0.3,4.1-0.3c1-0.5,1.2-1.5,0.8-2.4
				c-0.3-0.7-1.2-1.1-1.8-1.4c-0.1-0.1,0-0.2,0.1-0.2c1,0.3,2.1,1,2.3,2.2c0.2,1.1-0.5,1.9-1.5,2.3c-3,1.2-6.6-0.4-9.2-1.8
				C18.2,5,14.9,2.4,10.9,2.2c-2-0.1-4.4,0.7-5,2.8C5.5,6.1,5.8,7.3,6.6,8C7,8.3,7.6,8.5,8.1,8.5c0.4,0,0.7-0.1,1-0.3
				c0.8-0.4,1-1,0.2-1.3C9.8,7.3,9.3,7.4,9.2,7.4L9.2,7.4z"/>
		</g>
		<g>
			<path fill="#FFFFFF" d="M28.6,8.6c-1.1-0.1-2.1-1.1-2.1-2.2c0-0.8,1.1-1.8,1.8-0.9c0.4,0.5-0.1,1.7-0.8,1.1
				c-0.6-0.6,0.7-1.1,0.5-0.3c0,0.1-0.2,0.1-0.3,0c0.1-0.1,0.2-0.2,0.3-0.3c0.1-0.3-0.1-0.5-0.4-0.6C27.5,5.4,27.1,5.7,27,6
				c-0.3,0.4-0.1,1,0.1,1.4c0.3,0.6,1.1,1.1,1.8,1.3C28.9,8.6,28.7,8.6,28.6,8.6L28.6,8.6z"/>
		</g>
		<g>
			<path fill="#FFFFFF" d="M25.9,8.3c-1.7-0.6-3.4-2.3-3.5-4.1c-0.1-1.4,1.7-2.8,2.8-1.4c0.8,1-0.7,2.6-1.5,1.5
				c-0.7-1,1.2-1.7,1.1-0.4c0,0.1-0.2,0.2-0.3,0c-1.2-1.1-1.8-1-1.8,0.2c0,0.3,0.1,0.6,0.2,0.9c0.2,0.5,0.4,1,0.8,1.4
				C24.2,7.3,25,7.8,25.9,8.3C25.9,8.3,25.9,8.4,25.9,8.3L25.9,8.3z"/>
		</g>
		<g>
			<path fill="#FFFFFF" d="M21.8,6.8c-1.5-1.6-3.1-5.6,0-6.6c0.1,0,0.2,0.2,0.1,0.2C19.1,2,20.6,4.7,21.8,6.8
				C21.9,6.8,21.8,6.8,21.8,6.8L21.8,6.8z"/>
		</g>
		<g>
			<path fill="#FFFFFF" d="M21.2,6.1C18.4,3.2,14.4-0.3,10,0.9C9.7,1,9.6,0.7,9.8,0.5c1.8-1.2,4.5,0.1,6.2,1c2,1.1,4.1,2.6,5.3,4.6
				C21.3,6.1,21.3,6.2,21.2,6.1L21.2,6.1z"/>
		</g>
		<g>
			<path fill="#FFFFFF" d="M14.2,2.8c-2-0.1-3.4,0.2-5.1,1.4c-0.1,0-0.1,0-0.1-0.1c1.1-1.5,3.4-2.2,5.2-1.4
				C14.3,2.7,14.3,2.8,14.2,2.8L14.2,2.8z"/>
		</g>
		<g>
			<path fill="#FFFFFF" d="M21.9,6.7c-1.6-0.6-3.1-1.4-4.8-1.9c-0.8-0.3-1.5-0.5-2.3-0.7c-1.3-0.3-2.1-0.1-2.4,0.1
				c-0.8,0.4-0.8,0.9,0,1.6c0,0.1-0.1,0.2-0.2,0.1c-0.5-0.9,1.1-1.3,1.2-0.3c0.2,1.3-1.6,1.2-2.1,0.2c-0.7-1.7,1.5-2.4,2.8-2.2
				C16.9,4,19.8,5.3,21.9,6.7C22,6.7,22,6.7,21.9,6.7L21.9,6.7z"/>
		</g>
		<g>
			<path fill="#FFFFFF" d="M25.3,8.3c-3.6,1.5-6.4-3.4-10.1-1.5c-0.1,0.1-0.3-0.1-0.2-0.2c1.1-1,2.7-0.8,4-0.3
				C21.2,7.1,22.9,8.7,25.3,8.3C25.4,8.2,25.4,8.3,25.3,8.3L25.3,8.3z"/>
		</g>
		<g>
			<path fill="#FFFFFF" d="M5.8,4.4c-0.8,1.4-2.1,3-3.9,2.8C0.6,7-0.4,5.6,0.3,4.4c0.5-0.8,2.1-1.1,2.4,0.1C3,5.5,1.7,6,1.3,5
				C1.2,4.9,1.5,4.8,1.5,4.9C1.5,4.6,1.7,4.1,1.4,4.1C1,4,0.5,4.6,0.4,5C0.4,5.5,0.6,6,0.9,6.3c0.6,0.7,1.7,0.6,2.5,0.3
				C4.5,6.1,5.1,5.2,5.8,4.4C5.8,4.3,5.8,4.4,5.8,4.4L5.8,4.4z"/>
		</g>
		<g>
			<path fill="#FFFFFF" d="M2.6,7.1C2.3,7.3,2.1,7.6,2,7.9c0,0.2,0,0.5,0,0.6c0.1,0.3,0.4,0.7,0.5,0.3c0,0.1-0.2,0.1-0.2,0
				C2.2,8.5,2.7,8.3,2.9,8.6c0.3,0.3-0.1,0.7-0.5,0.7C2,9.2,1.8,8.6,1.8,8.2c0-0.5,0.3-1,0.7-1.2C2.5,7,2.6,7.1,2.6,7.1L2.6,7.1z"/>
		</g>
	</g>
</g>
</svg>
