<?xml version="1.0" encoding="utf-8"?>
<!-- Generator: Adobe Illustrator 18.1.1, SVG Export Plug-In . SVG Version: 6.00 Build 0)  -->
<svg version="1.1" baseProfile="basic" id="Слой_1"
	 xmlns="http://www.w3.org/2000/svg" xmlns:xlink="http://www.w3.org/1999/xlink" x="0px" y="0px" viewBox="0 0 32.4 9.2"
	 xml:space="preserve">
<g id="узор">
	<g>
		<g>
			<path fill="#FFFFFF" d="M23.3,7.4c0.7,0,1.1-0.7,0.5-1.2c-0.6-0.5-1.4,0-1.5,0.7c-0.2,1,0.9,1.8,1.8,1.9c1.2,0.2,2.3-0.5,2.8-1.6
				c1.3-2.9-1.7-5.2-4.3-5.4c-3.8-0.3-7.3,2-10.5,3.8C10,6.9,7.9,8,5.5,8.4C4.2,8.7,2.6,8.8,1.4,8.2c-1-0.5-1.2-1.5-0.8-2.4
				C1,5.1,1.8,4.7,2.5,4.4c0.1-0.1,0-0.2-0.1-0.2c-1,0.3-2.1,1-2.3,2.2c-0.2,1.1,0.5,1.9,1.5,2.3c3,1.2,6.6-0.4,9.2-1.8
				c3.4-1.8,6.8-4.5,10.8-4.6c2-0.1,4.4,0.7,5,2.8c0.3,1,0.1,2.2-0.8,2.9c-0.4,0.3-0.9,0.5-1.5,0.5c-0.4,0-0.7-0.1-1-0.3
				c-0.8-0.4-1-1-0.2-1.3C22.7,7.3,23.2,7.4,23.3,7.4L23.3,7.4z"/>
		</g>
		<g>
			<path fill="#FFFFFF" d="M3.8,8.6c1.1-0.1,2.1-1.1,2.1-2.2c0-0.8-1.1-1.8-1.8-0.9C3.7,6.1,4.3,7.2,4.9,6.6
				c0.6-0.6-0.7-1.1-0.5-0.3c0,0.1,0.2,0.1,0.3,0C4.5,6.3,4.4,6.2,4.3,6.1C4.2,5.8,4.4,5.6,4.7,5.5C5,5.4,5.3,5.7,5.5,6
				c0.3,0.4,0.1,1-0.1,1.4C5,8,4.2,8.4,3.5,8.6C3.5,8.6,3.8,8.6,3.8,8.6L3.8,8.6z"/>
		</g>
		<g>
			<path fill="#FFFFFF" d="M6.6,8.3C8.3,7.8,9.9,6.1,10,4.2c0.1-1.4-1.7-2.8-2.8-1.4C6.5,3.8,8,5.4,8.7,4.3c0.7-1-1.2-1.7-1.1-0.4
				c0,0.1,0.2,0.2,0.3,0c1.2-1.1,1.8-1,1.8,0.2c0,0.3-0.1,0.6-0.2,0.9C9.4,5.5,9.2,6,8.8,6.4C8.2,7.3,7.4,7.8,6.6,8.3
				C6.5,8.3,6.5,8.4,6.6,8.3L6.6,8.3z"/>
		</g>
		<g>
			<path fill="#FFFFFF" d="M10.7,6.8c1.5-1.6,3.1-5.6,0-6.6c-0.1,0-0.2,0.2-0.1,0.2C13.3,2,11.8,4.7,10.7,6.8
				C10.6,6.8,10.6,6.8,10.7,6.8L10.7,6.8z"/>
		</g>
		<g>
			<path fill="#FFFFFF" d="M11.2,6.1c2.8-2.9,6.8-6.5,11.2-5.2c0.3,0.1,0.4-0.3,0.2-0.4c-1.8-1.2-4.5,0.1-6.2,1
				c-2,1.1-4.1,2.6-5.3,4.6C11.1,6.1,11.2,6.2,11.2,6.1L11.2,6.1z"/>
		</g>
		<g>
			<path fill="#FFFFFF" d="M18.2,2.8c2-0.1,3.4,0.2,5.1,1.4c0.1,0,0.1,0,0.1-0.1c-1.1-1.5-3.4-2.2-5.2-1.4
				C18.1,2.7,18.2,2.8,18.2,2.8L18.2,2.8z"/>
		</g>
		<g>
			<path fill="#FFFFFF" d="M10.5,6.7c1.6-0.6,3.1-1.4,4.8-1.9c0.8-0.3,1.5-0.5,2.3-0.7c1.3-0.3,2.1-0.1,2.4,0.1
				c0.8,0.4,0.8,0.9,0,1.6c0,0.1,0.1,0.2,0.2,0.1c0.5-0.9-1.1-1.3-1.2-0.3c-0.2,1.3,1.6,1.2,2.1,0.2c0.7-1.7-1.5-2.4-2.8-2.2
				C15.6,4,12.7,5.3,10.5,6.7C10.5,6.7,10.5,6.7,10.5,6.7L10.5,6.7z"/>
		</g>
		<g>
			<path fill="#FFFFFF" d="M7.1,8.3c3.6,1.5,6.4-3.4,10.1-1.5c0.1,0.1,0.3-0.1,0.2-0.2c-1.1-1-2.7-0.8-4-0.3
				C11.3,7.1,9.6,8.7,7.1,8.3C7.1,8.2,7.1,8.3,7.1,8.3L7.1,8.3z"/>
		</g>
		<g>
			<path fill="#FFFFFF" d="M26.6,4.4c0.8,1.4,2.1,3,3.9,2.8c1.2-0.2,2.3-1.6,1.5-2.8c-0.5-0.8-2.1-1.1-2.4,0.1
				c-0.3,1,1.1,1.5,1.5,0.5c0.1-0.2-0.2-0.2-0.2-0.1c0.1-0.3-0.1-0.8,0.2-0.8C31.4,4,31.9,4.6,32,5c0.1,0.4-0.2,0.9-0.5,1.2
				c-0.6,0.7-1.7,0.6-2.5,0.3C28,6.1,27.3,5.2,26.6,4.4C26.7,4.3,26.6,4.4,26.6,4.4L26.6,4.4z"/>
		</g>
		<g>
			<path fill="#FFFFFF" d="M29.9,7.1c0.2,0.2,0.4,0.5,0.5,0.8c0,0.2,0,0.5,0,0.6c-0.1,0.3-0.4,0.7-0.5,0.3c0,0.1,0.2,0.1,0.2,0
				c0.1-0.3-0.3-0.5-0.6-0.3c-0.3,0.3,0.1,0.7,0.5,0.7c0.5-0.1,0.7-0.7,0.7-1.1c0-0.5-0.3-1-0.7-1.2C29.9,7,29.8,7.1,29.9,7.1
				L29.9,7.1z"/>
		</g>
	</g>
</g>
</svg>
