<?xml version="1.0" encoding="utf-8"?>
<!-- Generator: Adobe Illustrator 18.1.1, SVG Export Plug-In . SVG Version: 6.00 Build 0)  -->
<svg version="1.1" id="Internet_1_" xmlns="http://www.w3.org/2000/svg" xmlns:xlink="http://www.w3.org/1999/xlink" x="0px"
	 y="0px" viewBox="0 0 604.5 514.9" enable-background="new 0 0 604.5 514.9" xml:space="preserve">
<g id="Internet">
	<circle fill="#FFFFFF" cx="301.8" cy="189.8" r="187.8"/>
	<circle fill="#8A0A00" cx="301.8" cy="189.8" r="166.3"/>
	<circle fill="none" stroke="#8A0A00" stroke-width="6" stroke-miterlimit="10" cx="301.8" cy="191.2" r="187.9"/>
	<g>
		<path fill="#FFFFFF" d="M248.9,236.4l9.7,27.1c0.7,1.4,0.7,2.1,1.4,3.5c0.7,1.4,0.7,2.1,0.7,3.5c0,0.7,0.7,2.1,0.7,2.8
			c0,0.7,0.7,1.4,0.7,2.1c0-0.7,0.7-2.1,0.7-2.8s0.7-2.1,0.7-3.5c0-1.4,0.7-2.1,0.7-3.5c0-1.4,0.7-2.1,0.7-3.5l3.5-15.3v-0.7
			c0-0.7,0-0.7,0-1.4c0-0.7,0-0.7,0-0.7v-0.7c0-1.4-0.7-2.1-1.4-2.8c0.7-0.7-0.7-0.7-2.1-0.7h-1.4v-3.5h18.8v3.5h-1.4
			c-0.7,0-1.4,0-2.1,0c-0.7,0-0.7,0.7-1.4,0.7c-0.7,0.7-0.7,0.7-1.4,1.4c-0.7,0.7-0.7,1.4-0.7,2.8l-11.1,41.8h-8.4L244,253.1
			l-10.4,33.4h-9l-13.2-43.2c0-0.7-0.7-1.4-0.7-2.1c0-0.7-0.7-0.7-1.4-1.4c-0.7,0-0.7-0.7-1.4-0.7s-1.4,0-2.1,0H205v-3.5h23.7v4.2
			h-1.4c-1.4,0-2.8,0-3.5,0.7c-0.7,0.7-1.4,1.4-1.4,2.8c0,0.7,0,0.7,0,1.4c0,0.7,0,1.4,0.7,2.1l4.9,16.7c0,0.7,0.7,2.1,0.7,2.8
			c0,1.4,0.7,2.1,0.7,3.5c0,1.4,0.7,2.1,0.7,2.8c0,0.7,0.7,2.1,0.7,2.8c0-1.4,0.7-2.8,1.4-4.2c0.7-1.4,0.7-2.8,1.4-4.2l9-30.6
			L248.9,236.4L248.9,236.4z"/>
		<path fill="#FFFFFF" d="M283.7,283c0.7,0,1.4,0,1.4,0c0.7,0,1.4,0,1.4-0.7c0.7,0,0.7-0.7,1.4-1.4c0-0.7,0.7-1.4,0.7-2.1v-21.6
			c0-0.7,0-1.4-0.7-2.1c0-0.7-0.7-0.7-1.4-1.4c-0.7,0-1.4-0.7-1.4-0.7c-0.7,0-1.4,0-1.4,0H283v-3.5h16.7v29.9c0,0.7,0,2.1,0.7,2.1
			c0,0.7,0.7,1.4,1.4,1.4c0.7,0,1.4,0.7,1.4,0.7c0.7,0,1.4,0,1.4,0h0.7v3.5h-23v-3.5h1.4V283z M287.9,237.1c0-0.7,0-1.4,0.7-2.1
			c0-0.7,0.7-1.4,1.4-1.4c0.7-0.7,1.4-0.7,2.1-0.7c0.7,0,1.4,0,2.1,0c0.7,0,1.4,0,2.1,0c0.7,0,1.4,0.7,2.1,0.7
			c0.7,0.7,0.7,0.7,1.4,1.4c0,0.7,0.7,1.4,0.7,2.1c0,0.7,0,1.4-0.7,2.1c0,0.7-0.7,1.4-1.4,1.4c-0.7,0.7-1.4,0.7-2.1,0.7
			c-0.7,0-1.4,0-2.1,0c-0.7,0-1.4,0-2.1,0c-0.7,0-1.4-0.7-2.1-0.7s-0.7-0.7-1.4-1.4C287.9,238.5,287.9,237.8,287.9,237.1z"/>
		<path fill="#FFFFFF" d="M308.7,271.2v-7.7h18.8v7.7H308.7z"/>
		<path fill="#FFFFFF" d="M365.8,248.9v-3.5c0-2.1-0.7-3.5-1.4-4.2c-0.7-0.7-2.1-1.4-3.5-1.4h-11.1v19.5h16.7v4.2h-16.7v14.6
			c0,0.7,0,2.1,0,2.1c0,0.7,0.7,1.4,0.7,1.4s0.7,0.7,1.4,0.7c0.7,0,0.7,0,1.4,0h4.2v3.5h-25.8v-3.5h2.8c0.7,0,0.7,0,1.4,0
			c0.7,0,0.7,0,1.4-0.7c0,0,0.7-0.7,0.7-1.4s0-1.4,0-2.1v-34.8c0-0.7,0-1.4,0-2.1c0-0.7-0.7-0.7-0.7-1.4c0,0-0.7-0.7-1.4-0.7
			s-0.7,0-1.4,0h-2.8v-3.5h39.7v13.2H365.8z"/>
		<path fill="#FFFFFF" d="M375.5,283c0.7,0,1.4,0,1.4,0c0.7,0,1.4,0,1.4-0.7c0.7,0,0.7-0.7,1.4-1.4c0-0.7,0.7-1.4,0.7-2.1v-21.6
			c0-0.7,0-1.4-0.7-2.1c0-0.7-0.7-0.7-1.4-1.4c-0.7,0-1.4-0.7-1.4-0.7c-0.7,0-1.4,0-1.4,0h-0.7v-3.5h16.7v29.9c0,0.7,0,2.1,0.7,2.1
			c0,0.7,0.7,1.4,1.4,1.4c0.7,0,1.4,0.7,1.4,0.7c0.7,0,1.4,0,1.4,0h0.7v3.5h-23v-3.5h1.4V283z M379,237.1c0-0.7,0-1.4,0.7-2.1
			c0-0.7,0.7-1.4,1.4-1.4c0.7-0.7,1.4-0.7,2.1-0.7c0.7,0,1.4,0,2.1,0s1.4,0,2.1,0c0.7,0,1.4,0.7,2.1,0.7c0.7,0.7,0.7,0.7,1.4,1.4
			c0,0.7,0.7,1.4,0.7,2.1c0,0.7,0,1.4-0.7,2.1c0,0.7-0.7,1.4-1.4,1.4s-1.4,0.7-2.1,0.7c-0.7,0-1.4,0-2.1,0s-1.4,0-2.1,0
			c-0.7,0-1.4-0.7-2.1-0.7c-0.7,0-0.7-0.7-1.4-1.4C379.7,238.5,379,237.8,379,237.1z"/>
	</g>
	<g>
		<path fill="#FFFFFF" d="M317.1,185.6c0,9-7,16-16,16c-9,0-16-7-16-16c0-9,7-16,16-16C310.1,169.6,317.1,176.5,317.1,185.6
			L317.1,185.6z"/>
		<g>
			<g>
				<defs>
					<rect id="SVGID_1_" x="233.6" y="99.3" width="137.1" height="105.8"/>
				</defs>
				<clipPath id="SVGID_2_">
					<use xlink:href="#SVGID_1_"  overflow="visible"/>
				</clipPath>
				<path clip-path="url(#SVGID_2_)" fill="#FFFFFF" d="M339.4,147.3l-0.7-0.7l-0.7-0.7c0,0,0,0-0.7,0c-20.2-18.8-51.5-18.1-71,1.4
					l-2.1,2.1l-3.5,3.5c-4.2,4.2-4.2,10.4,0,13.9c4.2,4.2,10.4,4.2,13.9,0l5.6-5.6c12.5-12.5,32.7-12.5,45.2,0l4.2,3.5
					c3.5,3.5,9.7,3.5,13.9,0c2.1-2.1,2.8-4.2,2.8-7c0-2.8-0.7-4.9-2.8-7L339.4,147.3z"/>
			</g>
			<g>
				<defs>
					<rect id="SVGID_3_" x="233.6" y="99.3" width="137.1" height="105.8"/>
				</defs>
				<clipPath id="SVGID_4_">
					<use xlink:href="#SVGID_3_"  overflow="visible"/>
				</clipPath>
				<path clip-path="url(#SVGID_4_)" fill="#FFFFFF" d="M366.5,127.8l-3.5-3.5l0,0l-2.8-2.8c-0.7-0.7-0.7-0.7-1.4-1.4
					c-33.4-29.2-84.2-28.5-116.2,2.8c0,0,0,0-0.7,0.7l-6.3,6.3c-3.5,3.5-3.5,9,0,12.5c3.5,3.5,9,3.5,12.5,0l5.6-6.3l0,0
					c27.1-25.1,68.9-25.1,95.4-0.7l4.9,4.9c3.5,3.5,9,3.5,12.5,0S370,131.3,366.5,127.8L366.5,127.8z"/>
			</g>
		</g>
	</g>
	<g>
		<path fill="#B6B0AD" d="M178,495.2v-58.8h7.6v58.8H178z"/>
		<path fill="#B6B0AD" d="M196.9,495.2v-42h6.3l0.4,2.5h0.4c2.2-2.2,5.1-3.3,8.8-3.3c4.4,0,7.6,0.8,9.5,2.5c2.3,2,3.5,5.4,3.5,10.1
			v30.2h-7.6V465c0-4-1.6-6.5-4.8-7.3c-0.9-0.2-2.3-0.3-4-0.3c-1.7,0-3.4,0.6-5,1.7v36.1H196.9z"/>
		<path fill="#B6B0AD" d="M233,459.6v-5.4h5V444h7.5v10.1h11.8v3.8c-3.3,1.1-6.6,1.6-10.1,1.6h-1.7v22.2c0,4.9,1.3,7.9,3.9,8.8
			c0.7,0.3,1.3,0.4,2,0.4h7.5v3.4c-2.5,1.1-5,1.6-7.7,1.6c-2.7,0-4.7-0.2-6.2-0.6c-1.4-0.4-2.7-1.1-3.7-2.1c-2.2-2.2-3.4-6-3.4-11.6
			v-22.2H233z"/>
		<path fill="#B6B0AD" d="M264,474.2c0-8.1,1.2-13.8,3.7-17.2c2.2-3.1,5.9-4.6,11-4.6c5.1,0,8.7,1.5,11,4.6
			c2.5,3.4,3.7,9.1,3.7,17.2v2.5h-21.8c0,5.3,0.9,9.1,2.7,11.2c1.7,2,4.8,3.1,9,3.1h8.4v3.4c-3.2,1.1-6.5,1.6-9.8,1.6
			c-3.3,0-6.1-0.3-8.3-1c-2.2-0.7-4-1.9-5.5-3.5C265.4,488.2,264,482.5,264,474.2z M271.5,471.7h14.3c0-7.7-1.5-12.4-4.4-14
			c-0.9-0.5-1.8-0.7-2.7-0.7c-3.3,0-5.5,2.5-6.6,7.6C271.7,466.5,271.5,468.9,271.5,471.7z"/>
		<path fill="#B6B0AD" d="M302.6,495.2v-42h6.4l0.4,3.4h0.4c2.7-2.2,6.1-3.4,10.4-3.4h4.2v6.3H316c-2.4,0-4.4,0.6-5.9,1.7v34H302.6z
			"/>
		<path fill="#B6B0AD" d="M330.7,495.2v-42h6.3l0.4,2.5h0.4c2.2-2.2,5.1-3.3,8.8-3.3c4.4,0,7.6,0.8,9.5,2.5c2.3,2,3.5,5.4,3.5,10.1
			v30.2h-7.6V465c0-4-1.6-6.5-4.8-7.3c-0.9-0.2-2.3-0.3-4-0.3c-1.7,0-3.4,0.6-5,1.7v36.1H330.7z"/>
		<path fill="#B6B0AD" d="M368.8,474.2c0-8.1,1.2-13.8,3.7-17.2c2.2-3.1,5.9-4.6,11-4.6c5.1,0,8.7,1.5,11,4.6
			c2.5,3.4,3.7,9.1,3.7,17.2v2.5h-21.8c0,5.3,0.9,9.1,2.7,11.2c1.7,2,4.8,3.1,9,3.1h8.4v3.4c-3.2,1.1-6.5,1.6-9.8,1.6
			c-3.3,0-6.1-0.3-8.3-1c-2.2-0.7-4-1.9-5.5-3.5C370.2,488.2,368.8,482.5,368.8,474.2z M376.4,471.7h14.3c0-7.7-1.5-12.4-4.4-14
			c-0.9-0.5-1.8-0.7-2.7-0.7c-3.3,0-5.5,2.5-6.6,7.6C376.6,466.5,376.4,468.9,376.4,471.7z"/>
		<path fill="#B6B0AD" d="M403.7,459.6v-5.4h5V444h7.5v10.1H428v3.8c-3.3,1.1-6.6,1.6-10.1,1.6h-1.7v22.2c0,4.9,1.3,7.9,3.9,8.8
			c0.7,0.3,1.3,0.4,2,0.4h7.5v3.4c-2.5,1.1-5,1.6-7.7,1.6c-2.7,0-4.7-0.2-6.2-0.6c-1.4-0.4-2.7-1.1-3.7-2.1c-2.2-2.2-3.4-6-3.4-11.6
			v-22.2H403.7z"/>
	</g>
</g>
</svg>
