<?xml version="1.0" encoding="utf-8"?>
<!-- Generator: Adobe Illustrator 18.1.1, SVG Export Plug-In . SVG Version: 6.00 Build 0)  -->
<svg version="1.1" id="Smoking_is_allowed" xmlns="http://www.w3.org/2000/svg" xmlns:xlink="http://www.w3.org/1999/xlink" x="0px"
	 y="0px" viewBox="0 0 604.5 514.9" enable-background="new 0 0 604.5 514.9" xml:space="preserve">
<g id="Smoking">
	<ellipse fill="#FFFFFF" cx="301.9" cy="189.6" rx="188.2" ry="188.2"/>
	<ellipse fill="#8A0A00" cx="301.9" cy="189.6" rx="166.2" ry="166.2"/>
	<ellipse fill="none" stroke="#8A0A00" stroke-width="6" stroke-miterlimit="10" cx="301.9" cy="191" rx="187.8" ry="187.7"/>
	<path fill="#FFFFFF" d="M377.1,241.1L247.2,111.2c-1.5-1.5-4.4-1.5-5.9,0l-21.6,21.6c-1.5,1.5-1.5,4.4,0,5.9l129.8,129.8
		c1.5,1.5,4.4,1.5,5.9,0l21.6-21.6C379,245,379,243.1,377.1,241.1L377.1,241.1z M279.7,154.5l79.2,79.2l-15.7,15.7L264,170.3
		L279.7,154.5z M352.5,259.8l-4.4-4.4l16.2-16.2l4.4,4.4L352.5,259.8z M366.6,184c-2.8-8.3-0.7-17.4,5.6-23.6
		c1.4-1.4,4.2-1.4,5.6,0.7c1.4,1.4,1.4,4.2-0.7,5.6c-4.2,3.5-5.6,9.7-3.5,14.6c0.7,2.8,2.8,4.9,4.9,7.6c2.1,2.8,4.2,5.6,5.6,9
		c3.5,9,0,20.9-8.3,26.4c0,0-0.7,0-1.4,0c-1.4,0-2.8-0.7-3.5-2.1c-1.4-2.1-0.7-4.2,1.4-5.6c4.9-3.5,7-10.4,4.9-16
		c-0.7-2.8-2.8-4.9-4.9-7C370.1,190.3,368,187.5,366.6,184L366.6,184z"/>
	<rect x="203.8" y="114.5" fill="none" width="195.5" height="109.8"/>
	<g>
		<g>
			<path fill="#B6B0AD" d="M2.2,494.4v-3.8h10.9c4.8,0,8.2-0.9,10.1-2.6c1.9-1.7,2.9-4.3,2.9-7.9c0-2.5-0.6-4.4-1.8-5.8
				c-1.2-1.4-2.7-2.6-4.4-3.6c-1.8-1-3.7-1.9-5.7-2.8c-2-0.9-3.9-2-5.7-3.4c-1.8-1.4-3.3-3.1-4.4-5.2s-1.8-5-1.8-8.6
				c0-5.1,1.3-8.9,3.9-11.4c2.6-2.5,6.5-3.7,11.9-3.7c5.4,0,9.6,0.5,12.7,1.6v3.8H19.8c-6.7,0-10.1,3.2-10.1,9.7
				c0,2.6,0.6,4.6,1.8,6.1c1.2,1.5,2.7,2.8,4.4,3.8c1.8,1,3.7,2,5.8,2.9s4,2,5.8,3.3c1.8,1.3,3.3,3,4.4,5.1c1.2,2.1,1.8,4.6,1.8,7.7
				c0,3.1-0.3,5.6-1,7.6c-0.7,2-1.7,3.6-3.2,5c-1.5,1.3-3.4,2.3-5.8,2.9c-2.4,0.6-5.8,1-10.1,1C9.2,496,5.4,495.5,2.2,494.4z"/>
			<path fill="#B6B0AD" d="M42,495.2v-42h6.3l0.4,2.5h0.4c2.2-2.2,5-3.3,8.4-3.3c4.3,0,7.4,1.2,9.4,3.7c1.8-1.7,4.5-2.8,7.9-3.4
				c0.9-0.2,2-0.2,3.2-0.2c1.2,0,2.5,0.2,3.9,0.5c1.4,0.4,2.7,1,3.7,2c2.2,2,3.4,5.4,3.4,10.1v30.2h-7.5V465c0-2.6-0.7-4.7-2.1-6
				c-1.1-1-2.4-1.6-4.1-1.6c-2.9,0-5.2,0.6-6.8,1.7c0.6,1.6,0.9,3.6,0.9,5.9v30.2h-7.6V465c0-2.7-0.7-4.7-2-6
				c-1.1-1-2.7-1.6-4.7-1.6c-2,0-3.8,0.6-5.4,1.7v36.1H42z"/>
			<path fill="#B6B0AD" d="M98.2,474.2c0-11.6,3-18.5,8.8-20.7c1.9-0.7,4.2-1.1,6.7-1.1c5.3,0,9.1,1.6,11.6,4.8c2.6,3.4,4,9.1,4,17
				c0,11.6-2.9,18.5-8.8,20.7c-1.9,0.7-4.2,1.1-6.7,1.1c-5.2,0-9.1-1.6-11.5-4.8C99.6,487.9,98.2,482.2,98.2,474.2z M105.8,474.2
				c0,11.5,2.7,17.2,8,17.2s8-5.7,8-17.2s-2.7-17.2-8-17.2S105.8,462.8,105.8,474.2z"/>
			<path fill="#B6B0AD" d="M138.9,495.2v-58.8h7.6v36.1l12.2-19.3h8.4L154,473l14.7,22.2h-8.4l-13.8-21.8v21.8H138.9z"/>
			<path fill="#B6B0AD" d="M175.4,447.4v-9.3h7.6v9.3H175.4z M175.4,495.2v-42h7.6v42H175.4z"/>
			<path fill="#B6B0AD" d="M194.3,495.2v-42h6.3l0.4,2.5h0.4c2.2-2.2,5.1-3.3,8.8-3.3c4.4,0,7.6,0.8,9.5,2.5c2.3,2,3.5,5.4,3.5,10.1
				v30.2h-7.6V465c0-4-1.6-6.5-4.8-7.3c-0.9-0.2-2.3-0.3-4-0.3c-1.7,0-3.4,0.6-5,1.7v36.1H194.3z"/>
			<path fill="#B6B0AD" d="M232.4,474.2c0-8.2,1.3-13.9,3.9-17.2c2.5-3.1,6.4-4.6,11.7-4.6s10,0.8,14.2,2.5v36.9
				c0,7.8-1.3,13.3-4,16.5c-1.4,1.6-3.1,2.8-5.2,3.5s-4.8,1-8.1,1c-3.3,0-6.4-0.5-9.5-1.6v-3.4h8.4c3.9,0,6.7-1,8.3-3
				c1.7-2.1,2.6-5.7,2.6-10.9c-2.8,1.4-5.5,2.1-8,2.1c-2.5,0-4.6-0.3-6.3-1c-1.7-0.7-3.2-1.9-4.4-3.5
				C233.6,488,232.4,482.3,232.4,474.2z M240,474.2c0,9.2,1.7,14.6,5.2,16.1c1.1,0.5,2.6,0.7,4.4,0.7c1.8,0,3.6-0.6,5.2-1.7v-31.9
				h-5.9c-2.9,0-5.1,1.1-6.5,3.4C240.7,463.5,240,468,240,474.2z"/>
			<path fill="#B6B0AD" d="M294.5,447.4v-9.3h7.6v9.3H294.5z M294.5,495.2v-42h7.6v42H294.5z"/>
			<path fill="#B6B0AD" d="M310.9,463.4c0-4.2,1.3-7.1,3.8-8.7c2.5-1.5,5.9-2.3,10.2-2.3c4.3,0,8,0.5,11.2,1.6v3.4h-8.4
				c-3,0-5.3,0.5-6.8,1.4s-2.4,2.3-2.4,4.2s0.5,3.3,1.5,4.3c1,1,2.2,1.8,3.6,2.6c1.4,0.7,3,1.4,4.7,2c1.7,0.6,3.3,1.5,4.7,2.5
				c3.4,2.3,5.1,5.7,5.1,9.9c0,4.5-1.3,7.6-4,9.3c-2.4,1.6-6.7,2.4-12.8,2.4c-3.5,0-6.9-0.5-10.1-1.6V491h8.4c3.8,0,6.6-0.5,8.3-1.5
				c1.7-1,2.6-2.7,2.6-5.2c0-1.7-0.5-3-1.5-4s-2.2-1.8-3.6-2.6c-1.4-0.7-3-1.4-4.7-2.1c-1.7-0.6-3.3-1.5-4.8-2.4
				C312.6,470.9,310.9,467.6,310.9,463.4z"/>
			<path fill="#B6B0AD" d="M365.8,482.6c0-7.1,2.5-11.3,7.5-12.5c1.5-0.4,3.3-0.5,5.4-0.5s4.8,0.3,8.1,0.8v-3.9
				c0-5.3-1.8-8.3-5.3-9.1c-1.1-0.2-2.4-0.4-3.9-0.4h-8.4v-3c3.2-1.1,6.3-1.6,9.3-1.6c3,0,5.5,0.2,7.3,0.6s3.4,1.1,4.7,2.1
				c2.5,2.1,3.8,6,3.8,11.6v28.5H388l-0.4-2.5h-0.5c-2.2,2.2-5.1,3.3-8.8,3.3c-4.2,0-7.2-0.9-9.1-2.6
				C366.9,491.3,365.8,487.7,365.8,482.6z M373.3,482.6c0,4.5,1.5,7.1,4.6,8c0.9,0.3,1.9,0.4,3,0.4c2.4,0,4.3-0.6,5.9-1.7v-14.7
				h-5.9c-2.1,0-3.9,0.5-5.4,1.6C374,477.4,373.3,479.5,373.3,482.6z"/>
			<path fill="#B6B0AD" d="M405.6,495.2v-58.8h7.6v58.8H405.6z"/>
			<path fill="#B6B0AD" d="M424.9,495.2v-58.8h7.6v58.8H424.9z"/>
			<path fill="#B6B0AD" d="M442.1,474.2c0-11.6,3-18.5,8.8-20.7c1.9-0.7,4.2-1.1,6.7-1.1c5.3,0,9.1,1.6,11.6,4.8c2.6,3.4,4,9.1,4,17
				c0,11.6-2.9,18.5-8.8,20.7c-1.9,0.7-4.2,1.1-6.7,1.1c-5.2,0-9.1-1.6-11.5-4.8C443.4,487.9,442.1,482.2,442.1,474.2z M449.6,474.2
				c0,11.5,2.7,17.2,8,17.2s8-5.7,8-17.2s-2.7-17.2-8-17.2S449.6,462.8,449.6,474.2z"/>
			<path fill="#B6B0AD" d="M478.2,453.3h7.1l5.8,31.9h0.4l7.7-23.5l6.6,0l7.6,23.5l0.5,0l5.8-31.9h7.2l-7.6,42h-9.2l-7.4-22.7
				l-0.4,0l-7.4,22.7h-9.2L478.2,453.3z"/>
			<path fill="#B6B0AD" d="M531.9,474.2c0-8.1,1.2-13.8,3.7-17.2c2.2-3.1,5.9-4.6,11-4.6c5.1,0,8.7,1.5,11,4.6
				c2.5,3.4,3.7,9.1,3.7,17.2v2.5h-21.8c0,5.3,0.9,9.1,2.7,11.2c1.7,2,4.8,3.1,9,3.1h8.4v3.4c-3.2,1.1-6.5,1.6-9.8,1.6
				c-3.3,0-6.1-0.3-8.3-1c-2.2-0.7-4-1.9-5.5-3.5C533.2,488.2,531.9,482.5,531.9,474.2z M539.4,471.7h14.3c0-7.7-1.5-12.4-4.4-14
				c-0.9-0.5-1.8-0.7-2.7-0.7c-3.3,0-5.5,2.5-6.6,7.6C539.6,466.5,539.4,468.9,539.4,471.7z"/>
			<path fill="#B6B0AD" d="M568.8,474.2c0-11.7,2.6-18.6,7.9-20.7c1.7-0.7,3.9-1.1,6.3-1.1c2.5,0,5.1,0.7,8,2.1v-18.1h7.5v58.8h-6.3
				l-0.5-2.5h-0.4c-2.2,2.2-5.1,3.3-8.8,3.3c-4.7,0-8.1-1.5-10.2-4.6C570,488,568.8,482.3,568.8,474.2z M576.3,474.2
				c0,9.2,1.7,14.6,5.2,16.1c1.1,0.5,2.6,0.7,4.4,0.7c1.8,0,3.5-0.6,5.2-1.7v-30.2c-1.6-1.1-3.3-1.7-5.1-1.7c-1.8,0-3.3,0.3-4.4,0.8
				c-1.1,0.5-2,1.4-2.8,2.6C577.1,463.5,576.3,468,576.3,474.2z"/>
		</g>
	</g>
</g>
</svg>
