<?xml version="1.0" encoding="utf-8"?>
<!-- Generator: Adobe Illustrator 18.1.1, SVG Export Plug-In . SVG Version: 6.00 Build 0)  -->
<svg version="1.1" id="Bank_card_pay" xmlns="http://www.w3.org/2000/svg" xmlns:xlink="http://www.w3.org/1999/xlink" x="0px"
	 y="0px" viewBox="0 0 604.5 514.9" enable-background="new 0 0 604.5 514.9" xml:space="preserve">
<g id="Card">
	<circle fill="#FFFFFF" cx="302.1" cy="189.9" r="187.5"/>
	<ellipse fill="#8A0A00" cx="302.2" cy="189.8" rx="166.2" ry="166.4"/>
	<ellipse fill="none" stroke="#8A0A00" stroke-width="6" stroke-miterlimit="10" cx="302.2" cy="191.2" rx="187.8" ry="188"/>
	<g>
		<path fill="#FFFFFF" d="M348.8,110.4h-7c-2.1,0-3.5,0.7-4.9,2.8l-12.5,29.2h9c0,0,1.4-4.2,2.1-4.9c0.7,0,9.7,0,11.1,0
			c0,1.4,0.7,4.9,0.7,4.9h8.3L348.8,110.4z M338.4,130.6c0.7-1.4,3.5-9.1,3.5-9.1s0.7-2.1,1.4-2.8l0.7,2.8c0,0,1.4,7.7,2.1,9.1
			H338.4z M325.8,131.3c0,6.3-6.3,11.1-15.3,11.1c-4.2,0-7.7-0.7-9.7-1.4l1.4-7l1.4,0.7c2.8,1.4,4.9,1.4,8.3,1.4
			c2.8,0,4.9-0.7,4.9-2.8c0-1.4-1.4-2.1-4.2-4.2c-3.5-1.4-7.7-4.2-7.7-8.4c0-6.3,6.3-10.4,14.6-10.4c3.5,0,6.3,0.7,7.7,1.4l-1.4,7
			l-0.7-0.7c-1.4-0.7-3.5-1.4-6.3-1.4c-3.5,0-4.9,1.4-4.9,2.8c0,1.4,2.1,2.8,4.9,4.2C323.1,125,325.8,127.8,325.8,131.3L325.8,131.3
			z M248.6,106.2L248.6,106.2l13.2-0.7c2.1,0,3.5,0.7,3.5,2.8l2.8,13.9C266,114.6,259.1,108.3,248.6,106.2L248.6,106.2z M289,110.4
			l-13.9,32h-9l-7.7-27.2c5.6,3.5,10.4,9.1,11.8,13.2l0.7,3.5l8.3-21.6H289z M292.5,110.4h8.3l-5.6,32h-8.3L292.5,110.4z"/>
	</g>
	<path fill="#FFFFFF" d="M316.1,251.7c0-4.2,2.1-7,4.9-7c2.1,0,3.5,1.4,3.5,1.4l0.7-4.2c0,0-2.1-0.7-4.2-0.7
		c-4.2,0-8.3,3.5-8.3,11.1c0,4.9,2.1,7.7,7,7.7c1.4,0,3.5-0.7,3.5-0.7l0.7-4.2c0,0-2.1,0.7-2.8,0.7
		C317.5,255.9,316.1,253.8,316.1,251.7z"/>
	<path fill="#FFFFFF" d="M331.4,244.1c-2.8,0-4.9,0.7-4.9,0.7l-0.7,3.5c0,0,1.4-0.7,4.2-0.7c1.4,0,2.1,0,2.1,1.4c0,0.7,0,0.7,0,0.7
		h-1.4c-3.5,0-7,1.4-7,5.6c0,3.5,2.1,4.2,3.5,4.2c2.8,0,3.5-1.4,4.2-1.4v1.4h3.5l1.4-10.4C336.3,244.1,332.1,244.1,331.4,244.1z
		 M329.3,255.9c-1.4,0-1.4-0.7-1.4-1.4c0-0.7,0.7-2.1,3.5-2.1c0.7,0,0.7,0,0.7,0C332.1,253.1,331.4,255.9,329.3,255.9z"/>
	<path fill="#FFFFFF" d="M344.6,244.1c0,0,0,0-0.7,0c-1.4,0-2.8,2.1-2.8,2.1v-2.1h-3.5l-2.1,14.6h4.2c1.4-6.3,1.4-11.1,4.2-10.4
		C343.9,246.2,343.9,245.5,344.6,244.1z"/>
	<path fill="#FFFFFF" d="M357.1,258v1.4l0,0v-0.7l0,0l0,0l0,0l0,0l0,0l0,0l0,0l0,0l0,0l0,0l0,0l0,0C357.8,258,357.8,258,357.1,258
		L357.1,258z M357.8,258.7L357.8,258.7L357.8,258.7L357.8,258.7L357.8,258.7L357.8,258.7L357.8,258.7L357.8,258.7L357.8,258.7z"/>
	<path fill="#FFFFFF" d="M295.2,270.5h13.9c0.7-1.4,1.4-2.8,2.1-4.2h-18.1C293.8,267.7,294.5,269.1,295.2,270.5z"/>
	<path fill="#FFFFFF" d="M342.5,253.1c0,2.8,1.4,6.3,4.9,6.3c2.1,0,3.5-1.4,3.5-1.4v1.4h3.5l2.8-18.1h-3.5l-0.7,4.9
		c0,0-1.4-2.1-3.5-2.1C346,244.1,342.5,248.3,342.5,253.1z M351.6,251c0,2.1-0.7,4.9-2.8,4.9c-1.4,0-2.1-1.4-2.1-2.8
		c0-2.8,1.4-4.9,2.8-4.9C350.9,247.6,351.6,249,351.6,251z"/>
	<path fill="#FFFFFF" d="M374.5,200.9H229.9c-2.1,0-4.2,2.1-4.2,4.2v91.2c0,2.1,2.1,4.2,4.2,4.2h144.7c2.1,0,4.2-2.1,4.2-4.2v-91.2
		C378.7,203,376.6,200.9,374.5,200.9z M364.8,272.6L364.8,272.6c-0.7,0.7-0.7,0.7-1.4,0.7h-0.7c0,0-0.7,0-0.7-0.7v-0.7v-0.7
		c0,0,0-0.7,0.7-0.7h0.7h0.7c0,0,0.7,0,0.7,0.7C364.8,271.2,364.8,271.9,364.8,272.6C364.8,271.9,364.8,271.9,364.8,272.6z
		 M367.6,250.3c0,21.6-17.4,39-38.9,39c-10.4,0-19.5-4.2-26.4-10.4c-7,6.3-16,10.4-26.4,10.4c-21.6,0-38.9-17.4-38.9-39
		s17.4-39,38.9-39l0,0c10.4,0,19.5,4.2,26.4,10.4c7-6.3,16-10.4,26.4-10.4C350.2,210.7,367.6,228.8,367.6,250.3L367.6,250.3z"/>
	<path fill="#FFFFFF" d="M357.1,258L357.1,258c-0.7,0.7-0.7,0.7-0.7,1.4v0.7c0,0,0,0.7,0.7,0.7h0.7h0.7c0,0,0.7,0,0.7-0.7v-0.7v-0.7
		c0,0,0-0.7-0.7-0.7C358.5,258,357.8,257.3,357.1,258C357.8,257.3,357.1,258,357.1,258z M358.5,258.7
		C358.5,258.7,359.2,258.7,358.5,258.7c0,0.7,0,0.7,0,0.7s0,0-0.7,0.7c0,0,0,0-0.7,0h-0.7c0,0,0,0-0.7-0.7c0,0,0,0,0-0.7V258
		c0,0,0,0,0.7-0.7c0,0,0,0,0.7,0C357.8,258,358.5,258,358.5,258.7C358.5,258,358.5,258,358.5,258.7z"/>
	<path fill="#FFFFFF" d="M312.6,244.1c-1.4,0-2.8,2.1-2.8,2.1v-2.1h-3.5l-2.1,14.6h4.2c1.4-6.3,1.4-11.1,4.2-10.4
		c0.7-2.1,0.7-3.5,1.4-4.2C313.3,244.1,312.6,244.1,312.6,244.1z"/>
	<path fill="#FFFFFF" d="M302.2,278.9L302.2,278.9c1.4-1.4,2.8-2.8,4.2-4.2H298C299.4,276.1,300.8,277.5,302.2,278.9L302.2,278.9
		L302.2,278.9z"/>
	<path fill="#FFFFFF" d="M306.4,225.3h-7.7c-0.7,1.4-2.1,2.8-2.8,4.2h13.2C308.5,228.1,307.1,226.7,306.4,225.3z"/>
	<path fill="#FFFFFF" d="M364.1,271.9L364.1,271.9L364.1,271.9L364.1,271.9C364.1,271.2,364.1,271.2,364.1,271.9c0-0.7,0-0.7,0-0.7
		l0,0h-0.7v1.4L364.1,271.9L364.1,271.9L364.1,271.9C363.4,271.9,363.4,271.9,364.1,271.9L364.1,271.9L364.1,271.9L364.1,271.9
		L364.1,271.9L364.1,271.9z M363.4,271.9L363.4,271.9L363.4,271.9L363.4,271.9C364.1,271.2,364.1,271.2,363.4,271.9
		C364.1,271.2,364.1,271.2,363.4,271.9C364.1,271.2,364.1,271.2,363.4,271.9C364.1,271.9,364.1,271.9,363.4,271.9
		C364.1,271.9,364.1,271.9,363.4,271.9z"/>
	<path fill="#FFFFFF" d="M311.2,233.6h-18.1c-1.4,2.1-2.1,3.5-2.1,4.2h21.6C312.6,236.4,311.9,235,311.2,233.6z"/>
	<path fill="#FFFFFF" d="M298.7,259.4c2.8,0,4.2-0.7,4.2-0.7l0.7-3.5c0,0-2.1,0.7-4.2,0.7c-4.2,0-3.5-2.8-3.5-2.8h7.7
		c0,0,0.7-2.8,0.7-3.5c0-2.8-1.4-5.6-5.6-5.6c-3.5,0-6.3,4.2-6.3,9.1C291.8,258,295.2,259.4,298.7,259.4z M298.7,247.6
		c2.1,0,1.4,2.1,1.4,2.8h-4.2C295.9,249.6,296.6,247.6,298.7,247.6z"/>
	<polygon fill="#FFFFFF" points="258.4,241.3 254.9,252.4 254.9,241.3 249.3,241.3 245.9,259.4 250,259.4 252.1,245.5 252.1,259.4 
		254.9,259.4 259.8,245.5 257.7,259.4 261.2,259.4 264.6,241.3 	"/>
	<path fill="#FFFFFF" d="M289.7,248.3h2.1l0.7-3.5h-2.1l0.7-2.1h-3.5c0,0-2.1,12.5-2.1,13.9c0,2.1,1.4,3.5,2.8,3.5
		c1.4,0,2.8-0.7,2.8-0.7l0.7-3.5h-0.7c-1.4,0-1.4-0.7-1.4-1.4V248.3z"/>
	<path fill="#FFFFFF" d="M282,247.6c0.7,0,2.8,0,2.8,0l0.7-3.5c0,0-1.4,0-3.5,0c-2.8,0-5.6,1.4-5.6,4.9c0,4.2,4.9,4.2,4.9,5.6
		s-1.4,1.4-2.1,1.4c-2.1,0-3.5-0.7-3.5-0.7l-0.7,3.5c0,0,1.4,0.7,4.2,0.7c0.7,0,5.6,0,5.6-4.9s-4.2-3.5-4.2-5.6
		C279.9,248.3,280.6,247.6,282,247.6z"/>
	<path fill="#FFFFFF" d="M270.2,244.1c-2.8,0-4.9,0.7-4.9,0.7v3.5c0,0,1.4-0.7,4.2-0.7c1.4,0,2.1,0,2.1,1.4c0,0.7,0,0.7,0,0.7h-1.4
		c-3.5,0-7,1.4-7,5.6c0,3.5,2.1,4.2,3.5,4.2c2.8,0,3.5-1.4,4.2-1.4v1.4h3.5l1.4-10.4C275.1,244.1,271.6,244.1,270.2,244.1z
		 M268.1,255.9c-1.4,0-1.4-0.7-1.4-1.4c0-0.7,0.7-2.1,3.5-2.1c0.7,0,0.7,0,0.7,0C270.9,253.1,270.2,255.9,268.1,255.9z"/>
	<path fill="#FFFFFF" d="M367.6,76.3c3.5,0,6.3,2.8,6.3,6.3v83.5c0,3.5-2.8,6.3-6.3,6.3H236.8c-3.5,0-6.3-2.8-6.3-6.3V82.6
		c0-3.5,2.8-6.3,6.3-6.3H367.6 M367.6,69.3H236.8c-7,0-13.2,5.6-13.2,13.2v83.5c0,7,5.6,13.2,13.2,13.2h130.8
		c7,0,13.2-5.6,13.2-13.2V82.6C380.8,74.9,375.2,69.3,367.6,69.3L367.6,69.3z"/>
	<g>
		<path fill="#B6B0AD" d="M85.7,494.4v-57.1c3.8-1.1,8.5-1.7,14-1.7c5.5,0,9.6,1.3,12.3,3.8c2.6,2.5,4,6.6,4,12.1
			c0,5.5-2.2,9.5-6.7,12v0.3c6.1,1.7,9.2,6.9,9.2,15.4c0,6-1.4,10.2-4.3,12.8c-2.9,2.6-8,4-15,4C94,496,89.5,495.5,85.7,494.4z
			 M93.2,461.7h5c6.7,0,10.1-3.4,10.1-10.2c0-6.9-3.4-10.3-10.1-10.3h-5V461.7z M93.2,490.6h5.9c4.2,0,7.2-0.9,9-2.6
			c1.8-1.8,2.7-4.8,2.7-9c0-4.2-0.9-7.3-2.7-9.1c-1.8-1.8-4.8-2.8-9-2.8h-5.9V490.6z"/>
		<path fill="#B6B0AD" d="M125.5,482.6c0-7.1,2.5-11.3,7.5-12.5c1.5-0.4,3.3-0.5,5.4-0.5c2.1,0,4.8,0.3,8.1,0.8v-3.9
			c0-5.3-1.8-8.3-5.3-9.1c-1.1-0.2-2.4-0.4-3.9-0.4h-8.4v-3c3.2-1.1,6.3-1.6,9.3-1.6c3,0,5.5,0.2,7.3,0.6c1.9,0.4,3.4,1.1,4.7,2.1
			c2.5,2.1,3.8,6,3.8,11.6v28.5h-6.3l-0.4-2.5h-0.5c-2.2,2.2-5.1,3.3-8.8,3.3c-4.2,0-7.2-0.9-9.1-2.6
			C126.7,491.3,125.5,487.7,125.5,482.6z M133.1,482.6c0,4.5,1.5,7.1,4.6,8c0.9,0.3,1.9,0.4,3,0.4c2.4,0,4.3-0.6,5.9-1.7v-14.7h-5.9
			c-2.1,0-3.9,0.5-5.4,1.6C133.8,477.4,133.1,479.5,133.1,482.6z"/>
		<path fill="#B6B0AD" d="M164.9,495.2v-42h6.3l0.4,2.5h0.4c2.2-2.2,5.1-3.3,8.8-3.3c4.4,0,7.6,0.8,9.5,2.5c2.3,2,3.5,5.4,3.5,10.1
			v30.2h-7.6V465c0-4-1.6-6.5-4.8-7.3c-0.9-0.2-2.3-0.3-4-0.3c-1.7,0-3.4,0.6-5,1.7v36.1H164.9z"/>
		<path fill="#B6B0AD" d="M205.2,495.2v-58.8h7.6v36.1l12.2-19.3h8.4l-13,19.7l14.7,22.2h-8.4l-13.8-21.8v21.8H205.2z"/>
		<path fill="#B6B0AD" d="M260.5,474.2c0-8.1,1.3-13.8,3.9-17.2c1.3-1.7,2.9-2.8,4.8-3.5c1.9-0.7,4.4-1,7.5-1c3.1,0,6.2,0.5,9.4,1.6
			v3.4h-8.4c-3.3,0-5.7,1.1-7.2,3.4c-1.7,2.6-2.5,7-2.5,13.4c0,6.5,0.9,11,2.6,13.5c1.5,2.2,4.2,3.3,7.9,3.3h8.4v3.4
			c-3.2,1.1-6.4,1.6-9.5,1.6s-5.8-0.3-7.8-1s-3.8-1.9-5.1-3.5C261.8,488.2,260.5,482.4,260.5,474.2z"/>
		<path fill="#B6B0AD" d="M292,482.6c0-7.1,2.5-11.3,7.5-12.5c1.5-0.4,3.3-0.5,5.4-0.5c2.1,0,4.8,0.3,8.1,0.8v-3.9
			c0-5.3-1.8-8.3-5.3-9.1c-1.1-0.2-2.4-0.4-3.9-0.4h-8.4v-3c3.2-1.1,6.3-1.6,9.3-1.6c3,0,5.5,0.2,7.3,0.6c1.9,0.4,3.4,1.1,4.7,2.1
			c2.5,2.1,3.8,6,3.8,11.6v28.5h-6.3l-0.4-2.5h-0.5c-2.2,2.2-5.1,3.3-8.8,3.3c-4.2,0-7.2-0.9-9.1-2.6
			C293.1,491.3,292,487.7,292,482.6z M299.5,482.6c0,4.5,1.5,7.1,4.6,8c0.9,0.3,1.9,0.4,3,0.4c2.4,0,4.3-0.6,5.9-1.7v-14.7h-5.9
			c-2.1,0-3.9,0.5-5.4,1.6C300.2,477.4,299.5,479.5,299.5,482.6z"/>
		<path fill="#B6B0AD" d="M331.4,495.2v-42h6.4l0.4,3.4h0.4c2.7-2.2,6.1-3.4,10.4-3.4h4.2v6.3h-8.4c-2.4,0-4.4,0.6-5.9,1.7v34H331.4
			z"/>
		<path fill="#B6B0AD" d="M357.8,474.2c0-11.7,2.6-18.6,7.9-20.7c1.7-0.7,3.9-1.1,6.3-1.1c2.5,0,5.1,0.7,8,2.1v-18.1h7.5v58.8h-6.3
			l-0.5-2.5h-0.4c-2.2,2.2-5.1,3.3-8.8,3.3c-4.7,0-8.1-1.5-10.2-4.6C359,488,357.8,482.3,357.8,474.2z M365.4,474.2
			c0,9.2,1.7,14.6,5.2,16.1c1.1,0.5,2.6,0.7,4.4,0.7c1.8,0,3.5-0.6,5.2-1.7v-30.2c-1.6-1.1-3.3-1.7-5.1-1.7c-1.8,0-3.3,0.3-4.4,0.8
			c-1.1,0.5-2,1.4-2.8,2.6C366.1,463.5,365.4,468,365.4,474.2z"/>
		<path fill="#B6B0AD" d="M419.9,512v-58.8h6.3l0.4,2.5h0.4c2.2-2.2,5.1-3.3,8.8-3.3c4.7,0,8.1,1.5,10.2,4.6
			c2.4,3.4,3.6,9.2,3.6,17.2c0,11.7-2.6,18.6-7.9,20.7c-1.7,0.7-3.8,1.1-6.3,1.1s-5.1-0.7-8-2.1V512H419.9z M427.4,489.3
			c1.6,1.1,3.3,1.7,5.2,1.7s3.3-0.2,4.4-0.7s2-1.3,2.8-2.6c1.6-2.7,2.4-7.2,2.4-13.5c0-9.1-1.7-14.4-5.2-16.1
			c-1.1-0.5-2.6-0.7-4.4-0.7s-3.6,0.6-5.2,1.7V489.3z"/>
		<path fill="#B6B0AD" d="M457.2,482.6c0-7.1,2.5-11.3,7.5-12.5c1.5-0.4,3.3-0.5,5.4-0.5s4.8,0.3,8.1,0.8v-3.9
			c0-5.3-1.8-8.3-5.3-9.1c-1.1-0.2-2.4-0.4-3.9-0.4h-8.4v-3c3.2-1.1,6.3-1.6,9.3-1.6c3,0,5.5,0.2,7.3,0.6s3.4,1.1,4.7,2.1
			c2.5,2.1,3.8,6,3.8,11.6v28.5h-6.3l-0.4-2.5h-0.5c-2.2,2.2-5.1,3.3-8.8,3.3c-4.2,0-7.2-0.9-9.1-2.6
			C458.4,491.3,457.2,487.7,457.2,482.6z M464.8,482.6c0,4.5,1.5,7.1,4.6,8c0.9,0.3,1.9,0.4,3,0.4c2.4,0,4.3-0.6,5.9-1.7v-14.7h-5.9
			c-2.1,0-3.9,0.5-5.4,1.6C465.5,477.4,464.8,479.5,464.8,482.6z"/>
		<path fill="#B6B0AD" d="M496.6,483.4v-30.2h7.5v30.2c0,5.1,2.7,7.6,8,7.6c2.4,0,4.3-0.6,5.9-1.7v-36.1h7.6v38.6
			c0,7.8-1.3,13.3-4,16.5c-2.5,3-6.8,4.5-12.8,4.5c-3.6,0-7-0.5-10.1-1.6v-3.4h8.4c3.9,0,6.7-1,8.3-3c1.7-2.1,2.6-5.7,2.6-10.9
			c-2.8,1.4-5.8,2.1-8.9,2.1c-1.6,0-3.2-0.2-4.9-0.6C499.2,494.4,496.6,490.4,496.6,483.4z"/>
	</g>
</g>
</svg>
