<?xml version="1.0" encoding="utf-8"?>
<!-- Generator: Adobe Illustrator 18.1.1, SVG Export Plug-In . SVG Version: 6.00 Build 0)  -->
<svg version="1.1" id="_x32_1_plus" xmlns="http://www.w3.org/2000/svg" xmlns:xlink="http://www.w3.org/1999/xlink" x="0px"
	 y="0px" viewBox="0 0 604.5 514.9" enable-background="new 0 0 604.5 514.9" xml:space="preserve">
<g id="_x32_1">
	<ellipse fill="#FFFFFF" cx="301.8" cy="189.9" rx="187.6" ry="188.2"/>
	<ellipse fill="#8A0A00" cx="301.8" cy="189.9" rx="165.7" ry="166.2"/>
	<ellipse fill="none" stroke="#8A0A00" stroke-width="6" stroke-miterlimit="10" cx="301.8" cy="191.3" rx="187.3" ry="187.9"/>
	<g>
		<path fill="#FFFFFF" d="M262.2,159.2c0,2.1,0,3.5-0.7,4.9c-0.7,1.4-0.7,3.5-2.1,4.9c-0.7,2.1-2.1,3.5-3.5,5.6s-3.5,4.2-5.6,6.3
			c-2.1,2.1-4.9,4.9-7.7,7.7c-2.8,2.8-6.3,6.3-9.7,9.8l-11.1,11.2h26.5c2.1,0,4.2-0.7,6.3-2.1c1.4-1.4,2.8-3.5,3.5-5.6l0.7-3.5h7
			l-0.7,23.7h-53.6v-11.9l16.7-17.5c3.5-3.5,6.3-7,8.4-9.8c2.1-2.8,4.2-5.6,5.6-8.4c1.4-2.8,2.1-5.6,2.8-7.7s0.7-5.6,0.7-8.4
			c0-4.2-0.7-7.7-2.1-9.8c-1.4-2.1-3.5-2.8-6.3-2.8c-4.2,0-6.3,1.4-8.4,4.9c-1.4,3.5-2.1,8.4-2.1,14.7c-2.1,0-4.2,0-5.6-0.7
			c-2.1-0.7-3.5-1.4-4.9-2.1c-1.4-0.7-2.1-2.1-2.8-3.5s-1.4-3.5-1.4-4.9c0-2.1,0.7-4.2,1.4-5.6c1.4-2.1,2.8-3.5,4.9-4.9
			c2.1-1.4,4.9-2.8,7.7-3.5s7-1.4,11.1-1.4c4.2,0,7.7,0.7,11.1,1.4c3.5,0.7,6.3,2.1,8.4,3.5s4.2,3.5,4.9,6.3
			C261.5,153.6,262.2,156.4,262.2,159.2z"/>
		<path fill="#FFFFFF" d="M281,222.7v-6.3h9.1c0.7,0,2.1,0,2.8-0.7c0.7,0,1.4-0.7,2.1-1.4c0.7,0.7,0.7,0,0.7-1.4s0-2.1,0-3.5v-57.3
			c-1.4,2.1-2.8,3.5-4.2,4.9c-1.4,1.4-2.8,2.8-3.5,3.5c-1.4,0.7-2.1,2.1-3.5,2.1c-0.7,1.4-2.1,1.4-2.8,1.4s-2.1,0-2.8-0.7
			s-1.4-0.7-2.1-1.4c-0.7-0.7-1.4-1.4-1.4-2.8c0-0.7-0.7-2.1-0.7-3.5c1.4,0,2.1-0.7,3.5-1.4c1.4-0.7,2.8-0.7,4.2-1.4
			c1.4-0.7,2.8-1.4,4.9-2.8c1.4-0.7,3.5-2.1,5.6-3.5l7.7-5.6H313v68.5c0,1.4,0,2.1,0,3.5c0,0.7,0.7,1.4,0.7,2.1
			c0.7,0.7,0.7,1.4,2.1,1.4s1.4,0.7,2.8,0.7h9.1v6.3H281V222.7z"/>
		<path fill="#FFFFFF" d="M369.4,186.4v20.3H361v-20.3h-20.2V178H361v-20.3h8.4V178h20.2v8.4H369.4z"/>
	</g>
	<g>
		<path fill="#B6B0AD" d="M198.2,495.2v-6.7c4.2-5.3,7.7-9.6,10.5-13c2.8-3.4,5-6.4,6.7-8.9s2.9-4.8,3.6-6.8s1-4.2,1-6.5
			c0-4.4-0.8-7.6-2.4-9.4s-3.9-2.8-6.8-2.8H199v-3.8c3.3-1.1,7.6-1.6,12.9-1.6c5.3,0,9.2,1.4,11.8,4.1s3.9,7.2,3.9,13.5
			c0,2.7-0.4,5.3-1.3,7.6c-0.8,2.3-2.1,4.9-3.9,7.6c-1.8,2.7-4,5.7-6.7,9c-2.7,3.3-5.9,7.3-9.6,11.9h21.4v5.9H198.2z"/>
		<path fill="#B6B0AD" d="M230.9,442.3v-4.2c3.3-1.1,7.5-1.7,12.6-1.7h4.2v58.8h-7.5v-52.9H230.9z"/>
		<path fill="#B6B0AD" d="M280,512v-58.8h6.3l0.4,2.5h0.4c2.2-2.2,5.1-3.3,8.8-3.3c4.7,0,8.1,1.5,10.2,4.6c2.4,3.4,3.6,9.2,3.6,17.2
			c0,11.7-2.6,18.6-7.9,20.7c-1.7,0.7-3.8,1.1-6.3,1.1s-5.1-0.7-8-2.1V512H280z M287.5,489.3c1.6,1.1,3.3,1.7,5.2,1.7
			c1.8,0,3.3-0.2,4.4-0.7c1.1-0.5,2-1.3,2.8-2.6c1.6-2.7,2.4-7.2,2.4-13.5c0-9.1-1.7-14.4-5.2-16.1c-1.1-0.5-2.6-0.7-4.4-0.7
			c-1.8,0-3.6,0.6-5.2,1.7V489.3z"/>
		<path fill="#B6B0AD" d="M319.4,495.2v-58.8h7.6v58.8H319.4z"/>
		<path fill="#B6B0AD" d="M338.3,483.4v-30.2h7.5v30.2c0,5.1,2.7,7.6,8,7.6c2.4,0,4.3-0.6,5.9-1.7v-36.1h7.6v42h-6.3l-0.4-2.5h-0.4
			c-2.2,2.2-5.1,3.3-8.8,3.3c-4.4,0-7.6-0.8-9.5-2.5C339.4,491.5,338.3,488.2,338.3,483.4z"/>
		<path fill="#B6B0AD" d="M375.6,463.4c0-4.2,1.3-7.1,3.8-8.7c2.5-1.5,5.9-2.3,10.2-2.3c4.3,0,8,0.5,11.2,1.6v3.4h-8.4
			c-3,0-5.3,0.5-6.8,1.4s-2.4,2.3-2.4,4.2s0.5,3.3,1.5,4.3c1,1,2.2,1.8,3.6,2.6c1.4,0.7,3,1.4,4.7,2c1.7,0.6,3.3,1.5,4.7,2.5
			c3.4,2.3,5.1,5.7,5.1,9.9c0,4.5-1.3,7.6-4,9.3c-2.4,1.6-6.7,2.4-12.8,2.4c-3.5,0-6.9-0.5-10.1-1.6V491h8.4c3.8,0,6.6-0.5,8.3-1.5
			c1.7-1,2.6-2.7,2.6-5.2c0-1.7-0.5-3-1.5-4s-2.2-1.8-3.6-2.6c-1.4-0.7-3-1.4-4.7-2.1c-1.7-0.6-3.3-1.5-4.8-2.4
			C377.3,470.9,375.6,467.6,375.6,463.4z"/>
	</g>
</g>
</svg>
