<?xml version="1.0" encoding="utf-8"?>
<!-- Generator: Adobe Illustrator 18.1.1, SVG Export Plug-In . SVG Version: 6.00 Build 0)  -->
<svg version="1.1" id="Taxi_1_" xmlns="http://www.w3.org/2000/svg" xmlns:xlink="http://www.w3.org/1999/xlink" x="0px" y="0px"
	 viewBox="0 0 604.5 514.9" enable-background="new 0 0 604.5 514.9" xml:space="preserve">
<g id="Taxi">
	<circle fill="#FFFFFF" cx="302.2" cy="191.2" r="188.1"/>
	<circle fill="#8A0A00" cx="302.2" cy="191.2" r="166.1"/>
	<circle fill="none" stroke="#8A0A00" stroke-width="6" stroke-miterlimit="10" cx="302.2" cy="191.2" r="187.9"/>
	<g>
		<rect x="232.1" y="112.6" fill="#FFFFFF" width="47" height="47"/>
		<rect x="278.4" y="159.6" fill="#FFFFFF" width="47" height="47"/>
		<rect x="185.1" y="159.6" fill="#FFFFFF" width="47" height="47"/>
		<rect x="372.3" y="159.6" fill="#FFFFFF" width="47" height="47"/>
		<rect x="325.3" y="112.6" fill="#FFFFFF" width="47" height="47"/>
	</g>
	<g>
		<path fill="#B6B0AD" d="M143,442.3v-5.9h34.4v5.9H164v52.9h-7.5v-52.9H143z"/>
		<path fill="#B6B0AD" d="M182,482.6c0-7.1,2.5-11.3,7.5-12.5c1.5-0.4,3.3-0.5,5.4-0.5c2.1,0,4.8,0.3,8.1,0.8v-3.9
			c0-5.3-1.8-8.3-5.3-9.1c-1.1-0.2-2.4-0.4-3.9-0.4h-8.4v-3c3.2-1.1,6.3-1.6,9.3-1.6c3,0,5.5,0.2,7.3,0.6c1.9,0.4,3.4,1.1,4.7,2.1
			c2.5,2.1,3.8,6,3.8,11.6v28.5h-6.3l-0.4-2.5h-0.5c-2.2,2.2-5.1,3.3-8.8,3.3c-4.2,0-7.2-0.9-9.1-2.6
			C183.2,491.3,182,487.7,182,482.6z M189.5,482.6c0,4.5,1.5,7.1,4.6,8c0.9,0.3,1.9,0.4,3,0.4c2.4,0,4.3-0.6,5.9-1.7v-14.7h-5.9
			c-2.1,0-3.9,0.5-5.4,1.6C190.3,477.4,189.5,479.5,189.5,482.6z"/>
		<path fill="#B6B0AD" d="M217.2,495.2l10.5-21.4l-10.2-20.6h7.5l7.7,15.5l7.6-15.5h7.5l-10.2,20.6l10.5,21.4h-7.5l-7.9-16.3
			l-8,16.3H217.2z"/>
		<path fill="#B6B0AD" d="M255.4,447.4v-9.3h7.6v9.3H255.4z M255.4,495.2v-42h7.6v42H255.4z"/>
		<path fill="#B6B0AD" d="M293.6,474.2c0-11.6,3-18.5,8.8-20.7c1.9-0.7,4.2-1.1,6.7-1.1c5.3,0,9.1,1.6,11.6,4.8c2.6,3.4,4,9.1,4,17
			c0,11.6-2.9,18.5-8.8,20.7c-1.9,0.7-4.2,1.1-6.7,1.1c-5.2,0-9.1-1.6-11.5-4.8C294.9,487.9,293.6,482.2,293.6,474.2z M301.1,474.2
			c0,11.5,2.7,17.2,8,17.2s8-5.7,8-17.2s-2.7-17.2-8-17.2S301.1,462.8,301.1,474.2z"/>
		<path fill="#B6B0AD" d="M333.8,495.2v-42h6.4l0.4,3.4h0.4c2.7-2.2,6.1-3.4,10.4-3.4h4.2v6.3h-8.4c-2.4,0-4.4,0.6-5.9,1.7v34H333.8
			z"/>
		<path fill="#B6B0AD" d="M360.3,474.2c0-11.7,2.6-18.6,7.9-20.7c1.7-0.7,3.9-1.1,6.3-1.1s5.1,0.7,8,2.1v-18.1h7.5v58.8h-6.3
			l-0.5-2.5h-0.4c-2.2,2.2-5.1,3.3-8.8,3.3c-4.7,0-8.1-1.5-10.2-4.6C361.5,488,360.3,482.3,360.3,474.2z M367.8,474.2
			c0,9.2,1.7,14.6,5.2,16.1c1.1,0.5,2.6,0.7,4.4,0.7s3.6-0.6,5.2-1.7v-30.2c-1.6-1.1-3.3-1.7-5.1-1.7s-3.3,0.3-4.4,0.8
			c-1.1,0.5-2,1.4-2.8,2.6C368.6,463.5,367.8,468,367.8,474.2z"/>
		<path fill="#B6B0AD" d="M399.7,474.2c0-8.1,1.2-13.8,3.7-17.2c2.2-3.1,5.9-4.6,11-4.6c5.1,0,8.7,1.5,11,4.6
			c2.5,3.4,3.7,9.1,3.7,17.2v2.5h-21.8c0,5.3,0.9,9.1,2.7,11.2c1.7,2,4.8,3.1,9,3.1h8.4v3.4c-3.2,1.1-6.5,1.6-9.8,1.6
			c-3.3,0-6.1-0.3-8.3-1c-2.2-0.7-4-1.9-5.5-3.5C401,488.2,399.7,482.5,399.7,474.2z M407.2,471.7h14.3c0-7.7-1.5-12.4-4.4-14
			c-0.9-0.5-1.8-0.7-2.7-0.7c-3.3,0-5.5,2.5-6.6,7.6C407.4,466.5,407.2,468.9,407.2,471.7z"/>
		<path fill="#B6B0AD" d="M438.3,495.2v-42h6.4l0.4,3.4h0.4c2.7-2.2,6.1-3.4,10.4-3.4h4.2v6.3h-8.4c-2.4,0-4.4,0.6-5.9,1.7v34H438.3
			z"/>
	</g>
	<path fill="#FFFFFF" d="M241.5,279.5c0,1,0.1,1.8,0.3,2.4c0.2,0.6,0.4,1,0.8,1.4c0.3,0.3,0.7,0.5,1.1,0.6c0.4,0.1,0.9,0.2,1.4,0.2
		h2.9v3.7h-24V284h2.9c0.5,0,1-0.1,1.4-0.2c0.4-0.1,0.8-0.3,1.1-0.6c0.3-0.3,0.6-0.8,0.7-1.4c0.2-0.6,0.3-1.4,0.3-2.4v-37.1h-5.6
		c-1,0-1.9,0.1-2.6,0.3c-0.7,0.2-1.3,0.5-1.7,1c-0.4,0.4-0.8,0.9-1,1.5c-0.2,0.6-0.4,1.3-0.5,2.1l-0.5,4.3H214l0.4-13.5h43.2
		l0.3,13.5h-4.6l-0.5-4.3c-0.1-0.8-0.2-1.5-0.5-2.1c-0.2-0.6-0.5-1.1-1-1.5c-0.4-0.4-1-0.7-1.7-1c-0.7-0.2-1.6-0.3-2.6-0.3h-5.6
		V279.5z"/>
	<path fill="#FFFFFF" d="M273.8,271.4l-2,6c-0.2,0.6-0.4,1.2-0.6,2c-0.2,0.8-0.3,1.4-0.3,2c0,0.5,0.1,0.8,0.3,1.2
		c0.2,0.3,0.4,0.6,0.7,0.8c0.3,0.2,0.6,0.4,1,0.5c0.4,0.1,0.8,0.2,1.2,0.2h2.9v3.7h-18.1V284h0.8c0.6,0,1.2-0.1,1.7-0.2
		c0.5-0.1,1-0.4,1.4-0.8c0.4-0.4,0.9-0.9,1.3-1.5c0.4-0.7,0.8-1.5,1.2-2.5l15-40.8h9.5l14.5,40.9c0.3,1,0.7,1.8,1.1,2.4
		c0.4,0.6,0.8,1.2,1.2,1.5c0.4,0.4,0.9,0.6,1.4,0.8c0.5,0.2,1,0.2,1.6,0.2h1.3v3.7H288V284h2.7c0.3,0,0.7-0.1,1.1-0.2
		c0.4-0.1,0.7-0.3,1-0.5c0.3-0.2,0.5-0.5,0.7-0.8c0.2-0.3,0.3-0.7,0.3-1.2c0-0.6-0.1-1.1-0.2-1.6s-0.3-1-0.4-1.4l-2.4-6.9H273.8z
		 M285.6,255.8c-0.2-0.8-0.5-1.6-0.8-2.5c-0.3-0.9-0.5-1.8-0.8-2.7c-0.3-0.9-0.5-1.8-0.7-2.7c-0.2-0.9-0.4-1.7-0.6-2.6
		c-0.2,0.7-0.4,1.5-0.7,2.3c-0.3,0.8-0.6,1.7-0.9,2.6c-0.3,0.9-0.6,1.8-0.9,2.6c-0.3,0.9-0.6,1.7-0.9,2.5l-4.1,11.7h14L285.6,255.8z
		"/>
	<path fill="#FFFFFF" d="M347.2,243.9c0-0.4-0.1-0.7-0.3-1c-0.2-0.3-0.5-0.5-0.8-0.6c-0.4-0.1-0.8-0.2-1.2-0.3
		c-0.5-0.1-1-0.1-1.5-0.1h-0.2v-3.7h16.3v3.7h-0.6c-0.7,0-1.3,0.1-1.8,0.3c-0.5,0.2-1.1,0.5-1.6,0.8c-0.5,0.4-1.1,0.9-1.6,1.5
		c-0.5,0.6-1.2,1.4-1.8,2.4l-10.1,13.7l12.8,19.8c0.9,1.4,1.8,2.4,2.8,2.9c1,0.5,1.9,0.8,2.7,0.8h0.9v3.7h-22.9V284h0.3
		c2.8,0,4.2-0.8,4.2-2.3c0-0.3,0-0.5-0.1-0.8c0-0.2-0.2-0.5-0.3-0.9c-0.2-0.3-0.4-0.8-0.7-1.3c-0.3-0.5-0.7-1.1-1.2-1.9l-6.4-9.7
		l-7.5,10.1c-0.4,0.6-0.8,1.3-1.2,2c-0.4,0.8-0.6,1.5-0.6,2.2c0,0.8,0.3,1.4,0.9,1.7c0.6,0.4,1.7,0.6,3.3,0.6h0.2v3.7h-17.5V284h0.4
		c0.8,0,1.6-0.1,2.2-0.3c0.6-0.2,1.2-0.5,1.8-1c0.6-0.4,1.1-0.9,1.6-1.5c0.5-0.6,1.1-1.3,1.6-2l12.1-15.8l-11.5-17.8
		c-0.4-0.6-0.8-1.1-1.1-1.6c-0.4-0.5-0.8-0.8-1.3-1.2c-0.5-0.3-1-0.5-1.5-0.7c-0.6-0.2-1.2-0.2-2-0.2H313v-3.7h23v3.7h-0.2
		c-0.8,0-1.5,0.1-2,0.2c-0.5,0.1-1,0.2-1.3,0.4c-0.3,0.2-0.5,0.4-0.7,0.7c-0.1,0.2-0.2,0.5-0.2,0.8c0,0.5,0.2,1.1,0.5,1.8
		c0.3,0.7,0.8,1.5,1.3,2.3l5.8,8.6l6-8.4c0.4-0.6,0.8-1.3,1.2-2.1S347.2,244.5,347.2,243.9z"/>
	<path fill="#FFFFFF" d="M363.6,287.7V284h2.9c0.5,0,1-0.1,1.4-0.2c0.4-0.1,0.8-0.3,1.1-0.6c0.3-0.3,0.6-0.8,0.7-1.4
		c0.2-0.6,0.3-1.4,0.3-2.4v-33.1c0-1-0.1-1.8-0.3-2.4c-0.2-0.6-0.4-1-0.7-1.4c-0.3-0.3-0.7-0.5-1.1-0.6c-0.4-0.1-0.9-0.2-1.4-0.2
		h-2.9v-3.7h24v3.7h-2.9c-0.5,0-1,0.1-1.4,0.2s-0.8,0.3-1.1,0.6c-0.3,0.3-0.6,0.8-0.7,1.4c-0.2,0.6-0.3,1.4-0.3,2.4v33.1
		c0,1,0.1,1.8,0.3,2.4c0.2,0.6,0.4,1,0.7,1.4s0.7,0.5,1.1,0.6c0.4,0.1,0.9,0.2,1.4,0.2h2.9v3.7H363.6z"/>
</g>
</svg>
