<?xml version="1.0" encoding="utf-8"?>
<!-- Generator: Adobe Illustrator 18.1.1, SVG Export Plug-In . SVG Version: 6.00 Build 0)  -->
<svg version="1.1" id="Food_delivery" xmlns="http://www.w3.org/2000/svg" xmlns:xlink="http://www.w3.org/1999/xlink" x="0px"
	 y="0px" viewBox="0 0 604.5 514.9" enable-background="new 0 0 604.5 514.9" xml:space="preserve">
<g id="Food">
	<ellipse fill="#FFFFFF" cx="301.8" cy="190.9" rx="187.8" ry="187.5"/>
	<ellipse fill="#8A0A00" cx="303.5" cy="189.8" rx="166.4" ry="166.1"/>
	<ellipse fill="none" stroke="#8A0A00" stroke-width="6" stroke-miterlimit="10" cx="302.1" cy="191.2" rx="188.1" ry="187.7"/>
	<g>
		<path fill="#FFFFFF" d="M242.7,269.3h22.4c0,2.1,2.1,3.5,4.2,3.5h50.3c2.1,0,3.5-1.4,4.2-3.5h21.7c3.5,0,7-2.8,7-7H236.4
			C236.4,265.8,239.2,269.3,242.7,269.3L242.7,269.3z"/>
		<path fill="#FFFFFF" d="M379,194.7c-5.6-4.9-13.3-4.9-18.9-4.2c0-3.5,0-7.7,0-11.2H222.4c0,37,5.6,64.2,41.2,74h55.2
			c14-4.2,23.8-10.5,30.1-19.5c13.3,0,35.7-5.6,36.4-24.4C385.3,201.6,381.8,196.8,379,194.7L379,194.7z M354.5,223.3
			c2.8-7,4.2-14,4.9-22.3c3.5-0.7,9.8-0.7,13.3,1.4c0.7,0.7,2.1,2.1,2.1,7C374.1,219.1,362.2,221.9,354.5,223.3L354.5,223.3z"/>
		<path fill="#FFFFFF" d="M278.3,159.8c0,0,26.6-2.1,14-23.7c-9.8-17.4-7.7-27.9,4.9-37.7c0,0-40.5,10.5-16.8,41.9
			C289.5,154.2,278.3,159.8,278.3,159.8L278.3,159.8z"/>
		<path fill="#FFFFFF" d="M301.4,163.3c0,0,21-4.2,9.8-21.6c-4.2-7,1.4-9.8,1.4-9.8s-13.3,0.7-7.7,11.9
			C309.8,153.5,308.4,158.4,301.4,163.3L301.4,163.3z"/>
	</g>
	<g>
		<path fill="#B6B0AD" d="M92.7,495.2v-58.8h28.6v5.9h-21v20.6h17.6v5.9h-17.6v26.4H92.7z"/>
		<path fill="#B6B0AD" d="M126.7,474.2c0-11.6,3-18.5,8.8-20.7c1.9-0.7,4.2-1.1,6.7-1.1c5.3,0,9.1,1.6,11.6,4.8c2.6,3.4,4,9.1,4,17
			c0,11.6-2.9,18.5-8.8,20.7c-1.9,0.7-4.2,1.1-6.7,1.1c-5.2,0-9.1-1.6-11.5-4.8C128,487.9,126.7,482.2,126.7,474.2z M134.2,474.2
			c0,11.5,2.7,17.2,8,17.2s8-5.7,8-17.2s-2.7-17.2-8-17.2S134.2,462.8,134.2,474.2z"/>
		<path fill="#B6B0AD" d="M165.2,474.2c0-11.6,3-18.5,8.8-20.7c1.9-0.7,4.2-1.1,6.7-1.1c5.3,0,9.1,1.6,11.6,4.8c2.6,3.4,4,9.1,4,17
			c0,11.6-2.9,18.5-8.8,20.7c-1.9,0.7-4.2,1.1-6.7,1.1c-5.2,0-9.1-1.6-11.5-4.8C166.6,487.9,165.2,482.2,165.2,474.2z M172.8,474.2
			c0,11.5,2.7,17.2,8,17.2s8-5.7,8-17.2s-2.7-17.2-8-17.2S172.8,462.8,172.8,474.2z"/>
		<path fill="#B6B0AD" d="M203.8,474.2c0-11.7,2.6-18.6,7.9-20.7c1.7-0.7,3.9-1.1,6.3-1.1c2.5,0,5.1,0.7,8,2.1v-18.1h7.5v58.8h-6.3
			l-0.5-2.5h-0.4c-2.2,2.2-5.1,3.3-8.8,3.3c-4.7,0-8.1-1.5-10.2-4.6C205,488,203.8,482.3,203.8,474.2z M211.4,474.2
			c0,9.2,1.7,14.6,5.2,16.1c1.1,0.5,2.6,0.7,4.4,0.7c1.8,0,3.6-0.6,5.2-1.7v-30.2c-1.6-1.1-3.3-1.7-5.1-1.7c-1.8,0-3.3,0.3-4.4,0.8
			c-1.1,0.5-2,1.4-2.8,2.6C212.2,463.5,211.4,468,211.4,474.2z"/>
		<path fill="#B6B0AD" d="M264.2,474.2c0-11.7,2.6-18.6,7.9-20.7c1.7-0.7,3.9-1.1,6.3-1.1c2.5,0,5.1,0.7,8,2.1v-18.1h7.5v58.8h-6.3
			l-0.5-2.5h-0.4c-2.2,2.2-5.1,3.3-8.8,3.3c-4.7,0-8.1-1.5-10.2-4.6C265.4,488,264.2,482.3,264.2,474.2z M271.8,474.2
			c0,9.2,1.7,14.6,5.2,16.1c1.1,0.5,2.6,0.7,4.4,0.7c1.8,0,3.6-0.6,5.2-1.7v-30.2c-1.6-1.1-3.3-1.7-5.1-1.7c-1.8,0-3.3,0.3-4.4,0.8
			c-1.1,0.5-2,1.4-2.8,2.6C272.6,463.5,271.8,468,271.8,474.2z"/>
		<path fill="#B6B0AD" d="M303.6,474.2c0-8.1,1.2-13.8,3.7-17.2c2.2-3.1,5.9-4.6,11-4.6c5.1,0,8.7,1.5,11,4.6
			c2.5,3.4,3.7,9.1,3.7,17.2v2.5h-21.8c0,5.3,0.9,9.1,2.7,11.2c1.7,2,4.8,3.1,9,3.1h8.4v3.4c-3.2,1.1-6.5,1.6-9.8,1.6
			c-3.3,0-6.1-0.3-8.3-1c-2.2-0.7-4-1.9-5.5-3.5C305,488.2,303.6,482.5,303.6,474.2z M311.2,471.7h14.3c0-7.7-1.5-12.4-4.4-14
			c-0.9-0.5-1.8-0.7-2.7-0.7c-3.3,0-5.5,2.5-6.6,7.6C311.4,466.5,311.2,468.9,311.2,471.7z"/>
		<path fill="#B6B0AD" d="M342.6,495.2v-58.8h7.6v58.8H342.6z"/>
		<path fill="#B6B0AD" d="M361.9,447.4v-9.3h7.6v9.3H361.9z M361.9,495.2v-42h7.6v42H361.9z"/>
		<path fill="#B6B0AD" d="M376.7,453.3h7.1l9.5,34.8l0.3,0l9.5-34.8h7.1l-11.3,42h-11L376.7,453.3z"/>
		<path fill="#B6B0AD" d="M415.2,474.2c0-8.1,1.2-13.8,3.7-17.2c2.2-3.1,5.9-4.6,11-4.6c5.1,0,8.7,1.5,11,4.6
			c2.5,3.4,3.7,9.1,3.7,17.2v2.5h-21.8c0,5.3,0.9,9.1,2.7,11.2c1.7,2,4.8,3.1,9,3.1h8.4v3.4c-3.2,1.1-6.5,1.6-9.8,1.6
			s-6.1-0.3-8.3-1c-2.2-0.7-4-1.9-5.5-3.5C416.6,488.2,415.2,482.5,415.2,474.2z M422.7,471.7H437c0-7.7-1.5-12.4-4.4-14
			c-0.9-0.5-1.8-0.7-2.7-0.7c-3.3,0-5.5,2.5-6.6,7.6C422.9,466.5,422.7,468.9,422.7,471.7z"/>
		<path fill="#B6B0AD" d="M453.8,495.2v-42h6.4l0.4,3.4h0.4c2.7-2.2,6.1-3.4,10.4-3.4h4.2v6.3h-8.4c-2.4,0-4.4,0.6-5.9,1.7v34H453.8
			z"/>
		<path fill="#B6B0AD" d="M481.9,483.4v-30.2h7.5v30.2c0,5.1,2.7,7.6,8,7.6c2.4,0,4.3-0.6,5.9-1.7v-36.1h7.6v38.6
			c0,7.8-1.3,13.3-4,16.5c-2.5,3-6.8,4.5-12.8,4.5c-3.6,0-7-0.5-10.1-1.6v-3.4h8.4c3.9,0,6.7-1,8.3-3c1.7-2.1,2.6-5.7,2.6-10.9
			c-2.8,1.4-5.8,2.1-8.9,2.1c-1.6,0-3.2-0.2-4.9-0.6C484.4,494.4,481.9,490.4,481.9,483.4z"/>
	</g>
</g>
</svg>
