<?xml version="1.0" encoding="utf-8"?>
<!-- Generator: Adobe Illustrator 18.1.1, SVG Export Plug-In . SVG Version: 6.00 Build 0)  -->
<svg version="1.1" id="intimacy" xmlns="http://www.w3.org/2000/svg" xmlns:xlink="http://www.w3.org/1999/xlink" x="0px" y="0px"
	 viewBox="0 0 604.5 514.9" enable-background="new 0 0 604.5 514.9" xml:space="preserve">
<g id="Intimacy">
	<circle fill="#FFFFFF" cx="302.1" cy="189.9" r="187.5"/>
	<circle fill="#8A0A00" cx="302.1" cy="189.9" r="166.3"/>
	<circle fill="none" stroke="#8A0A00" stroke-width="6" stroke-miterlimit="10" cx="302.1" cy="191.3" r="187.9"/>
	<g>
		<path fill="#B6B0AD" d="M117.8,495.2v-58.8h8.4l17.2,41.5h0.4v-41.5h7.6v58.8H143l-17.2-41.5h-0.4v41.5H117.8z"/>
		<path fill="#B6B0AD" d="M161,474.2c0-11.6,3-18.5,8.8-20.7c1.9-0.7,4.2-1.1,6.7-1.1c5.3,0,9.1,1.6,11.6,4.8c2.6,3.4,4,9.1,4,17
			c0,11.6-2.9,18.5-8.8,20.7c-1.9,0.7-4.2,1.1-6.7,1.1c-5.2,0-9.1-1.6-11.5-4.8C162.3,487.9,161,482.2,161,474.2z M168.5,474.2
			c0,11.5,2.7,17.2,8,17.2s8-5.7,8-17.2s-2.7-17.2-8-17.2S168.5,462.8,168.5,474.2z"/>
		<path fill="#B6B0AD" d="M222.7,447.4v-9.3h7.6v9.3H222.7z M222.7,495.2v-42h7.6v42H222.7z"/>
		<path fill="#B6B0AD" d="M241.5,495.2v-42h6.3l0.4,2.5h0.4c2.2-2.2,5.1-3.3,8.8-3.3c4.4,0,7.6,0.8,9.5,2.5c2.3,2,3.5,5.4,3.5,10.1
			v30.2h-7.6V465c0-4-1.6-6.5-4.8-7.3c-0.9-0.2-2.3-0.3-4-0.3c-1.7,0-3.4,0.6-5,1.7v36.1H241.5z"/>
		<path fill="#B6B0AD" d="M277.6,459.6v-5.4h5V444h7.5v10.1h11.8v3.8c-3.3,1.1-6.6,1.6-10.1,1.6h-1.7v22.2c0,4.9,1.3,7.9,3.9,8.8
			c0.7,0.3,1.3,0.4,2,0.4h7.5v3.4c-2.5,1.1-5,1.6-7.7,1.6c-2.7,0-4.7-0.2-6.2-0.6c-1.4-0.4-2.7-1.1-3.7-2.1c-2.2-2.2-3.4-6-3.4-11.6
			v-22.2H277.6z"/>
		<path fill="#B6B0AD" d="M310.7,447.4v-9.3h7.6v9.3H310.7z M310.7,495.2v-42h7.6v42H310.7z"/>
		<path fill="#B6B0AD" d="M329.6,495.2v-42h6.3l0.4,2.5h0.4c2.2-2.2,5-3.3,8.4-3.3c4.3,0,7.4,1.2,9.4,3.7c1.8-1.7,4.5-2.8,7.9-3.4
			c0.9-0.2,2-0.2,3.2-0.2c1.2,0,2.5,0.2,3.9,0.5c1.4,0.4,2.7,1,3.7,2c2.2,2,3.4,5.4,3.4,10.1v30.2H369V465c0-2.6-0.7-4.7-2.1-6
			c-1.1-1-2.4-1.6-4.1-1.6c-2.9,0-5.2,0.6-6.8,1.7c0.6,1.6,0.9,3.6,0.9,5.9v30.2h-7.6V465c0-2.7-0.7-4.7-2-6c-1.1-1-2.7-1.6-4.7-1.6
			c-2,0-3.8,0.6-5.4,1.7v36.1H329.6z"/>
		<path fill="#B6B0AD" d="M385.8,482.6c0-7.1,2.5-11.3,7.5-12.5c1.5-0.4,3.3-0.5,5.4-0.5c2.1,0,4.8,0.3,8.1,0.8v-3.9
			c0-5.3-1.8-8.3-5.3-9.1c-1.1-0.2-2.4-0.4-3.9-0.4h-8.4v-3c3.2-1.1,6.3-1.6,9.3-1.6c3,0,5.5,0.2,7.3,0.6c1.9,0.4,3.4,1.1,4.7,2.1
			c2.5,2.1,3.8,6,3.8,11.6v28.5H408l-0.4-2.5h-0.5c-2.2,2.2-5.1,3.3-8.8,3.3c-4.2,0-7.2-0.9-9.1-2.6
			C387,491.3,385.8,487.7,385.8,482.6z M393.3,482.6c0,4.5,1.5,7.1,4.6,8c0.9,0.3,1.9,0.4,3,0.4c2.4,0,4.3-0.6,5.9-1.7v-14.7h-5.9
			c-2.1,0-3.9,0.5-5.4,1.6C394.1,477.4,393.3,479.5,393.3,482.6z"/>
		<path fill="#B6B0AD" d="M423.5,474.2c0-8.1,1.3-13.8,3.9-17.2c1.3-1.7,2.9-2.8,4.8-3.5s4.4-1,7.5-1s6.2,0.5,9.4,1.6v3.4h-8.4
			c-3.3,0-5.7,1.1-7.2,3.4c-1.7,2.6-2.5,7-2.5,13.4c0,6.5,0.9,11,2.6,13.5c1.5,2.2,4.2,3.3,7.9,3.3h8.4v3.4
			c-3.2,1.1-6.4,1.6-9.5,1.6c-3.2,0-5.8-0.3-7.8-1s-3.8-1.9-5.1-3.5C424.8,488.2,423.5,482.4,423.5,474.2z"/>
		<path fill="#B6B0AD" d="M456.7,483.4v-30.2h7.5v30.2c0,5.1,2.7,7.6,8,7.6c2.4,0,4.3-0.6,5.9-1.7v-36.1h7.6v38.6
			c0,7.8-1.3,13.3-4,16.5c-2.5,3-6.8,4.5-12.8,4.5c-3.6,0-7-0.5-10.1-1.6v-3.4h8.4c3.9,0,6.7-1,8.3-3c1.7-2.1,2.6-5.7,2.6-10.9
			c-2.8,1.4-5.8,2.1-8.9,2.1c-1.6,0-3.2-0.2-4.9-0.6C459.2,494.4,456.7,490.4,456.7,483.4z"/>
	</g>
	<g>
		<path fill="#FFFFFF" d="M288.6,166.1L263.8,131v27.6c0,0.9,0.1,1.6,0.3,2.2c0.2,0.5,0.4,1,0.7,1.2c0.3,0.3,0.6,0.5,1,0.6
			c0.4,0.1,0.8,0.1,1.3,0.1h2.7v3.4h-16.6v-3.4h2.7c0.5,0,0.9,0,1.3-0.1c0.4-0.1,0.7-0.3,1-0.6c0.3-0.3,0.5-0.7,0.7-1.2
			c0.2-0.5,0.2-1.3,0.2-2.2v-30.7c0-0.9-0.1-1.5-0.3-2c-0.2-0.5-0.4-0.9-0.7-1.2c-0.3-0.3-0.6-0.5-1-0.5c-0.4-0.1-0.8-0.1-1.2-0.1
			h-2.7v-3.4h14.2l22.5,31.8v-24.6c0-0.9-0.1-1.5-0.3-2s-0.4-0.9-0.7-1.2c-0.3-0.3-0.6-0.5-1-0.5c-0.4-0.1-0.8-0.1-1.2-0.1h-2.7
			v-3.4h16.6v3.4h-2.7c-0.4,0-0.9,0-1.2,0.1c-0.4,0.1-0.7,0.3-1,0.6c-0.3,0.3-0.5,0.7-0.7,1.2c-0.2,0.5-0.2,1.3-0.2,2.2v38H288.6z"
			/>
		<path fill="#FFFFFF" d="M348.2,143.3c0,3.5-0.5,6.7-1.4,9.6c-0.9,2.9-2.3,5.4-4.2,7.4s-4.1,3.6-6.8,4.8s-5.7,1.7-9.2,1.7
			c-3.6,0-6.8-0.6-9.5-1.7c-2.7-1.1-5-2.7-6.7-4.8c-1.8-2.1-3.1-4.5-4-7.4c-0.9-2.9-1.3-6.1-1.3-9.6c0-3.5,0.4-6.7,1.3-9.6
			c0.9-2.9,2.2-5.3,4-7.4c1.8-2,4-3.6,6.8-4.7c2.7-1.1,5.9-1.7,9.5-1.7c3.4,0,6.5,0.6,9.2,1.7c2.7,1.1,4.9,2.7,6.7,4.7
			c1.8,2,3.2,4.5,4.2,7.4C347.7,136.5,348.2,139.8,348.2,143.3z M315.7,143.3c0,3,0.2,5.8,0.6,8.2c0.4,2.4,1,4.4,1.9,6.1
			s2,2.9,3.4,3.8c1.4,0.9,3.1,1.3,5,1.3c2,0,3.7-0.4,5.1-1.3c1.4-0.9,2.5-2.1,3.3-3.8s1.5-3.7,1.9-6.1c0.4-2.4,0.6-5.1,0.6-8.2
			c0-3-0.2-5.8-0.6-8.2s-1-4.4-1.9-6.1c-0.9-1.6-2-2.9-3.3-3.8c-1.4-0.9-3-1.3-5-1.3c-2,0-3.7,0.4-5.1,1.3c-1.4,0.9-2.5,2.1-3.4,3.8
			c-0.9,1.6-1.5,3.7-1.9,6.1C315.9,137.5,315.7,140.3,315.7,143.3z"/>
		<path fill="#FFFFFF" d="M161,239.2c0.5,0,1,0,1.5-0.1c0.5-0.1,1-0.3,1.5-0.6c0.4-0.3,0.8-0.7,1.1-1.2c0.3-0.5,0.5-1.3,0.5-2.2
			v-19.4c0-0.9-0.2-1.5-0.5-2c-0.3-0.5-0.7-0.9-1.1-1.2c-0.5-0.3-0.9-0.5-1.5-0.5c-0.5-0.1-1-0.1-1.5-0.1h-0.7v-3.4h15v26.6
			c0,0.9,0.1,1.6,0.5,2.2c0.3,0.5,0.7,1,1.1,1.2c0.4,0.3,0.9,0.5,1.5,0.6c0.5,0.1,1,0.1,1.5,0.1h0.7v3.4h-20.3v-3.4H161z
			 M164.6,198.1c0-0.8,0.1-1.5,0.4-2.1c0.3-0.6,0.7-1.1,1.2-1.4c0.5-0.4,1.1-0.6,1.7-0.8c0.7-0.2,1.4-0.3,2.1-0.3
			c0.7,0,1.4,0.1,2.1,0.3c0.7,0.2,1.2,0.4,1.7,0.8c0.5,0.4,0.9,0.8,1.2,1.4c0.3,0.6,0.5,1.3,0.5,2.1c0,0.8-0.2,1.5-0.5,2.1
			c-0.3,0.6-0.7,1.1-1.2,1.4c-0.5,0.4-1.1,0.7-1.7,0.8c-0.7,0.2-1.4,0.3-2.1,0.3c-0.8,0-1.5-0.1-2.1-0.3c-0.7-0.2-1.2-0.5-1.7-0.8
			s-0.9-0.9-1.2-1.4C164.8,199.6,164.6,198.9,164.6,198.1z"/>
		<path fill="#FFFFFF" d="M208.3,242.6v-21c0-1.4-0.1-2.6-0.3-3.7c-0.2-1.1-0.5-2-0.9-2.7c-0.4-0.7-0.9-1.3-1.6-1.7
			c-0.7-0.4-1.4-0.6-2.4-0.6c-1.1,0-1.9,0.3-2.6,0.8c-0.7,0.5-1.3,1.3-1.7,2.2s-0.7,2-0.9,3.1c-0.2,1.2-0.3,2.4-0.3,3.8v12.2
			c0,0.9,0.1,1.6,0.3,2.1c0.2,0.5,0.5,1,0.9,1.3c0.4,0.3,0.9,0.5,1.4,0.6c0.6,0.1,1.2,0.1,1.9,0.1h0.2v3.4h-19.6v-3.4h0.1
			c0.7,0,1.4,0,2-0.1c0.6-0.1,1.1-0.3,1.6-0.6c0.4-0.3,0.8-0.8,1-1.3s0.4-1.3,0.4-2.3V216c0-0.9-0.1-1.6-0.3-2.1s-0.5-1-0.9-1.3
			c-0.4-0.3-0.9-0.5-1.4-0.6c-0.6-0.1-1.2-0.1-1.9-0.1h-0.2v-3.4h13.4l0.8,4.5h0.3c0.6-1.2,1.3-2.2,2-2.9c0.7-0.7,1.5-1.2,2.3-1.6
			c0.8-0.4,1.7-0.6,2.6-0.7c0.9-0.1,1.9-0.2,2.8-0.2c1.6,0,3.1,0.2,4.4,0.7c1.3,0.5,2.4,1.2,3.3,2.2c0.9,1,1.6,2.3,2.1,3.8
			c0.5,1.5,0.7,3.4,0.7,5.6v14.8c0,1,0.1,1.8,0.3,2.4c0.2,0.6,0.4,1,0.8,1.4c0.4,0.3,0.8,0.5,1.3,0.6c0.5,0.1,1.2,0.2,1.9,0.2h0.2
			v3.4H208.3z"/>
		<path fill="#FFFFFF" d="M244.1,238.1c0.8,0,1.6-0.1,2.4-0.2c0.8-0.1,1.5-0.3,2.1-0.4v4.1c-0.3,0.2-0.8,0.3-1.4,0.5
			c-0.6,0.2-1.2,0.4-2,0.5c-0.8,0.2-1.6,0.3-2.6,0.4c-1,0.1-2,0.2-3.1,0.2c-1.4,0-2.7-0.2-3.9-0.5c-1.2-0.3-2.1-0.9-3-1.7
			c-0.8-0.8-1.4-1.8-1.9-3.1c-0.4-1.3-0.7-2.8-0.7-4.7v-20.4h-4.8v-3.3c1.4,0,2.6-0.3,3.7-0.8c1.1-0.5,1.9-1.2,2.6-1.9
			c1.3-1.4,2.3-3.5,2.9-6.3h5.3v7.9h8.2v4.4h-8.2v19.7c0,1.9,0.3,3.3,1,4.2C241.5,237.6,242.6,238.1,244.1,238.1z"/>
		<path fill="#FFFFFF" d="M251.7,239.2c0.5,0,1,0,1.5-0.1c0.5-0.1,1-0.3,1.5-0.6c0.4-0.3,0.8-0.7,1.1-1.2c0.3-0.5,0.5-1.3,0.5-2.2
			v-19.4c0-0.9-0.2-1.5-0.5-2c-0.3-0.5-0.7-0.9-1.1-1.2c-0.5-0.3-0.9-0.5-1.5-0.5c-0.5-0.1-1-0.1-1.5-0.1H251v-3.4h15v26.6
			c0,0.9,0.1,1.6,0.5,2.2c0.3,0.5,0.7,1,1.1,1.2c0.4,0.3,0.9,0.5,1.5,0.6c0.5,0.1,1,0.1,1.5,0.1h0.7v3.4H251v-3.4H251.7z
			 M255.4,198.1c0-0.8,0.1-1.5,0.4-2.1c0.3-0.6,0.7-1.1,1.2-1.4c0.5-0.4,1.1-0.6,1.7-0.8c0.7-0.2,1.4-0.3,2.1-0.3
			c0.7,0,1.4,0.1,2.1,0.3c0.7,0.2,1.2,0.4,1.7,0.8c0.5,0.4,0.9,0.8,1.2,1.4c0.3,0.6,0.5,1.3,0.5,2.1c0,0.8-0.2,1.5-0.5,2.1
			c-0.3,0.6-0.7,1.1-1.2,1.4c-0.5,0.4-1.1,0.7-1.7,0.8c-0.7,0.2-1.4,0.3-2.1,0.3c-0.8,0-1.5-0.1-2.1-0.3c-0.7-0.2-1.2-0.5-1.7-0.8
			s-0.9-0.9-1.2-1.4C255.5,199.6,255.4,198.9,255.4,198.1z"/>
		<path fill="#FFFFFF" d="M299,242.6v-21c0-1.4-0.1-2.6-0.3-3.7c-0.2-1.1-0.5-2-0.9-2.7c-0.4-0.7-0.9-1.3-1.6-1.7
			c-0.7-0.4-1.4-0.6-2.4-0.6c-1.1,0-1.9,0.3-2.6,0.8c-0.7,0.5-1.3,1.3-1.7,2.2s-0.7,2-0.9,3.1c-0.2,1.2-0.3,2.4-0.3,3.8v12.2
			c0,0.9,0.1,1.6,0.3,2.1c0.2,0.5,0.5,1,0.9,1.3c0.4,0.3,0.9,0.5,1.4,0.6c0.6,0.1,1.2,0.1,1.9,0.1h0.2v3.4h-19.6v-3.4h0.1
			c0.7,0,1.4,0,2-0.1c0.6-0.1,1.1-0.3,1.6-0.6c0.4-0.3,0.8-0.8,1-1.3s0.4-1.3,0.4-2.3v-19c0-0.9-0.1-1.6-0.3-2.1
			c-0.2-0.5-0.5-1-0.9-1.3c-0.4-0.3-0.9-0.5-1.4-0.6c-0.6-0.1-1.2-0.1-1.9-0.1h-0.2v-3.2h13.4l0.8,4.5h0.3c0.6-1.2,1.3-2.2,2-2.9
			c0.7-0.7,1.5-1.2,2.3-1.6c0.8-0.4,1.7-0.6,2.6-0.7c0.9-0.1,1.9-0.2,2.8-0.2c2.3,0,4.3,0.4,6,1.3c1.7,0.8,2.9,2.2,3.6,4.1h0.6
			c0.6-1.2,1.3-2.2,2.1-2.9c0.8-0.7,1.6-1.2,2.4-1.6c0.9-0.4,1.8-0.6,2.7-0.7c0.9-0.1,1.9-0.2,2.9-0.2c1.6,0,3.1,0.2,4.4,0.7
			c1.3,0.5,2.4,1.2,3.3,2.2c0.9,1,1.6,2.3,2.1,3.8c0.5,1.5,0.7,3.4,0.7,5.6v14.8c0,1,0.1,1.8,0.3,2.4c0.2,0.6,0.4,1,0.8,1.4
			s0.8,0.5,1.3,0.6c0.5,0.1,1.2,0.2,1.9,0.2h0.2v3.4h-14.2v-21c0-2.7-0.4-4.9-1.1-6.3c-0.8-1.5-2.1-2.2-3.9-2.2
			c-1,0-1.8,0.2-2.6,0.7c-0.7,0.5-1.3,1.1-1.7,2c-0.4,0.8-0.8,1.8-1,2.9c-0.2,1.1-0.3,2.3-0.3,3.5v12.5c0,1,0.1,1.8,0.3,2.4
			c0.2,0.6,0.4,1,0.8,1.4s0.8,0.5,1.3,0.6c0.5,0.1,1.2,0.2,1.9,0.2h0.2v3.4H299z"/>
		<path fill="#FFFFFF" d="M353.6,211.5c-0.8,0-1.5,0.2-2,0.5s-1,0.8-1.3,1.4c-0.3,0.6-0.6,1.3-0.7,2.2s-0.2,1.8-0.2,2.8
			c-2.9,0-5-0.3-6.5-1c-1.4-0.6-2.2-1.7-2.2-3.3c0-1.2,0.3-2.2,1-3c0.7-0.8,1.6-1.5,2.8-2c1.2-0.5,2.6-0.9,4.2-1.1
			c1.6-0.2,3.3-0.4,5.1-0.4c2.2,0,4.2,0.2,5.9,0.6c1.7,0.4,3.1,1,4.2,1.9c1.1,0.9,1.9,2,2.5,3.3c0.6,1.4,0.8,3.1,0.8,5.1v16.2
			c0,0.9,0.1,1.6,0.2,2.2s0.3,1,0.6,1.4c0.3,0.3,0.7,0.6,1.2,0.7c0.5,0.1,1.1,0.2,1.8,0.2h0.2v3.4h-11.9l-1.3-4.4h-0.6
			c-0.7,0.9-1.4,1.6-2,2.2c-0.6,0.6-1.3,1.2-2,1.6c-0.7,0.4-1.5,0.7-2.4,0.9c-0.9,0.2-1.9,0.3-3.1,0.3c-1.4,0-2.7-0.2-3.9-0.6
			c-1.2-0.4-2.3-1.1-3.2-1.9c-0.9-0.9-1.6-1.9-2.1-3.2c-0.5-1.3-0.8-2.8-0.8-4.6c0-3.5,1.2-6,3.6-7.7c2.4-1.7,5.9-2.6,10.7-2.7
			l5.2-0.2v-3.5c0-1.1,0-2-0.1-2.9c-0.1-0.9-0.3-1.7-0.5-2.3c-0.3-0.6-0.7-1.1-1.2-1.5C355.2,211.7,354.5,211.5,353.6,211.5z
			 M347.9,233.1c0,1.8,0.3,3.2,0.9,4.1c0.6,0.9,1.5,1.4,2.7,1.4c0.9,0,1.7-0.2,2.5-0.6s1.4-0.9,1.9-1.6c0.5-0.7,0.9-1.6,1.2-2.6
			c0.3-1,0.4-2.1,0.4-3.4v-4.8l-2.9,0.2c-1.3,0.1-2.3,0.3-3.2,0.6s-1.6,0.8-2.1,1.4c-0.5,0.6-0.9,1.3-1.1,2.2
			C348,230.9,347.9,231.9,347.9,233.1z"/>
		<path fill="#FFFFFF" d="M392.1,243.2c-2.3,0-4.5-0.3-6.4-0.9c-1.9-0.6-3.6-1.6-5-3c-1.4-1.4-2.5-3.2-3.2-5.4s-1.2-5-1.2-8.2
			c0-3.4,0.4-6.3,1.2-8.6s1.9-4.1,3.3-5.5c1.4-1.4,3.1-2.4,5-3c1.9-0.6,4-0.9,6.2-0.9c2.1,0,3.9,0.2,5.4,0.5c1.6,0.3,2.9,0.8,4,1.4
			c1.1,0.6,1.9,1.3,2.4,2.1c0.5,0.8,0.8,1.7,0.8,2.6c0,0.7-0.1,1.4-0.4,2c-0.2,0.7-0.7,1.2-1.3,1.7c-0.6,0.5-1.5,0.9-2.5,1.2
			s-2.4,0.5-4.1,0.5c0-1.1-0.1-2.1-0.2-3.1c-0.1-1-0.4-1.9-0.7-2.6c-0.3-0.7-0.7-1.3-1.3-1.8c-0.5-0.4-1.2-0.7-2-0.7
			c-0.9,0-1.8,0.2-2.5,0.7c-0.7,0.4-1.4,1.2-1.9,2.3c-0.5,1.1-0.9,2.5-1.2,4.3c-0.3,1.8-0.4,4.1-0.4,6.8c0,4.3,0.6,7.5,1.8,9.7
			c1.2,2.1,3.1,3.2,5.8,3.2c1.1,0,2.1-0.1,3.1-0.4c1-0.3,1.8-0.6,2.6-1.1c0.8-0.5,1.5-1,2.1-1.6c0.6-0.6,1.1-1.3,1.4-2
			c0.5,0.3,0.9,0.7,1.2,1.3c0.2,0.5,0.4,1.1,0.4,1.7c0,0.8-0.2,1.6-0.7,2.5c-0.5,0.8-1.2,1.6-2.2,2.3c-1,0.7-2.3,1.2-3.8,1.6
			S394.3,243.2,392.1,243.2z"/>
		<path fill="#FFFFFF" d="M443.8,208.4v3.4c-0.6,0-1.2,0.1-1.7,0.2c-0.5,0.1-0.9,0.4-1.3,0.8c-0.4,0.4-0.8,0.8-1.1,1.4
			c-0.3,0.6-0.7,1.3-1,2.2c-0.7,2.1-1.5,4.3-2.3,6.5c-0.8,2.2-1.6,4.4-2.4,6.6c-0.8,2.2-1.6,4.4-2.5,6.6c-0.8,2.2-1.6,4.3-2.4,6.5
			c-0.7,2.1-1.5,3.9-2.1,5.4c-0.7,1.6-1.4,2.9-2.1,4c-0.7,1.1-1.6,2.1-2.4,2.8s-1.9,1.3-3.1,1.8c-1.2,0.4-2.6,0.8-4.1,0.9
			c-1.6,0.2-3.4,0.3-5.5,0.3h-1.1v-3.7c2.2,0,4.1-0.3,5.7-0.8c1.6-0.5,2.9-1.3,4-2.3c1.1-1,2-2.2,2.7-3.6c0.7-1.4,1.3-2.9,1.8-4.6
			l-11.5-28c-0.2-0.6-0.5-1.1-0.8-1.4c-0.3-0.4-0.6-0.6-1-0.8s-0.7-0.3-1.2-0.4c-0.4-0.1-0.9-0.1-1.3-0.1v-3.8h18.2v3.4
			c-1.2,0-2.2,0.2-2.9,0.5c-0.7,0.3-1.1,0.9-1.1,1.9c0,0.4,0.1,0.8,0.2,1.3c0.1,0.5,0.3,0.9,0.4,1.2c0.4,0.9,0.8,1.9,1.2,2.9
			c0.4,1,0.8,2.1,1.2,3.1c0.4,1,0.8,2.1,1.1,3c0.4,1,0.7,1.8,0.9,2.6c0.3,0.8,0.6,1.5,0.8,2.2s0.4,1.2,0.5,1.8
			c0.1,0.5,0.2,1,0.3,1.5c0.1,0.4,0.1,0.9,0.2,1.3c0-0.4,0.1-0.9,0.2-1.4c0.1-0.5,0.3-1,0.4-1.5c0.1-0.5,0.3-0.9,0.4-1.3
			c0.1-0.4,0.2-0.7,0.3-0.8l4.2-12.5c0.1-0.2,0.2-0.5,0.2-0.7c0.1-0.3,0.1-0.6,0.2-0.9c0.1-0.3,0.1-0.6,0.1-0.8c0-0.3,0-0.5,0-0.7
			c0-1-0.4-1.6-1.2-2c-0.8-0.4-2-0.5-3.4-0.5v-3.4H443.8z"/>
	</g>
</g>
</svg>
