<?xml version="1.0" encoding="utf-8"?>
<!-- Generator: Adobe Illustrator 18.1.1, SVG Export Plug-In . SVG Version: 6.00 Build 0)  -->
<svg version="1.1" id="layer" xmlns="http://www.w3.org/2000/svg" xmlns:xlink="http://www.w3.org/1999/xlink" x="0px" y="0px"
	 viewBox="0 0 48.2 48.2" enable-background="new 0 0 48.2 48.2" xml:space="preserve">
<rect x="17" y="5.6" fill="#FFFFFF" width="23.2" height="42.6"/>
<g>
	<path fill="#88181C" d="M48.2,8.1c0-4.2-3.6-8.1-7.8-8.1H8.1C3.9,0,0,3.9,0,8.1v32.1c0,3.9,3.9,8,8.1,8H24V30h-6v-8.1h6v-3
		c0-5.4,4.2-10.2,9-10.2h6.6v8.1H33c-0.6,0-1.5,0.9-1.5,2.1v3.3h8.1V30h-8.1v18.2h8.7c4.2,0,8-4.1,8-8.3V8.1z"/>
</g>
</svg>
