<?xml version="1.0" encoding="utf-8"?>
<!-- Generator: Adobe Illustrator 18.1.1, SVG Export Plug-In . SVG Version: 6.00 Build 0)  -->
<svg version="1.1" id="layer" xmlns="http://www.w3.org/2000/svg" xmlns:xlink="http://www.w3.org/1999/xlink" x="0px" y="0px"
	 viewBox="0 0 16 16" enable-background="new 0 0 16 16" xml:space="preserve">
<path fill="#FFFFFF" d="M12.9,0.3H2.9c-1.5,0-2.7,1.2-2.7,2.8v10.1C0.3,14.8,1.5,16,3,16h9.9c1.5,0,2.7-1.2,2.7-2.8V3.1
	C15.5,1.6,14.3,0.3,12.9,0.3L12.9,0.3z"/>
<g>
	<path fill="#88181A" d="M16,2.7C16,1.3,14.8,0,13.4,0H2.7C1.3,0,0,1.3,0,2.7v10.7C0,14.7,1.3,16,2.7,16H8v-6H6V7.3h2v-1
		c0-1.8,1.4-3.4,3-3.4h2.2v2.7H11c-0.2,0-0.5,0.3-0.5,0.7v1.1h2.7V10h-2.7v6h2.9c1.4,0,2.7-1.3,2.7-2.7L16,2.7L16,2.7z"/>
</g>
</svg>
