<?xml version="1.0" encoding="utf-8"?>
<!-- Generator: Adobe Illustrator 18.1.1, SVG Export Plug-In . SVG Version: 6.00 Build 0)  -->
<svg version="1.1" id="Слой_1" xmlns="http://www.w3.org/2000/svg" xmlns:xlink="http://www.w3.org/1999/xlink" x="0px" y="0px"
	 viewBox="39 0.3 604.5 515" enable-background="new 39 0.3 604.5 515" xml:space="preserve">
<g id="курить">
	<g>
		<path fill="#B6B0AD" d="M39,495.6v-59.1c4.2-1.4,7.7-1.4,12.5-1.4s7.7,0.7,10.4,1.4c2.1,0.7,4.2,2.1,5.6,3.5
			c2.8,3.5,4.2,9,4.2,16.7c0,8.3-1.4,13.9-4.2,17.4c-2.8,2.8-6.3,4.9-12.5,4.9c-2.8,0-5.6,0-8.3-0.7v18.1H39V495.6z M46.7,472h6.3
			c4.2,0,7-1.4,8.3-3.5c2.1-2.1,2.8-6.3,2.8-12.5s-0.7-10.4-2.8-12.5c-1.4-2.1-4.9-2.8-8.3-2.8h-6.3V472z"/>
		<path fill="#B6B0AD" d="M78.6,483.1c0-7,2.8-11.8,7.7-12.5c1.4-0.7,3.5-0.7,5.6-0.7c2.1,0,4.9,0,8.3,0.7v-4.2c0-5.6-2.1-8.3-5.6-9
			c-1.4,0-2.8-0.7-4.2-0.7h-8.3v-2.8c3.5-1.4,6.3-1.4,9.7-1.4c3.5,0,5.6,0,7.7,0.7c2.1,0.7,3.5,1.4,4.9,2.1
			c2.8,2.1,4.2,6.3,4.2,11.8v29.2h-7l-0.7-2.8l0,0c-2.1,2.1-5.6,3.5-9,3.5c-4.2,0-7.7-0.7-9-2.8C80,492.1,78.6,488,78.6,483.1z
			 M86.3,483.1c0,4.9,1.4,7,4.9,8.3c0.7,0,2.1,0.7,2.8,0.7c2.1,0,4.2-0.7,6.3-1.4v-15.3H94c-2.1,0-4.2,0.7-5.6,1.4
			C87,477.5,86.3,479.6,86.3,483.1z"/>
		<path fill="#B6B0AD" d="M114.8,494.9v-3.5h10.4c3.5,0,5.6-0.7,7.7-1.4c1.4-1.4,2.8-2.8,2.8-6.3c0-2.8-0.7-4.9-2.1-6.3
			c-1.4-1.4-3.5-1.4-4.9-1.4h-7v-4.9h6.3c2.1,0,3.5-0.7,4.9-1.4s2.1-2.8,2.1-5.6c0-2.8-0.7-4.2-2.8-5.6c-1.4-0.7-4.2-1.4-7.7-1.4h-9
			v-3.5c3.5-1.4,6.3-1.4,9.7-1.4c3.5,0,5.6,0,7.7,0.7c2.1,0.7,3.5,0.7,4.9,2.1c2.8,2.1,4.2,4.9,4.2,9.7s-2.1,7.6-7,9l0,0
			c4.9,1.4,7.7,4.9,7.7,10.4c0,4.9-1.4,8.3-4.2,10.4c-2.8,1.4-7,2.8-13.2,2.8C121.1,496.3,118.3,496.3,114.8,494.9z"/>
		<path fill="#B6B0AD" d="M151.7,513v-59.8h6.3l0.7,2.8h0.7c2.1-2.1,5.6-3.5,9-3.5c4.9,0,8.3,1.4,10.4,4.9c2.8,3.5,3.5,9,3.5,17.4
			c0,11.8-2.8,18.8-8.3,20.9c-2.1,0.7-4.2,1.4-6.3,1.4c-2.1,0-5.6-0.7-8.3-2.1V513H151.7L151.7,513z M159.3,490.1
			c1.4,1.4,3.5,1.4,5.6,1.4c2.1,0,3.5,0,4.2-0.7c1.4-0.7,2.1-1.4,2.8-2.8c1.4-2.8,2.1-7.6,2.1-13.9c0-9-2.1-14.6-5.6-16.7
			c-1.4-0.7-2.8-0.7-4.2-0.7c-2.1,0-3.5,0.7-5.6,1.4v32H159.3z"/>
		<path fill="#B6B0AD" d="M189.2,474.8c0-8.3,1.4-13.9,3.5-17.4c2.1-2.8,6.3-4.9,11.1-4.9c4.9,0,9,1.4,11.1,4.9
			c2.8,3.5,3.5,9,3.5,17.4v2.8h-22.3c0,5.6,0.7,9,2.8,11.1c2.1,2.1,4.9,3.5,9,3.5h8.3v3.5c-3.5,1.4-7,1.4-9.7,1.4
			c-3.5,0-6.3-0.7-8.3-1.4c-2.1-0.7-4.2-2.1-5.6-3.5C190.6,488.7,189.2,483.1,189.2,474.8z M197.6,472h14.6c0-7.6-1.4-12.5-4.2-13.9
			c-0.7-0.7-2.1-0.7-2.8-0.7c-3.5,0-5.6,2.8-7,7.6C197.6,466.4,197.6,469.2,197.6,472z"/>
		<path fill="#B6B0AD" d="M228.9,495.6v-43.1h7.7v37.5h11.8v-37.5h7.7v37.5h11.8v-37.5h7.7v43.1H228.9z"/>
		<path fill="#B6B0AD" d="M284.5,474.8c0-8.3,1.4-13.9,3.5-17.4c2.1-2.8,6.3-4.9,11.1-4.9c4.9,0,9,1.4,11.1,4.9
			c2.8,3.5,3.5,9,3.5,17.4v2.8h-22.3c0,5.6,0.7,9,2.8,11.1c2.1,2.1,4.9,3.5,9,3.5h8.3v3.5c-3.5,1.4-7,1.4-9.7,1.4
			c-3.5,0-6.3-0.7-8.3-1.4c-2.1-0.7-4.2-2.1-5.6-3.5C285.9,488.7,284.5,483.1,284.5,474.8z M292.2,472h14.6c0-7.6-1.4-12.5-4.2-13.9
			c-0.7-0.7-2.1-0.7-2.8-0.7c-3.5,0-5.6,2.8-7,7.6C292.2,466.4,292.2,469.2,292.2,472z"/>
		<path fill="#B6B0AD" d="M324.2,495.6v-43.1h7.7v18.1h13.9v-18.1h7.7v43.1h-7.7v-18.8h-13.9v18.8H324.2z"/>
		<path fill="#B6B0AD" d="M363.1,474.8c0-11.8,2.8-18.8,9-20.9c2.1-0.7,4.2-1.4,7-1.4c5.6,0,9,1.4,11.8,4.9c2.8,3.5,4.2,9,4.2,17.4
			c0,11.8-2.8,18.8-9,20.9c-2.1,0.7-4.2,1.4-7,1.4c-5.6,0-9-1.4-11.8-4.9C364.5,488,363.1,482.4,363.1,474.8z M370.8,474.8
			c0,11.8,2.8,17.4,8.3,17.4s8.3-5.6,8.3-17.4s-2.8-17.4-8.3-17.4C373.6,456.7,370.8,462.9,370.8,474.8z"/>
		<path fill="#B6B0AD" d="M425,495.6v-43.1h7.7v17.4h2.8c2.1,0,3.5-1.4,4.9-4.9l2.1-6.3c0.7-2.8,2.1-4.2,3.5-5.6
			c1.4-1.4,2.8-2.1,5.6-2.1c0.7,0,2.8,0,4.9,0.7v3.5c-1.4,0-2.8,0-3.5,0.7c-0.7,0.7-1.4,1.4-1.4,2.1l-2.8,7.6
			c-0.7,2.8-2.1,4.2-2.8,5.6c-0.7,1.4-2.1,2.1-3.5,2.1l0,0c1.4,0,2.8,1.4,4.2,2.1c1.4,1.4,2.1,2.8,2.8,5.6l2.1,8.3
			c0.7,2.1,2.1,2.8,4.9,2.8v3.5c-1.4,0.7-2.8,0.7-4.9,0.7c-4.2,0-7-2.1-8.3-7L441,481c-0.7-3.5-2.8-4.9-5.6-4.9h-2.8v19.5L425,495.6
			L425,495.6z"/>
		<path fill="#B6B0AD" d="M459.8,453.2h7.7l7.7,33.4c0.7,2.8,2.1,4.9,3.5,4.9l7-38.2h7.7l-8.3,43.8c-1.4,6.3-2.8,10.4-4.9,13.2
			c-2.1,2.8-5.6,4.2-9,4.2c-2.8,0-4.9-0.7-7.7-1.4v-3.5h6.3c2.1,0,4.2-0.7,4.9-2.1c1.4-1.4,2.1-4.9,3.5-9.7c-5.6,0-9-3.5-10.4-10.4
			L459.8,453.2z"/>
		<path fill="#B6B0AD" d="M501.6,513v-59.8h6.3l0.7,2.8h0.7c2.1-2.1,5.6-3.5,9-3.5c4.9,0,8.3,1.4,10.4,4.9c2.8,3.5,3.5,9,3.5,17.4
			c0,11.8-2.8,18.8-8.3,20.9c-2.1,0.7-4.2,1.4-6.3,1.4c-2.1,0-5.6-0.7-8.3-2.1V513H501.6L501.6,513z M509.2,490.1
			c1.4,1.4,3.5,1.4,5.6,1.4s3.5,0,4.2-0.7c1.4-0.7,2.1-1.4,2.8-2.8c1.4-2.8,2.1-7.6,2.1-13.9c0-9-2.1-14.6-5.6-16.7
			c-1.4-0.7-2.8-0.7-4.2-0.7c-1.4,0-3.5,0.7-5.6,1.4v32H509.2z"/>
		<path fill="#B6B0AD" d="M541.2,495.6v-43.1h7.7v29.2h0.7l12.5-29.2h9v43.1h-7.7v-29.9h-0.7l-13.9,29.9H541.2z"/>
		<path fill="#B6B0AD" d="M577.4,458.8v-5.6h29.9v5.6h-11.1v37.5h-7.7v-37.5H577.4z"/>
		<path fill="#B6B0AD" d="M614.2,494.9v-41.7h7.7v16.7c3.5-0.7,6.3-0.7,8.3-0.7c2.1,0,4.2,0,5.6,0.7c1.4,0.7,2.8,1.4,4.2,2.1
			c2.1,2.1,3.5,6.3,3.5,11.1c0,5.6-1.4,9-4.2,11.1c-1.4,0.7-2.8,1.4-4.9,2.1c-2.1,0.7-4.9,0.7-9,0.7
			C621.9,496.3,617.7,496.3,614.2,494.9z M621.9,491.4h6.3c2.8,0,4.9-0.7,6.3-1.4c1.4-0.7,2.1-3.5,2.1-7s-0.7-5.6-2.1-7
			c-1.4-1.4-3.5-1.4-6.3-1.4h-6.3V491.4z"/>
	</g>
	<ellipse fill="#8A0A00" cx="340.9" cy="189.9" rx="166.2" ry="166.2"/>
	<ellipse fill="none" stroke="#8A0A00" stroke-width="6" stroke-miterlimit="10" cx="340.9" cy="191.3" rx="187.8" ry="187.7"/>
	<path fill="#FFFFFF" d="M430.6,182.9H247c-2.1,0-4.2,2.1-4.2,4.2v30.6c0,2.1,2.1,4.2,4.2,4.2h183.6c2.1,0,4.2-2.1,4.2-4.2v-30.6
		C434.8,184.3,433.4,182.9,430.6,182.9L430.6,182.9z M300.5,190.6h112v22.2h-112V190.6z M426.4,213.5h-6.3v-22.9h6.3V213.5z
		 M418.1,129.4c-2.8-8.3-0.7-17.4,5.6-23.6c1.4-1.4,4.2-1.4,5.6,0.7c1.4,1.4,1.4,4.2-0.7,5.6c-4.2,3.5-5.6,9.7-3.5,14.6
		c0.7,2.8,2.8,4.9,4.9,7.6c2.1,2.8,4.2,5.6,5.6,9c3.5,9,0,20.9-8.3,26.4c0,0-0.7,0-1.4,0c-1.4,0-2.8-0.7-3.5-2.1
		c-1.4-2.1-0.7-4.2,1.4-5.6c4.9-3.5,7-10.4,4.9-16c-0.7-2.8-2.8-4.9-4.9-7C421.6,135.6,419.5,132.9,418.1,129.4L418.1,129.4z"/>
	<rect x="242.8" y="114.8" fill="none" width="195.5" height="109.8"/>
</g>
</svg>
