<?xml version="1.0" encoding="utf-8"?>
<!-- Generator: Adobe Illustrator 18.1.1, SVG Export Plug-In . SVG Version: 6.00 Build 0)  -->
<svg version="1.1" id="Слой_1" xmlns="http://www.w3.org/2000/svg" xmlns:xlink="http://www.w3.org/1999/xlink" x="0px" y="0px"
	 viewBox="39 0.3 604.5 515" enable-background="new 39 0.3 604.5 515" xml:space="preserve">
<g id="еда">
	<g>
		<path fill="#B6B0AD" d="M111.8,488.8h4.2c2.8-4.9,4.2-10.5,4.2-17.4l2.1-36.3h28v53.7h5.6v18.8h-4.9c-1.4-3.5-2.1-7.7-2.8-12.6
			h-29.4c-0.7,4.9-1.4,9.1-2.8,12.6h-4.2V488.8z M123.7,488.8h18.2v-48.2h-12.6l-1.4,30.7c0,4.9-0.7,9.1-2.1,11.2
			C125.1,486,124.4,488.1,123.7,488.8z"/>
		<path fill="#B6B0AD" d="M161.4,473.4c0-11.9,2.8-18.8,9.1-20.9c2.1-0.7,4.2-1.4,7-1.4c5.6,0,9.1,1.4,11.9,4.9s4.2,9.1,4.2,17.4
			c0,11.9-2.8,18.8-9.1,20.9c-2.1,0.7-4.2,1.4-7,1.4c-5.6,0-9.1-1.4-11.9-4.9S161.4,481.8,161.4,473.4z M169.1,473.4
			c0,11.9,2.8,17.4,8.4,17.4c5.6,0,8.4-5.6,8.4-17.4c0-11.9-2.8-17.4-8.4-17.4C171.9,456,169.1,462.3,169.1,473.4z"/>
		<path fill="#B6B0AD" d="M200.6,473.4c0-8.4,1.4-14,4.2-17.4c1.4-1.4,2.8-2.8,4.9-3.5c2.1-0.7,4.2-1.4,7.7-1.4s6.3,0.7,9.8,1.4v3.5
			h-8.4c-3.5,0-5.6,1.4-7,3.5c-1.4,2.8-2.8,7-2.8,14c0,6.3,0.7,11.2,2.8,14c1.4,2.1,4.2,3.5,8.4,3.5h8.4v3.5
			c-3.5,1.4-6.3,1.4-9.8,1.4c-3.5,0-5.6-0.7-7.7-1.4s-3.5-2.1-4.9-3.5C202,488.1,200.6,481.8,200.6,473.4z"/>
		<path fill="#B6B0AD" d="M229.9,458.1v-5.6H260v5.6h-11.2v37h-7.7v-37H229.9z"/>
		<path fill="#B6B0AD" d="M264.9,482.5c0-7,2.8-11.2,7.7-12.6c1.4-0.7,3.5-0.7,5.6-0.7s4.9,0,8.4,0.7v-4.2c0-5.6-2.1-8.4-5.6-9.1
			c-1.4,0-2.8-0.7-4.2-0.7h-8.4v-2.8c3.5-1.4,6.3-1.4,9.8-1.4s5.6,0,7.7,0.7c2.1,0.7,3.5,1.4,4.9,2.1c2.8,2.1,4.2,6.3,4.2,11.9v28.6
			h-6.3l-2.1-2.8l0,0c-2.1,2.1-5.6,3.5-9.1,3.5c-4.2,0-7.7-0.7-9.1-2.8C265.6,490.9,264.9,487.4,264.9,482.5z M272.6,482.5
			c0,4.9,1.4,7,4.9,8.4c0.7,0,2.1,0.7,2.8,0.7c2.1,0,4.2-0.7,6.3-1.4v-16.1h-6.3c-2.1,0-4.2,0.7-5.6,1.4
			C273.3,476.9,272.6,479,272.6,482.5z"/>
		<path fill="#B6B0AD" d="M304.8,494.4v-41.2c3.5-1.4,7.7-1.4,11.2-1.4s6.3,0,8.4,0.7s3.5,0.7,4.9,2.1c2.8,2.1,3.5,4.9,3.5,9.8
			c0,4.2-2.1,7.7-6.3,9.1l0,0c3.5,0.7,5.6,2.8,7,6.3c0.7,1.4,0.7,2.8,0.7,4.9c0,2.1,0,4.2-0.7,5.6c-0.7,1.4-1.4,2.8-2.8,4.2
			c-1.4,0.7-2.8,1.4-4.9,2.1c-2.1,0.7-4.9,0.7-9.1,0.7C312.4,495.8,308.9,495.1,304.8,494.4z M312.4,470.7h4.9
			c2.1,0,4.2-0.7,5.6-1.4c1.4-0.7,2.1-2.8,2.1-5.6s-0.7-4.2-2.1-5.6c-1.4-1.4-2.8-1.4-5.6-1.4h-4.9V470.7z M312.4,490.9h6.3
			c2.8,0,4.9-0.7,6.3-1.4c1.4-1.4,2.1-2.8,2.1-6.3s-0.7-4.9-2.1-6.3c-1.4-0.7-3.5-1.4-6.3-1.4h-6.3V490.9z"/>
		<path fill="#B6B0AD" d="M343.2,495.1v-42.6h7.7V470h2.8c2.1,0,3.5-1.4,4.9-4.9l2.1-6.3c0.7-2.8,2.1-4.2,3.5-5.6
			c1.4-1.4,2.8-2.1,5.6-2.1c0.7,0,2.8,0,4.9,0.7v3.5c-1.4,0-2.8,0-3.5,0.7c-0.7,0.7-1.4,1.4-1.4,2.1l-2.1,6.3
			c-0.7,2.8-2.1,4.2-2.8,5.6c-0.7,1.4-2.1,2.1-3.5,2.1l0,0c1.4,0,2.8,0.7,4.2,2.1c1.4,1.4,2.1,2.8,2.8,5.6l2.1,8.4
			c0.7,2.1,2.1,2.8,4.9,2.8v4.2c-1.4,0.7-2.8,0.7-4.9,0.7c-4.2,0-7-2.1-8.4-7l-2.1-8.4c-0.7-3.5-2.8-4.9-5.6-4.9h-2.8v19.5H343.2z"
			/>
		<path fill="#B6B0AD" d="M379.6,482.5c0-7,2.8-11.2,7.7-12.6c1.4-0.7,3.5-0.7,5.6-0.7s4.9,0,8.4,0.7v-4.2c0-5.6-2.1-8.4-5.6-9.1
			c-1.4,0-2.8-0.7-4.2-0.7h-8.4v-2.8c3.5-1.4,6.3-1.4,9.8-1.4s5.6,0,7.7,0.7s3.5,1.4,4.9,2.1c2.8,2.1,4.2,6.3,4.2,11.9v28.6h-6.3
			l-0.7-2.8h-0.7c-2.1,2.1-5.6,3.5-9.1,3.5c-4.2,0-7.7-0.7-9.1-2.8C381,490.9,379.6,487.4,379.6,482.5z M387.2,482.5
			c0,4.9,1.4,7,4.9,8.4c0.7,0,2.1,0.7,2.8,0.7c2.1,0,4.2-0.7,6.3-1.4v-16.1h-6.3c-2.1,0-4.2,0.7-5.6,1.4
			C387.9,476.9,387.2,479,387.2,482.5z"/>
		<path fill="#B6B0AD" d="M439.7,473.4c0-8.4,1.4-14,3.5-17.4c2.1-2.8,6.3-4.9,11.2-4.9s9.1,1.4,11.2,4.9c2.8,3.5,3.5,9.1,3.5,17.4
			v2.8h-21.7c0,5.6,0.7,9.1,2.8,11.2c2.1,2.1,4.9,2.8,9.1,2.8h8.4v3.5c-3.5,1.4-6.3,1.4-9.8,1.4s-6.3-0.7-8.4-1.4
			c-2.1-0.7-4.2-2.1-5.6-3.5C441.1,488.1,439.7,481.8,439.7,473.4z M447.4,471.4H462c0-7.7-1.4-12.6-4.2-14
			c-0.7-0.7-2.1-0.7-2.8-0.7c-3.5,0-5.6,2.8-7,7.7C447.4,465.8,447.4,468.6,447.4,471.4z"/>
		<path fill="#B6B0AD" d="M473.9,489.5h4.2c0.7-0.7,1.4-2.1,2.1-4.2c0.7-2.1,1.4-4.9,1.4-8.4l1.4-25.1h25.2v37h4.9v18.1h-4.9
			c-1.4-2.8-2.1-7-2.8-12.6h-24.5c-0.7,4.9-1.4,9.1-2.8,12.6h-4.9v-17.4H473.9z M485.8,489.5h14.7v-31.4h-9.8l-1.4,18.8
			c0,3.5-0.7,6.3-1.4,8.4C487.2,487.4,486.5,488.8,485.8,489.5z"/>
		<path fill="#B6B0AD" d="M521.5,494.4v-41.9h7.7v16.7c3.5-0.7,6.3-0.7,8.4-0.7s4.2,0,5.6,0.7c1.4,0.7,2.8,1.4,4.2,2.1
			c2.1,2.1,3.5,6.3,3.5,11.2c0,5.6-1.4,9.1-4.2,11.2c-2.1,2.1-6.3,2.8-11.2,2.8C529.9,495.8,525,495.1,521.5,494.4z M529.2,490.9
			h6.3c2.1,0,4.2-0.7,5.6-1.4s2.1-3.5,2.1-7s-0.7-5.6-2.1-7c-1.4-1.4-3.5-1.4-5.6-1.4h-6.3V490.9z M556.4,495.1v-42.6h7.7v42.6
			H556.4z"/>
	</g>
	<ellipse fill="#8A0A00" cx="342.5" cy="190.1" rx="166.4" ry="166.1"/>
	<ellipse fill="none" stroke="#8A0A00" stroke-width="6" stroke-miterlimit="10" cx="341.1" cy="191.5" rx="188.1" ry="187.7"/>
	<g>
		<path fill="#FFFFFF" d="M281.7,269.6h22.4c0,2.1,2.1,3.5,4.2,3.5h50.3c2.1,0,3.5-1.4,4.2-3.5h21.7c3.5,0,7-2.8,7-7H275.4
			C275.4,266.1,278.2,269.6,281.7,269.6L281.7,269.6z"/>
		<path fill="#FFFFFF" d="M418,194.9c-5.6-4.9-13.3-4.9-18.9-4.2c0-3.5,0-7.7,0-11.2H261.4c0,37,5.6,64.2,41.2,74h55.2
			c14-4.2,23.8-10.5,30.1-19.5c13.3,0,35.7-5.6,36.4-24.4C424.3,201.9,420.8,197,418,194.9L418,194.9z M393.5,223.6
			c2.8-7,4.2-14,4.9-22.3c3.5-0.7,9.8-0.7,13.3,1.4c0.7,0.7,2.1,2.1,2.1,7C413.1,219.4,401.2,222.2,393.5,223.6L393.5,223.6z"/>
		<path fill="#FFFFFF" d="M317.3,160.1c0,0,26.6-2.1,14-23.7c-9.8-17.4-7.7-27.9,4.9-37.7c0,0-40.5,10.5-16.8,41.9
			C328.5,154.5,317.3,160.1,317.3,160.1L317.3,160.1z"/>
		<path fill="#FFFFFF" d="M340.4,163.5c0,0,21-4.2,9.8-21.6c-4.2-7,1.4-9.8,1.4-9.8s-13.3,0.7-7.7,11.9
			C348.8,153.8,347.4,158.7,340.4,163.5L340.4,163.5z"/>
	</g>
</g>
</svg>
