<?xml version="1.0" encoding="utf-8"?>
<!-- Generator: Adobe Illustrator 18.1.1, SVG Export Plug-In . SVG Version: 6.00 Build 0)  -->
<svg version="1.1" id="Слой_1" xmlns="http://www.w3.org/2000/svg" xmlns:xlink="http://www.w3.org/1999/xlink" x="0px" y="0px"
	 viewBox="39 0.3 604.5 515" enable-background="new 39 0.3 604.5 515" xml:space="preserve">
<g id="_x32_1">
	<g>
		<path fill="#B6B0AD" d="M180.7,465.4c0-11.2,1.4-19.6,4.9-24.4c2.8-4.2,7.7-6.3,13.2-6.3c6.3,0,10.4,2.1,13.2,6.3
			c3.5,4.9,4.9,12.6,4.9,24.4s-1.4,19.6-4.9,24.4c-2.8,4.2-7.7,6.3-13.2,6.3c-6.3,0-10.4-2.1-13.2-6.3
			C182.8,485,180.7,476.6,180.7,465.4z M188.4,465.4c0,9.1,1.4,16.1,3.5,20.3c1.4,3.5,4.2,4.9,7.7,4.9c3.5,0,5.6-1.4,7.7-4.9
			c1.4-4.2,2.8-11.2,2.8-20.3c0-16.8-3.5-25.8-10.4-25.8c-3.5,0-5.6,1.4-7.7,4.9C189.8,449.4,188.4,455.7,188.4,465.4z"/>
		<path fill="#B6B0AD" d="M222.5,457.8v-5.6h29.9v5.6h-11.1v37.7h-7.7v-37h-11.1V457.8z"/>
		<path fill="#B6B0AD" d="M275.4,495.5v-7c4.2-5.6,7.7-9.8,10.4-13.3c2.8-3.5,4.9-6.3,7-9.1c1.4-2.8,2.8-4.9,3.5-7
			c0.7-2.1,1.4-4.2,1.4-6.3c0-4.2-0.7-7.7-2.1-9.8c-1.4-2.1-4.2-2.8-7-2.8h-11.8v-4.2c3.5-1.4,7.7-1.4,13.2-1.4s9.1,1.4,11.8,4.2
			c2.8,2.8,4.2,7.7,4.2,14c0,2.8-0.7,5.6-1.4,7.7c-0.7,2.1-2.1,4.9-4.2,7.7c-2.1,2.8-4.2,5.6-7,9.1s-6.3,7.7-9.7,11.9h21.6v6.3
			H275.4z"/>
		<path fill="#B6B0AD" d="M308.8,441.7v-4.2c3.5-1.4,7.7-1.4,12.5-1.4h4.2v59.4h-7.7v-53.8H308.8z"/>
		<path fill="#B6B0AD" d="M358.9,495.5v-42.6h24.4v5.6h-17.4v37H358.9z"/>
		<path fill="#B6B0AD" d="M388.2,473.8c0-11.9,2.8-18.9,9.1-21c2.1-0.7,4.2-1.4,7-1.4c5.6,0,9.1,1.4,11.8,4.9
			c2.8,3.5,4.2,9.1,4.2,17.5c0,11.9-2.8,18.9-9.1,21c-2.1,0.7-4.2,1.4-7,1.4c-5.6,0-9.1-1.4-11.8-4.9S388.2,482.2,388.2,473.8z
			 M395.8,473.8c0,11.9,2.8,17.5,8.4,17.5c5.6,0,8.4-5.6,8.4-17.5s-2.8-17.5-8.4-17.5C398.6,456.4,395.8,461.9,395.8,473.8z"/>
		<path fill="#B6B0AD" d="M424.4,489.9h4.2c0.7-0.7,1.4-2.1,2.1-4.2c0.7-2.1,1.4-4.9,1.4-8.4l1.4-25.1h25.1v37h4.9v18.2h-4.9
			c-1.4-2.8-2.1-7-2.8-12.6h-24.4c-0.7,4.9-1.4,9.1-2.8,12.6h-4.9v-17.5H424.4z M435.5,489.9h14.6v-31.4h-9.7l-0.7,19.6
			c0,3.5-0.7,6.3-1.4,8.4C436.9,487.1,436.2,488.5,435.5,489.9z"/>
		<path fill="#B6B0AD" d="M469.6,482.2c0-7,2.8-11.2,7.7-12.6c1.4-0.7,3.5-0.7,5.6-0.7s4.9,0,8.4,0.7v-4.2c0-5.6-2.1-8.4-5.6-9.1
			c-1.4,0-2.8-0.7-4.2-0.7h-8.4v-2.1c3.5-1.4,6.3-1.4,9.7-1.4c2.8,0,5.6,0,7.7,0.7s3.5,1.4,4.9,2.1c2.8,2.1,4.2,6.3,4.2,11.9v28.6
			h-6.3l-0.7-2.8h-0.7c-2.1,2.1-5.6,3.5-9.1,3.5c-4.2,0-7.7-0.7-9.1-2.8C470.3,491.3,469.6,487.8,469.6,482.2z M477.3,482.2
			c0,4.9,1.4,7,4.9,8.4c0.7,0,2.1,0.7,2.8,0.7c2.1,0,4.2-0.7,6.3-1.4v-15.4H485c-2.1,0-4.2,0.7-5.6,1.4
			C478,477.3,477.3,479.4,477.3,482.2z"/>
	</g>
	<ellipse fill="#8A0A00" cx="340.8" cy="190.2" rx="165.7" ry="166.2"/>
	<ellipse fill="none" stroke="#8A0A00" stroke-width="6" stroke-miterlimit="10" cx="340.8" cy="191.6" rx="187.3" ry="187.9"/>
	<g>
		<path fill="#FFFFFF" d="M301.2,159.4c0,2.1,0,3.5-0.7,4.9c-0.7,1.4-0.7,3.5-2.1,4.9c-0.7,2.1-2.1,3.5-3.5,5.6
			c-1.4,2.1-3.5,4.2-5.6,6.3s-4.9,4.9-7.7,7.7c-2.8,2.8-6.3,6.3-9.7,9.8l-11.1,11.2h26.5c2.1,0,4.2-0.7,6.3-2.1
			c1.4-1.4,2.8-3.5,3.5-5.6l0.7-3.5h7l-0.7,23.7h-53.6v-11.9L267,193c3.5-3.5,6.3-7,8.4-9.8c2.1-2.8,4.2-5.6,5.6-8.4
			s2.1-5.6,2.8-7.7c0.7-2.1,0.7-5.6,0.7-8.4c0-4.2-0.7-7.7-2.1-9.8c-1.4-2.1-3.5-2.8-6.3-2.8c-4.2,0-6.3,1.4-8.4,4.9
			c-1.4,3.5-2.1,8.4-2.1,14.7c-2.1,0-4.2,0-5.6-0.7c-2.1-0.7-3.5-1.4-4.9-2.1c-1.4-0.7-2.1-2.1-2.8-3.5s-1.4-3.5-1.4-4.9
			c0-2.1,0.7-4.2,1.4-5.6c1.4-2.1,2.8-3.5,4.9-4.9s4.9-2.8,7.7-3.5c2.8-0.7,7-1.4,11.1-1.4c4.2,0,7.7,0.7,11.1,1.4
			c3.5,0.7,6.3,2.1,8.4,3.5s4.2,3.5,4.9,6.3C300.5,153.9,301.2,156.7,301.2,159.4z"/>
		<path fill="#FFFFFF" d="M320,223v-6.3h9.1c0.7,0,2.1,0,2.8-0.7c0.7,0,1.4-0.7,2.1-1.4c0.7,0.7,0.7,0,0.7-1.4s0-2.1,0-3.5v-57.3
			c-1.4,2.1-2.8,3.5-4.2,4.9c-1.4,1.4-2.8,2.8-3.5,3.5c-1.4,0.7-2.1,2.1-3.5,2.1c-0.7,1.4-2.1,1.4-2.8,1.4s-2.1,0-2.8-0.7
			c-0.7-0.7-1.4-0.7-2.1-1.4c-0.7-0.7-1.4-1.4-1.4-2.8c0-0.7-0.7-2.1-0.7-3.5c1.4,0,2.1-0.7,3.5-1.4c1.4-0.7,2.8-0.7,4.2-1.4
			c1.4-0.7,2.8-1.4,4.9-2.8c1.4-0.7,3.5-2.1,5.6-3.5l7.7-5.6H352v68.5c0,1.4,0,2.1,0,3.5c0,0.7,0.7,1.4,0.7,2.1
			c0.7,0.7,0.7,1.4,2.1,1.4s1.4,0.7,2.8,0.7h9.1v6.3H320V223z"/>
		<path fill="#FFFFFF" d="M408.4,186.7v20.3H400v-20.3h-20.2v-8.4H400V158h8.4v20.3h20.2v8.4H408.4z"/>
	</g>
</g>
</svg>
