<?xml version="1.0" encoding="utf-8"?>
<!-- Generator: Adobe Illustrator 18.1.1, SVG Export Plug-In . SVG Version: 6.00 Build 0)  -->
<svg version="1.1" id="Слой_1" xmlns="http://www.w3.org/2000/svg" xmlns:xlink="http://www.w3.org/1999/xlink" x="0px" y="0px"
	 viewBox="39 0.3 604.5 515" enable-background="new 39 0.3 604.5 515" xml:space="preserve">
<g id="инет">
	<g>
		<path fill="#B6B0AD" d="M193.2,495.7v-59.9h7.7v44.5h0.7l17.4-44.5h9v59.9h-7.7v-44.5h-0.7l-18.1,44.5H193.2z"/>
		<path fill="#B6B0AD" d="M238.5,495.7v-42.5h7.7v18.1H260v-18.1h7.7v42.5H260v-18.8h-13.9v18.8H238.5z"/>
		<path fill="#B6B0AD" d="M274.7,458.8v-5.6h29.9v5.6h-11.1v36.9h-7.7v-36.9H274.7z"/>
		<path fill="#B6B0AD" d="M308.8,474.8c0-8.4,1.4-13.9,3.5-17.4c2.1-2.8,6.3-4.9,11.1-4.9s9,1.4,11.1,4.9c2.8,3.5,3.5,9,3.5,17.4
			v2.8h-22.3c0,5.6,0.7,9,2.8,11.1c2.1,2.1,4.9,2.8,9,2.8h8.4v3.5c-3.5,1.4-7,1.4-9.7,1.4c-3.5,0-6.3-0.7-8.4-1.4
			c-2.1-0.7-4.2-2.1-5.6-3.5C310.1,488.7,308.8,483.2,308.8,474.8z M316.4,472H331c0-7.7-1.4-12.5-4.2-13.9
			c-0.7-0.7-2.1-0.7-2.8-0.7c-3.5,0-5.6,2.8-7,7.7C317.1,466.4,316.4,469.2,316.4,472z"/>
		<path fill="#B6B0AD" d="M348.4,513.1v-59.9h6.3l0.7,2.8h0.7c2.1-2.1,5.6-3.5,9-3.5c4.9,0,8.4,1.4,10.4,4.9c2.8,3.5,3.5,9,3.5,17.4
			c0,11.8-2.8,18.8-8.4,20.9c-2.1,0.7-4.2,1.4-6.3,1.4c-2.8,0-4.9-0.7-8.4-2.1v18.1L348.4,513.1L348.4,513.1z M356.1,490.1
			c1.4,1.4,3.5,1.4,5.6,1.4c2.1,0,3.5,0,4.2-0.7c1.4-0.7,2.1-1.4,2.8-2.8c1.4-2.8,2.1-7,2.1-13.9c0-9-2.1-14.6-5.6-16.7
			c-1.4-0.7-2.8-0.7-4.2-0.7c-2.1,0-3.5,0.7-5.6,1.4v32H356.1z"/>
		<path fill="#B6B0AD" d="M388.1,495.7v-42.5h7.7v18.1h13.9v-18.1h7.7v42.5h-7.7v-18.8h-13.9v18.8H388.1z"/>
		<path fill="#B6B0AD" d="M427.1,474.8c0-8.4,1.4-13.9,3.5-17.4c2.1-2.8,6.3-4.9,11.1-4.9c4.9,0,9,1.4,11.1,4.9
			c2.8,3.5,3.5,9,3.5,17.4v2.8H434c0,5.6,0.7,9,2.8,11.1c2.1,2.1,4.9,2.8,9,2.8h8.4v3.5c-3.5,1.4-7,1.4-9.7,1.4
			c-3.5,0-6.3-0.7-8.4-1.4c-2.1-0.7-4.2-2.1-5.6-3.5C428.5,488.7,427.1,483.2,427.1,474.8z M434.7,472h14.6c0-7.7-1.4-12.5-4.2-13.9
			c-0.7-0.7-2.1-0.7-2.8-0.7c-3.5,0-5.6,2.8-7,7.7C434.7,466.4,434.7,469.2,434.7,472z"/>
		<path fill="#B6B0AD" d="M461.9,458.8v-5.6h29.9v5.6h-11.1v36.9H473v-36.9H461.9z"/>
	</g>
	<circle fill="#8A0A00" cx="340.8" cy="190.1" r="166.3"/>
	<circle fill="none" stroke="#8A0A00" stroke-width="6" stroke-miterlimit="10" cx="340.8" cy="191.5" r="187.9"/>
	<g>
		<path fill="#FFFFFF" d="M287.9,236.7l9.7,27.1c0.7,1.4,0.7,2.1,1.4,3.5c0.7,1.4,0.7,2.1,0.7,3.5c0,0.7,0.7,2.1,0.7,2.8
			s0.7,1.4,0.7,2.1c0-0.7,0.7-2.1,0.7-2.8s0.7-2.1,0.7-3.5c0-1.4,0.7-2.1,0.7-3.5c0-1.4,0.7-2.1,0.7-3.5l3.5-15.3v-0.7
			c0-0.7,0-0.7,0-1.4c0-0.7,0-0.7,0-0.7v-0.7c0-1.4-0.7-2.1-1.4-2.8c0.7-0.7-0.7-0.7-2.1-0.7h-1.4v-3.5h18.8v3.5h-1.4
			c-0.7,0-1.4,0-2.1,0c-0.7,0-0.7,0.7-1.4,0.7c-0.7,0.7-0.7,0.7-1.4,1.4c-0.7,0.7-0.7,1.4-0.7,2.8l-11.1,41.8h-8.4L283,253.4
			l-10.4,33.4h-9l-13.2-43.2c0-0.7-0.7-1.4-0.7-2.1c0-0.7-0.7-0.7-1.4-1.4c-0.7,0-0.7-0.7-1.4-0.7s-1.4,0-2.1,0H244V236h23.7v4.2
			h-1.4c-1.4,0-2.8,0-3.5,0.7c-0.7,0.7-1.4,1.4-1.4,2.8c0,0.7,0,0.7,0,1.4c0,0.7,0,1.4,0.7,2.1l4.9,16.7c0,0.7,0.7,2.1,0.7,2.8
			c0,1.4,0.7,2.1,0.7,3.5c0,1.4,0.7,2.1,0.7,2.8c0,0.7,0.7,2.1,0.7,2.8c0-1.4,0.7-2.8,1.4-4.2c0.7-1.4,0.7-2.8,1.4-4.2l9-30.6
			L287.9,236.7L287.9,236.7z"/>
		<path fill="#FFFFFF" d="M322.7,283.3c0.7,0,1.4,0,1.4,0c0.7,0,1.4,0,1.4-0.7c0.7,0,0.7-0.7,1.4-1.4c0-0.7,0.7-1.4,0.7-2.1v-21.6
			c0-0.7,0-1.4-0.7-2.1c0-0.7-0.7-0.7-1.4-1.4c-0.7,0-1.4-0.7-1.4-0.7c-0.7,0-1.4,0-1.4,0H322v-3.5h16.7v29.9c0,0.7,0,2.1,0.7,2.1
			c0,0.7,0.7,1.4,1.4,1.4c0.7,0,1.4,0.7,1.4,0.7c0.7,0,1.4,0,1.4,0h0.7v3.5h-23V284h1.4V283.3z M326.9,237.4c0-0.7,0-1.4,0.7-2.1
			c0-0.7,0.7-1.4,1.4-1.4c0.7-0.7,1.4-0.7,2.1-0.7c0.7,0,1.4,0,2.1,0c0.7,0,1.4,0,2.1,0c0.7,0,1.4,0.7,2.1,0.7
			c0.7,0.7,0.7,0.7,1.4,1.4c0,0.7,0.7,1.4,0.7,2.1c0,0.7,0,1.4-0.7,2.1c0,0.7-0.7,1.4-1.4,1.4c-0.7,0.7-1.4,0.7-2.1,0.7
			c-0.7,0-1.4,0-2.1,0c-0.7,0-1.4,0-2.1,0c-0.7,0-1.4-0.7-2.1-0.7s-0.7-0.7-1.4-1.4C326.9,238.8,326.9,238.1,326.9,237.4z"/>
		<path fill="#FFFFFF" d="M347.7,271.5v-7.7h18.8v7.7H347.7z"/>
		<path fill="#FFFFFF" d="M404.8,249.2v-3.5c0-2.1-0.7-3.5-1.4-4.2c-0.7-0.7-2.1-1.4-3.5-1.4h-11.1v19.5h16.7v4.2h-16.7v14.6
			c0,0.7,0,2.1,0,2.1c0,0.7,0.7,1.4,0.7,1.4s0.7,0.7,1.4,0.7c0.7,0,0.7,0,1.4,0h4.2v3.5h-25.8v-3.5h2.8c0.7,0,0.7,0,1.4,0
			c0.7,0,0.7,0,1.4-0.7c0,0,0.7-0.7,0.7-1.4c0-0.7,0-1.4,0-2.1v-34.8c0-0.7,0-1.4,0-2.1s-0.7-0.7-0.7-1.4c0,0-0.7-0.7-1.4-0.7
			s-0.7,0-1.4,0h-2.8V236h39.7v13.2H404.8z"/>
		<path fill="#FFFFFF" d="M414.5,283.3c0.7,0,1.4,0,1.4,0c0.7,0,1.4,0,1.4-0.7c0.7,0,0.7-0.7,1.4-1.4c0-0.7,0.7-1.4,0.7-2.1v-21.6
			c0-0.7,0-1.4-0.7-2.1c0-0.7-0.7-0.7-1.4-1.4c-0.7,0-1.4-0.7-1.4-0.7c-0.7,0-1.4,0-1.4,0h-0.7v-3.5h16.7v29.9c0,0.7,0,2.1,0.7,2.1
			c0,0.7,0.7,1.4,1.4,1.4c0.7,0,1.4,0.7,1.4,0.7c0.7,0,1.4,0,1.4,0h0.7v3.5h-23V284h1.4V283.3z M418,237.4c0-0.7,0-1.4,0.7-2.1
			c0-0.7,0.7-1.4,1.4-1.4c0.7-0.7,1.4-0.7,2.1-0.7c0.7,0,1.4,0,2.1,0s1.4,0,2.1,0c0.7,0,1.4,0.7,2.1,0.7c0.7,0.7,0.7,0.7,1.4,1.4
			c0,0.7,0.7,1.4,0.7,2.1c0,0.7,0,1.4-0.7,2.1c0,0.7-0.7,1.4-1.4,1.4s-1.4,0.7-2.1,0.7c-0.7,0-1.4,0-2.1,0s-1.4,0-2.1,0
			c-0.7,0-1.4-0.7-2.1-0.7c-0.7,0-0.7-0.7-1.4-1.4C418.7,238.8,418,238.1,418,237.4z"/>
	</g>
	<g>
		<path fill="#FFFFFF" d="M356.1,185.9c0,9-7,16-16,16c-9,0-16-7-16-16s7-16,16-16C349.1,169.9,356.1,176.8,356.1,185.9L356.1,185.9
			z"/>
		<g>
			<g>
				<defs>
					<rect id="SVGID_1_" x="272.6" y="99.6" width="137.1" height="105.8"/>
				</defs>
				<clipPath id="SVGID_2_">
					<use xlink:href="#SVGID_1_"  overflow="visible"/>
				</clipPath>
				<path clip-path="url(#SVGID_2_)" fill="#FFFFFF" d="M378.4,147.6l-0.7-0.7l-0.7-0.7c0,0,0,0-0.7,0c-20.2-18.8-51.5-18.1-71,1.4
					l-2.1,2.1l-3.5,3.5c-4.2,4.2-4.2,10.4,0,13.9c4.2,4.2,10.4,4.2,13.9,0l5.6-5.6c12.5-12.5,32.7-12.5,45.2,0l4.2,3.5
					c3.5,3.5,9.7,3.5,13.9,0c2.1-2.1,2.8-4.2,2.8-7c0-2.8-0.7-4.9-2.8-7L378.4,147.6z"/>
			</g>
			<g>
				<defs>
					<rect id="SVGID_3_" x="272.6" y="99.6" width="137.1" height="105.8"/>
				</defs>
				<clipPath id="SVGID_4_">
					<use xlink:href="#SVGID_3_"  overflow="visible"/>
				</clipPath>
				<path clip-path="url(#SVGID_4_)" fill="#FFFFFF" d="M405.5,128.1l-3.5-3.5l0,0l-2.8-2.8c-0.7-0.7-0.7-0.7-1.4-1.4
					c-33.4-29.2-84.2-28.5-116.2,2.8c0,0,0,0-0.7,0.7l-6.3,6.3c-3.5,3.5-3.5,9,0,12.5c3.5,3.5,9,3.5,12.5,0l5.6-6.3l0,0
					c27.1-25.1,68.9-25.1,95.4-0.7l4.9,4.9c3.5,3.5,9,3.5,12.5,0S409,131.6,405.5,128.1L405.5,128.1z"/>
			</g>
		</g>
	</g>
</g>
</svg>
