<?xml version="1.0" encoding="utf-8"?>
<!-- Generator: Adobe Illustrator 18.1.1, SVG Export Plug-In . SVG Version: 6.00 Build 0)  -->
<svg version="1.1" id="Слой_1" xmlns="http://www.w3.org/2000/svg" xmlns:xlink="http://www.w3.org/1999/xlink" x="0px" y="0px"
	 viewBox="39 0.3 604.5 515" enable-background="new 39 0.3 604.5 515" xml:space="preserve">
<g id="такси">
	<g>
		<path fill="#B6B0AD" d="M94.4,494.7v-4.2h11.9c4.2,0,7-0.7,9.1-2.8c2.1-2.1,2.8-4.9,2.8-9.1c0-4.2-0.7-7-2.8-9.1
			c-2.1-2.1-4.9-2.8-9.1-2.8H100v-6.3h4.9c4.2,0,7-0.7,8.4-2.8c2.1-0.7,2.8-2.8,2.8-6.3c0-3.5-0.7-6.3-2.8-7.7
			c-2.1-1.4-4.9-2.8-8.4-2.8h-9.8v-4.2c3.5-1.4,7-1.4,11.2-1.4c6.3,0,11.2,1.4,14,4.2c2.8,2.8,4.2,6.3,4.2,11.9
			c0,3.5-0.7,6.3-2.1,8.4c-1.4,1.4-3.5,2.8-6.3,4.2l0,0c3.5,0.7,5.6,2.8,7,5.6c1.4,2.8,2.1,5.6,2.1,9.1s0,6.3-0.7,8.4
			c-0.7,2.1-1.4,4.2-2.8,5.6c-1.4,1.4-3.5,2.1-6.3,2.8s-5.6,0.7-9.8,0.7C101.4,496.1,97.2,496.1,94.4,494.7z"/>
		<path fill="#B6B0AD" d="M133,482.8c0-7,2.8-11.2,7.7-12.6c1.4-0.7,3.5-0.7,5.6-0.7c2.1,0,4.9,0,8.4,0.7V466c0-5.6-2.1-8.4-5.6-9.1
			c-1.4,0-2.8-0.7-4.2-0.7h-8.4v-2.1c3.5-1.4,6.3-1.4,9.8-1.4c2.8,0,5.6,0,7.7,0.7c1.4,0,2.8,0.7,4.2,1.4c2.8,2.1,4.2,6.3,4.2,11.9
			v28.7h-6.3l-0.7-2.8h-0.7c-2.1,2.1-4.9,3.5-9.1,3.5c-4.2,0-7.7-0.7-9.1-2.8C134.4,491.9,133,487.7,133,482.8z M140.7,482.8
			c0,4.9,1.4,7,4.9,8.4c0.7,0,2.1,0.7,2.8,0.7c2.1,0,4.2-0.7,6.3-1.4v-15.4h-6.3c-2.1,0-4.2,0.7-5.6,1.4S140.7,480,140.7,482.8z"/>
		<path fill="#B6B0AD" d="M173.7,495.4v-42.8h7.7v17.5h2.8c2.1,0,3.5-1.4,4.9-4.9l2.1-6.3c0.7-2.8,2.1-4.2,3.5-5.6
			c1.4-1.4,2.8-2.1,5.6-2.1c0.7,0,2.1,0,4.9,0.7v3.5c-1.4,0-2.8,0-3.5,0.7c-0.7,0.7-1.4,1.4-1.4,2.1l-2.1,6.3
			c-0.7,2.8-2.1,4.2-2.8,5.6c-0.7,1.4-2.1,2.1-3.5,2.1l0,0c1.4,0,2.8,0.7,4.2,2.1c1.4,1.4,2.1,2.8,2.8,5.6l2.1,8.4
			c0.7,2.1,2.1,2.8,4.9,2.8v3.5c-1.4,0.7-2.8,0.7-4.9,0.7c-4.2,0-7-2.1-8.4-7l-2.1-8.4c-0.7-3.5-2.8-4.9-5.6-4.9h-2.8v19.6h-8.4
			V495.4z"/>
		<path fill="#B6B0AD" d="M209.4,482.8c0-7,2.8-11.2,7.7-12.6c1.4-0.7,3.5-0.7,5.6-0.7c2.1,0,4.9,0,8.4,0.7V466
			c0-5.6-2.1-8.4-5.6-9.1c-1.4,0-2.8-0.7-4.2-0.7h-8.4v-2.1c3.5-1.4,6.3-1.4,9.8-1.4c2.8,0,5.6,0,7.7,0.7s3.5,1.4,4.9,2.1
			c2.8,2.1,4.2,6.3,4.2,11.9v28.7h-6.3l-0.7-2.8h-0.7c-2.1,2.1-4.9,3.5-9.1,3.5s-7.7-0.7-9.1-2.8
			C210.8,491.9,209.4,487.7,209.4,482.8z M217.1,482.8c0,4.9,1.4,7,4.9,8.4c0.7,0,2.1,0.7,2.8,0.7c2.1,0,4.2-0.7,6.3-1.4v-15.4h-6.3
			c-2.1,0-4.2,0.7-5.6,1.4C217.8,477.2,217.1,480,217.1,482.8z"/>
		<path fill="#B6B0AD" d="M245.9,494.7v-3.5h10.5c3.5,0,5.6-0.7,7.7-1.4c1.4-1.4,2.8-2.8,2.8-6.3c0-2.8-0.7-4.9-2.1-6.3
			c-1.4-1.4-2.8-1.4-4.9-1.4h-7v-4.9h6.3c2.1,0,3.5-0.7,4.9-1.4c1.4-0.7,2.1-2.8,2.1-5.6c0-2.8-0.7-4.2-2.8-5.6
			c-1.4-0.7-4.2-1.4-7.7-1.4h-8.4v-2.8c3.5-1.4,6.3-1.4,9.8-1.4c3.5,0,5.6,0,7.7,0.7c2.1,0.7,3.5,0.7,4.9,2.1
			c2.8,2.1,4.2,4.9,4.2,9.1c0,4.2-2.1,7.7-7,9.1l0,0c4.9,1.4,7.7,4.9,7.7,10.5c0,4.9-1.4,8.4-4.2,10.5c-2.8,1.4-7,2.8-13.3,2.8
			C252.2,496.8,248.7,496.1,245.9,494.7z"/>
		<path fill="#B6B0AD" d="M280.9,482.8c0-7,2.8-11.2,7.7-12.6c1.4-0.7,3.5-0.7,5.6-0.7c2.1,0,4.9,0,8.4,0.7V466
			c0-5.6-2.1-8.4-5.6-9.1c-1.4,0-2.8-0.7-4.2-0.7h-8.4v-2.1c3.5-1.4,6.3-1.4,9.8-1.4c2.8,0,5.6,0,7.7,0.7c2.1,0.7,3.5,1.4,4.9,2.1
			c2.8,2.1,4.2,6.3,4.2,11.9v28.7h-6.3l-0.7-2.8h-0.7c-2.1,2.1-4.9,3.5-9.1,3.5s-7.7-0.7-9.1-2.8
			C281.6,491.9,280.9,487.7,280.9,482.8z M288.6,482.8c0,4.9,1.4,7,4.9,8.4c0.7,0,2.1,0.7,2.8,0.7c2.1,0,4.2-0.7,6.3-1.4v-15.4h-6.3
			c-2.1,0-4.2,0.7-5.6,1.4C289.3,477.2,288.6,480,288.6,482.8z"/>
		<path fill="#B6B0AD" d="M316,458.3v-5.6h30.1v5.6h-11.2v37.2h-7.7v-37.2H316z"/>
		<path fill="#B6B0AD" d="M352.4,494.7v-42.1h7.7v16.8c3.5-0.7,6.3-0.7,8.4-0.7s4.2,0,5.6,0.7c1.4,0.7,2.8,1.4,4.2,2.1
			c2.1,2.1,3.5,5.6,3.5,11.2c0,5.6-1.4,9.1-4.2,11.2c-1.4,0.7-2.8,1.4-4.9,2.1c-2.1,0.7-4.9,0.7-9.1,0.7S356.6,496.1,352.4,494.7z
			 M360.1,491.2h6.3c2.8,0,4.2-0.7,6.3-1.4c1.4-1.4,2.1-3.5,2.1-7c0-3.5-0.7-5.6-2.1-7c-1.4-1.4-3.5-1.4-6.3-1.4h-6.3V491.2z"/>
		<path fill="#B6B0AD" d="M407.8,458.3v-5.6h30.1v5.6h-11.2v37.2H419v-37.2H407.8z"/>
		<path fill="#B6B0AD" d="M442.1,482.8c0-7,2.8-11.2,7.7-12.6c1.4-0.7,3.5-0.7,5.6-0.7s4.9,0,8.4,0.7V466c0-5.6-2.1-8.4-5.6-9.1
			c-1.4,0-2.8-0.7-4.2-0.7h-8.4v-2.1c3.5-1.4,6.3-1.4,9.8-1.4s5.6,0,7.7,0.7c2.1,0.7,3.5,1.4,4.9,2.1c2.8,2.1,4.2,6.3,4.2,11.9v28.7
			H466l-0.7-2.8h-0.7c-2.1,2.1-4.9,3.5-9.1,3.5s-7.7-0.7-9.1-2.8C443.5,491.9,442.1,487.7,442.1,482.8z M449.8,482.8
			c0,4.9,1.4,7,4.9,8.4c0.7,0,2.1,0.7,2.8,0.7c2.1,0,4.2-0.7,6.3-1.4v-15.4h-6.3c-2.1,0-4.2,0.7-5.6,1.4
			C450.5,477.9,449.8,480,449.8,482.8z"/>
		<path fill="#B6B0AD" d="M482.1,495.4v-42.8h7.7v17.5h2.8c2.1,0,3.5-1.4,4.9-4.9l2.1-6.3c0.7-2.8,2.1-4.2,3.5-5.6
			c1.4-1.4,2.8-2.1,5.6-2.1c0.7,0,2.1,0,4.9,0.7v3.5c-1.4,0-2.8,0-3.5,0.7c-0.7,0.7-1.4,1.4-1.4,2.1l-2.1,6.3
			c-0.7,2.8-2.1,4.2-2.8,5.6c-0.7,1.4-2.1,2.1-3.5,2.1l0,0c1.4,0,2.8,0.7,4.2,2.1c1.4,1.4,2.1,2.8,2.8,5.6l1.4,9.1
			c0.7,2.1,2.1,2.8,4.9,2.8v3.5c-1.4,0.7-2.8,0.7-4.9,0.7c-4.2,0-7-2.1-8.4-7l-2.1-8.4c-0.7-3.5-2.8-4.9-5.6-4.9h-2.8v19.6
			L482.1,495.4L482.1,495.4z"/>
		<path fill="#B6B0AD" d="M518.5,474.4c0-8.4,1.4-14,4.2-17.5c1.4-1.4,2.8-2.8,4.9-3.5c2.1-0.7,4.2-1.4,7.7-1.4
			c2.8,0,6.3,0.7,9.8,1.4v3.5h-8.4c-3.5,0-5.6,1.4-7,3.5c-1.4,2.8-2.8,7-2.8,13.3s0.7,11.2,2.8,14c1.4,2.1,4.2,3.5,7.7,3.5h8.4v3.5
			c-3.5,1.4-6.3,1.4-9.8,1.4s-5.6-0.7-7.7-1.4c-2.1-0.7-3.5-2.1-4.9-3.5C519.9,488.4,518.5,482.8,518.5,474.4z"/>
		<path fill="#B6B0AD" d="M552.2,494.9v-42.8h7.7v29.4h0.7l12.6-28.7h9.1v42.8h-7.7v-30.1h-0.7l-13.3,30.1h-8.4V494.9z"/>
	</g>
	<circle fill="#8A0A00" cx="341.2" cy="191.4" r="166.1"/>
	<circle fill="none" stroke="#8A0A00" stroke-width="6" stroke-miterlimit="10" cx="341.2" cy="191.4" r="187.9"/>
	<g>
		<path fill="#FFFFFF" d="M279.5,279.8c0,0.7,0,2.1,0,2.1c0,0.7,0.7,1.4,0.7,1.4s0.7,0.7,1.4,0.7c0.7,0,0.7,0,1.4,0h2.8v3.5h-24.5
			V284h2.8c0.7,0,0.7,0,1.4,0c0.7,0,0.7,0,1.4-0.7c0.7-0.7,0.7-0.7,0.7-1.4c0-0.7,0-1.4,0-2.1v-37.9H262c-1.4,0-2.1,0-2.8,0.7
			c-0.7,0-1.4,0.7-2.1,0.7c-0.7,0.7-0.7,0.7-0.7,1.4c0,0.7-0.7,1.4-0.7,2.1l0.7,4.2h-4.9l0.7-14h44.2v14h-4.9v-4.2
			c0-0.7,0-1.4-0.7-2.1c0-0.7-0.7-1.4-0.7-1.4c-0.7-0.7-0.7-0.7-2.1-0.7s-1.4-0.7-2.8-0.7h-5.6V279.8L279.5,279.8z"/>
		<path fill="#FFFFFF" d="M312.5,271.4l-2.1,6.3c0,0.7-0.7,1.4-0.7,2.1s0,1.4,0,2.1c0,0.7,0,0.7,0,1.4c0,0.7,0.7,0.7,0.7,0.7
			l0.7,0.7c0.7,0,0.7,0,1.4,0h2.8v3.5H297v-3.5h1.4c0.7,0,1.4,0,1.4,0c0.7,0,0.7-0.7,1.4-0.7c0.7-0.7,0.7-0.7,1.4-1.4
			c0.7-0.7,0.7-1.4,1.4-2.8l15.4-42.1h9.8l14.7,42.1c0,0.7,0.7,2.1,1.4,2.8c0.7,0.7,0.7,1.4,1.4,1.4c0.7,0.7,0.7,0.7,1.4,0.7
			c0.7,0,0.7,0,1.4,0h1.4v3.5h-23.8v-3.5h2.8c0,0,0.7,0,1.4,0c0.7,0,0.7,0,0.7-0.7l0.7-0.7c0,0,0-0.7,0-1.4c0-0.7,0-1.4,0-1.4
			s0-0.7-0.7-1.4l-2.8-7h-16.8V271.4z M325.1,255.9c0-0.7-0.7-1.4-0.7-2.8c0-0.7-0.7-2.1-0.7-2.8c0-0.7-0.7-2.1-0.7-2.8
			c0-0.7-0.7-2.1-0.7-2.8c0,0.7-0.7,1.4-0.7,2.1c0,0.7-0.7,1.4-0.7,2.8c0,0.7-0.7,2.1-0.7,2.8c0,0.7-0.7,2.1-0.7,2.8l-4.2,11.9H330
			L325.1,255.9z"/>
		<path fill="#FFFFFF" d="M388.2,243.3c0-0.7,0-0.7,0-0.7l-0.7-0.7c-0.7,0-0.7,0-1.4,0c-0.7,0-0.7,0-1.4,0l0,0v-3.5h16.8v2.8h-0.7
			c-0.7,0-1.4,0-2.1,0s-1.4,0.7-1.4,0.7c-0.7,0.7-1.4,0.7-1.4,1.4c-0.7,0.7-1.4,1.4-2.1,2.1l-10.5,14l13.3,20.3
			c0.7,1.4,2.1,2.8,2.8,2.8c0.7,0.7,2.1,0.7,2.8,0.7h0.7v3.5H379v-3.5l0,0c2.8,0,4.2-0.7,4.2-2.1v-0.7v-0.7c0,0-0.7-0.7-0.7-1.4
			c0-0.7-0.7-1.4-1.4-2.1l-6.3-9.8l-7.7,10.5c-0.7,0.7-0.7,1.4-1.4,2.1c-0.7,0.7-0.7,1.4-0.7,2.1s0,1.4,0.7,2.1
			c0.7,0.7,2.1,0.7,3.5,0.7l0,0v3.5H351V284h0.7c0.7,0,1.4,0,2.1,0c0.7,0,1.4-0.7,2.1-0.7c0.7-0.7,1.4-0.7,1.4-1.4
			c0.7-0.7,1.4-1.4,1.4-2.1l12.6-16.1l-11.9-18.2c-0.7-0.7-0.7-1.4-1.4-1.4c-0.7-0.7-0.7-0.7-1.4-1.4c-0.7,0-0.7-0.7-1.4-0.7
			s-1.4,0-2.1,0h-0.7v-3.5h23.8v2.8l0,0c-0.7,0-1.4,0-2.1,0s-0.7,0-1.4,0.7l-0.7,0.7v0.7c0,0.7,0,1.4,0.7,2.1
			c0.7,0.7,0.7,1.4,1.4,2.1l5.6,9.1l6.3-8.4c0.7-0.7,0.7-1.4,1.4-2.1C388.2,244.7,388.2,244,388.2,243.3z"/>
		<path fill="#FFFFFF" d="M405,288.2v-3.5h2.8c0.7,0,0.7,0,1.4,0c0.7,0,0.7,0,1.4-0.7s0.7-0.7,0.7-1.4s0-1.4,0-2.1v-34.3
			c0-0.7,0-2.1,0-2.1c0-0.7-0.7-1.4-0.7-1.4s-0.7-1.4-1.4-1.4c-0.7,0-0.7,0-1.4,0H405v-3.5h24.5v3.5h-2.8c-0.7,0-0.7,0-1.4,0
			c-0.7,0-0.7,0-1.4,0.7c-0.7,0.7-0.7,0.7-0.7,1.4c0,0.7,0,1.4,0,2.1v34.3c0,0.7,0,2.1,0,2.1c0,0.7,0.7,1.4,0.7,1.4s0.7,0.7,1.4,0.7
			c0.7,0,0.7,0,1.4,0h2.8v3.5H405V288.2z"/>
	</g>
	<g>
		<rect x="271.1" y="112.9" fill="#FFFFFF" width="47" height="47"/>
		<rect x="317.4" y="159.9" fill="#FFFFFF" width="47" height="47"/>
		<rect x="224.1" y="159.9" fill="#FFFFFF" width="47" height="47"/>
		<rect x="411.3" y="159.9" fill="#FFFFFF" width="47" height="47"/>
		<rect x="364.3" y="112.9" fill="#FFFFFF" width="47" height="47"/>
	</g>
</g>
</svg>
