<?xml version="1.0" encoding="utf-8"?>
<!-- Generator: Adobe Illustrator 18.1.1, SVG Export Plug-In . SVG Version: 6.00 Build 0)  -->
<svg version="1.1" id="Слой_1" xmlns="http://www.w3.org/2000/svg" xmlns:xlink="http://www.w3.org/1999/xlink" x="0px" y="0px"
	 viewBox="39 0.3 604.5 515" enable-background="new 39 0.3 604.5 515" xml:space="preserve">
<g id="sex">
	<g>
		<path fill="#B6B0AD" d="M156,494.5v-59.4h30v6.3h-22.4v17.5h6.3c7,0,11.9,1.4,14.7,4.2s4.2,7.7,4.2,14.7c0,6.3-1.4,11.2-4.2,14
			c-1.4,1.4-3.5,2.8-5.6,3.5c-2.1,0.7-5.6,0.7-9.8,0.7C165.1,495.9,160.2,495.9,156,494.5z M163.7,491h6.3c4.2,0,7-0.7,8.4-2.8
			c2.1-2.1,2.8-5.6,2.8-10.5s-0.7-8.4-2.8-9.8c-2.1-2.1-4.9-2.8-8.4-2.8h-6.3V491z"/>
		<path fill="#B6B0AD" d="M195.8,474.2c0-8.4,1.4-14,3.5-17.5c2.1-2.8,6.3-4.9,11.2-4.9s9.1,1.4,11.2,4.9c2.8,3.5,3.5,9.1,3.5,17.5
			v2.8h-21.7c0,5.6,0.7,9.1,2.8,11.2c2.1,2.1,4.9,2.8,9.1,2.8h8.4v3.5c-3.5,1.4-6.3,1.4-9.8,1.4s-5.6,0-8.4-0.7
			c-2.1-0.7-4.2-2.1-5.6-3.5C197.2,488.2,195.8,482.6,195.8,474.2z M203.5,471.4h14.7c0-7.7-1.4-12.6-4.2-14
			c-0.7-0.7-2.1-0.7-2.8-0.7c-3.5,0-5.6,2.8-7,7.7C204.2,466.5,203.5,468.6,203.5,471.4z"/>
		<path fill="#B6B0AD" d="M231.5,494.5V491h10.5c3.5,0,5.6-0.7,7.7-1.4c1.4-1.4,2.8-2.8,2.8-6.3c0-2.8-0.7-4.9-2.1-6.3
			c-1.4-1.4-3.5-1.4-4.9-1.4h-7v-4.9h6.3c2.1,0,3.5-0.7,4.9-1.4c1.4-0.7,2.1-2.8,2.1-5.6c0-2.8-0.7-4.2-2.8-5.6
			c-1.4-0.7-4.2-1.4-7.7-1.4h-8.4v-3.5c3.5-1.4,6.3-1.4,9.8-1.4s5.6,0,7.7,0.7c2.1,0.7,3.5,0.7,4.9,2.1c2.8,2.1,4.2,4.9,4.2,9.8
			c0,4.2-2.1,7.7-7,9.1l0,0c4.9,1.4,7.7,4.9,7.7,10.5c0,4.9-1.4,8.4-4.2,10.5c-2.8,1.4-7,2.8-13.3,2.8
			C237.7,496.6,234.3,495.9,231.5,494.5z"/>
		<path fill="#B6B0AD" d="M289.4,495.9v-42.6h7.7v28.6h0.7l12.6-29.3h9.1v43.3h-7.7v-30h-0.7l-14,30H289.4z"/>
		<path fill="#B6B0AD" d="M330.7,495.9v-42.6h7.7v18.2h14v-18.2h7.7v42.6h-7.7V477h-14v18.9H330.7z"/>
		<path fill="#B6B0AD" d="M366.3,458.2v-5.6h30v5.6h-11.2v37.7h-7.7v-37h-11.2V458.2z"/>
		<path fill="#B6B0AD" d="M402.6,495.9v-42.6h7.7v28.6h0.7l12.6-29.3h9.1v43.3H425v-30h-0.7l-14,30H402.6z"/>
		<path fill="#B6B0AD" d="M443.1,495.9l2.8-42.6h9.1l9.8,27.2l0,0l9.8-27.2h9.1l2.8,42.6h-7l-2.1-30.7h-0.7l-7.7,23.8h-7l-9.1-23.8
			h-0.7l-2.1,30.7H443.1z"/>
		<path fill="#B6B0AD" d="M496.2,482.6c0-7,2.8-11.2,7.7-12.6c1.4-0.7,3.5-0.7,5.6-0.7c2.1,0,4.9,0,8.4,0.7v-4.2
			c0-5.6-2.1-8.4-5.6-9.1c-1.4,0-2.8-0.7-4.2-0.7h-8.4v-2.8c3.5-1.4,6.3-1.4,9.8-1.4c2.8,0,5.6,0,7.7,0.7c2.1,0.7,3.5,1.4,4.9,2.1
			c2.8,2.1,4.2,6.3,4.2,11.9v29.3H520l-0.7-2.8h-0.7c-2.1,2.1-5.6,3.5-9.1,3.5c-4.2,0-7.7-0.7-9.1-2.8
			C497.6,491.7,496.2,488.2,496.2,482.6z M503.9,482.6c0,4.9,1.4,7,4.9,8.4c0.7,0,2.1,0.7,2.8,0.7c2.1,0,4.2-0.7,6.3-1.4v-14.7h-6.3
			c-2.1,0-4.2,0.7-5.6,1.4S503.9,479.8,503.9,482.6z"/>
	</g>
	<circle fill="#8A0A00" cx="341.1" cy="190.1" r="166.3"/>
	<circle fill="none" stroke="#8A0A00" stroke-width="6" stroke-miterlimit="10" cx="341.1" cy="191.5" r="187.9"/>
	<g>
		<path fill="#FFFFFF" d="M313.9,129.4v14H309l-0.7-4.2c0-0.7,0-1.4-0.7-2.1c0-0.7-0.7-1.4-0.7-1.4c-0.7-0.7-0.7-0.7-2.1-0.7
			c-0.7,0-1.4-0.7-2.8-0.7h-9.8v18.2h4.2c3.5,0,6.3,0,8.4,0.7s4.2,1.4,5.6,2.8c1.4,1.4,2.8,2.8,3.5,4.2c0.7,2.1,0.7,3.5,0.7,5.6
			s-0.7,4.2-1.4,5.6c-0.7,2.1-2.1,3.5-3.5,4.9c-1.4,1.4-3.5,2.1-6.3,2.8c-2.1,0.7-5.6,0.7-8.4,0.7h-22.4v-3.5h2.8c0.7,0,1.4,0,2.1,0
			c0.7,0,0.7-0.7,1.4-0.7c0-0.7,0.7-0.7,0.7-1.4s0-1.4,0-2.1v-34.2c0-0.7,0-2.1,0-2.1c0-0.7-0.7-1.4-0.7-1.4s-0.7-0.7-1.4-0.7
			c-0.7,0-0.7,0-1.4,0h-2.8v-3.5h40.5V129.4z M293.6,175.5h3.5c1.4,0,2.8,0,3.5-0.7c0.7-0.7,2.1-0.7,2.8-2.1
			c0.7-0.7,1.4-2.1,1.4-2.8c0-1.4,0.7-2.8,0.7-4.2c0-2.1,0-3.5-0.7-4.9c0-1.4-0.7-2.1-1.4-3.5c-0.7-0.7-1.4-1.4-2.8-2.1
			c-1.4-0.7-2.1-0.7-4.2-0.7h-2.8V175.5z"/>
		<path fill="#FFFFFF" d="M339,175.5h14c0.7,0,1.4,0,2.1-0.7c0.7,0,0.7-0.7,1.4-1.4c0.7-0.7,0.7-1.4,0.7-1.4c0-0.7,0.7-1.4,0.7-2.1
			l0.7-3.5h4.9l-0.7,14h-41.9v-3.5h2.8c0.7,0,0.7,0,1.4,0c0.7,0,0.7,0,1.4-0.7c0,0,0.7-0.7,0.7-1.4s0-1.4,0-2.1v-34.2
			c0-0.7,0-2.1,0-2.1c0-0.7-0.7-1.4-0.7-1.4s-0.7-0.7-1.4-0.7c-0.7,0-0.7,0-1.4,0h-2.8v-3.5h39.8V144h-4.9v-3.5
			c0-1.4-0.7-2.8-1.4-4.2c-0.7-0.7-2.1-1.4-3.5-1.4H339v18.2h16.8v4.2H339V175.5z"/>
		<path fill="#FFFFFF" d="M385.8,181.1c-2.8,0-5.6,0-8.4-0.7c-2.1-0.7-4.2-1.4-5.6-2.1c-1.4-0.7-2.8-2.1-3.5-3.5
			c-0.7-1.4-0.7-2.8-0.7-4.2c0-2.1,0.7-3.5,2.1-4.2c1.4-1.4,3.5-1.4,5.6-1.4c0,2.1,0.7,3.5,1.4,4.9s1.4,2.8,2.1,4.2s2.1,2.1,2.8,2.8
			c1.4,0.7,2.8,0.7,4.2,0.7c2.8,0,5.6-0.7,7-2.8c1.4-1.4,2.8-4.2,2.8-7.7c0-1.4,0-2.8-0.7-4.2c-0.7-1.4-1.4-2.1-2.1-2.8
			s-2.1-1.4-4.2-2.1c-1.4-0.7-3.5-0.7-5.6-0.7h-6.3v-4.2h7c3.5,0,6.3-0.7,8.4-2.8c2.1-1.4,2.8-4.2,2.8-7.7c0-1.4,0-2.8-0.7-3.5
			c0-0.7-0.7-2.1-1.4-2.8s-1.4-1.4-2.1-1.4c-0.7-0.7-2.1-0.7-3.5-0.7s-2.8,0-3.5,0.7s-2.1,1.4-2.1,2.1c-0.7,0.7-0.7,2.1-1.4,3.5
			c0,1.4-0.7,2.8-0.7,4.2c-1.4,0-2.8,0-3.5,0c-1.4,0-2.1-0.7-2.8-0.7c-0.7-0.7-1.4-0.7-2.1-2.1c-1.4-2.1-1.4-2.8-1.4-4.2
			s0.7-2.8,1.4-3.5c0.7-1.4,2.1-2.1,3.5-2.8c1.4-0.7,3.5-1.4,5.6-2.1c2.1-0.7,4.2-0.7,7-0.7s4.9,0,7.7,0.7c2.1,0.7,4.2,1.4,5.6,2.1
			c1.4,0.7,2.8,2.1,3.5,3.5s1.4,3.5,1.4,5.6c0,2.1,0,3.5-0.7,4.9s-1.4,2.8-2.8,3.5c-0.7,1.4-2.1,2.1-3.5,2.8s-2.8,1.4-4.2,1.4
			c1.4,0,2.8,0.7,4.2,0.7c1.4,0.7,2.8,1.4,4.2,2.1c1.4,0.7,2.8,2.1,3.5,3.5s1.4,3.5,1.4,5.6c0,2.8-0.7,4.9-1.4,7
			c-1.4,2.1-2.8,3.5-4.9,4.9s-4.2,2.1-7,2.8C391.4,180.4,388.6,181.1,385.8,181.1z"/>
		<path fill="#FFFFFF" d="M237,233.5c0,0.7,0,2.1,0.7,2.1c0,0.7,0.7,1.4,1.4,1.4s1.4,0.7,1.4,0.7c0.7,0,1.4,0,1.4,0h0.7v3.5H221
			v-3.5l0,0c0.7,0,0.7,0,1.4,0c0.7,0,1.4,0,1.4-0.7c0.7,0,0.7-0.7,1.4-1.4c0-0.7,0.7-1.4,0.7-2.1v-15.4l-13.3,14.7v0.7
			c0,0.7,0,2.1,0.7,2.1c0,0.7,0.7,1.4,1.4,1.4c0.7,0,0.7,0.7,1.4,0.7s1.4,0,1.4,0l0,0v3.5h-21.7v-3.5h0.7c0.7,0,1.4,0,1.4,0
			c0.7,0,1.4,0,1.4-0.7c0.7,0,0.7-0.7,1.4-1.4c1.4,0,1.4-1.4,1.4-2.1v-21.7c0-0.7,0-2.1-0.7-2.1c0-0.7-0.7-1.4-1.4-1.4
			c-0.7,0-0.7-0.7-1.4-0.7c-0.7,0-1.4,0-1.4,0h-1.4v-3.5h21.7v3.5l0,0c-0.7,0-0.7,0-1.4,0s-1.4,0-1.4,0.7c-0.7,0-0.7,0.7-1.4,1.4
			c0,0.7-0.7,1.4-0.7,2.1v15.4l13.3-14.7v-0.7c0-0.7,0-2.1-0.7-2.1c0-0.7-0.7-1.4-1.4-1.4s-0.7-0.7-1.4-0.7c-0.7,0-1.4,0-1.4,0l0,0
			v-3.5h21.7v3.5h-0.7c-0.7,0-1.4,0-1.4,0c-0.7,0-1.4,0-1.4,0.7c-0.7,0-0.7,0.7-1.4,1.4c0,0.7-0.7,1.4-0.7,2.1
			C237,211.8,237,233.5,237,233.5z"/>
		<path fill="#FFFFFF" d="M285.9,233.5c0,0.7,0,2.1,0.7,2.1c0,0.7,0.7,1.4,1.4,1.4c0.7,0,1.4,0.7,1.4,0.7c0.7,0,1.4,0,1.4,0h0.7v3.5
			h-21.7v-3.5l0,0c0.7,0,0.7,0,1.4,0c0.7,0,1.4,0,1.4-0.7c0.7,0,0.7-0.7,1.4-1.4c0-0.7,0.7-1.4,0.7-2.1v-9.1h-13.3v9.1
			c0,0.7,0,2.1,0.7,2.1c0,0.7,0.7,1.4,1.4,1.4c0.7,0,0.7,0.7,1.4,0.7c0.7,0,1.4,0,1.4,0l0,0v3.5h-21.7v-3.5h0.7c0.7,0,1.4,0,1.4,0
			c0.7,0,1.4,0,1.4-0.7c0.7,0,0.7-0.7,1.4-1.4c0-0.7,0.7-1.4,0.7-2.1v-21.7c0-0.7,0-2.1-0.7-2.1s-0.7-1.4-1.4-1.4s-0.7-0.7-1.4-0.7
			c-0.7,0-1.4,0-1.4,0h-0.7v-3.5h21.7v3.5l0,0c-0.7,0-0.7,0-1.4,0c-0.7,0-1.4,0-1.4,0.7c-0.7,0-0.7,0.7-1.4,1.4
			c0,0.7-0.7,1.4-0.7,2.1v8.4h13.3v-8.4c0-0.7,0-2.1-0.7-2.1c0-0.7-0.7-1.4-1.4-1.4c-0.7,0-0.7-0.7-1.4-0.7c-0.7,0-1.4,0-1.4,0l0,0
			v-3.5h21.7v3.5h-0.7c-0.7,0-1.4,0-1.4,0c-0.7,0-1.4,0-1.4,0.7c-0.7,0-0.7,0.7-1.4,1.4s-0.7,1.4-0.7,2.1V233.5z"/>
		<path fill="#FFFFFF" d="M332.1,203.4l0.7,11.9h-4.9v-2.1c0-1.4,0-2.1-0.7-2.8c0-0.7-0.7-1.4-0.7-2.1c0-0.7-0.7-0.7-1.4-0.7
			c-0.7,0-0.7,0-1.4,0h-4.2v25.8c0,0.7,0,1.4,0.7,2.1c0,0.7,0.7,1.4,0.7,1.4c0.7,0.7,0.7,0.7,1.4,0.7c0.7,0,1.4,0,2.1,0h0.7v3.5
			h-22.4v-3.5h0.7c0.7,0,1.4,0,2.1,0s1.4-0.7,1.4-0.7c0.7-0.7,0.7-0.7,1.4-1.4c0-0.7,0.7-1.4,0.7-2.1v-25.8h-4.2c-0.7,0-1.4,0-1.4,0
			c-0.7,0-0.7,0.7-1.4,0.7c0,0.7-0.7,0.7-0.7,2.1c0,0.7-0.7,1.4-0.7,2.8v2.1h-4.9l0.7-11.9L332.1,203.4L332.1,203.4z"/>
		<path fill="#FFFFFF" d="M376.1,233.5c0,0.7,0,2.1,0.7,2.1c0,0.7,0.7,1.4,1.4,1.4s1.4,0.7,1.4,0.7c0.7,0,1.4,0,1.4,0h0.7v3.5H360
			v-3.5l0,0c0.7,0,0.7,0,1.4,0c0.7,0,1.4,0,1.4-0.7c0.7,0,0.7-0.7,1.4-1.4c0-0.7,0.7-1.4,0.7-2.1v-15.4l-13.3,14.7v0.7
			c0,0.7,0,2.1,0.7,2.1c0,0.7,0.7,1.4,1.4,1.4c0.7,0,0.7,0.7,1.4,0.7c0.7,0,1.4,0,1.4,0l0,0v3.5h-21.7v-3.5h0.7c0.7,0,1.4,0,1.4,0
			c0.7,0,1.4,0,1.4-0.7c0.7,0,0.7-0.7,1.4-1.4c0-0.7,0.7-1.4,0.7-2.1v-21.7c0-0.7,0-2.1-0.7-2.1c-0.7,0-0.7-1.4-1.4-1.4
			c-0.7,0-0.7-0.7-1.4-0.7c-0.7,0-1.4,0-1.4,0h-0.7v-3.5h21.7v3.5l0,0c-0.7,0-0.7,0-1.4,0c-0.7,0-1.4,0-1.4,0.7
			c-0.7,0-0.7,0.7-1.4,1.4c0,0.7-0.7,1.4-0.7,2.1v15.4l13.3-14.7v-0.7c0-0.7,0-2.1-0.7-2.1c0-0.7-0.7-1.4-1.4-1.4
			c-0.7,0-0.7-0.7-1.4-0.7c-0.7,0-1.4,0-1.4,0l0,0v-3.5h21.7v3.5h-0.7c-0.7,0-1.4,0-1.4,0c-0.7,0-1.4,0-1.4,0.7
			c-0.7,0-0.7,0.7-1.4,1.4s-0.7,1.4-0.7,2.1L376.1,233.5L376.1,233.5z"/>
		<path fill="#FFFFFF" d="M384.4,241.8v-3.5h0.7c0.7,0,1.4,0,1.4,0c0.7,0,1.4,0,1.4-0.7c0.7,0,0.7-0.7,1.4-1.4
			c0-0.7,0.7-1.4,0.7-2.1v-21.7c0-0.7,0-2.1-0.7-2.1c0-0.7-0.7-1.4-1.4-1.4c-0.7,0-0.7-0.7-1.4-0.7c-0.7,0-1.4,0-1.4,0h-0.7v-3.5
			h18.9l10.5,23.8l10.5-23.8h18.9v3.5h-0.7c-0.7,0-1.4,0-2.1,0s-1.4,0-2.1,0.7c-0.7,0-0.7,0.7-1.4,1.4c0,0.7-0.7,1.4-0.7,2.8v21
			c0,0.7,0,2.1,0.7,2.8c0,0.7,0.7,1.4,1.4,1.4s1.4,0.7,2.1,0.7s1.4,0,2.1,0h0.7v3.5h-23.1V239l0,0c0.7,0,1.4,0,2.1,0s1.4,0,2.1-0.7
			s0.7-0.7,1.4-1.4c0-0.7,0.7-1.4,0.7-2.8v-21.7h-0.7l-14,30.7h-3.5l-13.3-30.7h-0.7v21c0,0.7,0,2.1,0.7,2.8c0,0.7,0.7,1.4,1.4,1.4
			c0.7,0,1.4,0.7,2.1,0.7s1.4,0,2.1,0l0,0v3.5H384.4z"/>
		<path fill="#FFFFFF" d="M465.5,210c-0.7,0-1.4,0-2.1,0.7s-1.4,0.7-1.4,1.4c-0.7,0.7-0.7,1.4-0.7,2.1c0,0.7,0,2.1,0,2.8
			c-3.5,0-5.6-0.7-7-1.4s-2.1-2.1-2.1-3.5s0.7-2.1,1.4-3.5c0.7-0.7,2.1-1.4,3.5-2.1c1.4-0.7,2.8-0.7,4.9-1.4c2.1,0,3.5-0.7,5.6-0.7
			c2.8,0,4.9,0,6.3,0.7c2.1,0.7,3.5,1.4,4.9,2.1c1.4,0.7,2.1,2.1,2.8,3.5c0.7,1.4,0.7,3.5,0.7,5.6v18.2c0,0.7,0,2.1,0,2.1
			c0,0.7,0.7,1.4,0.7,1.4c0,0.7,0.7,0.7,1.4,0.7s1.4,0,2.1,0l0,0v3.5h-13.3l-1.4-4.9h-0.7c-0.7,0.7-1.4,2.1-2.1,2.8
			c-0.7,0.7-1.4,1.4-2.1,2.1s-1.4,0.7-2.8,0.7c-0.7,0-2.1,0-3.5,0s-2.8,0-4.2-0.7c-1.4-0.7-2.8-1.4-3.5-2.1
			c-0.7-0.7-2.1-2.1-2.1-3.5c-0.7-1.4-0.7-3.5-0.7-4.9c0-4.2,1.4-7,4.2-8.4c2.8-2.1,7-2.8,11.9-2.8h5.6v-4.2c0-1.4,0-2.1,0-3.5
			c0-0.7,0-2.1-0.7-2.8c0-0.7-0.7-1.4-1.4-1.4C466.9,210,466.2,210,465.5,210z M459.2,234.5c0,2.1,0,3.5,0.7,4.9
			c0.7,0.7,1.4,1.4,2.8,1.4c0.7,0,2.1,0,2.8-0.7c0.7-0.7,1.4-0.7,2.1-2.1c0.7-0.7,0.7-2.1,1.4-2.8c0-1.4,0.7-2.1,0.7-3.5v-5.6h-3.5
			c-1.4,0-2.8,0-3.5,0.7c-0.7,0.7-2.1,0.7-2.1,1.4c-0.7,0.7-0.7,1.4-1.4,2.8C459.2,231.7,459.2,233.1,459.2,234.5z"/>
	</g>
</g>
</svg>
