<?xml version="1.0" encoding="utf-8"?>
<!-- Generator: Adobe Illustrator 18.1.1, SVG Export Plug-In . SVG Version: 6.00 Build 0)  -->
<svg version="1.1" id="Слой_1" xmlns="http://www.w3.org/2000/svg" xmlns:xlink="http://www.w3.org/1999/xlink" x="0px" y="0px"
	 viewBox="39 0.3 604.5 515" enable-background="new 39 0.3 604.5 515" xml:space="preserve">
<g id="картой">
	<g>
		<path fill="#B6B0AD" d="M102.6,465.7c0-11.1,1.4-19.5,4.9-24.4c2.8-4.2,7.7-6.3,13.2-6.3c6.3,0,10.4,2.1,13.2,6.3
			c3.5,4.9,4.9,12.5,4.9,24.4c0,11.8-1.4,19.5-4.9,24.4c-2.8,4.2-7.7,6.3-13.2,6.3c-6.3,0-10.4-2.1-13.2-6.3
			C104,485.2,102.6,476.9,102.6,465.7z M110.3,465.7c0,9.1,1.4,16,3.5,20.9c1.4,3.5,4.2,4.9,7.7,4.9s5.6-1.4,7.7-4.9
			c2.1-4.2,3.5-11.1,3.5-20.9c0-17.4-3.5-25.8-10.4-25.8c-3.5,0-5.6,1.4-7.7,4.9C111.7,449,110.3,456,110.3,465.7z"/>
		<path fill="#B6B0AD" d="M149.2,495.7v-42.5h29.2v42.5h-7.7v-37.6h-13.9v37.6H149.2z"/>
		<path fill="#B6B0AD" d="M184,495.7v-3.5c1.4,0,3.5-0.7,4.9-2.1c1.4-1.4,2.1-4.2,2.1-7.7l1.4-29.2h26.4v42.5h-7.7v-37.6H200
			l-1.4,23.7c0,4.9-1.4,9.1-3.5,11.1c-2.1,2.1-4.2,3.5-7,3.5c-1.4,0-2.1,0-3.5-0.7H184z"/>
		<path fill="#B6B0AD" d="M228.5,482.5c0-7,2.8-11.8,7.7-12.5c1.4-0.7,3.5-0.7,5.6-0.7s4.9,0,8.3,0.7v-4.2c0-5.6-2.1-8.4-5.6-9.1
			c-1.4,0-2.8-0.7-4.2-0.7H232v-2.8c3.5-1.4,6.3-1.4,9.7-1.4c2.8,0,5.6,0,7.7,0.7c2.1,0.7,3.5,1.4,4.9,2.1c2.8,2.1,4.2,6.3,4.2,11.8
			v29.2h-6.3l-0.7-2.8h-0.7c-2.1,2.1-5.6,3.5-9,3.5c-4.2,0-7.7-0.7-9-2.8C229.9,491.5,228.5,488,228.5,482.5z M236.2,482.5
			c0,4.9,1.4,7,4.9,8.4c0.7,0,2.1,0.7,2.8,0.7c2.1,0,4.2-0.7,6.3-1.4v-15.3h-6.3c-2.1,0-4.2,0.7-5.6,1.4
			C236.9,477.6,236.2,479.7,236.2,482.5z"/>
		<path fill="#B6B0AD" d="M264,458.1v-5.6h29.9v5.6h-11.1v37.6h-7.7v-37.6H264z"/>
		<path fill="#B6B0AD" d="M298.8,482.5c0-7,2.8-11.8,7.7-12.5c1.4-0.7,3.5-0.7,5.6-0.7c2.1,0,4.9,0,8.3,0.7v-4.2
			c0-5.6-2.1-8.4-5.6-9.1c-1.4,0-2.8-0.7-4.2-0.7h-8.3v-2.8c3.5-1.4,6.3-1.4,9.7-1.4c2.8,0,5.6,0,7.7,0.7c2.1,0.7,3.5,1.4,4.9,2.1
			c2.8,2.1,4.2,6.3,4.2,11.8v29.2h-6.3l-0.7-2.8H321c-2.1,2.1-5.6,3.5-9,3.5c-4.2,0-7.7-0.7-9-2.8
			C299.5,491.5,298.8,488,298.8,482.5z M306.4,482.5c0,4.9,1.4,7,4.9,8.4c0.7,0,2.1,0.7,2.8,0.7c2.1,0,4.2-0.7,6.3-1.4v-15.3h-6.3
			c-2.1,0-4.2,0.7-5.6,1.4C307.1,477.6,306.4,479.7,306.4,482.5z"/>
		<path fill="#B6B0AD" d="M360,495.7v-42.5h7.7v16.7h2.8c2.1,0,3.5-1.4,4.9-4.9l2.1-6.3c0.7-2.8,2.1-4.2,3.5-5.6
			c1.4-1.4,2.8-2.1,5.6-2.1c0.7,0,2.8,0,4.9,0.7v4.2c-1.4,0-2.8,0-3.5,0.7s-1.4,1.4-1.4,2.1l-2.1,6.3c-0.7,2.8-2.1,4.2-2.8,5.6
			c-0.7,1.4-2.1,2.1-3.5,2.1l0,0c1.4,0,2.8,1.4,4.2,2.1c1.4,1.4,2.1,2.8,2.8,5.6l2.1,8.4c0.7,2.1,2.1,2.8,4.9,2.8v3.5
			c-1.4,0.7-2.8,0.7-4.9,0.7c-4.2,0-7-2.1-8.3-7l-2.1-8.4c-0.7-3.5-2.8-4.9-5.6-4.9h-2.8V495H360V495.7z"/>
		<path fill="#B6B0AD" d="M396.1,482.5c0-7,2.8-11.8,7.7-12.5c1.4-0.7,3.5-0.7,5.6-0.7s4.9,0,8.3,0.7v-4.2c0-5.6-2.1-8.4-5.6-9.1
			c-1.4,0-2.8-0.7-4.2-0.7h-8.3v-2.8c3.5-1.4,6.3-1.4,9.7-1.4c2.8,0,5.6,0,7.7,0.7c2.1,0.7,3.5,1.4,4.9,2.1
			c2.8,2.1,4.2,6.3,4.2,11.8v29.2h-6.3l-0.7-2.8h-0.7c-2.1,2.1-5.6,3.5-9,3.5c-4.2,0-7.7-0.7-9-2.8
			C397.5,491.5,396.1,488,396.1,482.5z M403.8,482.5c0,4.9,1.4,7,4.9,8.4c0.7,0,2.1,0.7,2.8,0.7c2.1,0,4.2-0.7,6.3-1.4v-15.3h-6.3
			c-2.1,0-4.2,0.7-5.6,1.4C404.5,477.6,403.8,479.7,403.8,482.5z"/>
		<path fill="#B6B0AD" d="M436.5,512.4v-59.9h6.3l0.7,2.8h0.7c2.1-2.1,5.6-3.5,9-3.5c4.9,0,8.3,1.4,10.4,4.9
			c2.8,3.5,3.5,9.1,3.5,17.4c0,11.8-2.8,18.8-8.3,20.9c-2.1,0.7-4.2,1.4-6.3,1.4c-2.8,0-4.9-0.7-8.3-2.1v18.1L436.5,512.4
			L436.5,512.4z M444.1,489.4c1.4,1.4,3.5,1.4,5.6,1.4c2.1,0,3.5,0,4.2-0.7c1.4-0.7,2.1-1.4,2.8-2.8c1.4-2.8,2.1-7.7,2.1-13.9
			c0-9.1-2.1-14.6-5.6-16.7c-1.4-0.7-2.8-0.7-4.2-0.7c-2.1,0-3.5,0.7-5.6,1.4v32H444.1z"/>
		<path fill="#B6B0AD" d="M471.9,458.1v-5.6h29.9v5.6h-11.1v37.6h-7.7v-37.6H471.9z"/>
		<path fill="#B6B0AD" d="M506,474.1c0-11.8,2.8-18.8,9-20.9c2.1-0.7,4.2-1.4,7-1.4c5.6,0,9,1.4,11.8,4.9c2.8,3.5,4.2,9.1,4.2,17.4
			c0,11.8-2.8,18.8-9,20.9c-2.1,0.7-4.2,1.4-7,1.4c-5.6,0-9-1.4-11.8-4.9C507.4,488,506,482.5,506,474.1z M513.7,474.1
			c0,11.8,2.8,17.4,8.3,17.4c5.6,0,8.3-5.6,8.3-17.4c0-11.8-2.8-17.4-8.3-17.4C516.5,456.7,513.7,462.3,513.7,474.1z"/>
		<path fill="#B6B0AD" d="M547.1,495.7v-42.5h7.7v29.2h0.7l12.5-29.2h9v42.5h-7.7v-29.9h-0.7l-13.9,29.9H547.1z M550.5,441.4
			l3.5-3.5c2.1,2.1,4.9,3.5,8.3,3.5c1.4,0,3.5-0.7,4.9-1.4c1.4-0.7,2.8-1.4,3.5-2.1l3.5,3.5c-2.8,4.2-6.3,6.3-11.8,6.3
			c-2.8,0-4.9-0.7-7-1.4C552.6,444.9,551.2,443.5,550.5,441.4z"/>
	</g>
	<ellipse fill="#8A0A00" cx="341.2" cy="190.1" rx="166.2" ry="166.4"/>
	<ellipse fill="none" stroke="#8A0A00" stroke-width="6" stroke-miterlimit="10" cx="341.2" cy="191.5" rx="187.8" ry="188"/>
	<g>
		<path fill="#FFFFFF" d="M387.8,110.7h-7c-2.1,0-3.5,0.7-4.9,2.8l-12.5,29.2h9c0,0,1.4-4.2,2.1-4.9c0.7,0,9.7,0,11.1,0
			c0,1.4,0.7,4.9,0.7,4.9h8.3L387.8,110.7z M377.4,130.9c0.7-1.4,3.5-9.1,3.5-9.1s0.7-2.1,1.4-2.8l0.7,2.8c0,0,1.4,7.7,2.1,9.1
			H377.4z M364.8,131.6c0,6.3-6.3,11.1-15.3,11.1c-4.2,0-7.7-0.7-9.7-1.4l1.4-7l1.4,0.7c2.8,1.4,4.9,1.4,8.3,1.4
			c2.8,0,4.9-0.7,4.9-2.8c0-1.4-1.4-2.1-4.2-4.2c-3.5-1.4-7.7-4.2-7.7-8.4c0-6.3,6.3-10.4,14.6-10.4c3.5,0,6.3,0.7,7.7,1.4l-1.4,7
			l-0.7-0.7c-1.4-0.7-3.5-1.4-6.3-1.4c-3.5,0-4.9,1.4-4.9,2.8c0,1.4,2.1,2.8,4.9,4.2C362.1,125.3,364.8,128.1,364.8,131.6
			L364.8,131.6z M287.6,106.5L287.6,106.5l13.2-0.7c2.1,0,3.5,0.7,3.5,2.8l2.8,13.9C305,114.9,298.1,108.6,287.6,106.5L287.6,106.5z
			 M328,110.7l-13.9,32h-9l-7.7-27.2c5.6,3.5,10.4,9.1,11.8,13.2l0.7,3.5l8.3-21.6H328z M331.5,110.7h8.3l-5.6,32h-8.3L331.5,110.7z
			"/>
	</g>
	<path fill="none" d="M403.1,270.8L403.1,270.8c-0.7,0-0.7,0-1.4,0c0,0-0.7,0-0.7,0.7v0.7v0.7c0,0,0,0.7,0.7,0.7h0.7h0.7
		c0,0,0.7,0,0.7-0.7v-0.7C403.8,272.2,403.8,271.5,403.1,270.8C403.8,271.5,403.8,270.8,403.1,270.8z M403.1,272.9L403.1,272.9
		C403.1,272.2,403.1,272.2,403.1,272.9C402.4,272.2,402.4,272.2,403.1,272.9L403.1,272.9L403.1,272.9h-0.7v-1.4h0.7l0,0l0,0l0,0l0,0
		C403.1,272.2,403.1,272.2,403.1,272.9C403.1,272.2,403.1,272.2,403.1,272.9C403.1,272.2,403.1,272.2,403.1,272.9L403.1,272.9
		L403.1,272.9z"/>
	<path fill="none" d="M337,247.1c-2.1,0-2.8,2.8-2.8,2.8h4.9C339.1,249.9,339.8,247.1,337,247.1z"/>
	<path fill="none" d="M369.7,255.5c0,0.7,0,1.4,1.4,1.4c2.8,0,2.8-3.5,2.8-4.2c0,0,0,0-0.7,0C370.4,253.4,369.7,254.1,369.7,255.5z"
		/>
	<path fill="none" d="M401.7,259L401.7,259L401.7,259C402.4,259,402.4,259,401.7,259C402.4,259,402.4,259,401.7,259
		C402.4,259,402.4,259,401.7,259C402.4,259,402.4,259,401.7,259C402.4,259,402.4,259,401.7,259L401.7,259z"/>
	<path fill="none" d="M403.1,271.5L403.1,271.5L403.1,271.5L403.1,271.5L403.1,271.5L403.1,271.5L403.1,271.5
		C403.1,272.2,403.1,272.2,403.1,271.5C403.1,272.2,403.1,272.2,403.1,271.5z"/>
	<path fill="none" d="M302.2,255.5c0,0.7,0,1.4,1.4,1.4c2.8,0,2.8-3.5,2.8-4.2c0,0,0,0-0.7,0C302.9,253.4,302.2,254.1,302.2,255.5z"
		/>
	<path fill="none" d="M367.6,210.9c-10.4,0-19.5,4.2-26.4,10.4c-7-6.3-16-10.4-26.4-10.4l0,0c-21.6,0-38.9,17.4-38.9,39
		s17.4,39,38.9,39c10.4,0,19.5-4.2,26.4-10.4c-1.4-1.4-2.8-2.8-4.2-4.2h8.3c-1.4,1.4-2.8,2.8-4.2,4.2l0,0l0,0l0,0
		c7,6.3,16,10.4,26.4,10.4c21.6,0,38.9-17.4,38.9-39l0,0C406.6,229,389.2,210.9,367.6,210.9z M337.7,225.6h7.7
		c1.4,1.4,2.1,2.8,2.8,4.2h-13.2C335.6,228.4,337,227,337.7,225.6z M332.8,233.9h18.1c0.7,1.4,1.4,2.8,1.4,4.2h-21.6
		C330.8,237.4,331.5,236,332.8,233.9z M291.8,260.4l2.1-15.3l-5.6,15.3h-2.8l-0.7-15.3l-1.4,15.3h-4.2l3.5-20.2h6.3v12.5l4.2-12.5
		h6.3l-3.5,20.2H291.8z M306.4,260.4V259c0,0-1.4,2.1-4.2,2.1c-1.4,0-4.2-0.7-4.2-4.2c0-4.9,3.5-6.3,7.7-6.3c0.7,0,2.1,0,2.1,0
		s0,0,0-1.4c0-1.4-1.4-1.4-2.8-1.4c-2.8,0-4.9,0.7-4.9,0.7l0.7-3.5c0,0,2.1-0.7,4.9-0.7c1.4,0,5.6,0,5.6,4.9l-1.4,11.1H306.4
		L306.4,260.4z M321.7,255.5c0,5.6-5.6,5.6-6.3,5.6c-3.5,0-4.9-0.7-4.9-0.7l0.7-3.5c0,0,2.1,0.7,3.5,0.7c1.4,0,2.8,0,2.8-1.4
		c0-2.1-4.9-1.4-4.9-6.3c0-4.2,2.8-5.6,6.3-5.6c2.1,0,4.2,0,4.2,0l-0.7,3.5c0,0-2.1,0-2.8,0c-1.4,0-2.1,0-2.1,1.4
		C316.9,251.3,321.7,249.9,321.7,255.5z M328,256.9c0.7,0,0.7,0,1.4,0l-0.7,3.5c-0.7,0-1.4,0.7-2.8,0.7c-2.1,0-3.5-1.4-3.5-3.5
		c0-1.4,2.1-15.3,2.8-15.3h4.2l-0.7,2.1h2.1l-0.7,4.2H328l-1.4,7C326.6,256.2,326.6,256.9,328,256.9z M337,243.7
		c4.9,0,6.3,3.5,6.3,6.3c0,1.4-0.7,3.5-0.7,3.5h-8.3c0,0-0.7,3.5,3.5,3.5c2.1,0,4.2-0.7,4.2-0.7l-0.7,4.2c0,0-1.4,0.7-4.2,0.7
		c-3.5,0-7-1.4-7-7C330.1,248.5,332.8,243.7,337,243.7z M348.2,270.8h-13.9c-0.7-1.4-1.4-2.8-2.1-4.2h18.8
		C349.5,268,348.8,269.4,348.2,270.8z M347.5,260.4h-4.2l2.8-16h4.2l-0.7,2.1c0,0,1.4-2.8,3.5-2.8c0.7,0,0.7,0,0.7,0
		c-0.7,1.4-0.7,2.1-1.4,4.9C348.8,247.8,348.8,253.4,347.5,260.4z M363.5,260.4c0,0-2.1,0.7-3.5,0.7c-4.9,0-7.7-3.5-7.7-8.4
		c0-7.7,4.9-11.8,9.7-11.8c2.1,0,4.9,0.7,4.9,0.7l-0.7,4.2c0,0-1.4-1.4-4.2-1.4s-5.6,2.8-5.6,7.7c0,2.1,1.4,4.9,4.2,4.9
		c1.4,0,3.5-0.7,3.5-0.7L363.5,260.4z M373.9,260.4V259c0,0-1.4,2.1-4.2,2.1c-1.4,0-4.2-0.7-4.2-4.2c0-4.9,3.5-6.3,7.7-6.3
		c0.7,0,2.1,0,2.1,0s0,0,0-1.4c0-1.4-1.4-1.4-2.8-1.4c-2.8,0-4.9,0.7-4.9,0.7l0.7-3.5c0,0,2.1-0.7,4.9-0.7c1.4,0,5.6,0,5.6,4.9
		l-1.4,11.1H373.9L373.9,260.4z M382.2,260.4h-4.2l2.8-16h4.2l-0.7,2.1c0,0,1.4-2.8,3.5-2.8c0.7,0,0.7,0,0.7,0
		c-0.7,1.4-1.4,2.1-1.4,4.9C383.6,247.8,383.6,253.4,382.2,260.4z M403.1,258.3C403.8,259,403.8,259,403.1,258.3c0,0.7,0,1.4,0,1.4
		s0,0.7-0.7,0.7h-0.7H401c0,0-0.7,0-0.7-0.7V259v-0.7c0,0,0-0.7,0.7-0.7h0.7C402.4,257.6,402.4,258.3,403.1,258.3L403.1,258.3z
		 M397.5,245.8l0.7-5.6h4.2l-3.5,19.5h-4.2v-1.4c0,0-1.4,1.4-4.2,1.4c-3.5,0-4.9-3.5-4.9-7c0-5.6,3.5-9.7,7-9.7
		C395.4,243.7,397.5,245.8,397.5,245.8z"/>
	<path fill="none" d="M390.6,253.4c0,2.1,0.7,3.5,2.1,3.5c2.1,0,3.5-2.8,3.5-4.9c0-2.1-0.7-3.5-2.1-3.5
		C392,247.8,390.6,249.9,390.6,253.4z"/>
	<path fill="#FFFFFF" d="M355.1,252c0-4.2,2.1-7,4.9-7c2.1,0,3.5,1.4,3.5,1.4l0.7-4.2c0,0-2.1-0.7-4.2-0.7c-4.2,0-8.3,3.5-8.3,11.1
		c0,4.9,2.1,7.7,7,7.7c1.4,0,3.5-0.7,3.5-0.7l0.7-4.2c0,0-2.1,0.7-2.8,0.7C356.5,256.2,355.1,254.1,355.1,252z"/>
	<path fill="#FFFFFF" d="M370.4,244.4c-2.8,0-4.9,0.7-4.9,0.7l-0.7,3.5c0,0,1.4-0.7,4.2-0.7c1.4,0,2.1,0,2.1,1.4c0,0.7,0,0.7,0,0.7
		h-1.4c-3.5,0-7,1.4-7,5.6c0,3.5,2.1,4.2,3.5,4.2c2.8,0,3.5-1.4,4.2-1.4v1.4h3.5l1.4-10.4C375.3,244.4,371.1,244.4,370.4,244.4z
		 M368.3,256.2c-1.4,0-1.4-0.7-1.4-1.4c0-0.7,0.7-2.1,3.5-2.1c0.7,0,0.7,0,0.7,0C371.1,253.4,370.4,256.2,368.3,256.2z"/>
	<path fill="#FFFFFF" d="M383.6,244.4c0,0,0,0-0.7,0c-1.4,0-2.8,2.1-2.8,2.1v-2.1h-3.5l-2.1,14.6h4.2c1.4-6.3,1.4-11.1,4.2-10.4
		C382.9,246.5,382.9,245.8,383.6,244.4z"/>
	<path fill="#FFFFFF" d="M396.1,258.3v1.4l0,0V259l0,0l0,0l0,0l0,0l0,0l0,0l0,0l0,0l0,0l0,0l0,0l0,0
		C396.8,258.3,396.8,258.3,396.1,258.3L396.1,258.3z M396.8,259L396.8,259L396.8,259L396.8,259L396.8,259L396.8,259L396.8,259
		L396.8,259L396.8,259z"/>
	<path fill="#FFFFFF" d="M334.2,270.8h13.9c0.7-1.4,1.4-2.8,2.1-4.2h-18.1C332.8,268,333.5,269.4,334.2,270.8z"/>
	<path fill="#FFFFFF" d="M381.5,253.4c0,2.8,1.4,6.3,4.9,6.3c2.1,0,3.5-1.4,3.5-1.4v1.4h3.5l2.8-18.1h-3.5l-0.7,4.9
		c0,0-1.4-2.1-3.5-2.1C385,244.4,381.5,248.5,381.5,253.4z M390.6,251.3c0,2.1-0.7,4.9-2.8,4.9c-1.4,0-2.1-1.4-2.1-2.8
		c0-2.8,1.4-4.9,2.8-4.9C389.9,247.8,390.6,249.2,390.6,251.3z"/>
	<path fill="#FFFFFF" d="M413.5,201.2H268.9c-2.1,0-4.2,2.1-4.2,4.2v91.2c0,2.1,2.1,4.2,4.2,4.2h144.7c2.1,0,4.2-2.1,4.2-4.2v-91.2
		C417.7,203.3,415.6,201.2,413.5,201.2z M403.8,272.9L403.8,272.9c-0.7,0.7-0.7,0.7-1.4,0.7h-0.7c0,0-0.7,0-0.7-0.7v-0.7v-0.7
		c0,0,0-0.7,0.7-0.7h0.7h0.7c0,0,0.7,0,0.7,0.7C403.8,271.5,403.8,272.2,403.8,272.9C403.8,272.2,403.8,272.2,403.8,272.9z
		 M406.6,250.6c0,21.6-17.4,39-38.9,39c-10.4,0-19.5-4.2-26.4-10.4c-7,6.3-16,10.4-26.4,10.4c-21.6,0-38.9-17.4-38.9-39
		s17.4-39,38.9-39l0,0c10.4,0,19.5,4.2,26.4,10.4c7-6.3,16-10.4,26.4-10.4C389.2,210.9,406.6,229,406.6,250.6L406.6,250.6z"/>
	<path fill="#FFFFFF" d="M396.1,258.3L396.1,258.3c-0.7,0.7-0.7,0.7-0.7,1.4v0.7c0,0,0,0.7,0.7,0.7h0.7h0.7c0,0,0.7,0,0.7-0.7v-0.7
		V259c0,0,0-0.7-0.7-0.7C397.5,258.3,396.8,257.6,396.1,258.3C396.8,257.6,396.1,258.3,396.1,258.3z M397.5,259
		C397.5,259,398.2,259,397.5,259c0,0.7,0,0.7,0,0.7s0,0-0.7,0.7c0,0,0,0-0.7,0h-0.7c0,0,0,0-0.7-0.7c0,0,0,0,0-0.7v-0.7
		c0,0,0,0,0.7-0.7c0,0,0,0,0.7,0C396.8,258.3,397.5,258.3,397.5,259C397.5,258.3,397.5,258.3,397.5,259z"/>
	<path fill="#FFFFFF" d="M351.6,244.4c-1.4,0-2.8,2.1-2.8,2.1v-2.1h-3.5l-2.1,14.6h4.2c1.4-6.3,1.4-11.1,4.2-10.4
		c0.7-2.1,0.7-3.5,1.4-4.2C352.3,244.4,351.6,244.4,351.6,244.4z"/>
	<path fill="#FFFFFF" d="M341.2,279.2L341.2,279.2c1.4-1.4,2.8-2.8,4.2-4.2H337C338.4,276.4,339.8,277.8,341.2,279.2L341.2,279.2
		L341.2,279.2z"/>
	<path fill="#FFFFFF" d="M345.4,225.6h-7.7c-0.7,1.4-2.1,2.8-2.8,4.2h13.2C347.5,228.4,346.1,227,345.4,225.6z"/>
	<path fill="#FFFFFF" d="M403.1,272.2L403.1,272.2L403.1,272.2L403.1,272.2C403.1,271.5,403.1,271.5,403.1,272.2c0-0.7,0-0.7,0-0.7
		l0,0h-0.7v1.4L403.1,272.2L403.1,272.2L403.1,272.2C402.4,272.2,402.4,272.2,403.1,272.2L403.1,272.2L403.1,272.2L403.1,272.2
		L403.1,272.2L403.1,272.2z M402.4,272.2L402.4,272.2L402.4,272.2L402.4,272.2C403.1,271.5,403.1,271.5,402.4,272.2
		C403.1,271.5,403.1,271.5,402.4,272.2C403.1,271.5,403.1,271.5,402.4,272.2C403.1,272.2,403.1,272.2,402.4,272.2
		C403.1,272.2,403.1,272.2,402.4,272.2z"/>
	<path fill="#FFFFFF" d="M350.2,233.9h-18.1c-1.4,2.1-2.1,3.5-2.1,4.2h21.6C351.6,236.7,350.9,235.3,350.2,233.9z"/>
	<path fill="#FFFFFF" d="M337.7,259.7c2.8,0,4.2-0.7,4.2-0.7l0.7-3.5c0,0-2.1,0.7-4.2,0.7c-4.2,0-3.5-2.8-3.5-2.8h7.7
		c0,0,0.7-2.8,0.7-3.5c0-2.8-1.4-5.6-5.6-5.6c-3.5,0-6.3,4.2-6.3,9.1C330.8,258.3,334.2,259.7,337.7,259.7z M337.7,247.8
		c2.1,0,1.4,2.1,1.4,2.8h-4.2C334.9,249.9,335.6,247.8,337.7,247.8z"/>
	<polygon fill="#FFFFFF" points="297.4,241.6 293.9,252.7 293.9,241.6 288.3,241.6 284.9,259.7 289,259.7 291.1,245.8 291.1,259.7 
		293.9,259.7 298.8,245.8 296.7,259.7 300.2,259.7 303.6,241.6 	"/>
	<path fill="#FFFFFF" d="M328.7,248.5h2.1l0.7-3.5h-2.1l0.7-2.1h-3.5c0,0-2.1,12.5-2.1,13.9c0,2.1,1.4,3.5,2.8,3.5
		c1.4,0,2.8-0.7,2.8-0.7l0.7-3.5h-0.7c-1.4,0-1.4-0.7-1.4-1.4V248.5z"/>
	<path fill="#FFFFFF" d="M321,247.8c0.7,0,2.8,0,2.8,0l0.7-3.5c0,0-1.4,0-3.5,0c-2.8,0-5.6,1.4-5.6,4.9c0,4.2,4.9,4.2,4.9,5.6
		c0,1.4-1.4,1.4-2.1,1.4c-2.1,0-3.5-0.7-3.5-0.7l-0.7,3.5c0,0,1.4,0.7,4.2,0.7c0.7,0,5.6,0,5.6-4.9s-4.2-3.5-4.2-5.6
		C318.9,248.5,319.6,247.8,321,247.8z"/>
	<path fill="#FFFFFF" d="M309.2,244.4c-2.8,0-4.9,0.7-4.9,0.7v3.5c0,0,1.4-0.7,4.2-0.7c1.4,0,2.1,0,2.1,1.4c0,0.7,0,0.7,0,0.7h-1.4
		c-3.5,0-7,1.4-7,5.6c0,3.5,2.1,4.2,3.5,4.2c2.8,0,3.5-1.4,4.2-1.4v1.4h3.5l1.4-10.4C314.1,244.4,310.6,244.4,309.2,244.4z
		 M307.1,256.2c-1.4,0-1.4-0.7-1.4-1.4c0-0.7,0.7-2.1,3.5-2.1c0.7,0,0.7,0,0.7,0C309.9,253.4,309.2,256.2,307.1,256.2z"/>
	<path fill="#FFFFFF" d="M406.6,76.6c3.5,0,6.3,2.8,6.3,6.3v83.5c0,3.5-2.8,6.3-6.3,6.3H275.8c-3.5,0-6.3-2.8-6.3-6.3V82.9
		c0-3.5,2.8-6.3,6.3-6.3H406.6 M406.6,69.6H275.8c-7,0-13.2,5.6-13.2,13.2v83.5c0,7,5.6,13.2,13.2,13.2h130.8
		c7,0,13.2-5.6,13.2-13.2V82.9C419.8,75.2,414.2,69.6,406.6,69.6L406.6,69.6z"/>
</g>
</svg>
