<?xml version="1.0" encoding="utf-8"?>
<!-- Generator: Adobe Illustrator 18.1.1, SVG Export Plug-In . SVG Version: 6.00 Build 0)  -->
<svg version="1.1" id="layer" xmlns="http://www.w3.org/2000/svg" xmlns:xlink="http://www.w3.org/1999/xlink" x="0px" y="0px"
	 viewBox="0 0 48.2 48.2" enable-background="new 0 0 48.2 48.2" xml:space="preserve">
<g>
	<path fill="#88181B" d="M8.5,0C3.8,0,0,3.8,0,8.5v31.2c0,4.7,3.8,8.5,8.5,8.5h31.2c4.7,0,8.5-3.8,8.5-8.5V8.5
		C48.1,3.8,44.3,0,39.6,0H8.5z"/>
	<g>
		<path fill="#FFFFFF" d="M33.2,10H14.9c-2.7,0-5,2.2-5,5v18.2c0,2.7,2.2,5,5,5h18.2c2.7,0,5-2.2,5-5V15C38.1,12.2,35.9,10,33.2,10
			L33.2,10z"/>
		<g>
			<path fill="#88181B" d="M30,24c0,3.1-2.6,5.6-5.8,5.6s-5.8-2.5-5.8-5.6s2.6-5.6,5.8-5.6C27.3,18.4,30,20.9,30,24L30,24z"/>
			<path fill="#88181B" d="M33.2,24.3c0,4.8-4,8.7-9,8.7s-9-3.9-9-8.7c0-0.9,0.1-1.7,0.4-2.5h-2.7v12.3c0,0.6,0.5,1.2,1.2,1.2h20.1
				c0.6,0,1.2-0.5,1.2-1.2V21.8h-2.6C33,22.6,33.2,23.5,33.2,24.3L33.2,24.3z"/>
			<path fill="#88181B" d="M30.7,18.5H34c0.7,0,1.3-0.6,1.3-1.3v-3.1c0-0.7-0.6-1.3-1.3-1.3h-3.3c-0.7,0-1.3,0.6-1.3,1.3v3.1
				C29.4,17.9,30,18.5,30.7,18.5L30.7,18.5z"/>
		</g>
	</g>
</g>
</svg>
