<?xml version="1.0" encoding="utf-8"?>
<!-- Generator: Adobe Illustrator 18.1.1, SVG Export Plug-In . SVG Version: 6.00 Build 0)  -->
<svg version="1.1" baseProfile="basic" id="Слой_1"
	 xmlns="http://www.w3.org/2000/svg" xmlns:xlink="http://www.w3.org/1999/xlink" x="0px" y="0px" viewBox="0 0 26.1 39.5"
	 xml:space="preserve">
<path id="локация" fill="#FFFFFF" d="M13.1,0C5.9,0,0,5.9,0,13.1c0,2.9,1.9,7.6,5.7,14.4c2.7,4.8,5.3,8.8,5.5,9l1.9,2.9
	l1.9-2.9c0.1-0.2,2.8-4.2,5.5-9c3.8-6.8,5.7-11.5,5.7-14.4C26.1,5.9,20.2,0,13.1,0L13.1,0z M13.1,19.7c-3.7,0-6.8-3-6.8-6.8
	c0-3.7,3-6.8,6.8-6.8c3.7,0,6.8,3,6.8,6.8C19.8,16.7,16.8,19.7,13.1,19.7L13.1,19.7z M13.1,19.7"/>
</svg>
