<?xml version="1.0" encoding="utf-8"?>
<!-- Generator: Adobe Illustrator 18.1.1, SVG Export Plug-In . SVG Version: 6.00 Build 0)  -->
<svg version="1.1" id="Слой_1" xmlns="http://www.w3.org/2000/svg" xmlns:xlink="http://www.w3.org/1999/xlink" x="0px" y="0px"
	 viewBox="0 0 560 560" enable-background="new 0 0 560 560" xml:space="preserve">
<g>
	<g>
		<path fill="#FFFFFF" d="M203.6,431.4c0,0.6,0.1,1.1,0.2,1.4c0.1,0.3,0.3,0.6,0.5,0.8s0.4,0.3,0.7,0.4c0.3,0.1,0.5,0.1,0.8,0.1h1.7
			v2.2h-14.2v-2.2h1.7c0.3,0,0.6,0,0.8-0.1c0.3-0.1,0.5-0.2,0.7-0.4c0.2-0.2,0.3-0.5,0.4-0.8c0.1-0.3,0.2-0.8,0.2-1.4v-22h-3.3
			c-0.6,0-1.1,0.1-1.5,0.2s-0.8,0.3-1,0.6c-0.3,0.2-0.5,0.6-0.6,0.9c-0.1,0.4-0.2,0.8-0.3,1.2l-0.3,2.6h-2.8l0.2-8h25.6l0.2,8h-2.8
			l-0.3-2.6c-0.1-0.5-0.1-0.9-0.3-1.2c-0.1-0.4-0.3-0.7-0.6-0.9c-0.3-0.2-0.6-0.4-1-0.6s-0.9-0.2-1.5-0.2h-3.3V431.4z"/>
		<path fill="#FFFFFF" d="M243.9,421.5c0,2.3-0.3,4.3-0.9,6.2c-0.6,1.9-1.5,3.5-2.7,4.8c-1.2,1.3-2.6,2.4-4.4,3.1
			c-1.7,0.7-3.7,1.1-5.9,1.1c-2.3,0-4.4-0.4-6.1-1.1c-1.7-0.7-3.2-1.7-4.4-3.1s-2-2.9-2.6-4.8c-0.6-1.9-0.9-3.9-0.9-6.2
			s0.3-4.3,0.9-6.2c0.6-1.9,1.4-3.4,2.6-4.8c1.2-1.3,2.6-2.3,4.4-3s3.8-1.1,6.2-1.1c2.2,0,4.2,0.4,5.9,1.1s3.2,1.7,4.4,3.1
			s2.1,2.9,2.7,4.8C243.6,417.2,243.9,419.2,243.9,421.5z M223,421.5c0,2,0.1,3.7,0.4,5.3c0.3,1.5,0.7,2.8,1.2,3.9
			c0.6,1.1,1.3,1.9,2.2,2.4s2,0.8,3.2,0.8c1.3,0,2.4-0.3,3.3-0.8s1.6-1.4,2.2-2.4c0.5-1.1,0.9-2.4,1.2-3.9c0.2-1.5,0.4-3.3,0.4-5.3
			s-0.1-3.7-0.4-5.3c-0.2-1.5-0.6-2.8-1.2-3.9c-0.5-1.1-1.3-1.9-2.1-2.4c-0.9-0.6-2-0.8-3.2-0.8c-1.3,0-2.4,0.3-3.3,0.8
			c-0.9,0.6-1.6,1.4-2.2,2.4s-1,2.4-1.2,3.9C223.1,417.8,223,419.6,223,421.5z"/>
		<path fill="#FFFFFF" d="M271.1,436.3v-2.2h0.4c0.4,0,0.8,0,1.1-0.1c0.3-0.1,0.6-0.2,0.8-0.3s0.4-0.4,0.5-0.7
			c0.1-0.3,0.2-0.7,0.2-1.2v-20.8l-8.3,25.3H263l-8.7-25.3v20.5c0,0.6,0.1,1.1,0.2,1.4c0.1,0.3,0.3,0.6,0.6,0.8s0.6,0.3,1,0.4
			c0.4,0.1,0.8,0.1,1.3,0.1h0.2v2.2h-10.2v-2.2h1.7c0.3,0,0.6,0,0.8-0.1s0.5-0.2,0.7-0.3c0.2-0.2,0.3-0.4,0.5-0.7
			c0.1-0.3,0.2-0.8,0.2-1.3v-20.1c0-0.5-0.1-1-0.2-1.3c-0.1-0.3-0.3-0.6-0.5-0.8c-0.2-0.2-0.4-0.3-0.7-0.4s-0.5-0.1-0.8-0.1h-1.7
			v-2.2h11.9l6.8,19.9l6.5-19.9h11.6v2.2h-1.7c-0.3,0-0.6,0-0.8,0.1c-0.3,0.1-0.5,0.2-0.7,0.4c-0.2,0.2-0.3,0.5-0.4,0.8
			c-0.1,0.3-0.2,0.8-0.2,1.4v19.7c0,0.6,0.1,1.1,0.2,1.4c0.1,0.3,0.3,0.6,0.4,0.8c0.2,0.2,0.4,0.3,0.7,0.4c0.3,0.1,0.5,0.1,0.8,0.1
			h1.7v2.2H271.1z"/>
		<path fill="#FFFFFF" d="M302.9,433.4c1,0,1.9-0.1,2.7-0.4c0.8-0.2,1.5-0.5,2.1-0.9s1.2-0.8,1.6-1.3c0.5-0.5,0.9-0.9,1.2-1.4
			c0.2,0.2,0.4,0.4,0.5,0.7c0.1,0.3,0.2,0.7,0.2,1c0,0.6-0.2,1.2-0.5,1.8c-0.3,0.6-0.8,1.2-1.5,1.8c-0.7,0.5-1.7,1-2.9,1.3
			c-1.2,0.3-2.7,0.5-4.4,0.5c-2.4,0-4.5-0.4-6.2-1.1c-1.8-0.7-3.3-1.7-4.4-3.1s-2.1-2.9-2.7-4.8c-0.6-1.9-0.9-3.9-0.9-6.2
			c0-2.2,0.3-4.3,0.9-6.1c0.6-1.8,1.5-3.4,2.7-4.8c1.2-1.3,2.7-2.4,4.4-3.1c1.8-0.7,3.8-1.1,6.2-1.1c1.6,0,3,0.1,4.1,0.4
			s2.1,0.6,2.9,1c0.8,0.4,1.4,0.9,1.7,1.5c0.4,0.6,0.6,1.2,0.6,1.9c0,0.5-0.1,1-0.3,1.4c-0.2,0.4-0.5,0.8-1,1.1
			c-0.4,0.3-1,0.6-1.6,0.8c-0.6,0.2-1.4,0.3-2.2,0.3c0-0.7-0.1-1.4-0.2-2c-0.1-0.7-0.4-1.3-0.8-1.8c-0.4-0.5-0.8-1-1.4-1.3
			c-0.6-0.3-1.3-0.5-2.2-0.5c-1.3,0-2.4,0.3-3.3,0.8c-0.9,0.5-1.6,1.4-2.2,2.4c-0.5,1.1-0.9,2.4-1.2,3.9s-0.4,3.3-0.4,5.3
			s0.1,3.7,0.4,5.2c0.3,1.5,0.8,2.7,1.4,3.7s1.5,1.7,2.6,2.2S301.3,433.4,302.9,433.4z"/>
		<path fill="#FFFFFF" d="M321.8,426.6l-1.2,3.5c-0.1,0.3-0.2,0.7-0.3,1.2c-0.1,0.4-0.2,0.8-0.2,1.2c0,0.3,0.1,0.5,0.2,0.7
			c0.1,0.2,0.2,0.4,0.4,0.5c0.2,0.1,0.4,0.2,0.6,0.3c0.2,0.1,0.5,0.1,0.7,0.1h1.7v2.2H313v-2.2h0.5c0.4,0,0.7,0,1-0.1
			c0.3-0.1,0.6-0.2,0.8-0.5c0.3-0.2,0.5-0.5,0.7-0.9s0.5-0.9,0.7-1.5l8.9-24.2h5.6l8.6,24.2c0.2,0.6,0.4,1.1,0.6,1.4
			c0.2,0.4,0.5,0.7,0.7,0.9s0.5,0.4,0.8,0.5c0.3,0.1,0.6,0.1,0.9,0.1h0.7v2.2h-13.6v-2.2h1.6c0.2,0,0.4,0,0.6-0.1
			c0.2-0.1,0.4-0.2,0.6-0.3c0.2-0.1,0.3-0.3,0.4-0.5c0.1-0.2,0.2-0.4,0.2-0.7c0-0.3,0-0.7-0.1-1c-0.1-0.3-0.2-0.6-0.2-0.8l-1.4-4.1
			H321.8z M328.8,417.3c-0.1-0.5-0.3-1-0.5-1.5c-0.2-0.5-0.3-1-0.5-1.6c-0.2-0.5-0.3-1.1-0.4-1.6s-0.3-1-0.4-1.5
			c-0.1,0.4-0.3,0.9-0.4,1.4s-0.3,1-0.5,1.5c-0.2,0.5-0.4,1-0.5,1.6s-0.4,1-0.5,1.5l-2.4,7h8.3L328.8,417.3z"/>
		<path fill="#FFFFFF" d="M360.5,431.4c0,0.6,0.1,1.1,0.2,1.4c0.1,0.3,0.3,0.6,0.5,0.8c0.2,0.2,0.4,0.3,0.7,0.4
			c0.3,0.1,0.5,0.1,0.8,0.1h1.7v2.2h-14.2v-2.2h1.7c0.3,0,0.6,0,0.8-0.1c0.3-0.1,0.5-0.2,0.7-0.4s0.3-0.5,0.4-0.8
			c0.1-0.3,0.2-0.8,0.2-1.4v-22h-3.3c-0.6,0-1.1,0.1-1.5,0.2s-0.8,0.3-1,0.6c-0.3,0.2-0.5,0.6-0.6,0.9c-0.1,0.4-0.2,0.8-0.3,1.2
			l-0.3,2.6h-2.8l0.2-8h25.6l0.2,8h-2.8l-0.3-2.6c-0.1-0.5-0.1-0.9-0.3-1.2c-0.1-0.4-0.3-0.7-0.6-0.9c-0.3-0.2-0.6-0.4-1-0.6
			c-0.4-0.1-0.9-0.2-1.5-0.2h-3.3V431.4z"/>
	</g>
	<g>
		<path fill="#FFFFFF" d="M219.9,449.5l3.1,9.3h0.1l3.1-9.3h2.6l0.8,13.8h-2.3l-0.5-9.3h-0.1l-2.5,7.6H222l-2.5-7.6h-0.1l-0.5,9.3
			h-2.3l0.8-13.8H219.9z"/>
		<path fill="#FFFFFF" d="M234.3,461.7h4.8v1.6h-7.2v-13.8h7.2v1.6h-4.8v4.2h4.2v1.6h-4.2V461.7z"/>
		<path fill="#FFFFFF" d="M243.6,454.2L243.6,454.2l-0.1,9h-2.3v-13.8h2.4l3.7,9h0.1v-9h2.3v13.8h-2.4L243.6,454.2z"/>
		<path fill="#FFFFFF" d="M251.8,449.5h2.4l-0.5,4.6h-1.4L251.8,449.5z"/>
		<path fill="#FFFFFF" d="M255.6,452.8c0-1.1,0.3-1.9,1-2.6c0.7-0.6,1.7-1,3-1c0.7,0,1.3,0,1.9,0.1c0.6,0.1,1,0.2,1.3,0.3v1.1H260
			c-0.6,0-1.1,0.2-1.5,0.6c-0.4,0.4-0.6,0.9-0.6,1.5c0,0.6,0.1,1,0.4,1.4c0.3,0.3,0.6,0.6,1,0.9c0.4,0.2,0.9,0.5,1.3,0.7
			s0.9,0.5,1.3,0.8c0.4,0.3,0.8,0.7,1,1.2c0.3,0.5,0.4,1.1,0.4,1.9c0,1.2-0.4,2.1-1.1,2.8c-0.7,0.7-1.9,1-3.6,1
			c-0.7,0-1.3,0-1.9-0.1c-0.6-0.1-1-0.2-1.3-0.3V462h2.8c1,0,1.7-0.2,2.1-0.6c0.4-0.4,0.6-0.9,0.6-1.7c0-0.5-0.1-1-0.4-1.3
			c-0.3-0.3-0.6-0.6-1-0.8c-0.4-0.2-0.9-0.4-1.3-0.7s-0.9-0.5-1.3-0.8c-0.4-0.3-0.8-0.8-1-1.3C255.7,454.3,255.6,453.7,255.6,452.8z
			"/>
		<path fill="#FFFFFF" d="M269.6,452.8c0-1.1,0.3-1.9,1-2.6c0.7-0.6,1.7-1,3-1c0.7,0,1.3,0,1.9,0.1c0.6,0.1,1,0.2,1.3,0.3v1.1H274
			c-0.6,0-1.1,0.2-1.5,0.6c-0.4,0.4-0.6,0.9-0.6,1.5c0,0.6,0.1,1,0.4,1.4c0.3,0.3,0.6,0.6,1,0.9c0.4,0.2,0.9,0.5,1.3,0.7
			c0.5,0.2,0.9,0.5,1.3,0.8c0.4,0.3,0.8,0.7,1,1.2c0.3,0.5,0.4,1.1,0.4,1.9c0,1.2-0.4,2.1-1.1,2.8c-0.7,0.7-1.9,1-3.6,1
			c-0.7,0-1.3,0-1.9-0.1c-0.6-0.1-1-0.2-1.3-0.3V462h2.8c1,0,1.7-0.2,2.1-0.6c0.4-0.4,0.6-0.9,0.6-1.7c0-0.5-0.1-1-0.4-1.3
			c-0.3-0.3-0.6-0.6-1-0.8c-0.4-0.2-0.9-0.4-1.3-0.7s-0.9-0.5-1.3-0.8c-0.4-0.3-0.8-0.8-1-1.3C269.8,454.3,269.6,453.7,269.6,452.8z
			"/>
		<path fill="#FFFFFF" d="M281.9,463.2h-2.4v-13.6c0.5-0.1,1-0.2,1.5-0.3c0.5-0.1,1.2-0.1,1.9-0.1c0.8,0,1.5,0.1,2.1,0.3
			c0.6,0.2,1.1,0.5,1.4,0.9c0.4,0.4,0.6,0.9,0.8,1.5c0.2,0.6,0.3,1.4,0.3,2.2c0,0.9-0.1,1.7-0.3,2.4c-0.2,0.6-0.4,1.2-0.8,1.6
			c-0.3,0.4-0.8,0.7-1.3,0.9c-0.5,0.2-1.1,0.3-1.7,0.3c-0.1,0-0.2,0-0.3,0c-0.1,0-0.3,0-0.4,0c-0.2,0-0.3,0-0.5-0.1
			c-0.2,0-0.3,0-0.4-0.1V463.2z M283,457.7c0.4,0,0.7-0.1,1-0.2c0.3-0.1,0.5-0.3,0.7-0.6c0.2-0.3,0.3-0.6,0.4-1.1
			c0.1-0.5,0.1-1,0.1-1.7c0-0.7,0-1.2-0.1-1.7c-0.1-0.4-0.2-0.8-0.4-1.1c-0.2-0.3-0.4-0.4-0.7-0.6s-0.6-0.2-1-0.2h-1.1v7H283z"/>
		<path fill="#FFFFFF" d="M291.3,459.8l-0.9,3.4H288l3.5-13.8h2.9l3.5,13.8h-2.5l-0.9-3.4H291.3z M293,452.6L293,452.6l-1.4,5.6h2.7
			L293,452.6z"/>
		<path fill="#FFFFFF" d="M308.7,463.4c-0.8,0-1.4-0.1-2-0.3c-0.6-0.2-1.1-0.6-1.4-1.1c-0.4-0.5-0.7-1.3-0.9-2.2
			c-0.2-0.9-0.3-2.1-0.3-3.4c0-1.4,0.1-2.5,0.3-3.4c0.2-0.9,0.5-1.6,0.9-2.2c0.4-0.5,0.8-0.9,1.4-1.1c0.6-0.2,1.2-0.3,1.9-0.3
			c0.7,0,1.3,0,1.9,0.1c0.6,0.1,1,0.2,1.3,0.3v1.1h-2.4c-0.4,0-0.8,0.1-1.1,0.3c-0.3,0.2-0.6,0.5-0.9,0.9s-0.5,1-0.6,1.7
			c-0.1,0.7-0.2,1.6-0.2,2.7c0,1.1,0.1,2,0.2,2.7c0.1,0.7,0.3,1.3,0.6,1.7c0.3,0.4,0.6,0.7,1,0.9c0.4,0.2,0.8,0.3,1.3,0.3h2.4v1.1
			c-0.3,0.1-0.7,0.2-1.3,0.3C310,463.4,309.4,463.4,308.7,463.4z"/>
		<path fill="#FFFFFF" d="M315.9,461.7h4.8v1.6h-7.2v-13.8h2.4V461.7z"/>
		<path fill="#FFFFFF" d="M325.9,462.1c0.3,0,0.5-0.1,0.7-0.2c0.2-0.1,0.4-0.3,0.6-0.6c0.2-0.3,0.3-0.6,0.4-1.1
			c0.1-0.5,0.1-1,0.1-1.7v-9h2.4v9c0,1.8-0.3,3-1,3.8c-0.7,0.8-1.8,1.1-3.2,1.1c-1.4,0-2.5-0.4-3.2-1.1c-0.7-0.8-1-2-1-3.8v-9h2.4v9
			c0,0.7,0,1.3,0.1,1.7c0.1,0.5,0.2,0.8,0.4,1.1c0.2,0.3,0.4,0.5,0.6,0.6C325.4,462,325.6,462.1,325.9,462.1z"/>
		<path fill="#FFFFFF" d="M338.6,455.9c0.8,0.3,1.4,0.7,1.8,1.3c0.4,0.6,0.6,1.4,0.6,2.3c0,1.3-0.4,2.3-1.1,2.9c-0.8,0.7-2,1-3.8,1
			c-0.7,0-1.4,0-1.9-0.1c-0.5-0.1-1-0.2-1.5-0.3v-13.4c0.5-0.1,1-0.2,1.5-0.3c0.5-0.1,1.2-0.1,1.9-0.1c1.5,0,2.6,0.3,3.3,1
			c0.7,0.6,1.1,1.5,1.1,2.7c0,0.6-0.2,1.2-0.5,1.7C339.6,455.2,339.2,455.6,338.6,455.9L338.6,455.9z M335.9,455.3
			c0.6,0,1.1-0.2,1.5-0.6c0.4-0.4,0.6-0.9,0.6-1.7c0-0.7-0.2-1.3-0.6-1.7c-0.4-0.4-0.9-0.6-1.5-0.6h-0.9v4.5H335.9z M335.1,456.8
			v5.2h1.1c0.8,0,1.5-0.2,1.9-0.6c0.4-0.4,0.6-1.1,0.6-1.9c0-0.9-0.2-1.6-0.6-2c-0.4-0.4-1-0.6-1.9-0.6H335.1z"/>
	</g>
	<g>
		<g>
			<path fill="#790025" d="M258.5,247.6c0-2.3-1.8-4.1-4.1-4.1c-2.3,0-4.1,1.8-4.1,4.1c0,2.3,1.8,4.1,4.1,4.1
				C256.7,251.7,258.5,249.8,258.5,247.6L258.5,247.6z"/>
			<path fill="#790025" d="M330.1,288L268,335.5c0,0-0.1,0-0.1,0c0,0-0.1,0-0.1,0c-0.1,0-0.1-0.1-0.1-0.2c0.1-0.2,5.2-16.2,7.2-34.7
				c0.5-4.2,0.7-8,0.8-11.3c0-0.1,0-0.1,0.1-0.1l48.1-18.4c0,0,0.1,0,0.1,0c0,0,0.1,0.1,0.1,0.1c3.8,14,6,16.8,6,16.8
				c0,0,0,0.1,0,0.1C330.2,287.9,330.1,288,330.1,288L330.1,288z M260.3,292.8h-1.3c-0.4,0.5-3.6,4.1-8.6,7c0,0-0.1,0-0.1,0
				c0,0-0.1,0-0.1-0.1c0-0.1-2.4-5.4-2-17c0-0.1,0-0.1,0.1-0.1c0,0,0.1,0,0.1,0c0.3,0.1,7.3,3.1,9.7,4.9l3.1,0.1
				c0.5-0.4,4.7-3.5,10.8-5.7c0,0,0.1,0,0.1,0c0,0,0.1,0.1,0.1,0.1c0,0.1,1.3,8.9-0.4,18.7c0,0,0,0.1-0.1,0.1c0,0,0,0-0.1,0
				c0,0,0,0-0.1,0C270.4,300.4,262.5,296.1,260.3,292.8L260.3,292.8z M233.4,262.1c-0.3-0.7-0.6-1.2-0.8-1.6
				c-1.7-3.3,0.6-6.3,5.2-10.5c4.1-3.8,4.4-6.2,4.7-10.1c0.1-0.7,0.1-1.4,0.2-2.3c0.5-4.2,6.2-8.5,17.6-13.3
				c3.3-1.4,5.1-1.4,6.5-1.3c0.2,0,0.4,0,0.6,0c1.2,0,2.1-0.2,3.7-1.5c3.8-3.1,11.1-19.5,11.2-19.6c0,0,0.1-0.1,0.1-0.1
				c0,0,0.1,0,0.1,0c12.9,11,13.4,22.2,13.4,23.2c0.5,0.5,4.8,4.3,9.2,8.3c0.4,0.4,0.8,0.7,1.3,1.1c4.7,4.2,11.2,9.9,15.8,28.9
				c0.1,0.6,0.3,1.2,0.4,1.8c0,0.1,0,0.1-0.1,0.2l-46.8,17.9c0,0,0,0-0.1,0c0,0-0.1,0-0.1,0c0,0-0.1-0.1-0.1-0.1
				c-0.3-3.2-0.9-4.4-1.1-4.6c-0.8,0.2-5.9,1.3-9,3.1c0,0-0.1,0-0.1,0c0,0-2.7-0.9-5.6-1.3c-0.9-0.1-2-0.2-3.3-0.4
				c-3-0.3-6.8-0.7-10.7-1.6C240.7,277.3,235.6,266.7,233.4,262.1L233.4,262.1z M258.6,221.8c0-0.1,3.9-8.7,7.6-18.7
				c0,0,0.1-0.1,0.1-0.1c0.1,0,0.1,0,0.1,0c0.3,0.3,6.9,8.1,5.1,13.2c0,0,0,0,0,0c-2.3,3.9-3.4,3.9-5.4,4c-1.5,0-3.7,0.1-7.4,1.7
				c0,0,0,0-0.1,0c0,0-0.1,0-0.1,0C258.6,221.9,258.6,221.8,258.6,221.8L258.6,221.8z M355.9,202.2l-1.7-6.4
				c-8,1.2-15.3,1.8-21.9,1.8c-35.9,0-52.7-15.3-52.7-15.3s-16.7,15.3-52.7,15.3c-6.6,0-13.9-0.5-21.9-1.8l-1.7,6.4
				c0,0,28.6,47.6,1.2,117.4c0,0,28.7,37,75.1,37s75.1-37,75.1-37C327.3,249.8,355.9,202.2,355.9,202.2L355.9,202.2z"/>
			<path fill="#B1A8A6" d="M360.1,323.8c-0.3,0.4-8,10.1-21.6,19.8c-18.1,12.9-38.5,19.7-58.8,19.7c-20.4,0-40.7-6.8-58.8-19.7
				c-13.6-9.7-21.3-19.4-21.6-19.8l-2.4-3l1.4-3.6c13.5-34.3,12.6-62.7,9.4-80.5c-3.4-19.4-10.1-30.8-10.1-30.9l-1.5-2.4l0.7-2.8
				l1.7-6.4l1.6-5.9l6,0.9c7.2,1.1,14.2,1.7,20.9,1.7c17,0,29.2-3.7,36.4-6.8c7.5-3.2,16.2-11.1,16.2-11.1s8.8,7.9,16.3,11.1
				c7.2,3.1,19.4,6.8,36.4,6.8c6.7,0,13.7-0.6,20.9-1.7l6-0.9l1.6,5.9l1.7,6.4l0.7,2.7l-1.5,2.4c-0.1,0.1-6.7,11.5-10.1,30.9
				c-3.1,17.8-4,46.3,9.4,80.5l1.4,3.6L360.1,323.8L360.1,323.8z M369.8,313.7c-12.6-32.2-11.8-58.8-8.9-75.4
				c2.9-16.8,8.6-27.1,9-27.7l1.4-2.4l2.1-3.4l-1-3.9l-0.7-2.7l-1.7-6.4l-1.6-5.9l-2.2-8.3l-8.4,1.3l-6,0.9
				c-6.7,1-13.2,1.6-19.4,1.6c-15.4,0-26.3-3.3-32.7-6C294.1,173,286,166,286,166l-6.6-6.2l-6.5,6.3c0,0-7.9,6.9-13.3,9.2
				c-6.4,2.7-17.3,6-32.7,6c-6.2,0-12.7-0.5-19.4-1.6l-6-0.9l-8.4-1.3l-2.2,8.3l-1.6,5.9l-1.7,6.4l-0.7,2.8l-1,3.9l2.1,3.4l1.4,2.4
				c0.4,0.6,6,10.9,9,27.7c2.9,16.6,3.7,43.2-8.9,75.4l-1.4,3.6l-2,5l3.3,4.3l2.4,3c0.9,1.1,9.1,11.4,23.6,21.7
				c19.7,14.1,42,21.5,64.3,21.5c22.3,0,44.6-7.4,64.3-21.5c14.5-10.4,22.7-20.6,23.6-21.8l2.4-3l3.3-4.3l-2-5L369.8,313.7
				L369.8,313.7z"/>
			<g>
				<defs>
					<rect id="SVGID_1_" x="13.6" y="95.4" width="532" height="288.1"/>
				</defs>
				<clipPath id="SVGID_2_">
					<use xlink:href="#SVGID_1_"  overflow="visible"/>
				</clipPath>
				<path clip-path="url(#SVGID_2_)" fill="#B1A8A6" d="M243.8,121.4c0.4,0,0.8-0.1,1.1-0.4c6.3,6.8,9.7,14.3,11.4,22.1
					c7.6-0.8,15.4-1.2,23.4-1.2s15.7,0.4,23.4,1.2c1.8-7.9,5.1-15.3,11.4-22.1c0.3,0.2,0.7,0.4,1.1,0.4c1.2,0,2.1-1.2,2.1-2.6
					c0-1.5-1-2.6-2.1-2.6c-1.2,0-2.1,1.2-2.1,2.6c0,0.6,0.1,1.1,0.4,1.5c-0.6,0.3-1.2,0.7-1.8,1.1c0-0.2,0-0.3,0-0.5
					c0-1.5-1-2.6-2.1-2.6c-1.2,0-2.1,1.2-2.1,2.6c0,1.1,0.6,2.1,1.4,2.5c-1.5,1.2-3,2.6-4.5,4.4c-1.2,0.9-2.5,1.7-4,1.5
					c-3.4-0.9-4.6-4.7-4.2-8.5c1.4,0,2.5-1.4,2.5-3.2c0-1.8-1.2-3.2-2.6-3.2s-2.6,1.4-2.6,3.2c0,1,0.4,2,1,2.5
					c-1.2,1.6-2.6,3.3-4.2,4.1c-4.9,2.4-7.3-3.7-8.8-8.9c0.4,0.2,0.8,0.3,1.3,0.3c1.8,0,3.3-1.8,3.3-4c0-1.9-1.1-3.5-2.6-3.9
					c0.1-0.9,0.2-1.8,0.2-2.8c0-5.2-4.3-9.5-4.3-9.5s-4.3,4.3-4.3,9.5c0,1,0.1,1.9,0.2,2.8c-1.5,0.4-2.6,2-2.6,3.9
					c0,2.2,1.5,4,3.3,4c0.3,0,0.7-0.1,1-0.2c-1.5,5.2-3.8,11.2-8.7,8.8c-1.6-0.8-2.9-2.5-4.2-4.1c0.6-0.6,1-1.5,1-2.5
					c0-1.8-1.2-3.2-2.6-3.2c-1.4,0-2.6,1.4-2.6,3.2c0,1.7,1.1,3.1,2.5,3.2c0.4,3.7-0.8,7.6-4.2,8.5c-1.5,0.3-2.8-0.5-4-1.5
					c-1.4-1.8-2.9-3.2-4.5-4.4c0.8-0.4,1.4-1.3,1.4-2.5c0-1.5-1-2.6-2.1-2.6s-2.1,1.2-2.1,2.6c0,0.2,0,0.4,0,0.5
					c-0.6-0.4-1.2-0.7-1.8-1.1c0.2-0.4,0.4-0.9,0.4-1.5c0-1.5-1-2.6-2.1-2.6c-1.2,0-2.1,1.2-2.1,2.6
					C241.6,120.3,242.6,121.4,243.8,121.4L243.8,121.4z"/>
				<path clip-path="url(#SVGID_2_)" fill="#B1A8A6" d="M438.5,293.9c3-8.9,4.6-18.1,4.6-27.7c0-13.2-3-25.9-8.6-37.7
					c27,1.5,48.4,19.2,48.4,40.8c0,15.5-11,29.1-27.2,36C449.4,301.8,443.8,298,438.5,293.9L438.5,293.9z M431.3,310.1
					c1.3-2.4,2.6-4.8,3.7-7.2c2.7,2,5.6,4.1,8.7,6C439.6,309.7,435.5,310.1,431.3,310.1L431.3,310.1z M419.8,309.4
					c-24.9-2.9-32.9-12.4-33.8-20.9c-0.7-6.3,2.3-11.4,8-12.6c9.6-2,18.6,8.3,31.9,19.8C424.3,300.4,422.2,304.9,419.8,309.4
					L419.8,309.4z M407.8,326.7c-20.3-12.4-36.2-32.3-36.2-52c0-21,16-43.1,51-46c5.5,11.7,8.5,24.4,8.5,37.5
					c0,6.8-0.8,13.4-2.3,19.8c-0.3-0.3-0.6-0.5-0.9-0.8c-25.9-22-43.6-15.4-45.7-3.4c-3.8,21.6,19.4,28.9,35.4,31.2
					C414.8,317.8,411.5,322.4,407.8,326.7L407.8,326.7z M279.6,379.6c-50,0-94.3-18.1-121.9-46c1.4-0.8,2.7-1.7,4.1-2.7
					c14.7-10,29.8-27.8,29.8-56.3c0-22.8-17.2-46.2-53.2-49.8c22.1-42.1,76.9-72,141.1-72c64.2,0,119,29.8,141.1,72
					c-36,3.6-53.2,27-53.2,49.8c0,28.5,15.1,46.3,29.8,56.3c1.4,1,2.8,1.8,4.1,2.7C373.9,361.5,329.6,379.6,279.6,379.6L279.6,379.6
					z M141.6,313.1c15.9-2.3,39.2-9.6,35.4-31.2c-2.1-12-19.8-18.6-45.7,3.4c-0.3,0.3-0.6,0.5-0.9,0.8c-1.5-6.4-2.3-13.1-2.3-19.8
					c0-13.1,3-25.8,8.5-37.5c35,2.9,51,24.9,51,46c0,19.8-15.9,39.7-36.2,52C147.8,322.4,144.5,317.8,141.6,313.1L141.6,313.1z
					 M133.3,295.7c13.3-11.5,22.3-21.8,31.9-19.8c5.8,1.2,8.7,6.4,8,12.6c-0.9,8.5-8.8,18-33.8,20.9
					C137,304.9,135,300.4,133.3,295.7L133.3,295.7z M115.7,308.9c3.1-1.9,6-3.9,8.7-6c1.1,2.4,2.3,4.8,3.7,7.2
					C123.8,310.1,119.6,309.7,115.7,308.9L115.7,308.9z M103.6,305.2c-16.2-6.9-27.2-20.4-27.2-36c0-21.6,21.3-39.2,48.4-40.8
					c-5.6,11.8-8.6,24.5-8.6,37.7c0,9.5,1.6,18.8,4.6,27.7C115.5,298,109.9,301.8,103.6,305.2L103.6,305.2z M545.5,306.6
					c-0.5-0.6-1.7,0.5-1.7,0.5c-8.6,6.8-21,12.4-46.3,10.3c-13.9-1.1-25.3-4.4-35.2-8.9c19.7-7.7,32.9-22.4,32.9-39.3
					c0-24.4-28-44.3-62.8-44.9c-23.5-44.1-83-75.4-152.7-75.4c-69.7,0-129.2,31.3-152.7,75.4c-34.8,0.6-62.8,20.5-62.8,44.9
					c0,16.9,13.3,31.6,32.9,39.3c-9.9,4.5-21.3,7.7-35.2,8.9c-25.3,2.1-37.7-3.5-46.3-10.3c0,0-1.2-1.1-1.7-0.5
					c-0.5,0.6,0.5,1.5,0.5,1.5c4.4,4.4,24.4,19,61.7,14.7c13.4-1.5,24.4-5.5,33.8-10.5c5.9,1.2,12.1,1.9,18.5,1.9c0.5,0,1.2,0,2.1,0
					c3.7,5.9,8.1,11.6,13,16.9c-9.2,4.5-18.9,7.3-28.2,8c-9.6,0.7-16.2,0.1-21.4-1.7c0,0-1.5-0.6-1.8,0.1c-0.3,0.7,1,1.3,1,1.3
					c3.9,1.9,22.5,6.3,38.7,3.8c6.8-1,12.5-2.5,18.1-4.9c29.9,27.9,76.8,45.9,129.7,45.9c52.8,0,99.8-18,129.7-45.9
					c5.6,2.4,11.3,3.9,18.1,4.9c16.3,2.4,34.8-2,38.7-3.8c0,0,1.3-0.5,1-1.3c-0.3-0.7-1.8-0.1-1.8-0.1c-5.2,1.8-11.8,2.4-21.4,1.7
					c-9.3-0.6-19-3.5-28.2-8c5-5.4,9.3-11,13-16.9c0.9,0,1.6,0,2.1,0c6.4,0,12.7-0.7,18.5-1.9c9.4,5,20.4,9,33.8,10.5
					c37.4,4.3,57.3-10.4,61.7-14.7C545,308.1,546,307.2,545.5,306.6L545.5,306.6z"/>
			</g>
			<path fill="#FFFFFF" d="M258.8,222C258.8,222,258.8,222,258.8,222c3.8-1.7,5.9-1.7,7.4-1.8c2.1,0,3.1-0.1,5.4-4c0,0,0,0,0,0
				c1.8-5.1-4.9-12.9-5.1-13.2c0,0-0.1-0.1-0.1,0c-0.1,0-0.1,0-0.1,0.1c-3.7,10-7.6,18.6-7.6,18.7c0,0.1,0,0.1,0,0.2
				C258.7,222,258.7,222,258.8,222L258.8,222z"/>
			<path fill="#FFFFFF" d="M271.8,300.8C271.8,300.8,271.8,300.8,271.8,300.8c0.1,0,0.1-0.1,0.1-0.1c1.7-9.8,0.4-18.6,0.4-18.7
				c0,0,0-0.1-0.1-0.1c0,0-0.1,0-0.1,0c-6.1,2.2-10.3,5.3-10.8,5.7l-3.1-0.1c-2.4-1.9-9.4-4.8-9.7-4.9c0,0-0.1,0-0.1,0
				c0,0-0.1,0.1-0.1,0.1c-0.4,11.6,2,17,2,17c0,0,0.1,0.1,0.1,0.1c0,0,0.1,0,0.1,0c5.1-2.8,8.2-6.5,8.6-7h1.3
				C262.5,296.1,270.4,300.4,271.8,300.8C271.7,300.8,271.8,300.8,271.8,300.8L271.8,300.8z"/>
			<path fill="#FFFFFF" d="M330.1,287.8c0,0-2.3-2.9-6-16.8c0,0,0-0.1-0.1-0.1c0,0-0.1,0-0.1,0l-48.1,18.4c-0.1,0-0.1,0.1-0.1,0.1
				c0,3.2-0.3,7-0.8,11.3c-2,18.6-7.1,34.6-7.2,34.7c0,0.1,0,0.1,0.1,0.2c0,0,0.1,0,0.1,0c0,0,0.1,0,0.1,0l62.1-47.5
				c0,0,0.1-0.1,0.1-0.1C330.2,287.9,330.2,287.8,330.1,287.8L330.1,287.8z"/>
			<path fill="#FFFFFF" d="M250.3,247.6c0-2.3,1.8-4.1,4.1-4.1c2.3,0,4.1,1.8,4.1,4.1c0,2.3-1.8,4.1-4.1,4.1
				C252.2,251.7,250.3,249.8,250.3,247.6L250.3,247.6z M259.6,280.4c2.9,0.4,5.6,1.3,5.6,1.3c0,0,0.1,0,0.1,0c3.1-1.8,8.2-2.9,9-3.1
				c0.2,0.3,0.8,1.5,1.1,4.6c0,0,0,0.1,0.1,0.1c0,0,0.1,0,0.1,0c0,0,0,0,0.1,0l46.8-17.9c0.1,0,0.1-0.1,0.1-0.2
				c-0.1-0.6-0.3-1.2-0.4-1.8c-4.5-19-11-24.7-15.8-28.9c-0.4-0.4-0.9-0.8-1.3-1.1c-4.5-4.1-8.7-7.9-9.2-8.3c0-1-0.5-12.2-13.4-23.2
				c0,0-0.1,0-0.1,0c0,0-0.1,0-0.1,0.1c-0.1,0.2-7.5,16.5-11.2,19.6c-1.5,1.3-2.5,1.5-3.7,1.5c-0.2,0-0.4,0-0.6,0
				c-1.4,0-3.1-0.1-6.5,1.3c-11.3,4.8-17.1,9.2-17.6,13.3c-0.1,0.8-0.2,1.6-0.2,2.3c-0.4,3.9-0.6,6.3-4.7,10.1
				c-4.6,4.2-6.9,7.2-5.2,10.5c0.2,0.4,0.5,0.9,0.8,1.6c2.2,4.5,7.3,15.1,12.2,16.3c3.9,0.9,7.7,1.3,10.7,1.6
				C257.6,280.1,258.7,280.3,259.6,280.4L259.6,280.4z"/>
		</g>
	</g>
</g>
</svg>
