<?xml version="1.0" encoding="UTF-8"?>
<!-- Generator: Adobe Illustrator 18.1.1, SVG Export Plug-In . SVG Version: 6.00 Build 0)  -->
<svg version="1.1" baseProfile="basic" id="Слой_1" xmlns="http://www.w3.org/2000/svg" xmlns:xlink="http://www.w3.org/1999/xlink" x="0px" y="0px" viewBox="0 0 324.9 224.9" xml:space="preserve">
<g>
	<g>
		<g>
			<path fill="#FFFFFF" d="M53,208.4V207h0.2c0.3,0,0.5,0,0.7,0c0.2,0,0.4-0.1,0.5-0.2c0.1-0.1,0.2-0.2,0.3-0.4     c0.1-0.2,0.1-0.4,0.1-0.7v-12.7l-5.1,15.5H48l-5.3-15.5v12.5c0,0.4,0,0.6,0.1,0.9s0.2,0.4,0.4,0.5c0.2,0.1,0.4,0.2,0.6,0.2     s0.5,0.1,0.8,0.1h0.1v1.3h-6.2V207h1.1c0.2,0,0.3,0,0.5,0c0.2,0,0.3-0.1,0.4-0.2s0.2-0.3,0.3-0.5c0.1-0.2,0.1-0.5,0.1-0.8v-12.2     c0-0.3,0-0.6-0.1-0.8c-0.1-0.2-0.2-0.4-0.3-0.5s-0.3-0.2-0.4-0.2c-0.2,0-0.3-0.1-0.5-0.1h-1.1v-1.3h7.2l4.2,12.1l4-12.1H61v1.3     h-1.1c-0.2,0-0.3,0-0.5,0.1c-0.2,0-0.3,0.1-0.4,0.2c-0.1,0.1-0.2,0.3-0.3,0.5s-0.1,0.5-0.1,0.9v12c0,0.4,0,0.6,0.1,0.9     s0.2,0.4,0.3,0.5c0.1,0.1,0.3,0.2,0.4,0.2s0.3,0.1,0.5,0.1H61v1.3H53z"/>
			<path fill="#FFFFFF" d="M67.2,202.5l-0.7,2.2c-0.1,0.2-0.1,0.4-0.2,0.7s-0.1,0.5-0.1,0.7c0,0.2,0,0.3,0.1,0.4     c0.1,0.1,0.2,0.2,0.3,0.3c0.1,0.1,0.2,0.1,0.4,0.2s0.3,0.1,0.4,0.1h1.1v1.3h-6.5V207h0.3c0.2,0,0.4,0,0.6-0.1s0.4-0.1,0.5-0.3     c0.2-0.1,0.3-0.3,0.5-0.6c0.1-0.2,0.3-0.5,0.4-0.9l5.4-14.8H73l5.3,14.8c0.1,0.4,0.3,0.6,0.4,0.9s0.3,0.4,0.4,0.6     c0.2,0.1,0.3,0.2,0.5,0.3c0.2,0.1,0.4,0.1,0.6,0.1h0.5v1.3h-8.3V207h1c0.1,0,0.3,0,0.4-0.1s0.2-0.1,0.3-0.2     c0.1-0.1,0.2-0.2,0.3-0.3s0.1-0.3,0.1-0.4c0-0.2,0-0.4-0.1-0.6c0-0.2-0.1-0.4-0.1-0.5l-0.9-2.5H67.2z M71.5,196.8     c-0.1-0.3-0.2-0.6-0.3-0.9c-0.1-0.3-0.2-0.6-0.3-1c-0.1-0.3-0.2-0.7-0.3-1s-0.2-0.6-0.2-0.9c-0.1,0.3-0.2,0.5-0.3,0.8     s-0.2,0.6-0.3,0.9c-0.1,0.3-0.2,0.6-0.3,1c-0.1,0.3-0.2,0.6-0.3,0.9l-1.5,4.2h5.1L71.5,196.8z"/>
			<path fill="#FFFFFF" d="M95.9,195.8c0,0.8-0.1,1.5-0.4,2.2s-0.7,1.3-1.3,1.8c-0.6,0.5-1.4,1-2.3,1.3c-0.9,0.3-2.1,0.5-3.4,0.5     h-0.9v4c0,0.3,0,0.6,0.1,0.8s0.2,0.4,0.3,0.5s0.3,0.2,0.4,0.2c0.2,0,0.3,0,0.5,0h1.5v1.3h-9.2V207h1.1c0.2,0,0.4,0,0.5-0.1     s0.3-0.1,0.4-0.2c0.1-0.1,0.2-0.3,0.3-0.5s0.1-0.5,0.1-0.9v-12.1c0-0.3,0-0.6-0.1-0.8s-0.2-0.4-0.3-0.5c-0.1-0.1-0.3-0.2-0.4-0.2     c-0.2,0-0.3-0.1-0.5-0.1h-1.1v-1.3H89c1.2,0,2.2,0.1,3,0.4c0.9,0.2,1.6,0.6,2.1,1.1s1,1,1.3,1.7     C95.8,194.2,95.9,194.9,95.9,195.8z M87.6,200.1h0.6c0.6,0,1.1-0.1,1.6-0.2c0.4-0.2,0.8-0.4,1.1-0.7c0.3-0.3,0.5-0.8,0.6-1.3     c0.1-0.5,0.2-1.2,0.2-1.9c0-0.7-0.1-1.3-0.2-1.7c-0.1-0.5-0.3-0.9-0.5-1.2c-0.2-0.3-0.6-0.6-0.9-0.7c-0.4-0.2-0.9-0.2-1.4-0.2h-1     V200.1z"/>
			<path fill="#FFFFFF" d="M106.9,205.4c0,0.4,0,0.6,0.1,0.9c0.1,0.2,0.2,0.4,0.3,0.5c0.1,0.1,0.3,0.2,0.4,0.2     c0.2,0,0.3,0.1,0.5,0.1h1.1v1.3h-8.7V207h1.1c0.2,0,0.4,0,0.5-0.1c0.2,0,0.3-0.1,0.4-0.2c0.1-0.1,0.2-0.3,0.3-0.5     c0.1-0.2,0.1-0.5,0.1-0.9V192h-2c-0.4,0-0.7,0-0.9,0.1c-0.3,0.1-0.5,0.2-0.6,0.4c-0.2,0.2-0.3,0.3-0.4,0.6s-0.1,0.5-0.2,0.7     l-0.2,1.6h-1.7l0.1-4.9h15.7l0.1,4.9h-1.7l-0.2-1.6c0-0.3-0.1-0.5-0.2-0.7s-0.2-0.4-0.4-0.6c-0.2-0.2-0.4-0.3-0.6-0.4     c-0.3-0.1-0.6-0.1-0.9-0.1h-2V205.4z"/>
			<path fill="#FFFFFF" d="M131.5,199.4c0,1.4-0.2,2.6-0.6,3.8s-0.9,2.1-1.6,2.9c-0.7,0.8-1.6,1.4-2.7,1.9c-1.1,0.4-2.3,0.7-3.6,0.7     c-1.4,0-2.7-0.2-3.7-0.7c-1.1-0.4-2-1.1-2.7-1.9c-0.7-0.8-1.2-1.8-1.6-2.9c-0.4-1.1-0.5-2.4-0.5-3.8s0.2-2.7,0.5-3.8     c0.4-1.1,0.9-2.1,1.6-2.9c0.7-0.8,1.6-1.4,2.7-1.9c1.1-0.4,2.3-0.7,3.8-0.7c1.4,0,2.6,0.2,3.6,0.7c1.1,0.4,1.9,1.1,2.7,1.9     c0.7,0.8,1.3,1.8,1.6,2.9S131.5,198,131.5,199.4z M118.7,199.4c0,1.2,0.1,2.3,0.2,3.2s0.4,1.7,0.7,2.4c0.3,0.7,0.8,1.1,1.3,1.5     c0.5,0.3,1.2,0.5,2,0.5c0.8,0,1.4-0.2,2-0.5c0.5-0.3,1-0.8,1.3-1.5c0.3-0.7,0.6-1.4,0.7-2.4s0.2-2,0.2-3.2s-0.1-2.3-0.2-3.2     s-0.4-1.7-0.7-2.4c-0.3-0.7-0.8-1.1-1.3-1.5c-0.5-0.3-1.2-0.5-2-0.5c-0.8,0-1.5,0.2-2,0.5c-0.5,0.3-1,0.8-1.3,1.5     c-0.3,0.7-0.6,1.4-0.7,2.4S118.7,198.2,118.7,199.4z"/>
			<path fill="#FFFFFF" d="M148.1,195c0,0.6-0.1,1-0.2,1.5c-0.2,0.4-0.4,0.8-0.6,1.1c-0.3,0.3-0.6,0.6-1,0.8s-0.8,0.4-1.3,0.5v0.1     c0.6,0.1,1.1,0.3,1.6,0.6s0.9,0.6,1.2,0.9s0.6,0.8,0.8,1.3c0.2,0.5,0.3,1,0.3,1.7c0,1.7-0.6,2.9-1.8,3.7c-1.2,0.8-3,1.2-5.4,1.2     h-8.1V207h1c0.2,0,0.4,0,0.5-0.1c0.2,0,0.3-0.1,0.4-0.2c0.1-0.1,0.2-0.3,0.3-0.5s0.1-0.5,0.1-0.9v-12c0-0.3,0-0.6-0.1-0.8     c-0.1-0.2-0.2-0.4-0.3-0.5c-0.1-0.1-0.3-0.2-0.4-0.2s-0.3-0.1-0.5-0.1h-1v-1.3h7.3c2.4,0,4.2,0.4,5.4,1.1S148.1,193.4,148.1,195z      M139.9,198.2h1c0.6,0,1.1-0.1,1.5-0.2c0.4-0.1,0.7-0.3,0.9-0.6s0.4-0.6,0.5-1c0.1-0.4,0.1-0.9,0.1-1.5c0-0.6-0.1-1.1-0.2-1.4     c-0.1-0.4-0.3-0.7-0.5-0.9c-0.2-0.2-0.6-0.4-1-0.5s-0.9-0.2-1.4-0.2h-0.9V198.2z M139.9,206.8h1.7c0.6,0,1-0.1,1.4-0.2     s0.7-0.3,1-0.6c0.2-0.3,0.4-0.6,0.5-1.1c0.1-0.4,0.2-1,0.2-1.6c0-0.6,0-1.1-0.1-1.6c-0.1-0.5-0.3-0.8-0.5-1.1     c-0.2-0.3-0.5-0.5-0.9-0.7c-0.4-0.1-0.9-0.2-1.4-0.2h-1.7V206.8z"/>
			<path fill="#FFFFFF" d="M160.4,206.6c0.6,0,1.2-0.1,1.6-0.2c0.5-0.1,0.9-0.3,1.3-0.6c0.4-0.2,0.7-0.5,1-0.8s0.5-0.6,0.7-0.8     c0.1,0.1,0.2,0.3,0.3,0.5c0.1,0.2,0.1,0.4,0.1,0.6c0,0.4-0.1,0.7-0.3,1.1s-0.5,0.7-0.9,1.1c-0.4,0.3-1,0.6-1.8,0.8     c-0.7,0.2-1.6,0.3-2.7,0.3c-1.5,0-2.7-0.2-3.8-0.7c-1.1-0.4-2-1.1-2.7-1.9c-0.7-0.8-1.3-1.8-1.6-2.9c-0.4-1.1-0.5-2.4-0.5-3.8     c0-1.4,0.2-2.6,0.6-3.7s0.9-2.1,1.6-2.9c0.7-0.8,1.6-1.4,2.7-1.9c1.1-0.4,2.3-0.7,3.8-0.7c1,0,1.8,0.1,2.5,0.2s1.3,0.4,1.8,0.6     s0.8,0.6,1.1,0.9s0.4,0.7,0.4,1.1c0,0.3-0.1,0.6-0.2,0.9c-0.1,0.3-0.3,0.5-0.6,0.7c-0.3,0.2-0.6,0.4-1,0.5s-0.8,0.2-1.3,0.2     c0-0.4,0-0.8-0.1-1.2c-0.1-0.4-0.2-0.8-0.5-1.1c-0.2-0.3-0.5-0.6-0.9-0.8c-0.4-0.2-0.8-0.3-1.3-0.3c-0.8,0-1.5,0.2-2,0.5     c-0.5,0.3-1,0.8-1.3,1.5c-0.3,0.6-0.6,1.4-0.7,2.4c-0.1,0.9-0.2,2-0.2,3.2s0.1,2.3,0.3,3.2c0.2,0.9,0.5,1.7,0.9,2.3     c0.4,0.6,0.9,1.1,1.6,1.4C158.7,206.5,159.5,206.6,160.4,206.6z"/>
			<path fill="#FFFFFF" d="M182.8,208.4c-0.6,0-1.2-0.1-1.7-0.2s-0.9-0.3-1.3-0.5c-0.4-0.2-0.7-0.5-0.9-0.7c-0.3-0.3-0.5-0.6-0.7-1     l-2.4-4.3c-0.2-0.4-0.4-0.7-0.6-0.9c-0.2-0.2-0.4-0.4-0.5-0.5s-0.4-0.2-0.6-0.2s-0.5,0-0.8,0v5.3c0,0.4,0,0.6,0.1,0.9     s0.2,0.4,0.3,0.5c0.1,0.1,0.3,0.2,0.4,0.2c0.2,0,0.3,0.1,0.5,0.1h1.1v1.3h-8.4V207h1.1c0.2,0,0.3,0,0.5,0c0.2,0,0.3-0.1,0.4-0.2     c0.1-0.1,0.2-0.3,0.3-0.5c0.1-0.2,0.1-0.5,0.1-0.8v-12.2c0-0.3,0-0.6-0.1-0.8c-0.1-0.2-0.2-0.4-0.3-0.5c-0.1-0.1-0.3-0.2-0.4-0.2     c-0.2,0-0.3-0.1-0.5-0.1h-1.1v-1.3h8.4v1.3h-1.1c-0.2,0-0.3,0-0.5,0.1c-0.2,0-0.3,0.1-0.4,0.2c-0.1,0.1-0.2,0.3-0.3,0.5     s-0.1,0.5-0.1,0.9v5.3c0.3,0,0.5,0,0.7,0c0.2,0,0.4-0.1,0.5-0.1c0.2-0.1,0.3-0.1,0.4-0.2s0.3-0.2,0.4-0.3     c0.2-0.2,0.5-0.7,0.9-1.3c0.4-0.6,0.8-1.4,1.2-2.3c0.4-0.7,0.7-1.4,1-1.9s0.7-0.9,1-1.3c0.3-0.3,0.7-0.6,1.1-0.7     c0.4-0.2,0.9-0.2,1.4-0.2c0.7,0,1.2,0.1,1.5,0.4c0.3,0.3,0.5,0.7,0.5,1.1c0,0.5-0.1,0.9-0.3,1.3s-0.5,0.5-0.9,0.6     c0-0.2-0.1-0.3-0.2-0.5s-0.2-0.3-0.3-0.4c-0.1-0.1-0.3-0.2-0.4-0.3c-0.2-0.1-0.3-0.1-0.6-0.1c-0.3,0-0.5,0.1-0.7,0.2     c-0.2,0.1-0.4,0.3-0.6,0.5s-0.4,0.5-0.6,0.9c-0.2,0.4-0.4,0.8-0.7,1.3c-0.3,0.5-0.5,1-0.7,1.4c-0.2,0.4-0.4,0.7-0.6,1     c-0.2,0.3-0.4,0.5-0.6,0.7s-0.4,0.4-0.6,0.5c0.4,0,0.7,0.1,1.1,0.2c0.3,0.1,0.6,0.3,0.9,0.5c0.3,0.2,0.6,0.5,0.8,0.7     c0.2,0.3,0.5,0.6,0.7,1l2,3.6c0.2,0.4,0.4,0.7,0.7,1s0.4,0.5,0.6,0.7s0.4,0.3,0.7,0.4c0.2,0.1,0.5,0.1,0.7,0.1h0.2v1.3H182.8z"/>
			<path fill="#FFFFFF" d="M198.2,196l-6.6,8.4v1c0,0.4,0,0.6,0.1,0.9s0.2,0.4,0.3,0.5c0.1,0.1,0.2,0.2,0.4,0.2     c0.2,0,0.3,0.1,0.5,0.1h1.1v1.3h-8.7V207h1.1c0.2,0,0.3,0,0.5-0.1s0.3-0.1,0.4-0.2c0.1-0.1,0.2-0.3,0.3-0.5     c0.1-0.2,0.1-0.5,0.1-0.9v-12.1c0-0.3,0-0.6-0.1-0.8s-0.2-0.4-0.3-0.5c-0.1-0.1-0.3-0.2-0.4-0.2c-0.2,0-0.3-0.1-0.5-0.1h-1.1     v-1.3h8.7v1.3h-1.1c-0.2,0-0.3,0-0.5,0.1c-0.2,0-0.3,0.1-0.4,0.2c-0.1,0.1-0.2,0.3-0.3,0.5s-0.1,0.5-0.1,0.9v8.8l6.6-8.4v-0.4     c0-0.4,0-0.6-0.1-0.9s-0.2-0.4-0.3-0.5c-0.1-0.1-0.3-0.2-0.4-0.2c-0.2,0-0.3-0.1-0.5-0.1h-1.1v-1.3h8.7v1.3h-1.1     c-0.2,0-0.3,0-0.5,0.1c-0.2,0-0.3,0.1-0.4,0.2c-0.1,0.1-0.2,0.3-0.3,0.5s-0.1,0.5-0.1,0.9v12.1c0,0.3,0,0.6,0.1,0.8     c0.1,0.2,0.2,0.4,0.3,0.5c0.1,0.1,0.3,0.2,0.4,0.2c0.2,0,0.3,0,0.5,0h1.1v1.3h-8.7V207h1.1c0.2,0,0.3,0,0.5-0.1     c0.2,0,0.3-0.1,0.4-0.2c0.1-0.1,0.2-0.3,0.3-0.5s0.1-0.5,0.1-0.9V196z"/>
			<path fill="#FFFFFF" d="M218.8,196l-6.6,8.4v1c0,0.4,0,0.6,0.1,0.9s0.2,0.4,0.3,0.5c0.1,0.1,0.2,0.2,0.4,0.2     c0.2,0,0.3,0.1,0.5,0.1h1.1v1.3h-8.7V207h1.1c0.2,0,0.3,0,0.5-0.1s0.3-0.1,0.4-0.2c0.1-0.1,0.2-0.3,0.3-0.5     c0.1-0.2,0.1-0.5,0.1-0.9v-12.1c0-0.3,0-0.6-0.1-0.8s-0.2-0.4-0.3-0.5c-0.1-0.1-0.3-0.2-0.4-0.2c-0.2,0-0.3-0.1-0.5-0.1h-1.1     v-1.3h8.7v1.3h-1.1c-0.2,0-0.3,0-0.5,0.1c-0.2,0-0.3,0.1-0.4,0.2c-0.1,0.1-0.2,0.3-0.3,0.5s-0.1,0.5-0.1,0.9v8.8l6.6-8.4v-0.4     c0-0.4,0-0.6-0.1-0.9s-0.2-0.4-0.3-0.5c-0.1-0.1-0.3-0.2-0.4-0.2c-0.2,0-0.3-0.1-0.5-0.1h-1.1v-1.3h8.7v1.3H224     c-0.2,0-0.3,0-0.5,0.1c-0.2,0-0.3,0.1-0.4,0.2c-0.1,0.1-0.2,0.3-0.3,0.5s-0.1,0.5-0.1,0.9v12.1c0,0.3,0,0.6,0.1,0.8     c0.1,0.2,0.2,0.4,0.3,0.5c0.1,0.1,0.3,0.2,0.4,0.2c0.2,0,0.3,0,0.5,0h1.1v1.3h-8.7V207h1.1c0.2,0,0.3,0,0.5-0.1     c0.2,0,0.3-0.1,0.4-0.2c0.1-0.1,0.2-0.3,0.3-0.5s0.1-0.5,0.1-0.9V196z M215.4,187.6c0.7,0,1.3-0.2,1.7-0.6     c0.4-0.4,0.6-1.1,0.7-1.9h3.1c0,0.5-0.2,1-0.3,1.5s-0.4,0.9-0.8,1.3s-0.9,0.7-1.6,0.9c-0.7,0.2-1.6,0.3-2.7,0.3s-2-0.1-2.7-0.3     s-1.2-0.5-1.6-0.9s-0.7-0.8-0.8-1.3c-0.2-0.5-0.3-1-0.3-1.5h3.1c0.1,0.9,0.3,1.5,0.7,1.9S214.7,187.6,215.4,187.6z"/>
			<path fill="#FFFFFF" d="M248.6,208.4c-0.6,0-1.2-0.1-1.7-0.2s-0.9-0.3-1.3-0.5c-0.4-0.2-0.7-0.5-0.9-0.7c-0.3-0.3-0.5-0.6-0.7-1     l-2.4-4.3c-0.2-0.4-0.4-0.7-0.6-0.9c-0.2-0.2-0.4-0.4-0.5-0.5s-0.4-0.2-0.6-0.2s-0.5,0-0.8,0v5.3c0,0.4,0,0.6,0.1,0.9     s0.2,0.4,0.3,0.5c0.1,0.1,0.3,0.2,0.4,0.2c0.2,0,0.3,0.1,0.5,0.1h1.1v1.3H233V207h1.1c0.2,0,0.3,0,0.5,0c0.2,0,0.3-0.1,0.4-0.2     c0.1-0.1,0.2-0.3,0.3-0.5c0.1-0.2,0.1-0.5,0.1-0.8v-12.2c0-0.3,0-0.6-0.1-0.8c-0.1-0.2-0.2-0.4-0.3-0.5c-0.1-0.1-0.3-0.2-0.4-0.2     c-0.2,0-0.3-0.1-0.5-0.1H233v-1.3h8.4v1.3h-1.1c-0.2,0-0.3,0-0.5,0.1c-0.2,0-0.3,0.1-0.4,0.2c-0.1,0.1-0.2,0.3-0.3,0.5     s-0.1,0.5-0.1,0.9v5.3c0.3,0,0.5,0,0.7,0c0.2,0,0.4-0.1,0.5-0.1c0.2-0.1,0.3-0.1,0.4-0.2s0.3-0.2,0.4-0.3     c0.2-0.2,0.5-0.7,0.9-1.3c0.4-0.6,0.8-1.4,1.2-2.3c0.4-0.7,0.7-1.4,1-1.9s0.7-0.9,1-1.3c0.3-0.3,0.7-0.6,1.1-0.7     c0.4-0.2,0.9-0.2,1.4-0.2c0.7,0,1.2,0.1,1.5,0.4c0.3,0.3,0.5,0.7,0.5,1.1c0,0.5-0.1,0.9-0.3,1.3s-0.5,0.5-0.9,0.6     c0-0.2-0.1-0.3-0.2-0.5s-0.2-0.3-0.3-0.4c-0.1-0.1-0.3-0.2-0.4-0.3c-0.2-0.1-0.3-0.1-0.6-0.1c-0.3,0-0.5,0.1-0.7,0.2     c-0.2,0.1-0.4,0.3-0.6,0.5s-0.4,0.5-0.6,0.9c-0.2,0.4-0.4,0.8-0.7,1.3c-0.3,0.5-0.5,1-0.7,1.4c-0.2,0.4-0.4,0.7-0.6,1     c-0.2,0.3-0.4,0.5-0.6,0.7s-0.4,0.4-0.6,0.5c0.4,0,0.7,0.1,1.1,0.2c0.3,0.1,0.6,0.3,0.9,0.5c0.3,0.2,0.6,0.5,0.8,0.7     c0.2,0.3,0.5,0.6,0.7,1l2,3.6c0.2,0.4,0.4,0.7,0.7,1s0.4,0.5,0.6,0.7s0.4,0.3,0.7,0.4c0.2,0.1,0.5,0.1,0.7,0.1h0.2v1.3H248.6z"/>
			<path fill="#FFFFFF" d="M268.8,199.4c0,1.4-0.2,2.6-0.6,3.8s-0.9,2.1-1.6,2.9c-0.7,0.8-1.6,1.4-2.7,1.9c-1.1,0.4-2.3,0.7-3.6,0.7     c-1.4,0-2.7-0.2-3.7-0.7c-1.1-0.4-2-1.1-2.7-1.9c-0.7-0.8-1.2-1.8-1.6-2.9c-0.4-1.1-0.5-2.4-0.5-3.8s0.2-2.7,0.5-3.8     c0.4-1.1,0.9-2.1,1.6-2.9c0.7-0.8,1.6-1.4,2.7-1.9c1.1-0.4,2.3-0.7,3.8-0.7c1.4,0,2.6,0.2,3.6,0.7c1.1,0.4,1.9,1.1,2.7,1.9     c0.7,0.8,1.3,1.8,1.6,2.9S268.8,198,268.8,199.4z M256,199.4c0,1.2,0.1,2.3,0.2,3.2s0.4,1.7,0.7,2.4c0.3,0.7,0.8,1.1,1.3,1.5     c0.5,0.3,1.2,0.5,2,0.5c0.8,0,1.4-0.2,2-0.5c0.5-0.3,1-0.8,1.3-1.5c0.3-0.7,0.6-1.4,0.7-2.4s0.2-2,0.2-3.2s-0.1-2.3-0.2-3.2     s-0.4-1.7-0.7-2.4c-0.3-0.7-0.8-1.1-1.3-1.5c-0.5-0.3-1.2-0.5-2-0.5c-0.8,0-1.5,0.2-2,0.5c-0.5,0.3-1,0.8-1.3,1.5     c-0.3,0.7-0.6,1.4-0.7,2.4S256,198.2,256,199.4z"/>
			<path fill="#FFFFFF" d="M280.4,205.4c0,0.4,0,0.6,0.1,0.9s0.2,0.4,0.3,0.5c0.1,0.1,0.3,0.2,0.4,0.2c0.2,0,0.3,0.1,0.5,0.1h1.1     v1.3H274V207h1.1c0.2,0,0.4,0,0.5-0.1s0.3-0.1,0.4-0.2c0.1-0.1,0.2-0.3,0.3-0.5s0.1-0.5,0.1-0.9V192h-2c-0.4,0-0.7,0-0.9,0.1     c-0.3,0.1-0.5,0.2-0.6,0.4c-0.2,0.2-0.3,0.3-0.4,0.6c-0.1,0.2-0.1,0.5-0.2,0.7l-0.2,1.6h-1.7l0.1-4.9h15.7l0.1,4.9h-1.7l-0.2-1.6     c0-0.3-0.1-0.5-0.2-0.7c-0.1-0.2-0.2-0.4-0.4-0.6s-0.4-0.3-0.6-0.4c-0.3-0.1-0.6-0.1-0.9-0.1h-2V205.4z"/>
		</g>
		<g>
			<path fill="#FFFFFF" d="M115.7,216.5l1.9,5.7h0l1.9-5.7h1.6l0.5,8.4h-1.4l-0.3-5.7h0l-1.5,4.7H117l-1.5-4.7h0l-0.3,5.7h-1.4     l0.5-8.4H115.7z"/>
			<path fill="#FFFFFF" d="M124.5,225c-0.2,0-0.5,0-0.7-0.1c-0.2,0-0.4-0.1-0.6-0.2v-0.7h0.8c0.2,0,0.3,0,0.4-0.1     c0.1,0,0.2-0.1,0.3-0.2c0.1-0.1,0.2-0.3,0.3-0.5s0.2-0.5,0.2-0.8c-0.5,0-0.9-0.1-1.2-0.4c-0.3-0.3-0.5-0.6-0.6-1l-1.3-4.6h1.4     l1.2,4.4c0,0.2,0.1,0.3,0.2,0.4c0.1,0.1,0.2,0.2,0.3,0.2l1-5h1.4l-1.3,6.5C126.3,224.3,125.6,225,124.5,225z"/>
			<path fill="#FFFFFF" d="M130.7,220.5c-0.2-0.1-0.4-0.2-0.6-0.4s-0.3-0.6-0.5-1l-0.4-1.2c-0.1-0.2-0.2-0.4-0.3-0.5     c-0.1-0.1-0.3-0.2-0.6-0.2v-0.7c0.1,0,0.1,0,0.2-0.1c0.1,0,0.2,0,0.3,0c0.1,0,0.2,0,0.4,0c0.4,0,0.8,0.1,1,0.4     c0.2,0.2,0.4,0.6,0.6,1.1l0.4,1.2c0.1,0.4,0.2,0.7,0.4,0.8c0.1,0.1,0.3,0.2,0.4,0.2h0.2v-3.5h1.4v3.5h0.2c0.2,0,0.3-0.1,0.4-0.2     c0.1-0.1,0.2-0.4,0.4-0.8l0.4-1.2c0.1-0.5,0.3-0.8,0.6-1.1c0.2-0.2,0.6-0.4,1-0.4c0.1,0,0.3,0,0.4,0c0.1,0,0.2,0,0.3,0     c0.1,0,0.2,0,0.2,0.1v0.7c-0.3,0-0.5,0.1-0.6,0.2c-0.1,0.1-0.2,0.3-0.3,0.5L136,219c-0.1,0.5-0.3,0.8-0.5,1s-0.4,0.4-0.6,0.4v0     c0.1,0,0.2,0.1,0.4,0.2c0.1,0.1,0.2,0.2,0.3,0.3c0.1,0.1,0.2,0.3,0.3,0.4s0.2,0.4,0.2,0.6l0.4,1.6c0,0.2,0.1,0.3,0.3,0.5     c0.1,0.1,0.4,0.2,0.6,0.2v0.7c-0.1,0-0.1,0-0.2,0.1c-0.2,0-0.4,0.1-0.6,0.1c-0.5,0-0.8-0.1-1-0.4s-0.4-0.6-0.5-1.1l-0.4-1.6     c-0.1-0.4-0.2-0.7-0.4-0.8c-0.2-0.1-0.3-0.2-0.5-0.2h-0.2v3.9h-1.4V221h-0.2c-0.2,0-0.4,0.1-0.5,0.2c-0.2,0.1-0.3,0.4-0.4,0.8     l-0.4,1.6c-0.1,0.5-0.3,0.8-0.5,1.1c-0.2,0.2-0.6,0.4-1,0.4c-0.3,0-0.5,0-0.6-0.1c-0.1,0-0.2,0-0.2-0.1v-0.7     c0.3,0,0.5-0.1,0.6-0.2c0.1-0.1,0.2-0.3,0.3-0.5l0.4-1.6c0.1-0.2,0.1-0.4,0.2-0.6s0.2-0.3,0.3-0.4c0.1-0.1,0.2-0.2,0.3-0.3     C130.4,220.6,130.6,220.6,130.7,220.5L130.7,220.5z"/>
			<path fill="#FFFFFF" d="M140.6,225c-0.5,0-0.9-0.1-1.2-0.2c-0.4-0.1-0.6-0.4-0.9-0.7c-0.2-0.3-0.4-0.8-0.5-1.3     c-0.1-0.6-0.2-1.3-0.2-2.1s0.1-1.5,0.2-2.1c0.1-0.6,0.3-1,0.5-1.3c0.2-0.3,0.5-0.6,0.8-0.7c0.3-0.1,0.7-0.2,1.2-0.2     c0.4,0,0.8,0,1.1,0.1s0.6,0.1,0.8,0.2v0.7H141c-0.3,0-0.5,0.1-0.7,0.2c-0.2,0.1-0.4,0.3-0.6,0.5c-0.2,0.3-0.3,0.6-0.4,1     c-0.1,0.4-0.1,1-0.1,1.7s0,1.2,0.1,1.7s0.2,0.8,0.4,1c0.2,0.3,0.4,0.4,0.6,0.5c0.2,0.1,0.5,0.2,0.8,0.2h1.4v0.7     c-0.2,0.1-0.4,0.1-0.8,0.2S141.1,225,140.6,225z"/>
			<path fill="#FFFFFF" d="M146.5,220.5c0.1,0,0.2,0.1,0.4,0.2c0.1,0.1,0.2,0.2,0.3,0.3c0.1,0.1,0.2,0.3,0.3,0.4s0.2,0.4,0.2,0.6     l0.4,1.6c0,0.2,0.1,0.3,0.3,0.5c0.1,0.1,0.4,0.2,0.6,0.2v0.7c-0.1,0-0.1,0-0.2,0.1c-0.2,0-0.4,0.1-0.6,0.1c-0.5,0-0.8-0.1-1-0.4     c-0.2-0.2-0.4-0.6-0.5-1.1l-0.4-1.6c-0.1-0.4-0.2-0.7-0.4-0.8c-0.2-0.1-0.3-0.2-0.5-0.2H145v3.9h-1.4v-8.4h1.4v3.5h0.2     c0.2,0,0.3-0.1,0.4-0.2c0.1-0.1,0.2-0.4,0.4-0.8l0.4-1.2c0.1-0.5,0.3-0.8,0.6-1.1s0.6-0.4,1-0.4c0.1,0,0.3,0,0.4,0     c0.1,0,0.2,0,0.3,0c0.1,0,0.2,0,0.2,0.1v0.7c-0.3,0-0.5,0.1-0.6,0.2c-0.1,0.1-0.2,0.3-0.3,0.5l-0.4,1.2c-0.1,0.5-0.3,0.8-0.5,1     S146.7,220.4,146.5,220.5L146.5,220.5z"/>
			<path fill="#FFFFFF" d="M152.2,216.3c0.4,0,0.8,0.1,1.1,0.2c0.3,0.1,0.6,0.4,0.9,0.7c0.2,0.3,0.4,0.8,0.6,1.3s0.2,1.2,0.2,2     s-0.1,1.5-0.2,2s-0.3,1-0.6,1.3c-0.2,0.3-0.5,0.6-0.9,0.7c-0.3,0.1-0.7,0.2-1.1,0.2c-0.4,0-0.8-0.1-1.1-0.2     c-0.3-0.1-0.6-0.4-0.9-0.7s-0.4-0.8-0.6-1.3c-0.1-0.6-0.2-1.2-0.2-2s0.1-1.5,0.2-2c0.1-0.6,0.3-1,0.6-1.3s0.5-0.6,0.9-0.7     C151.4,216.4,151.7,216.3,152.2,216.3z M152.2,224.1c0.2,0,0.3-0.1,0.5-0.2c0.2-0.1,0.3-0.3,0.4-0.6c0.1-0.3,0.2-0.6,0.3-1.1     s0.1-1,0.1-1.7c0-0.7,0-1.3-0.1-1.7s-0.2-0.8-0.3-1.1c-0.1-0.3-0.3-0.4-0.4-0.6c-0.2-0.1-0.3-0.2-0.5-0.2s-0.3,0.1-0.5,0.2     c-0.2,0.1-0.3,0.3-0.4,0.6c-0.1,0.3-0.2,0.6-0.3,1.1s-0.1,1-0.1,1.7c0,0.7,0,1.3,0.1,1.7s0.2,0.8,0.3,1.1     c0.1,0.3,0.3,0.4,0.4,0.6C151.8,224.1,152,224.1,152.2,224.1z"/>
			<path fill="#FFFFFF" d="M157.7,224.9h-1.4v-8.4h1.4v5.5h0.1l2.2-5.5h1.5v8.4h-1.4v-5.6H160L157.7,224.9z M158.9,214.8     c0.2,0,0.5-0.1,0.7-0.2c0.2-0.1,0.4-0.2,0.5-0.4l0.6,0.6c-0.2,0.3-0.4,0.5-0.7,0.7s-0.6,0.3-1,0.3s-0.7-0.1-1-0.3     s-0.5-0.4-0.7-0.7l0.6-0.6c0.1,0.1,0.3,0.2,0.5,0.4C158.4,214.7,158.6,214.8,158.9,214.8z"/>
			<path fill="#FFFFFF" d="M165.7,218.5c0-0.7,0.2-1.2,0.6-1.6c0.4-0.4,1-0.6,1.8-0.6c0.4,0,0.8,0,1.1,0.1s0.6,0.1,0.8,0.2v0.7h-1.7     c-0.4,0-0.7,0.1-0.9,0.3c-0.2,0.2-0.3,0.5-0.3,0.9c0,0.4,0.1,0.6,0.3,0.8s0.4,0.4,0.6,0.5c0.3,0.1,0.5,0.3,0.8,0.4     s0.6,0.3,0.8,0.5s0.5,0.4,0.6,0.7c0.2,0.3,0.3,0.7,0.3,1.2c0,0.7-0.2,1.3-0.7,1.7c-0.5,0.4-1.2,0.6-2.2,0.6c-0.4,0-0.8,0-1.1-0.1     s-0.6-0.1-0.8-0.2v-0.7h1.7c0.6,0,1-0.1,1.3-0.3c0.3-0.2,0.4-0.6,0.4-1c0-0.3-0.1-0.6-0.3-0.8s-0.4-0.4-0.6-0.5s-0.5-0.3-0.8-0.4     s-0.6-0.3-0.8-0.5s-0.5-0.5-0.6-0.8C165.7,219.4,165.7,219,165.7,218.5z"/>
			<path fill="#FFFFFF" d="M173.2,224.9h-1.4v-8.3c0.3-0.1,0.6-0.2,0.9-0.2c0.3,0,0.7-0.1,1.2-0.1c0.5,0,0.9,0.1,1.3,0.2     c0.4,0.1,0.6,0.3,0.9,0.5c0.2,0.2,0.4,0.5,0.5,0.9c0.1,0.4,0.2,0.8,0.2,1.4c0,0.6-0.1,1-0.2,1.4c-0.1,0.4-0.3,0.7-0.5,1     s-0.5,0.4-0.8,0.5c-0.3,0.1-0.7,0.2-1.1,0.2c0,0-0.1,0-0.2,0s-0.2,0-0.3,0s-0.2,0-0.3,0c-0.1,0-0.2,0-0.3,0V224.9z M173.8,221.5     c0.2,0,0.4,0,0.6-0.1c0.2-0.1,0.3-0.2,0.4-0.3c0.1-0.2,0.2-0.4,0.3-0.7c0.1-0.3,0.1-0.6,0.1-1c0-0.4,0-0.7-0.1-1     c-0.1-0.3-0.1-0.5-0.3-0.6c-0.1-0.2-0.3-0.3-0.4-0.3c-0.2-0.1-0.4-0.1-0.6-0.1h-0.7v4.3H173.8z"/>
			<path fill="#FFFFFF" d="M178.9,222.8l-0.5,2.1h-1.5l2.2-8.4h1.8l2.2,8.4h-1.5l-0.5-2.1H178.9z M180,218.4L180,218.4l-0.9,3.4h1.7     L180,218.4z"/>
			<path fill="#FFFFFF" d="M189.9,220.5c0.1,0,0.2,0.1,0.4,0.2c0.1,0.1,0.2,0.2,0.3,0.3c0.1,0.1,0.2,0.3,0.3,0.4s0.2,0.4,0.2,0.6     l0.4,1.6c0,0.2,0.1,0.3,0.3,0.5c0.1,0.1,0.4,0.2,0.6,0.2v0.7c-0.1,0-0.1,0-0.2,0.1c-0.2,0-0.4,0.1-0.6,0.1c-0.5,0-0.8-0.1-1-0.4     c-0.2-0.2-0.4-0.6-0.5-1.1l-0.4-1.6c-0.1-0.4-0.2-0.7-0.4-0.8c-0.2-0.1-0.3-0.2-0.5-0.2h-0.2v3.9H187v-8.4h1.4v3.5h0.2     c0.2,0,0.3-0.1,0.4-0.2c0.1-0.1,0.2-0.4,0.4-0.8l0.4-1.2c0.1-0.5,0.3-0.8,0.6-1.1s0.6-0.4,1-0.4c0.1,0,0.3,0,0.4,0     c0.1,0,0.2,0,0.3,0c0.1,0,0.2,0,0.2,0.1v0.7c-0.3,0-0.5,0.1-0.6,0.2c-0.1,0.1-0.2,0.3-0.3,0.5L191,219c-0.1,0.5-0.3,0.8-0.5,1     S190.1,220.4,189.9,220.5L189.9,220.5z"/>
			<path fill="#FFFFFF" d="M193.3,225c-0.3,0-0.5,0-0.6-0.1c-0.1,0-0.2,0-0.2-0.1v-0.7c0.2,0,0.3,0,0.4-0.1c0.1-0.1,0.2-0.2,0.3-0.3     c0.1-0.1,0.2-0.3,0.3-0.6c0.1-0.2,0.1-0.5,0.1-0.9l0.3-5.9h4.4v8.4h-1.4v-7.4h-1.6l-0.3,4.9c0,0.5-0.1,0.9-0.2,1.2     c-0.1,0.3-0.2,0.6-0.4,0.8c-0.1,0.2-0.3,0.4-0.5,0.5S193.5,225,193.3,225z"/>
			<path fill="#FFFFFF" d="M201.4,225c-0.2,0-0.5,0-0.7-0.1c-0.2,0-0.4-0.1-0.6-0.2v-0.7h0.8c0.2,0,0.3,0,0.4-0.1     c0.1,0,0.2-0.1,0.3-0.2c0.1-0.1,0.2-0.3,0.3-0.5s0.2-0.5,0.2-0.8c-0.5,0-0.9-0.1-1.2-0.4c-0.3-0.3-0.5-0.6-0.6-1l-1.3-4.6h1.4     l1.2,4.4c0,0.2,0.1,0.3,0.2,0.4c0.1,0.1,0.2,0.2,0.3,0.2l1-5h1.4l-1.3,6.5C203.2,224.3,202.5,225,201.4,225z"/>
			<path fill="#FFFFFF" d="M207.4,219.7h0.7c1,0,1.7,0.2,2.2,0.7c0.4,0.4,0.7,1.1,0.7,2c0,0.9-0.2,1.5-0.7,1.9     c-0.4,0.4-1.2,0.6-2.2,0.6c-0.5,0-0.8,0-1.2-0.1c-0.3,0-0.6-0.1-0.9-0.2v-8.3h4.5v1h-3.1V219.7z M207.4,220.7v3.4h0.7     c0.5,0,0.8-0.1,1-0.4c0.2-0.3,0.3-0.7,0.3-1.3c0-0.6-0.1-1.1-0.3-1.3c-0.2-0.3-0.6-0.4-1-0.4H207.4z"/>
		</g>
	</g>
	<g>
		<g>
			<path fill="#7E1C2A" d="M149.6,93c0-1.4-1.1-2.5-2.5-2.5c-1.4,0-2.5,1.1-2.5,2.5c0,1.4,1.1,2.5,2.5,2.5     C148.4,95.5,149.6,94.3,149.6,93L149.6,93z"/>
			<path fill="#7E1C2A" d="M193.3,117.7l-37.9,29c0,0,0,0-0.1,0c0,0,0,0-0.1,0c0,0,0-0.1,0-0.1c0-0.1,3.2-9.9,4.4-21.2     c0.3-2.6,0.4-4.9,0.5-6.9c0,0,0-0.1,0.1-0.1l29.4-11.2c0,0,0.1,0,0.1,0c0,0,0,0,0,0.1c2.3,8.5,3.7,10.3,3.7,10.3     C193.3,117.5,193.3,117.6,193.3,117.7C193.3,117.6,193.3,117.6,193.3,117.7L193.3,117.7z M150.7,120.6h-0.8     c-0.3,0.3-2.2,2.5-5.3,4.3c0,0,0,0-0.1,0c0,0,0,0-0.1,0c0,0-1.5-3.3-1.2-10.4c0,0,0-0.1,0-0.1c0,0,0.1,0,0.1,0     c0.2,0.1,4.5,1.9,6,3l1.9,0.1c0.3-0.2,2.9-2.1,6.6-3.5c0,0,0.1,0,0.1,0c0,0,0,0,0,0.1c0,0.1,0.8,5.4-0.3,11.4c0,0,0,0,0,0.1     c0,0,0,0,0,0c0,0,0,0,0,0C156.8,125.2,152,122.6,150.7,120.6L150.7,120.6z M134.2,101.9c-0.2-0.4-0.4-0.8-0.5-1     c-1-2,0.4-3.8,3.2-6.4c2.5-2.3,2.7-3.8,2.9-6.2c0-0.4,0.1-0.9,0.1-1.4c0.3-2.5,3.8-5.2,10.7-8.2c2-0.9,3.1-0.8,3.9-0.8     c0.1,0,0.3,0,0.4,0c0.7,0,1.3-0.1,2.3-0.9c2.3-1.9,6.8-11.9,6.8-12c0,0,0,0,0.1-0.1c0,0,0.1,0,0.1,0c7.9,6.7,8.2,13.6,8.2,14.2     c0.3,0.3,2.9,2.6,5.6,5.1c0.2,0.2,0.5,0.4,0.8,0.7c2.9,2.6,6.9,6,9.6,17.6c0.1,0.4,0.2,0.7,0.3,1.1c0,0,0,0.1-0.1,0.1l-28.6,11     c0,0,0,0,0,0c0,0,0,0,0,0c0,0,0,0,0-0.1c-0.2-1.9-0.6-2.7-0.7-2.8c-0.5,0.1-3.6,0.8-5.5,1.9c0,0,0,0-0.1,0c0,0-1.7-0.5-3.4-0.8     c-0.5-0.1-1.2-0.1-2-0.2c-1.9-0.2-4.2-0.4-6.5-1C138.7,111.1,135.6,104.6,134.2,101.9L134.2,101.9z M149.6,77.2     c0-0.1,2.4-5.3,4.7-11.4c0,0,0-0.1,0.1-0.1c0,0,0.1,0,0.1,0c0.2,0.2,4.2,4.9,3.1,8.1c0,0,0,0,0,0c-1.4,2.4-2.1,2.4-3.3,2.4     c-0.9,0-2.2,0-4.5,1.1c0,0,0,0,0,0c0,0,0,0-0.1,0C149.6,77.3,149.6,77.2,149.6,77.2L149.6,77.2z M209,65.3l-1-3.9     c-4.9,0.8-9.3,1.1-13.4,1.1c-21.9,0-32.2-9.3-32.2-9.3s-10.2,9.3-32.2,9.3c-4.1,0-8.5-0.3-13.4-1.1l-1,3.9     c0,0,17.5,29.1,0.7,71.7c0,0,17.6,22.6,45.9,22.6s45.9-22.6,45.9-22.6C191.6,94.3,209,65.3,209,65.3L209,65.3z"/>
			<path fill="#B5AFAD" d="M211.6,139.5c-0.2,0.3-4.9,6.2-13.2,12.1c-11.1,7.9-23.5,12.1-35.9,12.1c-12.4,0-24.9-4.2-35.9-12.1     c-8.3-5.9-13-11.9-13.2-12.1l-1.4-1.9l0.9-2.2c8.2-20.9,7.7-38.3,5.8-49.2c-2.1-11.8-6.1-18.8-6.2-18.9l-0.9-1.5l0.4-1.7l1-3.9     l0.9-3.6l3.7,0.6c4.4,0.7,8.7,1,12.8,1c10.4,0,17.8-2.3,22.2-4.1c4.6-2,9.9-6.8,9.9-6.8s5.4,4.8,10,6.8     c4.4,1.9,11.9,4.1,22.2,4.1c4.1,0,8.4-0.3,12.8-1l3.7-0.6l0.9,3.6l1,3.9l0.4,1.7l-0.9,1.5c0,0.1-4.1,7.1-6.2,18.9     c-1.9,10.9-2.5,28.3,5.8,49.2l0.9,2.2L211.6,139.5L211.6,139.5z M217.5,133.3c-7.7-19.7-7.2-35.9-5.4-46.1     c1.8-10.3,5.3-16.6,5.5-16.9l0.9-1.4l1.3-2.1l-0.6-2.4l-0.4-1.7l-1-3.9l-0.9-3.6l-1.3-5l-5.2,0.8l-3.7,0.6c-4.1,0.6-8.1,1-11.9,1     c-9.4,0-16-2-20-3.7c-3.4-1.4-8.3-5.7-8.3-5.7l-4-3.8l-4,3.9c0,0-4.8,4.2-8.1,5.6c-3.9,1.7-10.6,3.7-20,3.7     c-3.8,0-7.8-0.3-11.9-1l-3.7-0.6l-5.2-0.8l-1.3,5l-0.9,3.6l-1,3.9l-0.4,1.7l-0.6,2.4l1.3,2.1l0.9,1.4c0.2,0.4,3.7,6.7,5.5,16.9     c1.8,10.2,2.3,26.4-5.5,46.1l-0.9,2.2l-1.2,3.1l2,2.6l1.4,1.9c0.5,0.7,5.5,7,14.4,13.3c12.1,8.6,25.6,13.1,39.3,13.1     c13.6,0,27.2-4.5,39.3-13.1c8.9-6.3,13.9-12.6,14.4-13.3l1.4-1.9l2-2.6l-1.2-3.1L217.5,133.3L217.5,133.3z"/>
			<g>
				<defs>
					<rect id="SVGID_1_" x="0" y="0" width="324.9" height="176"/>
				</defs>
				<clipPath id="SVGID_2_">
					<use xlink:href="#SVGID_1_" overflow="visible"/>
				</clipPath>
				<path clip-path="url(#SVGID_2_)" fill="#B5AFAD" d="M140.5,15.9c0.2,0,0.5-0.1,0.7-0.2c3.9,4.1,5.9,8.7,7,13.5      c4.7-0.5,9.4-0.7,14.3-0.7c4.8,0,9.6,0.2,14.3,0.7c1.1-4.8,3.1-9.4,7-13.5c0.2,0.1,0.4,0.2,0.7,0.2c0.7,0,1.3-0.7,1.3-1.6      c0-0.9-0.6-1.6-1.3-1.6c-0.7,0-1.3,0.7-1.3,1.6c0,0.3,0.1,0.7,0.2,0.9c-0.4,0.2-0.7,0.4-1.1,0.7c0-0.1,0-0.2,0-0.3      c0-0.9-0.6-1.6-1.3-1.6c-0.7,0-1.3,0.7-1.3,1.6c0,0.7,0.4,1.3,0.9,1.5c-0.9,0.7-1.9,1.6-2.7,2.7c-0.7,0.6-1.5,1.1-2.5,0.9      c-2.1-0.5-2.8-2.9-2.6-5.2c0.9,0,1.6-0.9,1.6-1.9c0-1.1-0.7-1.9-1.6-1.9c-0.9,0-1.6,0.9-1.6,1.9c0,0.6,0.3,1.2,0.6,1.6      c-0.8,1-1.6,2-2.5,2.5c-3,1.5-4.4-2.3-5.3-5.4c0.2,0.1,0.5,0.2,0.8,0.2c1.1,0,2-1.1,2-2.5c0-1.2-0.7-2.1-1.6-2.4      c0.1-0.5,0.1-1.1,0.1-1.7c0-3.2-2.6-5.8-2.6-5.8s-2.6,2.6-2.6,5.8c0,0.6,0,1.2,0.1,1.7c-0.9,0.2-1.6,1.2-1.6,2.4      c0,1.4,0.9,2.5,2,2.5c0.2,0,0.4,0,0.6-0.1c-0.9,3.2-2.3,6.8-5.3,5.4c-1-0.5-1.8-1.5-2.5-2.5c0.4-0.4,0.6-0.9,0.6-1.6      c0-1.1-0.7-1.9-1.6-1.9c-0.9,0-1.6,0.9-1.6,1.9c0,1.1,0.7,1.9,1.6,1.9c0.2,2.3-0.5,4.6-2.6,5.2c-0.9,0.2-1.7-0.3-2.5-0.9      c-0.9-1.1-1.8-1.9-2.7-2.7c0.5-0.2,0.9-0.8,0.9-1.5c0-0.9-0.6-1.6-1.3-1.6s-1.3,0.7-1.3,1.6c0,0.1,0,0.2,0,0.3      c-0.4-0.2-0.7-0.4-1.1-0.7c0.1-0.3,0.2-0.6,0.2-0.9c0-0.9-0.6-1.6-1.3-1.6c-0.7,0-1.3,0.7-1.3,1.6      C139.2,15.2,139.8,15.9,140.5,15.9L140.5,15.9z"/>
				<path clip-path="url(#SVGID_2_)" fill="#B5AFAD" d="M259.5,121.3c1.8-5.4,2.8-11.1,2.8-16.9c0-8.1-1.9-15.8-5.3-23      c16.5,0.9,29.5,11.7,29.5,24.9c0,9.5-6.7,17.7-16.6,22C266.1,126.1,262.7,123.7,259.5,121.3L259.5,121.3z M255,131.2      c0.8-1.4,1.6-2.9,2.2-4.4c1.7,1.2,3.4,2.5,5.3,3.6C260.2,130.9,257.6,131.2,255,131.2L255,131.2z M248,130.7      c-15.2-1.7-20.1-7.6-20.6-12.7c-0.4-3.8,1.4-7,4.9-7.7c5.9-1.2,11.4,5.1,19.5,12.1C250.8,125.2,249.5,128,248,130.7L248,130.7z       M240.7,141.3c-12.4-7.6-22.1-19.7-22.1-31.8c0-12.8,9.8-26.3,31.2-28.1c3.4,7.2,5.2,14.9,5.2,22.9c0,4.1-0.5,8.2-1.4,12.1      c-0.2-0.2-0.4-0.3-0.6-0.5c-15.8-13.4-26.6-9.4-27.9-2.1c-2.3,13.2,11.9,17.6,21.6,19.1C245,135.9,243,138.6,240.7,141.3      L240.7,141.3z M162.5,173.6c-30.5,0-57.6-11.1-74.4-28.1c0.8-0.5,1.7-1,2.5-1.6c9-6.1,18.2-17,18.2-34.4      c0-13.9-10.5-28.2-32.5-30.4c13.5-25.7,47-43.9,86.2-43.9c39.2,0,72.7,18.2,86.2,43.9c-22,2.2-32.5,16.5-32.5,30.4      c0,17.4,9.2,28.3,18.2,34.4c0.9,0.6,1.7,1.1,2.5,1.6C220,162.5,193,173.6,162.5,173.6L162.5,173.6z M78.2,133      c9.7-1.4,23.9-5.8,21.6-19.1c-1.3-7.3-12.1-11.4-27.9,2.1c-0.2,0.2-0.4,0.3-0.6,0.5c-0.9-3.9-1.4-8-1.4-12.1      c0-8,1.8-15.7,5.2-22.9c21.4,1.8,31.2,15.2,31.2,28.1c0,12.1-9.7,24.2-22.1,31.8C81.9,138.6,79.9,135.9,78.2,133L78.2,133z       M73.1,122.3c8.1-7,13.6-13.3,19.5-12.1c3.5,0.7,5.3,3.9,4.9,7.7c-0.5,5.2-5.4,11-20.6,12.7C75.4,128,74.1,125.2,73.1,122.3      L73.1,122.3z M62.3,130.4c1.9-1.2,3.6-2.4,5.3-3.6c0.7,1.5,1.4,3,2.2,4.4C67.3,131.2,64.7,130.9,62.3,130.4L62.3,130.4z       M55,128.2c-9.9-4.2-16.6-12.5-16.6-22c0-13.2,13-23.9,29.5-24.9c-3.4,7.2-5.3,15-5.3,23c0,5.8,1,11.5,2.8,16.9      C62.2,123.7,58.8,126.1,55,128.2L55,128.2z M324.8,129c-0.3-0.3-1,0.3-1,0.3c-5.2,4.2-12.8,7.6-28.3,6.3      c-8.5-0.7-15.5-2.7-21.5-5.4c12-4.7,20.1-13.7,20.1-24c0-14.9-17.1-27.1-38.4-27.4c-14.4-26.9-50.7-46-93.3-46      c-42.6,0-78.9,19.1-93.3,46c-21.3,0.4-38.4,12.5-38.4,27.4c0,10.3,8.1,19.3,20.1,24c-6,2.7-13,4.7-21.5,5.4      c-15.5,1.3-23-2.1-28.3-6.3c0,0-0.7-0.7-1-0.3c-0.3,0.4,0.3,0.9,0.3,0.9c2.7,2.7,14.9,11.6,37.7,9c8.2-0.9,14.9-3.4,20.6-6.4      c3.6,0.7,7.4,1.2,11.3,1.2c0.3,0,0.7,0,1.3,0c2.3,3.6,4.9,7.1,8,10.3c-5.6,2.7-11.5,4.5-17.2,4.9c-5.9,0.4-9.9,0-13.1-1      c0,0-0.9-0.4-1.1,0.1c-0.2,0.5,0.6,0.8,0.6,0.8c2.4,1.1,13.7,3.8,23.7,2.3c4.2-0.6,7.6-1.5,11.1-3c18.3,17,46.9,28,79.2,28      c32.3,0,60.9-11,79.2-28c3.4,1.5,6.9,2.4,11.1,3c9.9,1.5,21.3-1.2,23.7-2.3c0,0,0.8-0.3,0.6-0.8c-0.2-0.4-1.1-0.1-1.1-0.1      c-3.2,1.1-7.2,1.5-13.1,1c-5.7-0.4-11.6-2.1-17.2-4.9c3-3.3,5.7-6.7,8-10.3c0.5,0,1,0,1.3,0c3.9,0,7.7-0.4,11.3-1.2      c5.7,3.1,12.5,5.5,20.6,6.4c22.8,2.6,35-6.3,37.7-9C324.5,129.9,325.1,129.4,324.8,129L324.8,129z"/>
			</g>
			<path fill="#FFFFFF" d="M149.7,77.3C149.7,77.3,149.7,77.3,149.7,77.3c2.3-1,3.6-1.1,4.5-1.1c1.3,0,1.9,0,3.3-2.4c0,0,0,0,0,0     c1.1-3.1-3-7.9-3.1-8.1c0,0-0.1,0-0.1,0c0,0-0.1,0-0.1,0.1c-2.3,6.1-4.6,11.4-4.7,11.4C149.6,77.2,149.6,77.3,149.7,77.3     C149.7,77.3,149.7,77.3,149.7,77.3L149.7,77.3z"/>
			<path fill="#FFFFFF" d="M157.6,125.5C157.7,125.5,157.7,125.5,157.6,125.5C157.7,125.5,157.7,125.4,157.6,125.5     c1.1-6,0.4-11.4,0.3-11.5c0,0,0-0.1,0-0.1c0,0-0.1,0-0.1,0c-3.7,1.3-6.3,3.3-6.6,3.5l-1.9-0.1c-1.5-1.1-5.8-2.9-6-3     c0,0-0.1,0-0.1,0c0,0,0,0,0,0.1c-0.3,7.1,1.2,10.4,1.2,10.4c0,0,0,0,0.1,0c0,0,0.1,0,0.1,0c3.1-1.7,5-4,5.3-4.3h0.8     C152,122.6,156.8,125.2,157.6,125.5C157.6,125.5,157.6,125.5,157.6,125.5L157.6,125.5z"/>
			<path fill="#FFFFFF" d="M193.3,117.5c0,0-1.4-1.8-3.7-10.3c0,0,0,0,0-0.1c0,0-0.1,0-0.1,0l-29.4,11.2c0,0-0.1,0-0.1,0.1     c0,2-0.2,4.3-0.5,6.9c-1.2,11.3-4.4,21.1-4.4,21.2c0,0,0,0.1,0,0.1c0,0,0,0,0.1,0c0,0,0,0,0.1,0l37.9-29     C193.3,117.6,193.3,117.6,193.3,117.5C193.3,117.6,193.3,117.5,193.3,117.5L193.3,117.5z"/>
			<path fill="#FFFFFF" d="M144.6,93c0-1.4,1.1-2.5,2.5-2.5c1.4,0,2.5,1.1,2.5,2.5c0,1.4-1.1,2.5-2.5,2.5     C145.7,95.5,144.6,94.3,144.6,93L144.6,93z M150.2,113c1.8,0.3,3.4,0.8,3.4,0.8c0,0,0.1,0,0.1,0c1.9-1.1,5-1.8,5.5-1.9     c0.1,0.2,0.5,0.9,0.7,2.8c0,0,0,0.1,0,0.1c0,0,0,0,0,0c0,0,0,0,0,0l28.6-11c0,0,0.1-0.1,0.1-0.1c-0.1-0.4-0.2-0.7-0.3-1.1     c-2.8-11.6-6.7-15.1-9.6-17.6c-0.3-0.2-0.5-0.5-0.8-0.7c-2.7-2.5-5.3-4.8-5.6-5.1c0-0.6-0.3-7.5-8.2-14.2c0,0-0.1,0-0.1,0     c0,0-0.1,0-0.1,0.1c0,0.1-4.6,10.1-6.8,12c-0.9,0.8-1.5,0.9-2.3,0.9c-0.1,0-0.3,0-0.4,0c-0.8,0-1.9-0.1-3.9,0.8     c-6.9,2.9-10.4,5.6-10.7,8.2c-0.1,0.5-0.1,0.9-0.1,1.4c-0.2,2.4-0.4,3.9-2.9,6.2c-2.8,2.5-4.2,4.4-3.2,6.4c0.1,0.2,0.3,0.6,0.5,1     c1.3,2.8,4.4,9.2,7.5,9.9c2.4,0.6,4.7,0.8,6.5,1C149,112.9,149.7,112.9,150.2,113L150.2,113z"/>
		</g>
	</g>
</g>
</svg>