<?xml version="1.0" encoding="utf-8"?>
<!-- Generator: Adobe Illustrator 18.0.0, SVG Export Plug-In . SVG Version: 6.00 Build 0)  -->
<!DOCTYPE svg PUBLIC "-//W3C//DTD SVG 1.1//EN" "http://www.w3.org/Graphics/SVG/1.1/DTD/svg11.dtd">
<svg version="1.1" id="Слой_1" xmlns="http://www.w3.org/2000/svg" xmlns:xlink="http://www.w3.org/1999/xlink" x="0px" y="0px"
	 viewBox="102.9 141 817 575" enable-background="new 102.9 141 817 575" xml:space="preserve">
<g>
	<g>
		<path fill="#FFFFFF" d="M394.7,662.5c0,0.9,0.2,1.7,0.3,2.1s0.5,0.9,0.8,1.2s0.6,0.5,1.1,0.6c0.5,0.2,0.8,0.2,1.2,0.2h2.6v3.4
			h-21.8v-3.4h2.6c0.5,0,0.9,0,1.2-0.2c0.5-0.2,0.8-0.3,1.1-0.6c0.3-0.3,0.5-0.8,0.6-1.2s0.3-1.2,0.3-2.1v-33.8h-5.1
			c-0.9,0-1.7,0.2-2.3,0.3c-0.6,0.2-1.2,0.5-1.5,0.9c-0.5,0.3-0.8,0.9-0.9,1.4c-0.2,0.6-0.3,1.2-0.5,1.8l-0.5,4h-4.3l0.3-12.3h39.3
			l0.3,12.3h-4.3l-0.5-4c-0.2-0.8-0.2-1.4-0.5-1.8c-0.2-0.6-0.5-1.1-0.9-1.4c-0.5-0.3-0.9-0.6-1.5-0.9c-0.6-0.3-1.4-0.3-2.3-0.3
			h-5.1v33.8H394.7z"/>
		<path fill="#FFFFFF" d="M456.6,647.3c0,3.5-0.5,6.6-1.4,9.5c-0.9,2.9-2.3,5.4-4.1,7.4c-1.8,2-4,3.7-6.8,4.8
			c-2.6,1.1-5.7,1.7-9.1,1.7c-3.5,0-6.8-0.6-9.4-1.7c-2.6-1.1-4.9-2.6-6.8-4.8c-1.8-2.1-3.1-4.5-4-7.4s-1.4-6-1.4-9.5
			s0.5-6.6,1.4-9.5c0.9-2.9,2.1-5.2,4-7.4c1.8-2,4-3.5,6.8-4.6c2.8-1.1,5.8-1.7,9.5-1.7c3.4,0,6.4,0.6,9.1,1.7
			c2.6,1.1,4.9,2.6,6.8,4.8c1.8,2.2,3.2,4.5,4.1,7.4C456.1,640.7,456.6,643.8,456.6,647.3z M424.5,647.3c0,3.1,0.2,5.7,0.6,8.1
			c0.5,2.3,1.1,4.3,1.8,6c0.9,1.7,2,2.9,3.4,3.7c1.4,0.8,3.1,1.2,4.9,1.2c2,0,3.7-0.5,5.1-1.2c1.4-0.8,2.5-2.1,3.4-3.7
			c0.8-1.7,1.4-3.7,1.8-6c0.3-2.3,0.6-5.1,0.6-8.1c0-3.1-0.2-5.7-0.6-8.1c-0.3-2.3-0.9-4.3-1.8-6c-0.8-1.7-2-2.9-3.2-3.7
			c-1.4-0.9-3.1-1.2-4.9-1.2c-2,0-3.7,0.5-5.1,1.2c-1.4,0.9-2.5,2.1-3.4,3.7c-0.9,1.5-1.5,3.7-1.8,6
			C424.6,641.6,424.5,644.4,424.5,647.3z"/>
		<path fill="#FFFFFF" d="M498.3,670v-3.4h0.6c0.6,0,1.2,0,1.7-0.2c0.5-0.2,0.9-0.3,1.2-0.5c0.3-0.2,0.6-0.6,0.8-1.1
			c0.2-0.5,0.3-1.1,0.3-1.8v-31.9L490.2,670h-4.3l-13.4-38.9v31.5c0,0.9,0.2,1.7,0.3,2.2c0.2,0.5,0.5,0.9,0.9,1.2
			c0.5,0.3,0.9,0.5,1.5,0.6c0.6,0.2,1.2,0.2,2,0.2h0.3v3.4h-15.7v-3.4h2.6c0.5,0,0.9,0,1.2-0.2c0.3-0.2,0.8-0.3,1.1-0.5
			c0.3-0.3,0.5-0.6,0.8-1.1c0.2-0.5,0.3-1.2,0.3-2v-30.9c0-0.8-0.2-1.5-0.3-2c-0.2-0.5-0.5-0.9-0.8-1.2s-0.6-0.5-1.1-0.6
			c-0.5-0.2-0.8-0.2-1.2-0.2h-2.6v-3.4h18.3l10.4,30.6l10-30.6h17.8v3.4h-2.6c-0.5,0-0.9,0-1.2,0.2c-0.5,0.2-0.8,0.3-1.1,0.6
			c-0.3,0.3-0.5,0.8-0.6,1.2c-0.2,0.5-0.3,1.2-0.3,2.1v30.3c0,0.9,0.2,1.7,0.3,2.2c0.2,0.5,0.5,0.9,0.6,1.2c0.3,0.3,0.6,0.5,1.1,0.6
			c0.5,0.2,0.8,0.2,1.2,0.2h2.6v3.4h-20.1V670z"/>
		<path fill="#FFFFFF" d="M547.2,665.6c1.5,0,2.9-0.2,4.1-0.6c1.2-0.3,2.3-0.8,3.2-1.4s1.8-1.2,2.5-2c0.8-0.8,1.4-1.4,1.8-2.2
			c0.3,0.3,0.6,0.6,0.8,1.1s0.3,1.1,0.3,1.5c0,0.9-0.3,1.8-0.8,2.8c-0.5,0.9-1.2,1.8-2.3,2.8c-1.1,0.8-2.6,1.5-4.5,2
			c-1.8,0.5-4.1,0.8-6.8,0.8c-3.7,0-6.9-0.6-9.5-1.7c-2.8-1.1-5.1-2.6-6.8-4.8c-1.7-2.2-3.2-4.5-4.1-7.4c-0.9-2.9-1.4-6-1.4-9.5
			c0-3.4,0.5-6.6,1.4-9.4c0.9-2.8,2.3-5.2,4.1-7.4c1.8-2,4.1-3.7,6.8-4.8c2.8-1.1,5.8-1.7,9.5-1.7c2.5,0,4.6,0.2,6.3,0.6
			c1.7,0.5,3.2,0.9,4.5,1.5c1.2,0.6,2.2,1.4,2.6,2.3c0.6,0.9,0.9,1.8,0.9,2.9c0,0.8-0.2,1.5-0.5,2.1c-0.3,0.6-0.8,1.2-1.5,1.7
			c-0.6,0.5-1.5,0.9-2.5,1.2c-0.9,0.3-2.1,0.5-3.4,0.5c0-1.1-0.2-2.1-0.3-3.1c-0.2-1.1-0.6-2-1.2-2.8c-0.6-0.8-1.2-1.5-2.1-2
			s-2-0.8-3.4-0.8c-2,0-3.7,0.5-5.1,1.2c-1.4,0.8-2.5,2.2-3.4,3.7c-0.8,1.7-1.4,3.7-1.8,6s-0.6,5.1-0.6,8.1s0.2,5.7,0.6,8
			s1.2,4.1,2.1,5.7c0.9,1.5,2.3,2.6,4,3.4C542.6,665,544.7,665.6,547.2,665.6z"/>
		<path fill="#FFFFFF" d="M576.2,655.1l-1.8,5.4c-0.2,0.5-0.3,1.1-0.5,1.8c-0.2,0.6-0.3,1.2-0.3,1.8c0,0.5,0.2,0.8,0.3,1.1
			c0.2,0.3,0.3,0.6,0.6,0.8c0.3,0.2,0.6,0.3,0.9,0.5c0.3,0.2,0.8,0.2,1.1,0.2h2.6v3.4h-16.4v-3.4h0.8c0.6,0,1.1,0,1.5-0.2
			c0.5-0.2,0.9-0.3,1.2-0.8c0.5-0.3,0.8-0.8,1.1-1.4c0.3-0.6,0.8-1.4,1.1-2.3l13.7-37.2h8.6l13.2,37.2c0.3,0.9,0.6,1.7,0.9,2.2
			c0.3,0.6,0.8,1.1,1.1,1.4c0.3,0.3,0.8,0.6,1.2,0.8c0.5,0.2,0.9,0.2,1.4,0.2h1.1v3.4h-20.9v-3.4h2.5c0.3,0,0.6,0,0.9-0.2
			c0.3-0.2,0.6-0.3,0.9-0.5c0.3-0.2,0.5-0.5,0.6-0.8c0.2-0.3,0.3-0.6,0.3-1.1s0-1.1-0.2-1.5c-0.2-0.5-0.3-0.9-0.3-1.2l-2.1-6.3
			h-15.1V655.1z M586.9,640.9c-0.2-0.8-0.5-1.5-0.8-2.3c-0.3-0.8-0.5-1.5-0.8-2.5c-0.3-0.8-0.5-1.7-0.6-2.5
			c-0.2-0.8-0.5-1.5-0.6-2.3c-0.2,0.6-0.5,1.4-0.6,2.2c-0.2,0.8-0.5,1.5-0.8,2.3c-0.3,0.8-0.6,1.5-0.8,2.5s-0.6,1.5-0.8,2.3
			l-3.7,10.8h12.7L586.9,640.9z"/>
		<path fill="#FFFFFF" d="M635.6,662.5c0,0.9,0.2,1.7,0.3,2.1c0.2,0.5,0.5,0.9,0.8,1.2c0.3,0.3,0.6,0.5,1.1,0.6
			c0.5,0.2,0.8,0.2,1.2,0.2h2.6v3.4h-21.8v-3.4h2.6c0.5,0,0.9,0,1.2-0.2c0.5-0.2,0.8-0.3,1.1-0.6c0.3-0.3,0.5-0.8,0.6-1.2
			c0.2-0.5,0.3-1.2,0.3-2.1v-33.8h-5.1c-0.9,0-1.7,0.2-2.3,0.3s-1.2,0.5-1.5,0.9c-0.5,0.3-0.8,0.9-0.9,1.4c-0.2,0.6-0.3,1.2-0.5,1.8
			l-0.5,4h-4.3l0.3-12.3h39.3l0.3,12.3h-4.3l-0.5-4c-0.2-0.8-0.2-1.4-0.5-1.8c-0.2-0.6-0.5-1.1-0.9-1.4c-0.5-0.3-0.9-0.6-1.5-0.9
			c-0.6-0.2-1.4-0.3-2.3-0.3h-5.1v33.8H635.6z"/>
	</g>
	<g>
		<path fill="#FFFFFF" d="M419.7,690.3l4.8,14.3h0.2l4.8-14.3h4l1.2,21.2h-3.5l-0.8-14.3h-0.2l-3.8,11.7h-3.4l-3.8-11.7h-0.2
			l-0.8,14.3h-3.5l1.2-21.2H419.7z"/>
		<path fill="#FFFFFF" d="M441.8,709h7.4v2.5h-11.1v-21.2h11.1v2.5h-7.4v6.5h6.5v2.5h-6.5V709z"/>
		<path fill="#FFFFFF" d="M456.1,697.5L456.1,697.5l-0.2,13.8h-3.5v-21.2h3.7l5.7,13.8h0.2v-13.8h3.5v21.2h-3.7L456.1,697.5z"/>
		<path fill="#FFFFFF" d="M468.7,690.3h3.7l-0.8,7.1h-2.1L468.7,690.3z"/>
		<path fill="#FFFFFF" d="M474.5,695.4c0-1.7,0.5-2.9,1.5-4c1.1-0.9,2.6-1.5,4.6-1.5c1.1,0,2,0,2.9,0.2c0.9,0.2,1.5,0.3,2,0.5v1.7
			h-4.3c-0.9,0-1.7,0.3-2.3,0.9c-0.6,0.6-0.9,1.4-0.9,2.3s0.2,1.5,0.6,2.1c0.5,0.5,0.9,0.9,1.5,1.4c0.6,0.3,1.4,0.8,2,1.1
			c0.6,0.3,1.4,0.8,2,1.2c0.6,0.5,1.2,1.1,1.5,1.8c0.5,0.8,0.6,1.7,0.6,2.9c0,1.8-0.6,3.2-1.7,4.3c-1.1,1.1-2.9,1.5-5.5,1.5
			c-1.1,0-2,0-2.9-0.2c-0.9-0.2-1.5-0.3-2-0.5v-1.7h4.3c1.5,0,2.6-0.3,3.2-0.9c0.6-0.6,0.9-1.4,0.9-2.6c0-0.8-0.2-1.5-0.6-2
			s-0.9-0.9-1.5-1.2c-0.6-0.3-1.4-0.6-2-1.1s-1.4-0.8-2-1.2c-0.6-0.5-1.2-1.2-1.5-2C474.7,697.7,474.5,696.8,474.5,695.4z"/>
		<path fill="#FFFFFF" d="M496,695.4c0-1.7,0.5-2.9,1.5-4c1.1-0.9,2.6-1.5,4.6-1.5c1.1,0,2,0,2.9,0.2c0.9,0.2,1.5,0.3,2,0.5v1.7
			h-4.3c-0.9,0-1.7,0.3-2.3,0.9c-0.6,0.6-0.9,1.4-0.9,2.3s0.2,1.5,0.6,2.1c0.5,0.5,0.9,0.9,1.5,1.4c0.6,0.3,1.4,0.8,2,1.1
			c0.8,0.3,1.4,0.8,2,1.2c0.6,0.5,1.2,1.1,1.5,1.8c0.5,0.8,0.6,1.7,0.6,2.9c0,1.8-0.6,3.2-1.7,4.3c-1.1,1.1-2.9,1.5-5.5,1.5
			c-1.1,0-2,0-2.9-0.2c-0.9-0.2-1.5-0.3-2-0.5v-1.7h4.3c1.5,0,2.6-0.3,3.2-0.9c0.6-0.6,0.9-1.4,0.9-2.6c0-0.8-0.2-1.5-0.6-2
			s-0.9-0.9-1.5-1.2c-0.6-0.3-1.4-0.6-2-1.1s-1.4-0.8-2-1.2c-0.6-0.5-1.2-1.2-1.5-2C496.3,697.7,496,696.8,496,695.4z"/>
		<path fill="#FFFFFF" d="M514.9,711.3h-3.7v-20.9c0.8-0.2,1.5-0.3,2.3-0.5c0.8-0.2,1.8-0.2,2.9-0.2c1.2,0,2.3,0.2,3.2,0.5
			c0.9,0.3,1.7,0.8,2.1,1.4c0.6,0.6,0.9,1.4,1.2,2.3s0.5,2.2,0.5,3.4c0,1.4-0.2,2.6-0.5,3.7c-0.3,0.9-0.6,1.8-1.2,2.5
			c-0.5,0.6-1.2,1.1-2,1.4c-0.8,0.3-1.7,0.5-2.6,0.5c-0.2,0-0.3,0-0.5,0c-0.2,0-0.5,0-0.6,0c-0.3,0-0.5,0-0.8-0.2
			c-0.3,0-0.5,0-0.6-0.2v6.3H514.9z M516.6,702.9c0.6,0,1.1-0.2,1.5-0.3c0.5-0.2,0.8-0.5,1.1-0.9c0.3-0.5,0.5-0.9,0.6-1.7
			c0.2-0.8,0.2-1.5,0.2-2.6s0-1.8-0.2-2.6c-0.2-0.6-0.3-1.2-0.6-1.7c-0.3-0.5-0.6-0.6-1.1-0.9c-0.5-0.3-0.9-0.3-1.5-0.3h-1.7v10.8
			h1.7V702.9z"/>
		<path fill="#FFFFFF" d="M529.4,706.1l-1.4,5.2h-3.7l5.4-21.2h4.5l5.4,21.2h-3.8l-1.4-5.2H529.4z M532,695.1L532,695.1l-2.2,8.6
			h4.1L532,695.1z"/>
		<path fill="#FFFFFF" d="M556.1,711.6c-1.2,0-2.1-0.2-3.1-0.5s-1.7-0.9-2.2-1.7c-0.6-0.8-1.1-2-1.4-3.4c-0.3-1.4-0.5-3.2-0.5-5.2
			c0-2.1,0.2-3.8,0.5-5.2c0.3-1.4,0.8-2.5,1.4-3.4c0.6-0.8,1.2-1.4,2.2-1.7c0.9-0.3,1.8-0.5,2.9-0.5s2,0,2.9,0.2
			c0.9,0.2,1.5,0.3,2,0.5v1.7h-3.7c-0.6,0-1.2,0.2-1.7,0.5c-0.5,0.3-0.9,0.8-1.4,1.4s-0.8,1.5-0.9,2.6s-0.3,2.5-0.3,4.1
			c0,1.7,0.2,3.1,0.3,4.1s0.5,2,0.9,2.6c0.5,0.6,0.9,1.1,1.5,1.4c0.6,0.3,1.2,0.5,2,0.5h3.7v1.7c-0.5,0.2-1.1,0.3-2,0.5
			C558.1,711.6,557.1,711.6,556.1,711.6z"/>
		<path fill="#FFFFFF" d="M567.1,709h7.4v2.5h-11.1v-21.2h3.7L567.1,709L567.1,709z"/>
		<path fill="#FFFFFF" d="M582.5,709.7c0.5,0,0.8-0.2,1.1-0.3c0.3-0.2,0.6-0.5,0.9-0.9c0.3-0.5,0.5-0.9,0.6-1.7
			c0.2-0.8,0.2-1.5,0.2-2.6v-13.8h3.7v13.8c0,2.8-0.5,4.6-1.5,5.8c-1.1,1.2-2.8,1.7-4.9,1.7c-2.1,0-3.8-0.6-4.9-1.7
			c-1.1-1.2-1.5-3.1-1.5-5.8v-13.8h3.7v13.8c0,1.1,0,2,0.2,2.6c0.2,0.8,0.3,1.2,0.6,1.7c0.3,0.5,0.6,0.8,0.9,0.9
			C581.7,709.5,582,709.7,582.5,709.7z"/>
		<path fill="#FFFFFF" d="M602,700.1c1.2,0.5,2.1,1.1,2.8,2c0.6,0.9,0.9,2.1,0.9,3.5c0,2-0.6,3.5-1.7,4.5c-1.2,1.1-3.1,1.5-5.8,1.5
			c-1.1,0-2.1,0-2.9-0.2c-0.8-0.2-1.5-0.3-2.3-0.5v-20.6c0.8-0.2,1.5-0.3,2.3-0.5c0.8-0.2,1.8-0.2,2.9-0.2c2.3,0,4,0.5,5.1,1.5
			c1.1,0.9,1.7,2.3,1.7,4.1c0,0.9-0.3,1.8-0.8,2.6C603.5,699.1,602.9,699.7,602,700.1L602,700.1z M597.8,699.2
			c0.9,0,1.7-0.3,2.3-0.9c0.6-0.6,0.9-1.4,0.9-2.6c0-1.1-0.3-2-0.9-2.6c-0.6-0.6-1.4-0.9-2.3-0.9h-1.4v6.9h1.4V699.2z M596.6,701.5
			v8h1.7c1.2,0,2.3-0.3,2.9-0.9c0.6-0.6,0.9-1.7,0.9-2.9c0-1.4-0.3-2.5-0.9-3.1c-0.6-0.6-1.5-0.9-2.9-0.9h-1.7V701.5z"/>
	</g>
	<g>
		<g>
			<path fill="#790025" d="M479,380.2c0-3.5-2.8-6.3-6.3-6.3c-3.5,0-6.3,2.8-6.3,6.3c0,3.5,2.8,6.3,6.3,6.3
				C476.2,386.5,479,383.6,479,380.2L479,380.2z"/>
			<path fill="#790025" d="M588.9,442.3l-95.4,72.9h-0.2h-0.2c-0.2,0-0.2-0.2-0.2-0.3c0.2-0.3,8-24.9,11.1-53.3
				c0.8-6.5,1.1-12.3,1.2-17.4c0-0.2,0-0.2,0.2-0.2l73.9-28.3h0.2l0.2,0.2c5.8,21.5,9.2,25.8,9.2,25.8v0.2
				C589.1,442.1,588.9,442.3,588.9,442.3L588.9,442.3z M481.7,449.7h-2c-0.6,0.8-5.5,6.3-13.2,10.8h-0.2c0,0-0.2,0-0.2-0.2
				c0-0.2-3.7-8.3-3.1-26.1c0-0.2,0-0.2,0.2-0.2h0.2c0.5,0.2,11.2,4.8,14.9,7.5l4.8,0.2c0.8-0.6,7.2-5.4,16.6-8.8h0.2l0.2,0.2
				c0,0.2,2,13.7-0.6,28.7c0,0,0,0.2-0.2,0.2c0,0,0,0-0.2,0c0,0,0,0-0.2,0C497.3,461.3,485.1,454.7,481.7,449.7L481.7,449.7z
				 M440.4,402.5c-0.5-1.1-0.9-1.8-1.2-2.5c-2.6-5.1,0.9-9.7,8-16.1c6.3-5.8,6.8-9.5,7.2-15.5c0.2-1.1,0.2-2.1,0.3-3.5
				c0.8-6.4,9.5-13.1,27-20.4c5.1-2.1,7.8-2.1,10-2c0.3,0,0.6,0,0.9,0c1.8,0,3.2-0.3,5.7-2.3c5.8-4.8,17-29.9,17.2-30.1l0.2-0.2h0.2
				c19.8,16.9,20.6,34.1,20.6,35.6c0.8,0.8,7.4,6.6,14.1,12.7c0.6,0.6,1.2,1.1,2,1.7c7.2,6.4,17.2,15.2,24.3,44.4
				c0.2,0.9,0.5,1.8,0.6,2.8c0,0.2,0,0.2-0.2,0.3l-71.9,27.5c0,0,0,0-0.2,0h-0.2l-0.2-0.2c-0.5-4.9-1.4-6.8-1.7-7.1
				c-1.2,0.3-9.1,2-13.8,4.8h-0.2c0,0-4.1-1.4-8.6-2c-1.4-0.2-3.1-0.3-5.1-0.6c-4.6-0.5-10.4-1.1-16.4-2.5
				C451.6,425.9,443.8,409.6,440.4,402.5L440.4,402.5z M479.1,340.6c0-0.2,6-13.4,11.7-28.7l0.2-0.2c0.2,0,0.2,0,0.2,0
				c0.5,0.5,10.6,12.4,7.8,20.3l0,0c-3.5,6-5.2,6-8.3,6.1c-2.3,0-5.7,0.2-11.4,2.6c0,0,0,0-0.2,0H479
				C479.1,340.8,479.1,340.6,479.1,340.6L479.1,340.6z M628.6,310.5l-2.6-9.8c-12.3,1.8-23.5,2.8-33.6,2.8
				c-55.1,0-80.9-23.5-80.9-23.5s-25.6,23.5-80.9,23.5c-10.1,0-21.3-0.8-33.6-2.8l-2.6,9.8c0,0,43.9,73.1,1.8,180.3
				c0,0,44.1,56.8,115.3,56.8s115.3-56.8,115.3-56.8C584.6,383.6,628.6,310.5,628.6,310.5L628.6,310.5z"/>
			<path fill="#B1A8A6" d="M635,497.3c-0.5,0.6-12.3,15.5-33.2,30.4c-27.8,19.8-59.1,30.3-90.3,30.3c-31.3,0-62.5-10.4-90.3-30.3
				c-20.9-14.9-32.7-29.8-33.2-30.4l-3.7-4.6l2.1-5.5c20.7-52.7,19.4-96.3,14.4-123.6c-5.2-29.8-15.5-47.3-15.5-47.5l-2.3-3.7
				l1.1-4.3l2.6-9.8l2.5-9.1l9.2,1.4c11.1,1.7,21.8,2.6,32.1,2.6c26.1,0,44.8-5.7,55.9-10.4c11.5-4.9,24.9-17,24.9-17
				s13.5,12.1,25,17c11.1,4.8,29.8,10.4,55.9,10.4c10.3,0,21-0.9,32.1-2.6l9.2-1.4l2.5,9.1l2.6,9.8l1.1,4.1l-2.3,3.7
				c-0.2,0.2-10.3,17.7-15.5,47.5c-4.8,27.3-6.1,71.1,14.4,123.6l2.2,5.5L635,497.3L635,497.3z M649.9,481.8
				c-19.3-49.5-18.1-90.3-13.7-115.8c4.5-25.8,13.2-41.6,13.8-42.5l2.2-3.7l3.2-5.2l-1.5-6l-1.1-4.1l-2.6-9.8l-2.5-9.1l-3.4-12.7
				l-12.9,2l-9.2,1.4c-10.3,1.5-20.3,2.5-29.8,2.5c-23.7,0-40.4-5.1-50.2-9.2c-8.6-3.7-21-14.4-21-14.4l-10.1-9.5l-10,9.7
				c0,0-12.1,10.6-20.4,14.1c-9.8,4.1-26.6,9.2-50.2,9.2c-9.5,0-19.5-0.8-29.8-2.5l-9.2-1.4l-12.9-2l-3.4,12.7l-2.5,9.1l-2.6,9.8
				l-1.1,4.3l-1.5,6l3.2,5.2l2.1,3.7c0.6,0.9,9.2,16.7,13.8,42.5c4.5,25.5,5.7,66.3-13.7,115.8l-2.1,5.5l-3.1,7.7l5.1,6.6l3.7,4.6
				c1.4,1.7,14,17.5,36.2,33.3c30.3,21.7,64.5,33,98.7,33s68.5-11.4,98.7-33c22.3-16,34.9-31.6,36.2-33.5l3.7-4.6l5.1-6.6l-3.1-7.7
				L649.9,481.8L649.9,481.8z"/>
			<g>
				<g>
					<defs>
						<rect id="SVGID_1_" x="102.9" y="146.5" width="817" height="442.4"/>
					</defs>
					<clipPath id="SVGID_2_">
						<use xlink:href="#SVGID_1_"  overflow="visible"/>
					</clipPath>
					<path clip-path="url(#SVGID_2_)" fill="#B1A8A6" d="M456.4,186.4c0.6,0,1.2-0.2,1.7-0.6c9.7,10.4,14.9,22,17.5,33.9
						c11.7-1.2,23.6-1.8,35.9-1.8c12.3,0,24.1,0.6,35.9,1.8c2.8-12.1,7.8-23.5,17.5-33.9c0.5,0.3,1.1,0.6,1.7,0.6
						c1.8,0,3.2-1.8,3.2-4c0-2.3-1.5-4-3.2-4c-1.8,0-3.2,1.8-3.2,4c0,0.9,0.2,1.7,0.6,2.3c-0.9,0.5-1.8,1.1-2.8,1.7
						c0-0.3,0-0.5,0-0.8c0-2.3-1.5-4-3.2-4c-1.8,0-3.2,1.8-3.2,4c0,1.7,0.9,3.2,2.1,3.8c-2.3,1.8-4.6,4-6.9,6.8
						c-1.8,1.4-3.8,2.6-6.1,2.3c-5.2-1.4-7.1-7.2-6.5-13.1c2.2,0,3.8-2.2,3.8-4.9c0-2.8-1.8-4.9-4-4.9s-4,2.2-4,4.9
						c0,1.5,0.6,3.1,1.5,3.8c-1.8,2.5-4,5.1-6.5,6.3c-7.5,3.7-11.2-5.7-13.5-13.7c0.6,0.3,1.2,0.5,2,0.5c2.8,0,5.1-2.8,5.1-6.1
						c0-2.9-1.7-5.4-4-6c0.2-1.4,0.3-2.8,0.3-4.3c0-8-6.6-14.6-6.6-14.6s-6.6,6.6-6.6,14.6c0,1.5,0.2,2.9,0.3,4.3
						c-2.3,0.6-4,3.1-4,6c0,3.4,2.3,6.1,5.1,6.1c0.5,0,1.1-0.2,1.5-0.3c-2.3,8-5.8,17.2-13.4,13.5c-2.5-1.2-4.5-3.8-6.5-6.3
						c0.9-0.9,1.5-2.3,1.5-3.8c0-2.8-1.8-4.9-4-4.9s-4,2.2-4,4.9c0,2.6,1.7,4.8,3.8,4.9c0.6,5.7-1.2,11.7-6.5,13.1
						c-2.3,0.5-4.3-0.8-6.1-2.3c-2.1-2.8-4.5-4.9-6.9-6.8c1.2-0.6,2.1-2,2.1-3.8c0-2.3-1.5-4-3.2-4s-3.2,1.8-3.2,4
						c0,0.3,0,0.6,0,0.8c-0.9-0.6-1.8-1.1-2.8-1.7c0.3-0.6,0.6-1.4,0.6-2.3c0-2.3-1.5-4-3.2-4c-1.8,0-3.2,1.8-3.2,4
						C453,184.7,454.6,186.4,456.4,186.4L456.4,186.4z"/>
				</g>
				<g>
					<defs>
						<rect id="SVGID_3_" x="102.9" y="146.5" width="817" height="442.4"/>
					</defs>
					<clipPath id="SVGID_4_">
						<use xlink:href="#SVGID_3_"  overflow="visible"/>
					</clipPath>
					<path clip-path="url(#SVGID_4_)" fill="#B1A8A6" d="M755.4,451.3c4.6-13.7,7.1-27.8,7.1-42.5c0-20.3-4.6-39.8-13.2-57.9
						c41.5,2.3,74.3,29.5,74.3,62.7c0,23.8-16.9,44.7-41.8,55.3C772.1,463.5,763.5,457.6,755.4,451.3L755.4,451.3z M744.4,476.2
						c2-3.7,4-7.4,5.7-11.1c4.1,3.1,8.6,6.3,13.4,9.2C757.1,475.6,750.8,476.2,744.4,476.2L744.4,476.2z M726.7,475.1
						c-38.2-4.5-50.5-19-51.9-32.1c-1.1-9.7,3.5-17.5,12.3-19.4c14.7-3.1,28.6,12.7,49,30.4C733.6,461.3,730.4,468.2,726.7,475.1
						L726.7,475.1z M708.3,501.7c-31.2-19-55.6-49.6-55.6-79.9c0-32.3,24.6-66.2,78.3-70.6c8.4,18,13.1,37.5,13.1,57.6
						c0,10.4-1.2,20.6-3.5,30.4c-0.5-0.5-0.9-0.8-1.4-1.2c-39.8-33.8-67-23.6-70.2-5.2c-5.8,33.2,29.8,44.4,54.4,47.9
						C719,488,713.9,495.1,708.3,501.7L708.3,501.7z M511.4,583c-76.8,0-144.8-27.8-187.2-70.6c2.1-1.2,4.1-2.6,6.3-4.1
						c22.6-15.4,45.8-42.7,45.8-86.5c0-35-26.4-71-81.7-76.5c33.9-64.7,118.1-110.6,216.7-110.6S694,280.4,727.9,345.2
						c-55.3,5.5-81.7,41.5-81.7,76.5c0,43.8,23.2,71.1,45.8,86.5c2.2,1.5,4.3,2.8,6.3,4.1C656.2,555.2,588.2,583,511.4,583
						L511.4,583z M299.5,480.8c24.4-3.5,60.2-14.7,54.4-47.9c-3.2-18.4-30.4-28.6-70.2,5.2c-0.5,0.5-0.9,0.8-1.4,1.2
						c-2.3-9.8-3.5-20.1-3.5-30.4c0-20.1,4.6-39.6,13.1-57.6c53.8,4.5,78.3,38.2,78.3,70.6c0,30.4-24.4,61-55.6,79.9
						C309,495.1,303.9,488,299.5,480.8L299.5,480.8z M286.7,454.1c20.4-17.7,34.2-33.5,49-30.4c8.9,1.8,13.4,9.8,12.3,19.4
						c-1.4,13.1-13.5,27.6-51.9,32.1C292.4,468.2,289.3,461.3,286.7,454.1L286.7,454.1z M259.7,474.4c4.8-2.9,9.2-6,13.4-9.2
						c1.7,3.7,3.5,7.4,5.7,11.1C272.1,476.2,265.7,475.6,259.7,474.4L259.7,474.4z M241.1,468.7c-24.9-10.6-41.8-31.3-41.8-55.3
						c0-33.2,32.7-60.2,74.3-62.7c-8.6,18.1-13.2,37.6-13.2,57.9c0,14.6,2.5,28.9,7.1,42.5C259.4,457.6,250.8,463.5,241.1,468.7
						L241.1,468.7z M919.7,470.9c-0.8-0.9-2.6,0.8-2.6,0.8c-13.2,10.4-32.3,19-71.1,15.8c-21.3-1.7-38.9-6.8-54.1-13.7
						c30.3-11.8,50.5-34.4,50.5-60.4c0-37.5-43-68-96.4-69C710,276.7,618.6,228.7,511.5,228.7S313.1,276.7,277,344.5
						c-53.4,0.9-96.4,31.5-96.4,69c0,26,20.4,48.5,50.5,60.4c-15.2,6.9-32.7,11.8-54.1,13.7c-38.9,3.2-57.9-5.4-71.1-15.8
						c0,0-1.8-1.7-2.6-0.8c-0.8,0.9,0.8,2.3,0.8,2.3c6.8,6.8,37.5,29.2,94.8,22.6c20.6-2.3,37.5-8.4,51.9-16.1
						c9.1,1.8,18.6,2.9,28.4,2.9c0.8,0,1.8,0,3.2,0c5.7,9.1,12.4,17.8,20,26c-14.1,6.9-29,11.2-43.3,12.3
						c-14.7,1.1-24.9,0.2-32.9-2.6c0,0-2.3-0.9-2.8,0.2s1.5,2,1.5,2c6,2.9,34.6,9.7,59.4,5.8c10.4-1.5,19.2-3.8,27.8-7.5
						c45.9,42.8,117.9,70.5,199.2,70.5c81.1,0,153.3-27.6,199.2-70.5c8.6,3.7,17.4,6,27.8,7.5c25,3.7,53.4-3.1,59.4-5.8
						c0,0,2-0.8,1.5-2c-0.5-1.1-2.8-0.2-2.8-0.2c-8,2.8-18.1,3.7-32.9,2.6c-14.3-0.9-29.2-5.4-43.3-12.3c7.7-8.3,14.3-16.9,20-26
						c1.4,0,2.5,0,3.2,0c9.8,0,19.5-1.1,28.4-2.9c14.4,7.7,31.3,13.8,51.9,16.1c57.4,6.6,88-16,94.8-22.6
						C919,473.2,920.5,471.8,919.7,470.9L919.7,470.9z"/>
				</g>
			</g>
			<path fill="#FFFFFF" d="M479.4,340.9L479.4,340.9c5.8-2.6,9.1-2.6,11.4-2.8c3.2,0,4.8-0.2,8.3-6.1l0,0c2.8-7.8-7.5-19.8-7.8-20.3
				c0,0-0.2-0.2-0.2,0c-0.2,0-0.2,0-0.2,0.2c-5.7,15.4-11.7,28.6-11.7,28.7c0,0.2,0,0.2,0,0.3C479.3,340.9,479.3,340.9,479.4,340.9
				L479.4,340.9z"/>
			<path fill="#FFFFFF" d="M499.4,461.9L499.4,461.9c0.2,0,0.2-0.2,0.2-0.2c2.6-15,0.6-28.6,0.6-28.7c0,0,0-0.2-0.2-0.2h-0.2
				c-9.4,3.4-15.8,8.1-16.6,8.8l-4.8-0.2c-3.7-2.9-14.4-7.4-14.9-7.5h-0.2l-0.2,0.2c-0.6,17.8,3.1,26.1,3.1,26.1l0.2,0.2h0.2
				c7.8-4.3,12.6-10,13.2-10.8h2C485.1,454.7,497.3,461.3,499.4,461.9C499.3,461.9,499.4,461.9,499.4,461.9L499.4,461.9z"/>
			<path fill="#FFFFFF" d="M588.9,442c0,0-3.5-4.5-9.2-25.8c0,0,0-0.2-0.2-0.2h-0.2l-73.9,28.3c-0.2,0-0.2,0.2-0.2,0.2
				c0,4.9-0.5,10.8-1.2,17.4c-3.1,28.6-10.9,53.1-11.1,53.3c0,0.2,0,0.2,0.2,0.3h0.2h0.2l95.4-72.9l0.2-0.2
				C589.1,442.1,589.1,442,588.9,442L588.9,442z"/>
			<path fill="#FFFFFF" d="M466.4,380.2c0-3.5,2.8-6.3,6.3-6.3c3.5,0,6.3,2.8,6.3,6.3c0,3.5-2.8,6.3-6.3,6.3
				C469.3,386.5,466.4,383.6,466.4,380.2L466.4,380.2z M480.7,430.6c4.5,0.6,8.6,2,8.6,2h0.2c4.8-2.8,12.6-4.5,13.8-4.8
				c0.3,0.5,1.2,2.3,1.7,7.1c0,0,0,0.2,0.2,0.2h0.2c0,0,0,0,0.2,0l71.9-27.5c0.2,0,0.2-0.2,0.2-0.3c-0.2-0.9-0.5-1.8-0.6-2.8
				c-6.9-29.2-16.9-37.9-24.3-44.4c-0.6-0.6-1.4-1.2-2-1.7c-6.9-6.3-13.4-12.1-14.1-12.7c0-1.5-0.8-18.7-20.6-35.6h-0.2
				c0,0-0.2,0-0.2,0.2c-0.2,0.3-11.5,25.3-17.2,30.1c-2.3,2-3.8,2.3-5.7,2.3c-0.3,0-0.6,0-0.9,0c-2.1,0-4.8-0.2-10,2
				c-17.4,7.4-26.3,14.1-27,20.4c-0.2,1.2-0.3,2.5-0.3,3.5c-0.6,6-0.9,9.7-7.2,15.5c-7.1,6.4-10.6,11.1-8,16.1
				c0.3,0.6,0.8,1.4,1.2,2.5c3.4,6.9,11.2,23.2,18.7,25c6,1.4,11.8,2,16.4,2.5C477.6,430.2,479.3,430.5,480.7,430.6L480.7,430.6z"/>
		</g>
	</g>
</g>
</svg>
