<?xml version="1.0" encoding="utf-8"?>
<!-- Generator: Adobe Illustrator 18.1.1, SVG Export Plug-In . SVG Version: 6.00 Build 0)  -->
<svg version="1.1" baseProfile="basic" id="Слой_1"
	 xmlns="http://www.w3.org/2000/svg" xmlns:xlink="http://www.w3.org/1999/xlink" x="0px" y="0px" viewBox="0 0 39.2 39.3"
	 xml:space="preserve">
<g id="тел">
	<path fill="none" d="M33.1,33.9l-5-3.7c-0.3-0.2-0.3-0.6-0.1-0.9c0.2-0.3,0.6-0.3,0.9-0.1l2.5,1.8l4.6,3.4l1.8-1.8l-9-6.6l-1.6,1.6
		c-2.4,2.4-5.9,1.8-9.2-0.2c-1.2-0.7-2.4-1.7-3.5-2.7c-1.1-1.1-2-2.2-2.7-3.5c-2-3.3-2.5-6.8-0.2-9.1l1.6-1.6l-6.6-9L4.8,3.3
		l1.5,2.1l1.8,2.5l1.8,2.5c0.2,0.3,0.1,0.7-0.1,0.9c-0.3,0.2-0.7,0.1-0.9-0.1l-3.7-5L3.9,4.2L3.6,4.5l0,0c-2.3,2.3-3,5.4-1.8,9.2
		c1.2,3.9,4.4,8.5,9.6,13.7l0.2,0.2h0c0.3,0.4,0.6,0.6,0.9,0.9c5,4.9,9.5,7.8,13.3,9c3.6,1.1,6.6,0.5,8.9-1.7l0,0l0.1-0.1l0.3-0.3
		L33.1,33.9z"/>
	<path fill="#FFFFFF" d="M23.4,12.2c0.4,0.2,0.8,0.4,1.1,0.6c0.4,0.2,0.7,0.5,1,0.8v0c0.3,0.3,0.6,0.6,0.8,1
		c0.2,0.4,0.5,0.7,0.6,1.1c0.1,0.3,0.5,0.5,0.8,0.3c0.3-0.1,0.5-0.5,0.3-0.8c-0.2-0.5-0.4-0.9-0.7-1.3c-0.3-0.4-0.6-0.8-1-1.2
		c-0.4-0.4-0.8-0.7-1.2-1c-0.4-0.3-0.9-0.5-1.3-0.7c-0.3-0.1-0.7,0-0.8,0.3C23,11.7,23.1,12.1,23.4,12.2z"/>
	<path fill="#FFFFFF" d="M23.5,8.4c0.9,0.2,1.7,0.6,2.5,1c0.8,0.5,1.5,1,2.2,1.7c0.6,0.6,1.2,1.4,1.7,2.2c0.5,0.8,0.8,1.6,1,2.5
		c0.1,0.3,0.4,0.5,0.7,0.4c0.3-0.1,0.5-0.4,0.4-0.8c-0.3-1-0.7-1.9-1.2-2.8c-0.5-0.9-1.1-1.7-1.8-2.4c-0.7-0.7-1.5-1.3-2.4-1.8
		c-0.9-0.5-1.8-0.9-2.8-1.2c-0.3-0.1-0.7,0.1-0.7,0.4C23,8,23.2,8.3,23.5,8.4z"/>
	<path fill="#FFFFFF" d="M23.6,4.6c1.4,0.3,2.7,0.7,3.9,1.4c1.2,0.6,2.3,1.5,3.3,2.5c1,1,1.8,2.1,2.5,3.3l0,0
		c0.6,1.2,1.1,2.5,1.4,3.9c0.1,0.3,0.4,0.5,0.7,0.5c0.3-0.1,0.5-0.4,0.5-0.7c-0.3-1.5-0.8-2.9-1.5-4.2l0,0c-0.7-1.3-1.6-2.5-2.7-3.6
		h0c-1.1-1.1-2.3-2-3.6-2.7c-1.3-0.7-2.7-1.2-4.2-1.5c-0.3-0.1-0.7,0.2-0.7,0.5C23,4.3,23.2,4.6,23.6,4.6z"/>
	<path fill="#FFFFFF" d="M29,24.8c-0.2-0.2-0.6-0.1-0.8,0.1h0l-2,2c-1.9,1.9-4.8,1.3-7.6-0.4c-1.1-0.7-2.2-1.6-3.2-2.6
		c-1-1-1.9-2.1-2.6-3.2c-1.7-2.8-2.2-5.8-0.4-7.6l2-2c0.2-0.2,0.2-0.6,0-0.8L7.1,0.3C6.9,0,6.6-0.1,6.3,0.1c0,0-0.1,0-0.1,0.1
		L2.7,3.6l0,0C0.9,5.5,0,7.7,0,10.3v0c0,1.2,0.2,2.4,0.7,3.8c1.3,4.1,4.6,8.9,9.9,14.2l0.2,0.2c0.2,0.2,0.5,0.5,0.9,0.9
		c5.2,5,9.8,8.1,13.8,9.3c4.1,1.3,7.5,0.5,10.1-2l0,0l0.1-0.1v0l0.4-0.4l3.1-3.2c0.2-0.3,0.1-0.7-0.1-0.9L29,24.8z M34.7,35.7
		L34.7,35.7c-2.3,2.3-5.3,2.9-8.9,1.8c-3.8-1.2-8.2-4.1-13.3-9c-0.2-0.2-0.5-0.5-0.9-0.9h0l-0.2-0.2c-5.2-5.2-8.3-9.8-9.6-13.7
		C0.6,10,1.2,6.9,3.6,4.5l0,0l0.3-0.3l1.4,1.9l3.7,5c0.2,0.3,0.6,0.3,0.9,0.1c0.3-0.2,0.3-0.6,0.1-0.9L8.1,7.9L6.3,5.4L4.8,3.3
		l1.8-1.8l6.6,9l-1.6,1.6c-2.3,2.3-1.8,5.9,0.2,9.1c0.7,1.2,1.7,2.4,2.7,3.5c1.1,1.1,2.2,2,3.5,2.7c3.3,2,6.8,2.5,9.2,0.2l1.6-1.6
		l9,6.6l-1.8,1.8l-4.6-3.4l-2.5-1.8c-0.3-0.2-0.7-0.1-0.9,0.1c-0.2,0.3-0.1,0.7,0.1,0.9l5,3.7l1.9,1.4L34.7,35.7L34.7,35.7z"/>
</g>
</svg>
