<?xml version="1.0" encoding="utf-8"?>
<!-- Generator: Adobe Illustrator 18.1.1, SVG Export Plug-In . SVG Version: 6.00 Build 0)  -->
<svg version="1.1" id="Capa_1" xmlns="http://www.w3.org/2000/svg" xmlns:xlink="http://www.w3.org/1999/xlink" x="0px" y="0px"
	 viewBox="380.2 257.2 81.1 81.2" enable-background="new 380.2 257.2 81.1 81.2" xml:space="preserve">
<g id="i">
	<circle fill="#8A0A00" cx="421" cy="297.5" r="35"/>
	<circle fill="none" stroke="#8A0A00" stroke-width="2" stroke-miterlimit="10" cx="420.7" cy="297.8" r="39.5"/>
	<path fill="#FFFFFF" d="M417.6,288h6.8c0.7,0,1.3,0.6,1.3,1.3v33.2c0,0.7-0.6,1.3-1.3,1.3h-6.8c-0.7,0-1.3-0.6-1.3-1.3v-33.2
		C416.3,288.6,416.9,288,417.6,288z"/>
	<path fill="#FFFFFF" d="M417.6,270.2h6.8c0.7,0,1.3,0.6,1.3,1.3v6.8c0,0.7-0.6,1.3-1.3,1.3h-6.8c-0.7,0-1.3-0.6-1.3-1.3v-6.8
		C416.3,270.8,416.9,270.2,417.6,270.2z"/>
</g>
</svg>
