<?xml version="1.0" encoding="utf-8"?>
<!-- Generator: Adobe Illustrator 18.1.1, SVG Export Plug-In . SVG Version: 6.00 Build 0)  -->
<svg version="1.1" id="layer" xmlns="http://www.w3.org/2000/svg" xmlns:xlink="http://www.w3.org/1999/xlink" x="0px" y="0px"
	 viewBox="0 0 48.2 48.2" enable-background="new 0 0 48.2 48.2" xml:space="preserve">
<g>
	<path fill="#891719" d="M39.8,0H8.5C3.8,0,0,3.8,0,8.5v31.3c0,4.7,3.8,8.5,8.5,8.5h31.3c4.7,0,8.5-3.8,8.5-8.5V8.5
		C48.2,3.8,44.4,0,39.8,0L39.8,0z"/>
	<g>
		<path fill-rule="evenodd" clip-rule="evenodd" fill="#FFFFFF" d="M28.6,12.6c1.1,0.2,2.2,0.4,3.3,0.8c1.9,0.6,3.7,1.4,5.3,2.4
			c0.1,0.1,0.3,0.1,0.4,0.1c2,0,3.9,0,5.9,0c0.2,0,0.3,0,0.5,0c0,0,0,0.1,0,0.1c-0.1,0.1-0.2,0.3-0.3,0.4c-0.7,1-1.2,2.1-1.6,3.3
			c0,0.1,0,0.2,0,0.4c1.7,2.5,2.3,5.3,1.6,8.2c-0.6,2.6-2.1,4.6-4.4,6.1c-1.6,1-3.4,1.5-5.3,1.5c-0.8,0-1.6-0.1-2.4-0.3
			c-1.9-0.5-3.5-1.4-4.9-2.9c-0.2-0.2-0.3-0.4-0.5-0.6c-0.7,1.1-1.4,2.1-2.1,3.2c-0.7-1.1-1.4-2.1-2.1-3.1c0,0-0.1,0-0.1,0
			c0,0,0,0,0,0c-1.6,1.9-3.7,3.1-6.2,3.5c-1.4,0.2-2.8,0.1-4.1-0.2c-1.9-0.5-3.5-1.5-4.9-3c-1.3-1.5-2.1-3.2-2.4-5.1
			c-0.3-1.8,0.1-3.5,0.2-3.9C4.8,22.2,5.3,21,6,20c0.1-0.1,0.1-0.2,0-0.3c-0.3-1.1-0.8-2.1-1.4-3c-0.2-0.2-0.3-0.5-0.5-0.7v-0.1
			c0,0,0.1,0,0.1,0c2,0,4,0,6,0c0.1,0,0.2,0,0.3-0.1c1.4-0.9,2.9-1.6,4.5-2.2c1.1-0.4,2.3-0.7,3.5-0.9c1.1-0.2,2.3-0.4,3.5-0.5
			C24.8,12.1,27.1,12.4,28.6,12.6L28.6,12.6z M26.1,25.8c0,4.4,3.6,8,8,8c4.4,0,8-3.5,8-8c0-4.6-3.7-8-8.1-7.9
			C29.5,18,26.1,21.5,26.1,25.8L26.1,25.8z M14.2,17.9c-4.3,0-8,3.5-7.9,8.1c0.1,4.2,3.6,7.8,8,7.8c4.4,0,7.9-3.6,7.9-7.9
			C22.1,21.4,18.6,17.9,14.2,17.9L14.2,17.9z M14.5,15.8c2.4,0.1,4.5,1,6.3,2.6c1.8,1.6,2.8,3.7,3.2,6.1c0.4-2.4,1.4-4.4,3.2-6
			c1.8-1.6,3.9-2.5,6.2-2.6c-2.8-1.3-5.8-1.8-8.9-1.8C21.2,13.9,17.8,14.4,14.5,15.8L14.5,15.8z M14.5,15.8"/>
		<rect x="2.6" y="11.3" fill="none" width="43" height="25.6"/>
		<path fill-rule="evenodd" clip-rule="evenodd" fill="#FFFFFF" d="M34,20.8c2.7,0,4.9,2.2,4.9,4.9c0,2.7-2.2,4.8-4.7,4.9
			c-2.9,0.1-5.1-2.2-5.1-4.9C29.1,22.9,31.4,20.8,34,20.8L34,20.8z M37.2,25.7c0-1.8-1.4-3.2-3.2-3.2c-1.8,0-3.2,1.4-3.2,3.2
			c0,1.8,1.5,3.2,3.2,3.2C35.8,29,37.2,27.5,37.2,25.7L37.2,25.7z M37.2,25.7"/>
		<path fill-rule="evenodd" clip-rule="evenodd" fill="#FFFFFF" d="M14,20.8c2.7,0,4.9,2.2,4.9,4.9c0,2.8-2.2,4.8-4.7,4.9
			c-2.9,0.1-5.2-2.2-5.2-4.9C9.1,22.9,11.4,20.8,14,20.8L14,20.8z M17.3,25.7c0-1.8-1.5-3.2-3.3-3.2c-1.7,0-3.2,1.5-3.2,3.2
			c0,1.8,1.5,3.2,3.2,3.2C15.8,29,17.3,27.5,17.3,25.7L17.3,25.7z M17.3,25.7"/>
		<path fill-rule="evenodd" clip-rule="evenodd" fill="#FFFFFF" d="M34,24.1c0.9,0,1.6,0.7,1.6,1.6c0,0.9-0.7,1.6-1.6,1.6
			c-0.9,0-1.6-0.7-1.6-1.6C32.4,24.8,33.1,24.1,34,24.1L34,24.1z M34,24.1"/>
		<path fill-rule="evenodd" clip-rule="evenodd" fill="#FFFFFF" d="M14,24.1c0.9,0,1.7,0.7,1.7,1.6c0,0.9-0.7,1.6-1.7,1.7
			c-0.9,0-1.7-0.7-1.7-1.7C12.4,24.8,13.1,24.1,14,24.1L14,24.1z M14,24.1"/>
	</g>
</g>
</svg>
