<?xml version="1.0" encoding="utf-8"?>
<!-- Generator: Adobe Illustrator 18.1.1, SVG Export Plug-In . SVG Version: 6.00 Build 0)  -->
<svg version="1.1" id="layer" xmlns="http://www.w3.org/2000/svg" xmlns:xlink="http://www.w3.org/1999/xlink" x="0px" y="0px"
	 viewBox="0 0 48.2 48.2" enable-background="new 0 0 48.2 48.2" xml:space="preserve">
<g>
	<path fill="#88181B" d="M40.1,48.2c4.2,0,8.1-3.9,8.1-8.1V8.1c0-4.2-3.9-8.1-8.1-8.1H8.1C3.9,0,0,3.9,0,8.1v32.2
		c0,3.9,3.9,7.8,8.1,7.8"/>
</g>
<rect x="8.7" y="8.4" fill="#FFFFFF" width="34.2" height="31.9"/>
<g>
	<path fill="#88181B" d="M37.7,1.8H10.5C6,1.8,2.4,5.4,2.4,9.9v27.4c0,4.5,3.6,8.1,8.1,8.1h27.3c4.5,0,8.1-3.6,8.1-8.1V9.9
		C45.8,5.4,42.2,1.8,37.7,1.8L37.7,1.8z M35.1,18.7v0.6c0,7.2-5.4,15.4-15.3,15.4c-3,0-6-0.9-8.1-2.4c0.3,0,0.9,0,1.2,0
		c2.4,0,4.8-0.9,6.6-2.4c-2.4,0.3-4.5-1.2-5.1-3.3c0.3,0,0.6,0,0.9,0c0.6,0,0.9,0,1.5-0.3c-2.4-0.3-4.2-2.4-4.2-5.1l0,0
		c0.6,0.3,1.5,0.6,2.4,0.6c-1.5-0.9-2.4-2.7-2.4-4.5c0-0.9,0.3-1.8,0.6-2.7c2.7,3.3,6.6,5.4,11.1,5.7c0-0.3,0-0.9,0-1.2
		c0-3,2.4-5.4,5.4-5.4c1.5,0,3,0.6,3.9,1.8c1.2-0.3,2.4-0.9,3.3-1.5c-0.3,1.2-1.2,2.4-2.4,3c1.2,0,2.1-0.3,3-0.9
		C36.9,17.2,36,18.1,35.1,18.7L35.1,18.7z"/>
</g>
</svg>
