<?xml version="1.0" encoding="utf-8"?>
<!-- Generator: Adobe Illustrator 18.1.1, SVG Export Plug-In . SVG Version: 6.00 Build 0)  -->
<svg version="1.1" id="layer" xmlns="http://www.w3.org/2000/svg" xmlns:xlink="http://www.w3.org/1999/xlink" x="0px" y="0px"
	 viewBox="0 0 16 16" enable-background="new 0 0 16 16" xml:space="preserve">
<path fill="#FFFFFF" d="M12.9,16c1.5,0,2.7-1.2,2.7-2.8V3.1c-0.1-1.5-1.3-2.8-2.7-2.8l0,0h-10c-1.5,0-2.7,1.2-2.7,2.8v10.1
	C0.3,14.8,1.5,16,3,16"/>
<g>
	<path fill="#88181A" d="M13.4,16c1.4,0,2.7-1.3,2.7-2.7L16,2.7l0,0C16,1.3,14.8,0,13.4,0H2.7C1.3,0,0,1.3,0,2.7v10.7
		C0,14.7,1.3,16,2.7,16"/>
</g>
<rect x="2.9" y="2.8" fill="#FFFFFF" width="11.4" height="10.6"/>
<g>
	<path fill="#88181A" d="M12.6,0.6H3.5C2,0.6,0.8,1.8,0.8,3.3v9.1c0,1.5,1.2,2.7,2.7,2.7h9.1c1.5,0,2.7-1.2,2.7-2.7V3.3
		C15.3,1.8,14.1,0.6,12.6,0.6L12.6,0.6z M11.7,6.2l0,0.2c0,2.4-1.8,5.1-5.1,5.1c-1,0-2-0.3-2.7-0.8c0.1,0,0.3,0,0.4,0
		c0.8,0,1.6-0.3,2.2-0.8C5.7,10,5,9.5,4.8,8.8c0.1,0,0.2,0,0.3,0c0.2,0,0.3,0,0.5-0.1C4.8,8.6,4.2,7.9,4.2,7v0
		C4.4,7.1,4.7,7.2,5,7.2C4.5,6.9,4.2,6.3,4.2,5.7c0-0.3,0.1-0.6,0.2-0.9c0.9,1.1,2.2,1.8,3.7,1.9c0-0.1,0-0.3,0-0.4
		c0-1,0.8-1.8,1.8-1.8c0.5,0,1,0.2,1.3,0.6C11.6,5,12,4.8,12.3,4.6c-0.1,0.4-0.4,0.8-0.8,1c0.4,0,0.7-0.1,1-0.3
		C12.3,5.7,12,6,11.7,6.2L11.7,6.2z M11.7,6.2"/>
</g>
</svg>
