<?xml version="1.0" encoding="utf-8"?>
<!-- Generator: Adobe Illustrator 18.1.1, SVG Export Plug-In . SVG Version: 6.00 Build 0)  -->
<svg version="1.1" id="layer" xmlns="http://www.w3.org/2000/svg" xmlns:xlink="http://www.w3.org/1999/xlink" x="0px" y="0px"
	 viewBox="0 0 48.2 48.2" enable-background="new 0 0 48.2 48.2" xml:space="preserve">
<path fill="#FFFFFF" d="M32.1,10H16.4c-2.3,0-4.3,2.2-4.3,5.2v18.6c0,2.8,1.8,5.2,4.3,5.2h15.5c2.3,0,4.3-2.2,4.3-5.2V14.9
	C36.2,12.2,34.4,10,32.1,10L32.1,10z"/>
<path fill="#88181B" d="M26.8,26.8c-0.9-0.6-2.1-0.6-3-0.6h-3v6.6h3c1.2,0,2.4,0,3.3-0.6c0.9-0.6,1.2-1.8,1.2-2.7
	C28.3,28.6,27.7,27.4,26.8,26.8L26.8,26.8z M25.6,21.1c0.6-0.6,1.2-1.5,1.2-2.4c0-0.9-0.4-1.8-1.1-2.3C25.2,15.9,23.2,16,22,16h-1.5
	v5.7h1.8C23.5,21.7,24.7,21.7,25.6,21.1L25.6,21.1z M39.8,0H8.5C4,0,0,3.9,0,8.4v31.3c0,4.5,3.9,8.4,8.4,8.4h31.3
	c4.8,0,8.4-3.9,8.4-8.4l0-31.3C48.2,3.9,44.3,0,39.8,0L39.8,0z M25.6,37.6H14.5V11.1h12c3.6,0,6.6,2.1,6.6,6c0,3-1.8,5.1-3.9,5.7
	l0,0c3.3,0.6,5.4,2.4,5.4,6.6C35,33.7,32.3,37.6,25.6,37.6L25.6,37.6z"/>
</svg>
