<?xml version="1.0" encoding="utf-8"?>
<!-- Generator: Adobe Illustrator 18.1.1, SVG Export Plug-In . SVG Version: 6.00 Build 0)  -->
<svg version="1.1" id="layer" xmlns="http://www.w3.org/2000/svg" xmlns:xlink="http://www.w3.org/1999/xlink" x="0px" y="0px"
	 viewBox="0 0 16 16" enable-background="new 0 0 16 16" xml:space="preserve">
<path fill="#FFFFFF" d="M13.1,0.2H2.9c-1.5,0-2.8,1.2-2.8,2.8v10.1c0,1.5,1.2,2.8,2.8,2.8h10.1c1.5,0,2.8-1.2,2.8-2.8V2.9
	C15.8,1.4,14.6,0.2,13.1,0.2L13.1,0.2z"/>
<path fill="#88181A" d="M8.9,8.9c-0.3-0.2-0.7-0.2-1-0.2H6.9v2.2h1c0.4,0,0.8,0,1.1-0.2c0.3-0.2,0.4-0.6,0.4-0.9
	C9.4,9.5,9.2,9.1,8.9,8.9L8.9,8.9z M8.5,7c0.2-0.2,0.4-0.5,0.4-0.8S8.7,5.6,8.5,5.4C8.2,5.2,7.7,5.3,7.3,5.3H6.8v1.9h0.6
	C7.8,7.2,8.2,7.2,8.5,7L8.5,7z M13.2,0H2.8C1.3,0,0,1.3,0,2.8v10.4C0,14.7,1.3,16,2.8,16h10.4c1.6,0,2.8-1.3,2.8-2.8V2.8
	C16,1.3,14.7,0,13.2,0L13.2,0z M8.5,12.5H4.8V3.7h4c1.2,0,2.2,0.7,2.2,2c0,1-0.6,1.7-1.3,1.9v0c1.1,0.2,1.8,0.8,1.8,2.2
	C11.6,11.2,10.7,12.5,8.5,12.5L8.5,12.5z"/>
</svg>
